<svg xmlns="http://www.w3.org/2000/svg" width="600" height="900"><path fill="#d26a65" d="M724.933 808.227c32.8 43.4 66.3 70.1 84.6 109.1s21.4 90.3 1 130.2-64.3 68.5-107.5 73.1c-43.3 4.6-85.9-14.8-139.2-25.3-53.3-10.6-117.2-12.3-152.3-44.5s-41.3-94.9-32.6-156.7c8.7-61.9 32.4-123 76.4-164.4 43.9-41.4 108.2-63.2 156.4-44 48.2 19.1 80.4 79.2 113.2 122.5M115.952-141.985c39.4 43 76.8 78.4 83.3 118.7 6.4 40.3-18.1 85.6-43.7 130.4-25.6 44.9-52.2 89.3-94.5 115.2-42.2 25.8-100 33-151.9 17.1s-97.9-54.9-107.4-100.7c-9.6-45.9 17.4-98.6 26.4-155.3 8.9-56.7-.1-117.5 24.5-163.2 24.6-45.6 82.9-76.2 132.7-66.1 49.9 10.1 91.2 60.8 130.6 103.9M752.104-164.4c42.4 22.1 80.8 62.3 83.3 104.7 2.6 42.4-30.7 87-57 138.6-26.3 51.7-45.5 110.3-79.8 119-34.2 8.6-83.5-32.7-128.3-60.3s-85.1-41.4-125.8-73.6c-40.7-32.1-81.7-82.7-80-131.4 1.7-48.8 46.2-95.8 95.5-116.6 49.2-20.8 103.2-15.4 153.3-10.9 50.2 4.6 96.5 8.5 138.8 30.5"/></svg>