<svg xmlns="http://www.w3.org/2000/svg" viewBox="0 0 500 500"><path d="M381.64 139.7a29.6 29.6 0 0 1 7.23-3.14l1.49-7.16 12.1-.21 1.74 7.1a29.6 29.6 0 0 1 7.35 2.89l6.11-4 8.71 8.41-3.79 6.25a29.5 29.5 0 0 1 3.14 7.23l7.16 1.49.21 12.1-7.1 1.74a29.8 29.8 0 0 1-2.89 7.34l4 6.12-8.41 8.7-6.25-3.79a29.7 29.7 0 0 1-7.23 3.15l-1.49 7.16-12.1.21-1.74-7.1a29.8 29.8 0 0 1-7.34-2.89l-6.12 4-8.71-8.41 3.79-6.25a29.6 29.6 0 0 1-3.14-7.23l-7.16-1.5-.2-12.09 7.1-1.75a30 30 0 0 1 2.89-7.34l-4-6.11 8.41-8.71 6.25 3.79Zm6.45 16.12a13 13 0 1 0 18.35-.32 13 13 0 0 0-18.35.32" style="fill:#e0e0e0"/><path d="M388.09 155.82a9.7 9.7 0 0 1 2.42-2.12 12.86 12.86 0 0 1 8.46-2 13.06 13.06 0 0 1 5.76 2 13.25 13.25 0 0 1 4.65 5.25 12.4 12.4 0 0 1 1.19 3.64 12.8 12.8 0 0 1 .07 4 13.27 13.27 0 0 1-11 11.35 12.8 12.8 0 0 1-4 .07A12.2 12.2 0 0 1 392 177a13.3 13.3 0 0 1-5.41-4.46 13.15 13.15 0 0 1-.54-14.22 9.9 9.9 0 0 1 2-2.49 31 31 0 0 0-1.79 2.64 13 13 0 0 0-1.43 8.31 12.7 12.7 0 0 0 7.41 9.6 12.76 12.76 0 0 0 7.28.89 12.6 12.6 0 0 0 10.36-10.73 12.85 12.85 0 0 0-1.15-7.24 12.7 12.7 0 0 0-9.86-7.07 12.9 12.9 0 0 0-8.25 1.73c-1.71 1.04-2.47 1.93-2.53 1.86" style="fill:#e0e0e0"/><path d="M381.64 139.7a3 3 0 0 1-.41-.21l-1.23-.69-4.68-2.8h.15l-8.35 8.75v-.23l4 6.09.07.11-.06.12a29.3 29.3 0 0 0-2.84 7.29v.15h-.14l-7.1 1.76.2-.26q.12 5.72.24 12.1l-.23-.28 7.16 1.47h.19l.05.18a29 29 0 0 0 3.12 7.15l.1.17-.1.17-3.78 6.32-.05-.41 8.71 8.4h-.43l6.11-4 .18-.11.19.1a29.2 29.2 0 0 0 7.25 2.85h.21l.06.21c.54 2.23 1.14 4.65 1.74 7.1l-.36-.27 12.1-.22-.36.29 1.49-7.16v-.22l.22-.06a29 29 0 0 0 7.13-3.1l.19-.12.2.12 6.25 3.79-.46.06 8.4-8.71v.46l-4-6.12-.13-.18.11-.19a29.4 29.4 0 0 0 2.86-7.25l.05-.22.21-.05 7.11-1.73-.27.35q-.11-6.19-.2-12.1l.27.33-7.16-1.5h-.2l-.05-.2a29.6 29.6 0 0 0-3.1-7.16l-.1-.16.1-.17 3.8-6.25v.39l-8.69-8.42h.36l-6.13 4-.13.09-.14-.08a29.7 29.7 0 0 0-7.27-2.88h-.15v-.14c-.63-2.59-1.19-4.91-1.72-7.11l.22.17-12.1.16.16-.14c-.62 2.86-1.12 5.2-1.54 7.15v.08h-.07a32 32 0 0 0-5.54 2.13l-1.3.68a3 3 0 0 1-.43.22l.4-.27c.28-.17.7-.43 1.28-.74a29 29 0 0 1 5.52-2.25l-.08.09c.39-1.95.86-4.3 1.44-7.17v-.13h.13l12.1-.26h.17l.05.17c.54 2.2 1.12 4.52 1.76 7.1l-.18-.18a30.3 30.3 0 0 1 7.42 2.89h-.28l6.1-4 .19-.12.17.16 8.72 8.38.18.17-.13.22-3.71 6.18v-.33A30.2 30.2 0 0 1 426 157l-.25-.23 7.16 1.48.27.05v.28q.12 5.89.23 12.1v.28l-.27.07-7.11 1.74.27-.26a30.2 30.2 0 0 1-2.92 7.43v-.38l4 6.12.16.24-.21.21-8.4 8.71-.2.22-.26-.16-6.25-3.79h.38a30.2 30.2 0 0 1-7.32 3.18l.26-.29-1.49 7.16-.06.29h-.3l-12.1.21h-.29l-.07-.28c-.6-2.45-1.19-4.88-1.73-7.11l.26.27a30.3 30.3 0 0 1-7.43-2.93h.37l-6.12 4-.23.15-.2-.19c-3-2.93-6-5.78-8.7-8.42l-.19-.18.14-.23 3.8-6.24v.33a30.1 30.1 0 0 1-3.17-7.32l.24.22-7.16-1.51h-.23v-.23l-.19-12.1v-.21l.2-.05 7.11-1.72-.18.18a30.3 30.3 0 0 1 2.94-7.39v.22l-4-6.13-.08-.12.11-.11 8.45-8.66.07-.07.08.05 4.6 2.87 1.19.75Z" style="fill:#e0e0e0"/><path d="M70.52 211.64a29.6 29.6 0 0 1 7.23-3.14l1.49-7.16 12.1-.22 1.74 7.11a29.4 29.4 0 0 1 7.34 2.89l6.12-4 8.71 8.4-3.8 6.25a29.4 29.4 0 0 1 3.15 7.23l7.16 1.49.21 12.1-7.1 1.74a29.8 29.8 0 0 1-2.89 7.34l4 6.12-8.41 8.7-6.25-3.79a29.7 29.7 0 0 1-7.23 3.15L92.61 273l-12.1.21-1.74-7.1a30 30 0 0 1-7.35-2.89l-6.11 4-8.71-8.41 3.79-6.25a29.5 29.5 0 0 1-3.14-7.24l-7.16-1.49-.21-12.1L57 230a30 30 0 0 1 2.89-7.34l-4-6.11 8.41-8.71 6.25 3.79ZM77 227.76a13 13 0 1 0 18.35-.32 13 13 0 0 0-18.35.32" style="fill:#f5f5f5"/><path d="M77 227.76a9.8 9.8 0 0 1 2.41-2.12 12.9 12.9 0 0 1 8.47-2 13.06 13.06 0 0 1 5.76 2 13.25 13.25 0 0 1 4.65 5.25 13.17 13.17 0 0 1 1.26 7.64 13.27 13.27 0 0 1-11 11.35 12.5 12.5 0 0 1-4 .06 12.2 12.2 0 0 1-3.68-1 13.25 13.25 0 0 1-5.41-4.47 13.13 13.13 0 0 1-.54-14.21 9.9 9.9 0 0 1 2-2.49 31 31 0 0 0-1.79 2.63 13 13 0 0 0-1.43 8.31 12.7 12.7 0 0 0 2.3 5.4 12.83 12.83 0 0 0 5.18 4.2 12.76 12.76 0 0 0 7.28.89 12.6 12.6 0 0 0 10.34-10.73 12 12 0 0 0-.06-3.78 11.8 11.8 0 0 0-1.09-3.46 12.7 12.7 0 0 0-4.38-5 12.55 12.55 0 0 0-5.48-2 12.9 12.9 0 0 0-8.25 1.73c-1.75 1.04-2.54 1.87-2.54 1.8" style="fill:#f5f5f5"/><path d="M70.52 211.64a3 3 0 0 1-.41-.21l-1.19-.69L64.2 208h.15L56 216.69v-.24l4 6.1.07.11-.06.12a29.3 29.3 0 0 0-2.84 7.29v.14h-.14L49.94 232l.2-.26q.12 5.72.24 12.1l-.23-.28 7.16 1.44h.18l.06.18a29 29 0 0 0 3.12 7.15l.1.17-.1.17c-1.17 1.94-2.47 4.07-3.78 6.25l-.06-.41 8.72 8.4h-.43l6.11-4 .18-.12.19.11a29.6 29.6 0 0 0 7.25 2.85l.21.05v.21c.55 2.22 1.15 4.65 1.75 7.1l-.36-.27 12.1-.22-.36.29 1.49-7.16v-.22l.21-.06a29.2 29.2 0 0 0 7.14-3.1l.19-.11.19.11 6.26 3.8-.46.05 8.4-8.7v.46l-4-6.12-.12-.18.11-.2a29.3 29.3 0 0 0 2.86-7.24v-.22l.21-.05 7.11-1.73-.27.35q-.11-6.19-.2-12.1l.27.33-7.16-1.5h-.2v-.2a29.6 29.6 0 0 0-3.1-7.16l-.1-.17.1-.16 3.8-6.25v.39l-8.69-8.43h.36l-6.13 4-.13.09-.15-.08a29.3 29.3 0 0 0-7.18-2.88h-.15v-.14c-.63-2.59-1.19-4.91-1.72-7.11l.22.17-12.1.15.16-.13c-.62 2.86-1.12 5.2-1.54 7.15v.07h-.06a31 31 0 0 0-5.54 2.13l-1.3.68a3 3 0 0 1-.43.22l.4-.27c.28-.17.7-.43 1.28-.74a29 29 0 0 1 5.52-2.25l-.08.09c.39-1.95.86-4.3 1.44-7.17v-.13h.13l12.1-.27h.17v.17c.54 2.2 1.12 4.52 1.76 7.1l-.18-.18a29.7 29.7 0 0 1 7.41 2.89h-.27l6.1-4 .19-.12.17.15c2.75 2.66 5.65 5.44 8.72 8.39l.18.17-.13.21c-1.23 2-2.48 4.12-3.78 6.26v-.33a30.2 30.2 0 0 1 3.19 7.31l-.25-.24 7.16 1.49.27.05v.28q.12 5.89.23 12.09v.29l-.27.06-7 1.72.27-.26a30.2 30.2 0 0 1-2.92 7.43v-.38l4 6.12.16.24-.21.21-8.4 8.71-.21.21-.25-.15-6.3-3.81h.38a29.8 29.8 0 0 1-7.32 3.18l.26-.28-1.46 7.18-.06.29h-.3l-12.1.2h-.29l-.07-.28c-.6-2.46-1.19-4.88-1.73-7.11l.26.27a30.7 30.7 0 0 1-7.43-2.93h.37l-6.12 4-.23.15-.2-.19-8.7-8.42-.19-.18.14-.23 3.8-6.25v.34a30.3 30.3 0 0 1-3.15-7.31l.24.21-7.24-1.5h-.23v-.23q-.11-6.37-.19-12.1v-.21l.2-.05 7.11-1.72-.18.17a30.2 30.2 0 0 1 2.94-7.38v.22l-4-6.13-.08-.13.11-.1 8.45-8.66.07-.07.08.05 4.6 2.87 1.19.75ZM404.15 73.59a21.7 21.7 0 0 1 5.24-2.28l1.08-5.19 8.77-.15 1.26 5.15a21.4 21.4 0 0 1 5.32 2.09l4.43-2.91 6.31 6.1-2.74 4.52a21.3 21.3 0 0 1 2.27 5.25l5.19 1.08.16 8.77-5.15 1.26a21.6 21.6 0 0 1-2.09 5.32l2.9 4.43-6.1 6.31-4.53-2.75a21.7 21.7 0 0 1-5.24 2.28l-1.08 5.19-8.77.15-1.26-5.15a21.4 21.4 0 0 1-5.32-2.09l-4.43 2.91-6.31-6.1 2.74-4.53a21.1 21.1 0 0 1-2.26-5.25l-5.19-1.08-.16-8.77 5.15-1.26a21.4 21.4 0 0 1 2.09-5.32l-2.9-4.43 6.09-6.31 4.53 2.75Zm4.67 11.68a9.41 9.41 0 1 0 13.31-.27 9.41 9.41 0 0 0-13.31.27" style="fill:#f5f5f5"/><path d="M408.82 85.27a7.4 7.4 0 0 1 1.76-1.54 9.49 9.49 0 0 1 10.3 0 9.7 9.7 0 0 1 3.38 3.8 9.8 9.8 0 0 1 .91 5.54 9.64 9.64 0 0 1-7.95 8.23 9 9 0 0 1-2.89 0 8.8 8.8 0 0 1-2.67-.76 9.7 9.7 0 0 1-3.92-3.24 9.56 9.56 0 0 1-1.63-4.11 9.4 9.4 0 0 1 1.24-6.19 7.3 7.3 0 0 1 1.47-1.8c.06 0-.56.62-1.29 1.91a9.36 9.36 0 0 0-1 6 9.25 9.25 0 0 0 5.37 7 8.5 8.5 0 0 0 2.54.7 8.4 8.4 0 0 0 2.74-.06 9.09 9.09 0 0 0 7.5-7.77 9.3 9.3 0 0 0-.83-5.25 9.21 9.21 0 0 0-7.14-5.12 9.35 9.35 0 0 0-6 1.25c-1.29.82-1.84 1.46-1.89 1.41" style="fill:#f5f5f5"/><path d="M404.15 73.59a1.4 1.4 0 0 1-.29-.15l-.87-.51-3.42-2h.11l-6.05 6.35v-.17l2.93 4.42.05.08-.05.08a21.8 21.8 0 0 0-2.06 5.28v.11h-.11l-5.14 1.28.14-.19c.06 2.76.12 5.69.18 8.77l-.17-.21 5.19 1.07h.13v.13a21.2 21.2 0 0 0 2.26 5.18l.08.12-.08.13-2.74 4.53v-.3l6.32 6.08h-.31c1.38-.91 2.89-1.91 4.43-2.91l.13-.09.13.08a21.4 21.4 0 0 0 5.26 2.06h.15v.15c.4 1.61.83 3.37 1.27 5.15l-.27-.2 8.77-.16-.26.21c.34-1.64.71-3.4 1.08-5.19v-.16h.15a21.2 21.2 0 0 0 5.18-2.25l.14-.08.14.08 4.53 2.75h-.33l6.09-6.31v.33l-2.84-4.39-.08-.13.07-.14a20.7 20.7 0 0 0 2.01-5.25v-.16h.16l5.15-1.25-.2.25c-.05-3-.1-5.92-.15-8.77l.2.24-5.16-1.12h-.14v-.14a21.3 21.3 0 0 0-2.24-5.18l-.08-.13.08-.12 2.75-4.52v.28l-6.3-6.11h.26l-4.44 2.89-.1.06-.1-.05a21.3 21.3 0 0 0-5.27-2.09h-.1v-.1c-.45-1.87-.86-3.56-1.24-5.15l.15.12-8.76.11.11-.09c-.44 2.07-.81 3.76-1.11 5.18h-.05a22 22 0 0 0-4 1.55l-1 .49a1.5 1.5 0 0 1-.31.16 2 2 0 0 1 .29-.2c.2-.12.51-.31.93-.53a20.7 20.7 0 0 1 4-1.63l-.06.06c.28-1.41.63-3.12 1-5.19v-.1h.1l8.77-.19h.12v.12c.39 1.59.81 3.27 1.27 5.14l-.12-.13a21.7 21.7 0 0 1 5.37 2.1h-.2L430 70.1l.14-.09.12.12 6.32 6.07.13.13-.1.15-2.61 4.57v-.25a22.5 22.5 0 0 1 2.31 5.3l-.19-.17 5.21 1.07h.2v.19c.05 2.86.11 5.78.16 8.77v.21h-.2l-5.15 1.26.19-.19a21.6 21.6 0 0 1-2.11 5.39v-.28l2.9 4.43.12.18-.15.15-6.09 6.31-.15.16-.18-.11-4.53-2.75h.27a21.8 21.8 0 0 1-5.3 2.31l.19-.21-1.08 5.19-.05.21h-.21l-8.77.15h-.21l-.05-.21c-.43-1.77-.86-3.53-1.26-5.14l.19.19a21.7 21.7 0 0 1-5.38-2.13h.32l-4.44 2.9-.16.11-.15-.14-6.3-6.1-.14-.14.1-.16 2.76-4.53v.25a22 22 0 0 1-2.3-5.31l.17.16-5.19-1.09h-.16v-.16c0-3.08-.09-6-.13-8.77V88h.15l5.15-1.25-.13.13a21.2 21.2 0 0 1 2.13-5.35v.16c-1-1.6-2-3.1-2.89-4.44l-.05-.1.07-.07 6.13-6.28h.1c1.45.9 2.57 1.59 3.34 2.08l.86.54a4 4 0 0 1 .23.17" style="fill:#f5f5f5"/><path d="M129.93 48.89a21.8 21.8 0 0 1 5.25-2.28l1.08-5.19 8.76-.15 1.27 5.15a21.3 21.3 0 0 1 5.32 2.09L156 45.6l6.31 6.09-2.75 4.53a21.8 21.8 0 0 1 2.28 5.25l5.19 1.08.15 8.77-5.15 1.26A21.7 21.7 0 0 1 160 77.9l2.9 4.43-6.09 6.31-4.53-2.75a21.7 21.7 0 0 1-5.28 2.28l-1.08 5.19-8.77.15-1.26-5.15a21.4 21.4 0 0 1-5.32-2.09l-4.43 2.9-6.31-6.09 2.75-4.53a21.5 21.5 0 0 1-2.28-5.24l-5.19-1.08-.11-8.77 5.14-1.26a21.4 21.4 0 0 1 2.1-5.32l-2.91-4.43 6.09-6.31 4.53 2.75Zm4.68 11.68a9.41 9.41 0 1 0 13.3-.24 9.4 9.4 0 0 0-13.3.24" style="fill:#e0e0e0"/><path d="M134.61 60.57a7.2 7.2 0 0 1 1.75-1.57 9.51 9.51 0 0 1 10.31 0 9.6 9.6 0 0 1 3.37 3.8 9.57 9.57 0 0 1 .96 5.6 9.59 9.59 0 0 1-8 8.22 9.67 9.67 0 0 1-5.57-.71 9.6 9.6 0 0 1-3.91-3.24 9.5 9.5 0 0 1-.4-10.3 7 7 0 0 1 1.48-1.8 22 22 0 0 0-1.29 1.91 9.36 9.36 0 0 0-1 6 9.06 9.06 0 0 0 1.61 3.91 9.3 9.3 0 0 0 3.76 3 8.6 8.6 0 0 0 2.53.7 8.4 8.4 0 0 0 2.74-.06 9.16 9.16 0 0 0 5-2.65 9.28 9.28 0 0 0 2.48-5.12 9 9 0 0 0 0-2.74 8.5 8.5 0 0 0-.8-2.51 9.21 9.21 0 0 0-7.18-5.01 9.37 9.37 0 0 0-6 1.25 21 21 0 0 0-1.84 1.32" style="fill:#e0e0e0"/><path d="m129.93 48.89-.29-.16-.87-.5-3.41-2h.1l-6 6.35v-.17c.88 1.34 1.87 2.82 2.92 4.42l.05.07v.09a20.9 20.9 0 0 0-2.06 5.28v.11h-.1L115 63.65l.15-.19c0 2.76.11 5.69.17 8.77l-.17-.21 5.19 1.07h.14v.13a21.6 21.6 0 0 0 2.27 5.18l.07.12-.07.12-2.74 4.54v-.3l6.32 6.12H126l4.43-2.9.13-.09.14.08a21.5 21.5 0 0 0 5.3 2.02h.16v.15c.4 1.61.83 3.37 1.27 5.15l-.26-.2 8.76-.16-.25.21 1.08-5.19v-.16h.16a21.3 21.3 0 0 0 5.17-2.25l.14-.08.14.08 4.53 2.75h-.33l6.09-6.31v.33l-2.9-4.43-.09-.13.08-.14a21.3 21.3 0 0 0 2.07-5.26v-.15h.15l5.15-1.25-.2.25c-.05-3-.09-5.92-.14-8.77l.2.24-5.19-1.09h-.15v-.14a21 21 0 0 0-2.24-5.18l-.07-.13.07-.12 2.75-4.52v.28l-6.3-6.11h.26l-4.44 2.89-.1.06h-.1a21 21 0 0 0-5.27-2.09h-.1v-.1c-.45-1.88-.86-3.56-1.24-5.15l.16.12-8.77.11.11-.09c-.44 2.07-.8 3.76-1.11 5.18h-.05a22 22 0 0 0-4 1.55l-.94.49-.32.16a1.7 1.7 0 0 1 .3-.2c.2-.12.5-.31.92-.53a20.7 20.7 0 0 1 4-1.63l-.06.06c.29-1.42.63-3.12 1-5.19v-.1h.09l8.77-.19h.13v.12c.39 1.59.81 3.27 1.28 5.14l-.13-.13a21.5 21.5 0 0 1 5.37 2.1h-.2l4.42-2.92.14-.09.12.12 6.32 6.07.13.13-.09.15-2.74 4.54v-.26a21.7 21.7 0 0 1 2.31 5.3l-.18-.17 5.19 1.07h.19v.2c.06 2.85.11 5.78.17 8.77v.21h-.2l-5.15 1.27.2-.19a22.1 22.1 0 0 1-2.03 5.44v-.28l2.91 4.43.11.18-.14.15-6.09 6.34-.15.16-.19-.11-4.53-2.75h.28a21.8 21.8 0 0 1-5.31 2.31l.19-.21-1.08 5.19v.21h-.22l-8.76.16H137l-.05-.21c-.44-1.77-.87-3.53-1.26-5.14l.19.19a21.7 21.7 0 0 1-5.38-2.13h.26l-4.43 2.9-.17.11-.14-.13-6.31-6.1-.13-.14.1-.16c.95-1.58 1.9-3.12 2.75-4.53v.24a21.3 21.3 0 0 1-2.29-5.3l.16.16-5.18-1.09h-.17v-.17c0-3.07-.09-6-.14-8.76v-.16h.15l5.12-1.36-.13.13a21.6 21.6 0 0 1 2.13-5.35V57c-1-1.6-2-3.1-2.88-4.44l-.06-.1.07-.07 6.13-6.28h.06l3.33 2.08.86.54a1.4 1.4 0 0 1 .34.16M361.88 76.2l-.95-3.87a16.8 16.8 0 0 1-4-1.57l-3.35 2.19-4.79-4.62 2.07-3.41a16.2 16.2 0 0 1-1.71-3.94l-3.92-.82-.11-6.64 3.87-1a16.8 16.8 0 0 1 1.57-4l-2.19-3.35 4.63-4.81 3.41 2.06a16.6 16.6 0 0 1 3.94-1.71l.82-3.92 6.65-.12.95 3.87a16.4 16.4 0 0 1 4 1.58l3.35-2.2 4.88 4.66-2.12 3.42a16.3 16.3 0 0 1 1.71 4l3.92.81.12 6.65-3.87 1a16.4 16.4 0 0 1-1.58 4l2.2 3.35-4.62 4.78-3.41-2.07a16.1 16.1 0 0 1-3.95 1.71l-.81 3.93Zm-4.95-5.52a16 16 0 0 0 4 1.57l.95 3.87 6.59-.11.81-3.92a16.5 16.5 0 0 0 4-1.72l3.4 2.06 4.58-4.73-2.19-3.35a15.7 15.7 0 0 0 1.58-4l3.87-1-.12-6.59-3.85-.76a16.1 16.1 0 0 0-1.72-4l2.06-3.4-4.74-4.6-3.34 2.2a16 16 0 0 0-4-1.58l-.94-3.87-6.59.12-.81 3.91a15.8 15.8 0 0 0-3.95 1.72L353 40.42l-4.58 4.74 2.19 3.34a15.8 15.8 0 0 0-1.57 4l-3.87 1 .11 6.58 3.92.81a16.8 16.8 0 0 0 1.72 4l-2.06 3.41 4.74 4.57Zm8.15-7.33a7.1 7.1 0 0 1-7.13-7 7 7 0 0 1 2-5.08 7.13 7.13 0 1 1 5.13 12.08m0-14.2a7.06 7.06 0 0 0-5.1 2.16 7.09 7.09 0 0 0 .18 10 7.08 7.08 0 1 0 4.92-12.17Z" style="fill:#e0e0e0"/><path d="M360 51.29a5.2 5.2 0 0 1 1.32-1.16 7.08 7.08 0 0 1 4.64-1.1 7.22 7.22 0 0 1 5.7 4 7 7 0 0 1 .64 2 6.6 6.6 0 0 1 0 2.18 7.25 7.25 0 0 1-6 6.22 7.2 7.2 0 0 1-4.2-.54 7.26 7.26 0 0 1-3-2.45 7.18 7.18 0 0 1-.3-7.78 5.2 5.2 0 0 1 1.2-1.37 16 16 0 0 0-1 1.44 7 7 0 0 0 .43 7.51 7 7 0 0 0 2.84 2.3 6.4 6.4 0 0 0 1.91.53 7 7 0 0 0 2.08 0 6.89 6.89 0 0 0 5.67-5.88 6.5 6.5 0 0 0 0-2.07 6.6 6.6 0 0 0-.6-1.89 7.05 7.05 0 0 0-2.4-2.76 7 7 0 0 0-3-1.11 7.07 7.07 0 0 0-4.52.94 17 17 0 0 0-1.41.99" style="fill:#ebebeb"/><path d="m356.43 42.46-.22-.11-.65-.38-2.56-1.53h.08l-4.58 4.8v-.13c.66 1 1.41 2.13 2.2 3.34v.12a16.3 16.3 0 0 0-1.56 4v.08h-.08l-3.88 1 .11-.15q.06 3.14.13 6.63l-.13-.16 3.92.81h.1v.1a16.3 16.3 0 0 0 1.69 3.91l.06.09-.06.12-2 3.39v-.22l4.77 4.6h-.23l3.34-2.19.1-.07.1.06a16.2 16.2 0 0 0 4 1.56h.11v.11l1 3.89-.2-.15 6.62-.12-.19.16c.26-1.24.53-2.57.81-3.92v-.12h.12a16.3 16.3 0 0 0 3.91-1.7l.11-.07.1.07 3.42 2.07h-.25l4.6-4.76v.25L379 64.49l-.07-.1.06-.11a15.8 15.8 0 0 0 1.56-4v-.11h.12l3.89-1-.15.19c0-2.26-.07-4.47-.11-6.62l.15.18-3.92-.82h-.11V52a15.6 15.6 0 0 0-1.69-3.92l-.06-.09.06-.1 2.08-3.41v.21l-4.75-4.62h.19l-3.35 2.19-.08.05-.07-.05a16.6 16.6 0 0 0-4-1.58h-.08v-.07l-.94-3.9.12.1-6.63.08.09-.07c-.34 1.56-.61 2.85-.84 3.92a17 17 0 0 0-3 1.16l-.71.37-.24.12.22-.15.7-.4a15.5 15.5 0 0 1 3-1.23h-.05c.22-1.07.48-2.36.79-3.93v-.07h.07l6.62-.14h.1v.1l1 3.88-.1-.1a16.7 16.7 0 0 1 4.06 1.59h-.15l3.34-2.2.1-.07.09.09 4.69 4.7.1.1-.07.11L379 48.1v-.18a16.3 16.3 0 0 1 1.74 4l-.13-.13 3.92.81h.14v.15q.06 3.22.12 6.62v.16h-.15l-3.89.95.15-.14a16.7 16.7 0 0 1-1.6 4.07v-.21l2.2 3.35.09.13-.12.12-4.6 4.77-.11.11-.14-.08-3.42-2.08h.21a17 17 0 0 1-4 1.74l.14-.16c-.28 1.35-.56 2.69-.81 3.92v.16h-.16l-6.62.12h-.16v-.15c-.33-1.35-.65-2.68-.95-3.89l.14.14a16.3 16.3 0 0 1-4.06-1.6h.2l-3.35 2.19-.13.08-.11-.1-4.76-4.61-.1-.1.07-.12c.73-1.19 1.44-2.36 2.08-3.42V65a16.2 16.2 0 0 1-1.83-4l.13.12-3.92-.82h-.13v-.2c0-2.32-.07-4.54-.1-6.62v-.12h.11l3.89-.94-.1.1a16.6 16.6 0 0 1 1.61-4v.12l-2.18-3.36v-.07l.06-.06 4.63-4.81 2.53 1.57.64.41Z" style="fill:#ebebeb"/><path d="m53.42 195.72-1-3.87a16.4 16.4 0 0 1-4-1.58l-3.35 2.2-4.78-4.62 2.07-3.41a15.9 15.9 0 0 1-1.71-3.94l-3.93-.81-.07-6.69 3.87-.95a16.8 16.8 0 0 1 1.57-4l-2.19-3.35 4.62-4.78L48 162a16.6 16.6 0 0 1 3.94-1.71l.82-3.93 6.64-.11 1 3.87a16.8 16.8 0 0 1 4 1.57l3.35-2.19 4.78 4.62-2.06 3.41a16.6 16.6 0 0 1 1.71 3.94l3.92.82.12 6.65-3.87 1a16.4 16.4 0 0 1-1.58 4l2.2 3.35-4.7 4.71-3.43-2a16.3 16.3 0 0 1-3.94 1.71l-.81 3.92Zm-5-5.52a16 16 0 0 0 4 1.58l1 3.87 6.59-.11.81-3.92a16.1 16.1 0 0 0 3.95-1.71l3.4 2.06 4.58-4.74-2.19-3.34a15.7 15.7 0 0 0 1.58-4l3.87-.94-.01-6.63-3.91-.81a16.1 16.1 0 0 0-1.71-4l2.06-3.41-4.74-4.57-3.34 2.19a15.7 15.7 0 0 0-4-1.58l-.94-3.87-6.59.11-.83 3.9a16.5 16.5 0 0 0-4 1.72l-3.41-2.06-4.59 4.74 2.17 3.32a15.7 15.7 0 0 0-1.58 4l-3.89 1 .11 6.59 3.92.81a16.5 16.5 0 0 0 1.72 3.95l-2.06 3.4 4.74 4.58Zm8.15-7.33a7.12 7.12 0 0 1-7.13-7 7 7 0 0 1 2-5.08 7.13 7.13 0 1 1 5.13 12.08m0-14.21h-.13a7.24 7.24 0 1 0 .13 0" style="fill:#e0e0e0"/><path d="M51.51 170.81a5.3 5.3 0 0 1 1.32-1.17 7.1 7.1 0 0 1 4.64-1.09 7.2 7.2 0 0 1 3.15 1.12 7.37 7.37 0 0 1 2.55 2.87 7 7 0 0 1 .64 2 6.7 6.7 0 0 1 0 2.19 7.25 7.25 0 0 1-6 6.22 7.4 7.4 0 0 1-4.2-.54 7.2 7.2 0 0 1-3-2.45 7.18 7.18 0 0 1-.3-7.78 5.2 5.2 0 0 1 1.12-1.36 14 14 0 0 0-1 1.44 7 7 0 0 0 3.27 9.8 6.5 6.5 0 0 0 1.91.54 6.6 6.6 0 0 0 2.08-.05 6.87 6.87 0 0 0 5.67-5.87 6.5 6.5 0 0 0 0-2.07 6.7 6.7 0 0 0-.6-1.9 7 7 0 0 0-5.4-3.87 7.13 7.13 0 0 0-4.52.95 15 15 0 0 0-1.33 1.02" style="fill:#ebebeb"/><path d="M48 162a1 1 0 0 1-.22-.12l-.65-.37-2.61-1.51h.08l-4.6 4.74v-.12c.66 1 1.41 2.13 2.2 3.33v.13a16.3 16.3 0 0 0-1.56 4v.08h-.08l-3.88 1 .11-.14q.06 3.13.13 6.62l-.13-.15 3.92.81h.1v.1a16 16 0 0 0 1.71 3.91l.06.09-.06.1-2.07 3.42v-.22l4.77 4.59h-.23l3.34-2.2.1-.06.1.06a16.2 16.2 0 0 0 4 1.55h.11v.12l1 3.89-.2-.15 6.62-.12-.19.16c.26-1.24.53-2.58.81-3.92v-.12h.12a16.7 16.7 0 0 0 3.91-1.69l.11-.06.1.06 3.42 2.08h-.25l4.6-4.76v.25L70.51 184l-.07-.1.06-.11a15.8 15.8 0 0 0 1.56-4v-.11h.12l3.89-.95-.15.19c0-2.26-.07-4.47-.11-6.63l.15.18-3.92-.82h-.11v-.11a16 16 0 0 0-1.69-3.92l-.06-.09.06-.09 2.08-3.44v.21l-4.75-4.61h.19l-3.35 2.19h-.15a16.2 16.2 0 0 0-4-1.58h-.08v-.08l-.94-3.89.12.09-6.63.09.09-.07c-.34 1.56-.61 2.84-.84 3.91a16.4 16.4 0 0 0-3 1.17l-.71.37a1 1 0 0 1-.27.2l.22-.15.7-.4a15.5 15.5 0 0 1 3-1.23l-.05.05c.22-1.08.48-2.36.79-3.93v-.07h.07l6.62-.15h.1v.09l1 3.89-.1-.1a16.3 16.3 0 0 1 4.06 1.59h-.15l3.34-2.2.1-.07.09.09 4.79 4.59.1.09-.07.12-2.07 3.42v-.18a16.4 16.4 0 0 1 1.74 4l-.13-.13 3.92.81h.14v.15q.06 3.22.12 6.62v.16h-.15l-3.89 1 .15-.14a16.8 16.8 0 0 1-1.6 4.07v-.21c.73 1.1 1.46 2.22 2.2 3.35l.09.13-.12.12-4.6 4.76-.11.12-.14-.08-3.42-2.08H65a16.2 16.2 0 0 1-4 1.74l.14-.15c-.28 1.35-.56 2.68-.81 3.92v.16h-.16l-6.62.12h-.16v-.16c-.33-1.34-.65-2.67-1-3.89l.14.15a16.3 16.3 0 0 1-4.06-1.61h.2l-3.35 2.19-.13.08-.11-.1-4.85-4.55-.1-.1.07-.13 2.08-3.42v.19a16.2 16.2 0 0 1-1.73-4l.13.12-3.92-.83h-.13v-.13c0-2.32-.07-4.54-.1-6.62v-.12h.11l3.89-.94-.1.1A16.5 16.5 0 0 1 42 168v.13l-2.18-3.36v-.13l4.63-4.74 2.53 1.57.64.41a1.8 1.8 0 0 1 .38.12" style="fill:#ebebeb"/><path d="M349.26 387.84a32.1 32.1 0 0 0-13.71-4.72c-2.24-.23-4.69-.16-6.49 1.19a1.33 1.33 0 0 0-.66 1.19 1.46 1.46 0 0 0 .63.81 19.62 19.62 0 0 0 20.23 1.53M348.91 387.45a67 67 0 0 1-8.86-7.79 22.43 22.43 0 0 1-5.55-10.27 4.12 4.12 0 0 1 .44-3.43c7.06 5.51 12.61 12.64 14 21.49" style="fill:#e0e0e0"/><path d="M349.19 387.79a32.2 32.2 0 0 1 .16-11.63 15.72 15.72 0 0 1 6.2-9.6c1.22 2.86.69 6.14-.17 9.12a44.3 44.3 0 0 1-6.14 12.93M356.11 400.19c-4.2.51-7.86 2.72-11 5.56a20.9 20.9 0 0 0-6.29 10.8c4.12-.25 7.62-3.16 10.15-6.42s4.3-6.83 7.08-9.88M357.61 402.17a27.12 27.12 0 0 1 3.13-25.65c2.4 8.51 1.52 18.13-3.13 25.65M366.76 413.06A19.65 19.65 0 0 0 348 423.85c-.23.47-.43 1.06-.12 1.47a1.39 1.39 0 0 0 1.24.37c3.7-.24 7-2.46 9.68-5s5.05-5.45 8-7.64M366.46 412.47a35 35 0 0 1-.34-19.51c.68-2.51 1.84-5.16 4.16-6.34a.82.82 0 0 1 .64-.11.9.9 0 0 1 .4.47 11.75 11.75 0 0 1 1 5.6 34 34 0 0 1-.88 5.66c-.73 3.46-1.12 7.19-3 10.17a21 21 0 0 0-1.2 2.24c-.36.76-.37 1-.7 1.63M390.67 416.07c-1.79-6.82.11-15.09 4.41-20.68.31-.41.73-.85 1.25-.81.79.08 1 1.13 1 1.93a37.3 37.3 0 0 1-6.62 19.56M392.85 417.56a30.08 30.08 0 0 0 24.69-5 20 20 0 0 0-13.37-1.64c-4.46 1-8.54 3-11.32 6.66M394.69 413c4.64-7.57 13.54-12.5 22.41-12.95-1 3.6-4 6.4-7.33 8.1a40.6 40.6 0 0 1-10.77 3.16c-1.43.28-3.39.59-4.32 1.71M391.13 391a65 65 0 0 0 2.87-13.14 21.9 21.9 0 0 0-2.62-13c-4.33 8.39-4.77 18.19-.38 26.55M405.73 383.61c5.07-9.22 15.41-16.58 25.88-17.61-4 10.05-15.05 17.82-25.88 17.61M402.54 385.41c7.56 1.15 14 6 21.07 8.91a9.4 9.4 0 0 0 4.76.91 3.72 3.72 0 0 0 2.33-6.59 10.1 10.1 0 0 0-3.46-2.1c-7.69-3.21-15.95-3.29-24.05-1.34" style="fill:#e0e0e0"/><path d="M398.16 390.71c1.71.49 2.3 1.38 3.65 2.54a39.4 39.4 0 0 0 16 8.2c.61.15 1.41.22 1.71-.34s-.07-1.06-.41-1.49a22 22 0 0 0-9.65-6.55c-3.68-1.37-6.88-3-11.28-2.67M393.22 358.68a30.24 30.24 0 0 0 23.19 7.89 1.56 1.56 0 0 0 1-.38c.58-.63-.12-1.61-.8-2.14-6.81-5.32-15.07-7.52-23.44-5.37" style="fill:#e0e0e0"/><path d="M399.08 356.54a32.31 32.31 0 0 1 28.92-4.77 22.94 22.94 0 0 1-13.78 6.05 43.5 43.5 0 0 1-15.14-1.28M396.75 341.82c-.67-6.8-.23-12.17-.71-19 0-.55-.15-1.21-.66-1.4-.71-.28-1.31.6-1.54 1.32a21.76 21.76 0 0 0 2.9 18.93" style="fill:#e0e0e0"/><path d="M396.26 342.58a40.1 40.1 0 0 0 11.27-11c2.23-3 4.1-6.69 3.6-10.43a10.77 10.77 0 0 0-8.13 4 22.8 22.8 0 0 0-4.15 8.33c-.9 3-1.53 6.07-2.59 9M407.33 339.5a91 91 0 0 0 27.74-16.35c-3.32-1.34-7.11-.54-10.42.8a32.8 32.8 0 0 0-17.46 15.48M399.37 346.3a56.3 56.3 0 0 0 15.4.07c5-.83 9.71-2.81 14.38-4.77a1.7 1.7 0 0 0 1-.75 1.15 1.15 0 0 0-.35-1.23 3 3 0 0 0-1.23-.57c-5.07-1.42-10.55-.76-15.54.93a72 72 0 0 0-13.64 6.32M370.14 358.92c-3.49-7.05-3.26-15.28-.25-22.55 2.13 3.24 2.39 7.36 2 11.21s-1.56 7.82-1.64 11.69M356.19 351.88a31.47 31.47 0 0 0-23.37 9.95 21.8 21.8 0 0 0 12.8-2.37 64 64 0 0 0 11-7.34M346.81 348.74c-4.27-.34-8.37-.87-12.47.39a14.92 14.92 0 0 0-9.51 8.06 22.5 22.5 0 0 0 11.69-2.19 66.7 66.7 0 0 0 10.29-6.24M360.7 348.89c-3.84-2.52-7.78-5.08-12.25-6.12s-9.65-.27-12.76 3.09c3.61 2.13 8 2.38 12.2 2.38s9.33-.06 13.29 1.34" style="fill:#e0e0e0"/><path d="M360.72 349.09c-6.56-6.44-9.05-18-6.41-26.83a40.87 40.87 0 0 1 6.41 26.83M378.76 330.83c1.24-2.83 2.11-5.89 3.24-8.83a25.2 25.2 0 0 1 4.59-8.13 12.1 12.1 0 0 1 8.12-4.22 32.68 32.68 0 0 1-15.77 21.22M375.5 334.64c-2.05-2.82-4.42-6.65-7.19-8.75s-6.4-3.38-9.78-2.57a22.78 22.78 0 0 0 17 11.32M376.15 331.07a49.3 49.3 0 0 1-3.24-10.48 16.4 16.4 0 0 1 1.64-10.66c3.61 6.81 4.77 14.11 1.78 21.22M378.8 309.93c2-6.75 8.22-11.72 14.89-14a5.46 5.46 0 0 1 2.61-.39 2.25 2.25 0 0 1 1.92 1.6c.25 1.15-.7 2.18-1.59 2.94a50.7 50.7 0 0 1-17.83 9.85M378.87 304.41c.26-4.35.53-8.77 1.94-12.89s4.15-8 8.12-9.8c.67 4.4-1.27 8.77-3.61 12.55s-5.15 7.36-6.56 11.57M378.76 307.4c-1.68-4.91-1.86-11.16-4.8-15.45-2.06-3-5.36-5-7.13-8.2a12.47 12.47 0 0 0 .41 9.31 26.8 26.8 0 0 0 5.45 7.8c2.18 2.33 4.05 4.08 6.07 6.54" style="fill:#e0e0e0"/><path d="M378.8 452.25c-.14 0-.25-32.81-.26-73.28s.09-73.28.22-73.28.25 32.8.26 73.28-.09 73.28-.22 73.28" style="fill:#e0e0e0"/><path d="M407.47 354a7.4 7.4 0 0 1-1.24.46l-3.39 1.14c-2.86 1-6.8 2.39-11.06 4.14S383.56 363 381.3 365a7.6 7.6 0 0 0-2.11 2.79c-.33.77-.38 1.24-.43 1.23a1.1 1.1 0 0 1 0-.34 4.5 4.5 0 0 1 .24-1 7.4 7.4 0 0 1 2.05-3 18.4 18.4 0 0 1 4.55-2.82c1.82-.85 3.84-1.74 6-2.62 4.28-1.75 8.24-3.12 11.14-4 1.44-.46 2.62-.79 3.44-1a6.2 6.2 0 0 1 1.29-.24" style="fill:#e0e0e0"/><path d="M416.87 330.88a2.2 2.2 0 0 1-.35.37l-1 1-3.93 3.57-13.08 11.65c-5.11 4.54-9.52 8.89-12.58 12.16-1.53 1.63-2.74 3-3.56 3.93l-.95 1.08a1.9 1.9 0 0 1-.36.36 3 3 0 0 1 .28-.42c.2-.26.49-.65.89-1.14.78-1 1.95-2.37 3.45-4a165 165 0 0 1 12.51-12.29c5.12-4.53 9.79-8.61 13.18-11.54l4-3.46 1.11-.92a2.2 2.2 0 0 1 .39-.35" style="fill:#e0e0e0"/><path d="M392.94 352.08c-.13-.06.94-2.52 2-5.64s1.58-5.74 1.71-5.72a19.1 19.1 0 0 1-1.26 5.87 41 41 0 0 1-1.59 4 6.1 6.1 0 0 1-.86 1.49M378.83 371.94a5.7 5.7 0 0 1-.83-.94l-2-2.59c-1.69-2.19-4-5.21-6.66-8.52s-5-6.27-6.78-8.42c-.82-1-1.52-1.87-2.06-2.55a5.4 5.4 0 0 1-.71-1 6.5 6.5 0 0 1 .85.85c.52.57 1.27 1.41 2.18 2.46 1.81 2.09 4.27 5 6.9 8.34s4.92 6.37 6.55 8.61c.81 1.12 1.46 2 1.9 2.68a7 7 0 0 1 .66 1.08" style="fill:#e0e0e0"/><path d="M372.54 363.87a11.56 11.56 0 0 1-2.64-4.93 14.2 14.2 0 0 1-.59-5h.21a1.7 1.7 0 0 1-.2.58s0-.22 0-.61h.21a22.2 22.2 0 0 0 .84 4.83 37.6 37.6 0 0 0 2.17 5.13M364.42 353.66a8 8 0 0 0-1.84-1.07 12.25 12.25 0 0 0-5.1-.41 31.4 31.4 0 0 0-5.14.83 14 14 0 0 1-2.12.51 7.6 7.6 0 0 1 2-.83 23 23 0 0 1 5.19-1 11.1 11.1 0 0 1 5.27.57 3.24 3.24 0 0 1 1.74 1.4M362.5 351.18c0 .08-1.07-.43-2.82-1a28.23 28.23 0 0 0-14.2-1.08c-1.81.32-2.91.66-2.94.58a3 3 0 0 1 .75-.32 17 17 0 0 1 2.13-.59 25.06 25.06 0 0 1 14.37 1.09 17 17 0 0 1 2 .92 2.6 2.6 0 0 1 .71.4M378.76 340.72a61 61 0 0 1-2.05-7.14 60 60 0 0 1-1.6-7.25 57 57 0 0 1 2.06 7.14 59 59 0 0 1 1.59 7.25" style="fill:#e0e0e0"/><path d="M378.89 340.72a34 34 0 0 0-2.27-4.27 19 19 0 0 0-3.36-3.46 3 3 0 0 1 1.3.67 10.3 10.3 0 0 1 2.44 2.51 9.36 9.36 0 0 1 1.89 4.55M378.8 434.76c-.06 0-.15-.79-.52-2.18a32 32 0 0 0-2.19-5.68 78.8 78.8 0 0 0-11.64-16.39c-2.6-3-5.12-5.77-7.25-8.45a58 58 0 0 1-5.19-7.48 36.3 36.3 0 0 1-2.62-5.55 27 27 0 0 1-.52-1.59 2.4 2.4 0 0 1-.13-.57s.28.75.82 2.09a40.4 40.4 0 0 0 2.74 5.45 62.4 62.4 0 0 0 5.24 7.38c2.14 2.65 4.67 5.43 7.27 8.41 5.25 5.9 9.37 11.84 11.58 16.55a29 29 0 0 1 2.07 5.78c.15.72.25 1.27.29 1.65a5 5 0 0 1 .05.58" style="fill:#e0e0e0"/><path d="M404.71 405.5s-.49.28-1.36.76a29 29 0 0 0-3.52 2.33 40 40 0 0 0-4.63 4.21c-1.62 1.72-3.3 3.71-5 5.85-3.42 4.28-6.61 8.07-8.52 11.09-1 1.5-1.68 2.77-2.14 3.65a11.5 11.5 0 0 1-.74 1.37s0-.14.12-.38.24-.62.46-1.07a35 35 0 0 1 2-3.75 120 120 0 0 1 8.43-11.21c1.71-2.14 3.4-4.13 5.05-5.85a38 38 0 0 1 4.74-4.18 25 25 0 0 1 3.64-2.23c.45-.22.82-.36 1.06-.47s.4-.14.41-.12" style="fill:#e0e0e0"/><path d="M405.21 415a20 20 0 0 1-2.87.42 36.6 36.6 0 0 0-6.8 1.34 20.3 20.3 0 0 0-6.1 3.2c-1.4 1.08-2.07 2-2.13 1.93s.11-.26.42-.66a10.4 10.4 0 0 1 1.5-1.53 18.3 18.3 0 0 1 6.16-3.39 31 31 0 0 1 6.92-1.23 15.7 15.7 0 0 1 2.9-.08" style="fill:#e0e0e0"/><path d="M388.15 420.83c-.15-.08 1.14-2.06 2.14-4.71s1.16-5 1.33-5a4.7 4.7 0 0 1 0 1.54 17 17 0 0 1-.84 3.63 17.2 17.2 0 0 1-1.67 3.32 4.6 4.6 0 0 1-.96 1.22M413.1 380a3 3 0 0 1-.46.24l-1.35.61c-.59.26-1.31.58-2.12 1s-1.75.85-2.74 1.45l-1.57.89c-.54.31-1.08.68-1.65 1-1.15.7-2.31 1.56-3.54 2.44A60.8 60.8 0 0 0 386 401.81c-.84 1.26-1.66 2.45-2.33 3.62-.33.59-.69 1.14-1 1.69l-.84 1.6c-.55 1-.95 2-1.34 2.79s-.7 1.55-.93 2.14L379 415a2.5 2.5 0 0 1-.22.47 1.8 1.8 0 0 1 .13-.5l.49-1.4c.21-.61.48-1.35.86-2.19s.74-1.81 1.29-2.84l.81-1.61c.29-.57.63-1.12 1-1.72.65-1.19 1.46-2.39 2.3-3.67a58.6 58.6 0 0 1 13.75-14.23c1.25-.88 2.42-1.74 3.59-2.43.58-.35 1.13-.71 1.68-1l1.59-.87c1-.58 2-1 2.79-1.38a23 23 0 0 1 2.16-.94l1.38-.53a2 2 0 0 1 .5-.16" style="fill:#e0e0e0"/><path d="M392.59 393.75a3.3 3.3 0 0 1 1.13-1.68 7.1 7.1 0 0 1 4.54-1.75 12.4 12.4 0 0 1 4.78.94 6.5 6.5 0 0 1 1.81.88 12 12 0 0 1-1.92-.57 14.6 14.6 0 0 0-4.65-.77 7.34 7.34 0 0 0-4.34 1.52 13.6 13.6 0 0 0-1.35 1.43M389.53 396.91a17.4 17.4 0 0 0 1.29-4.2 17.6 17.6 0 0 0-.29-4.38 2.76 2.76 0 0 1 .53 1.22 8.8 8.8 0 0 1 .23 3.22 8.6 8.6 0 0 1-1 3.07c-.36.73-.72 1.1-.76 1.07M356.13 439.46c.71 12.54 4.49 25.29 10.3 38.19h25.28c5.54-12.77 9.06-25.5 9.68-38.19Z" style="fill:#e0e0e0"/><path d="M397.29 459.75c0 .13-8.32.24-18.58.24s-18.59-.11-18.59-.24 8.32-.23 18.59-.23 18.58.1 18.58.23M396.73 464.3c0 .13-7.8.23-17.42.23s-17.43-.1-17.43-.23 7.8-.24 17.43-.24 17.42.1 17.42.24M366.84 447.7a70.7 70.7 0 0 1 0 11.64 70.7 70.7 0 0 1 0-11.64" style="fill:#fafafa"/><path d="M380.38 447.7a76 76 0 0 1 0 12.05 76 76 0 0 1 0-12.05M393.09 447.59a79 79 0 0 1 0 12.3 82 82 0 0 1 0-12.3" style="fill:#fafafa"/><path d="M400.59 447.7c0 .13-9.76.23-21.8.23s-21.8-.1-21.8-.23 9.76-.24 21.8-.24 21.8.1 21.8.24" style="fill:#fafafa"/><path d="M193 142.33a72.5 72.5 0 0 1 15.94-11l.17-18 29.06-6.3 7.6 16.3a72.7 72.7 0 0 1 19.08 3.45l12.83-12.59 25 16.1-6.15 16.89a72.5 72.5 0 0 1 11 15.94l18 .17 6.3 29.06-16.29 7.6a72.7 72.7 0 0 1-3.48 19.05l12.58 12.83-16.09 25-16.89-6.15a73 73 0 0 1-15.94 11l-.17 18-29.07 6.32-7.59-16.29a73 73 0 0 1-19.08-3.45L207 278.85l-25-16.1 6.15-16.88a73 73 0 0 1-11-15.94l-18-.17-6.3-29.07 16.3-7.6a72.7 72.7 0 0 1 3.4-19.09L160 161.19l16.1-25zm16.23 32.86a39.39 39.39 0 1 0 54.44-11.8 39.39 39.39 0 0 0-54.49 11.8Z" style="fill:#e0e0e0"/><path d="M193 142.33a72.5 72.5 0 0 1 15.94-11l.17-18 29.06-6.3 7.6 16.3a72.7 72.7 0 0 1 19.08 3.45l12.83-12.59 25 16.1-6.15 16.89a72.5 72.5 0 0 1 11 15.94l18 .17 6.3 29.06-16.29 7.6a72.7 72.7 0 0 1-3.48 19.05l12.58 12.83-16.09 25-16.89-6.15a73 73 0 0 1-15.94 11l-.17 18-29.07 6.32-7.59-16.29a73 73 0 0 1-19.08-3.45L207 278.85l-25-16.1 6.15-16.88a73 73 0 0 1-11-15.94l-18-.17-6.3-29.07 16.3-7.6a72.7 72.7 0 0 1 3.4-19.09L160 161.19l16.1-25zm16.23 32.86a39.39 39.39 0 1 0 54.44-11.8 39.39 39.39 0 0 0-54.49 11.8Z" style="fill:none"/><path d="m209.18 175.19.35-.53c.26-.36.61-.88 1.08-1.54l.79-1.13c.32-.41.7-.81 1.09-1.27l1.28-1.47a22 22 0 0 1 1.59-1.55 37.2 37.2 0 0 1 9.33-6.54 39.4 39.4 0 0 1 14.51-4.06l2.13-.15h2.18c.74 0 1.48 0 2.23.1l2.26.27 1.15.15 1.14.25 2.31.52c.78.2 1.53.49 2.31.73a20 20 0 0 1 2.31.84 36 36 0 0 1 4.53 2.21c.73.43 1.5.83 2.22 1.31l2.14 1.52c.35.27.73.5 1.07.79l1 .88c.66.6 1.36 1.17 2 1.81a41 41 0 0 1 3.61 4.15 43 43 0 0 1 3.13 4.71c.45.83.84 1.71 1.28 2.57.2.44.44.86.61 1.32l.51 1.36a44 44 0 0 1 1.72 5.65 45 45 0 0 1 .78 6l.11 1.52v3.06a11 11 0 0 1-.11 1.54c-.13 1-.26 2-.38 3.08l-.69 3.05a39.25 39.25 0 0 1-13.54 21l-2.5 1.89-2.71 1.66-.66.4-.7.34-1.38.67-1.38.67-1.42.53a45 45 0 0 1-5.76 1.75 45 45 0 0 1-5.85.78l-1.46.1h-1.45c-1 0-1.92 0-2.87-.1a42 42 0 0 1-5.57-.89 43 43 0 0 1-5.28-1.57c-.85-.33-1.66-.73-2.48-1.09l-1.22-.54c-.4-.19-.77-.44-1.16-.65L221.1 230c-.74-.46-1.41-1-2.11-1.49a36 36 0 0 1-3.89-3.2 20 20 0 0 1-1.72-1.76c-.54-.61-1.12-1.17-1.62-1.8l-1.43-1.89-.7-.93-.61-1c-.4-.65-.79-1.3-1.19-1.94s-.67-1.34-1-2-.65-1.31-.94-2-.49-1.34-.74-2a39.4 39.4 0 0 1-2.31-14.89 37.5 37.5 0 0 1 2.09-11.2c.27-.73.44-1.46.75-2.09l.81-1.77c.26-.55.47-1.06.71-1.51s.49-.84.7-1.2l1-1.61c.22-.36.34-.54.34-.54s-.09.2-.29.57-.52.93-.91 1.64l-.68 1.2c-.23.45-.43 1-.68 1.52l-.78 1.77a22 22 0 0 0-.73 2.09 37.8 37.8 0 0 0-2 11.14 39.1 39.1 0 0 0 2.37 14.75l.74 2c.29.65.62 1.29.94 2s.6 1.34 1 2 .78 1.28 1.18 1.92l.6 1 .7.92c.47.62 1 1.24 1.42 1.87s1.07 1.17 1.61 1.77a20 20 0 0 0 1.7 1.73 36 36 0 0 0 3.86 3.16c.69.49 1.36 1 2.09 1.47l2.25 1.29c.38.21.75.45 1.15.64l1.22.37c.81.35 1.61.75 2.44 1.07a43 43 0 0 0 5.22 1.54 40 40 0 0 0 5.51.87c.94.08 1.89.06 2.84.1h1.43l1.44-.1a44 44 0 0 0 5.77-.77 43 43 0 0 0 5.68-1.74l1.41-.53 1.36-.65 1.37-.67.68-.33.65-.39 2.61-1.61 2.46-1.86a38.68 38.68 0 0 0 13.37-20.76c.23-1 .45-2 .68-3s.25-2 .37-3a9.6 9.6 0 0 0 .11-1.51v-3.03l-.11-1.5a44 44 0 0 0-.77-5.89 43 43 0 0 0-1.69-5.57l-.5-1.35c-.16-.45-.4-.87-.6-1.3-.43-.85-.81-1.72-1.26-2.54a41 41 0 0 0-3.08-4.65 42 42 0 0 0-3.56-4.12c-.64-.63-1.33-1.19-2-1.78l-1-.88c-.34-.28-.71-.52-1.06-.78-.7-.51-1.41-1-2.1-1.52s-1.48-.86-2.2-1.29a34 34 0 0 0-4.48-2.2 20 20 0 0 0-2.28-.84c-.77-.24-1.51-.53-2.28-.73l-2.28-.51-1.13-.26-1.14-.15-2.24-.28c-.73-.11-1.48-.07-2.2-.11s-1.45-.05-2.16 0l-2.11.14a39.2 39.2 0 0 0-14.41 3.95 37.4 37.4 0 0 0-9.32 6.43 22 22 0 0 0-1.6 1.52l-1.29 1.45c-.4.45-.79.85-1.1 1.25l-.82 1.11-1.11 1.51a6 6 0 0 1-.34.45" style="fill:#263238"/><path d="m193 142.33-1.08-.38-3.22-1.15-12.7-4.54h.1l-16.06 25v-.16l12.6 12.81.06.06v.09a73.2 73.2 0 0 0-3.42 19v.11h-.09l-16.29 7.61.1-.21c2 9.15 4.1 18.87 6.32 29.07l-.2-.17 18 .16h.13l.06.12a72.9 72.9 0 0 0 11 15.89l.09.1v.13l-6.14 16.88-.09-.27 25 16.09h-.3l12.82-12.59.11-.11h.14a73 73 0 0 0 19 3.44h.15l.06.14c2.38 5.11 5 10.67 7.6 16.3l-.28-.15 29.06-6.3-.2.25c0-5.67.11-11.8.17-18v-.15l.14-.07a73.1 73.1 0 0 0 15.87-11l.12-.1h.15l16.88 6.15-.3.1 16.1-25v.32l-12.58-12.83-.11-.11v-.15a72.3 72.3 0 0 0 3.45-19v-.15l.14-.07 16.3-7.59-.14.28q-3.22-14.89-6.29-29.07l.23.19-18-.18h-.15l-.06-.13a72.5 72.5 0 0 0-11-15.89l-.09-.1v-.13l6.15-16.88.09.25-25-16.11h.25l-12.84 12.58-.08.08h-.11a72.6 72.6 0 0 0-19-3.46h-.1v-.09L238 107.08l.17.08-29.08 6.26.09-.11c-.08 7.2-.14 13.09-.2 18v.05a74 74 0 0 0-12.3 7.88c-1.26 1-2.17 1.79-2.78 2.31s-.9.78-.9.78 1.12-1.12 3.63-3.15a72 72 0 0 1 12.27-8v.08c0-4.89.09-10.78.14-18v-.09h.09l29.06-6.34h.12v.11c2.36 5 4.85 10.36 7.62 16.28l-.15-.09a73 73 0 0 1 19.13 3.44h-.19L277.49 114l.11-.11.14.08 25 16.09.15.09-.06.17c-2 5.48-4 11.09-6.14 16.88l-.05-.23a73.3 73.3 0 0 1 11.09 16l-.21-.13 18 .17h.19v.19q3.08 14.17 6.31 29.06v.2l-.18.08-16.29 7.6.14-.22a73 73 0 0 1-3.46 19.15l-.06-.26 12.59 12.83.14.14-.11.18-16.1 25-.11.17-.19-.07-16.89-6.15.27-.05a73.2 73.2 0 0 1-16 11.07l.14-.23c-.06 6.17-.12 12.3-.17 18v.2l-.21.05-29.06 6.29-.2.05-.09-.19-7.59-16.29.21.14a73 73 0 0 1-19.14-3.47l.25-.06L207.15 279l-.14.13-.16-.1-25-16.11-.16-.1.06-.18c2.15-5.87 4.25-11.65 6.16-16.88v.23a73.3 73.3 0 0 1-11.06-16l.19.11-18-.18h-.16v-.16c-2.2-10.2-4.3-19.92-6.28-29.07v-.14l.13-.07 16.3-7.58-.09.15A73.2 73.2 0 0 1 172.4 174v.15l-12.57-12.84-.08-.07.06-.09 16.14-25v-.06h.06l12.55 4.62 3.22 1.19Z" style="fill:#263238"/><path d="m326.42 293.66-57.9 37h189.81v-37z" style="fill:#455a64"/><path d="M433.48 270.81v82.69l53.9-41.35z" style="fill:#455a64"/><path d="M363 310.5h1.56v5.5H368v1.27h-5ZM373.34 315.81h-3.14l-.6 1.44H368l3-6.75h1.55l3 6.75h-1.64Zm-.5-1.19-1.07-2.62-1.07 2.58ZM376.07 314.28v-3.78h1.56v3.72c0 1.29.56 1.82 1.51 1.82s1.5-.53 1.5-1.82v-3.72h1.55v3.78a3.06 3.06 0 1 1-6.12 0M389.92 310.5v6.75h-1.28l-3.37-4.1v4.1h-1.54v-6.75H385l3.35 4.1v-4.1ZM391.09 313.88a3.72 3.72 0 0 1 6.44-2.3l-1 .93a2.17 2.17 0 0 0-1.7-.79 2.16 2.16 0 1 0 0 4.32 2.15 2.15 0 0 0 1.7-.8l1 .92a3.71 3.71 0 0 1-6.44-2.28M404.77 310.5v6.75h-1.56v-2.76h-3.07v2.76h-1.56v-6.75h1.56v2.66h3.07v-2.66Z" style="fill:#263238"/><path d="M92.75 201.31c5.94 75.33 69.14 134.8 146 134.8v-37a109.55 109.55 0 0 1-109.46-109.42s1.65-19.1 2.8-24.85L95.66 158c-1.33 6.53-3.44 36.67-2.91 43.31" style="fill:#cd5954"/><path d="m139.75 264.89-.63 2.19v.06l.86 1.06 1.46-1.19 1 1.2-5.22 4.28-1.85-2.26c-1.14-1.4-1.13-2.86 0-3.82a2.2 2.2 0 0 1 2.53-.28l.72-2.54Zm-3.31 4.6.81 1 1.82-1.49-.81-1c-.6-.74-1.25-.83-1.82-.37s-.6 1.12 0 1.86M134 259.3l1-.75 3.1 4.2-5.42 4-3-4.1 1-.75 2.1 2.86 1.18-.87-1.86-2.52 1-.72 1.86 2.52 1.25-.93ZM125.14 256l7.23-1.33.86 1.28-4 6.17-.94-1.4 2.86-4.39-5.16.95ZM124.78 255.41l-.83-1.33 5.73-3.57.83 1.32ZM125.15 245.3l1.09-.63 2.62 4.52-5.86 3.39-2.56-4.41 1.09-.63 1.78 3.07 1.27-.74-1.58-2.71 1.06-.61 1.57 2.71 1.35-.78ZM115 237.75l7-1.09.77 1.49-3.4 3.4 4.77-.71.75 1.48-5 5-.73-1.44 3.53-3.51-4.95.73-.65-1.28 3.55-3.55-5 .77Z" style="fill:#263238"/><path d="m154.81 155.68-72.73-19.95 23.53 56.77z" style="fill:#455a64"/><path d="M136.27 154.27A109.62 109.62 0 0 1 239 82.46v-37c-63.31 0-117.36 40.38-137.75 96.74Z" style="fill:#455a64"/><path d="m141.37 103.84 2.53-1.73c1.83-1.25 3.83-1 5 .69s.65 3.64-1.17 4.88l-2.53 1.73Zm5.55 2.83a2.1 2.1 0 1 0-2.36-3.46l-1.18.81 2.36 3.45ZM155.36 100.94l.71 1-4.32 2.94-3.75-5.53 4.21-2.88.71 1-2.93 2 .82 1.21 2.54-1.68.68 1-2.58 1.77.88 1.29ZM159.5 94.42c.85 1.25.45 2.66-1 3.67l-1.12.77 1 1.54-1.28.88-3.81-5.58 2.41-1.65c1.49-1.05 2.95-.88 3.8.37m-1.3.9c-.42-.62-1.06-.7-1.85-.17l-1 .72 1.32 1.94 1-.72c.79-.54.94-1.17.53-1.77M159 91.78l1.29-.88 3.09 4.52 2.79-1.91.72 1-4.09 2.79ZM165.3 91.59a3.7 3.7 0 1 1 5 .8 3.5 3.5 0 0 1-5-.8m4.8-3.28a2.11 2.11 0 1 0-.53 3 2.06 2.06 0 0 0 .53-3M175.37 85.91l1.34 2-1.29.88-1.35-2-4.61-2.11 1.37-.93 3.17 1.44-.2-3.5 1.27-.86Z" style="fill:#263238"/><path d="M259.88 109.59 211.7 56.88l61.48-34.82z" style="fill:#e0e0e0"/><path d="M326.36 117.7a109.45 109.45 0 0 0-82.42-37.44v-37a146.5 146.5 0 0 1 110.28 50.08Z" style="fill:#e0e0e0"/><path d="m284.72 68-2-.77.45-1.19 5.5 2.1-.46 1.19-2-.77-2 5.11-1.45-.56ZM292.34 75.42l-.44 1.18-4.9-1.88 2.42-6.3 4.76 1.83-.45 1.17-3.31-1.27-.53 1.37 2.93 1.12-.43 1.13-2.93-1.12-.56 1.46ZM292.8 76.23l.91-.91a4 4 0 0 0 1.83 1.45c.87.33 1.33.18 1.48-.21.45-1.18-3.53-1.77-2.63-4.11.41-1.07 1.62-1.63 3.41-1a4.6 4.6 0 0 1 2 1.4l-.87.94a3.9 3.9 0 0 0-1.56-1.17c-.86-.33-1.32-.13-1.47.26-.45 1.17 3.52 1.77 2.64 4.08-.41 1-1.62 1.62-3.43.93a4.73 4.73 0 0 1-2.31-1.66M302 74.59l-2-.77.45-1.19 5.49 2.1-.45 1.19-2-.77-2 5.11-1.49-.55Z" style="fill:#263238"/><path d="m373.79 257.15-33.5-15.71c6.82-14.55 13.08-35.53 13.08-51.75a108.4 108.4 0 0 0-11.73-49.37c-1.35-2.67-6.25-11.54-7.6-13.77l31.66-19.16c1.94 3.22 7.3 13 8.94 16.21a144.9 144.9 0 0 1 15.73 66.09c0 21.69-7.43 47.95-16.58 67.46" style="fill:#cd5954"/><path d="m321.01 143.43 63.01-41.46-58.17-19.81z" style="fill:#cd5954"/><path d="m368.29 150.28.83 2.95c.6 2.13-.27 4-2.23 4.5s-3.66-.54-4.26-2.66l-.83-3Zm-4.45 4.36a2.1 2.1 0 1 0 4-1.13l-.39-1.38-4 1.14ZM366.24 164.52l-1.22.27-1.15-5.09 6.57-1.49 1.13 5-1.22.28-.78-3.46-1.43.33.69 3-1.19.27-.69-3.06-1.52.35ZM373 171.05l-7.15-1.69-.27-1.51 6.13-4 .29 1.66-4.38 2.86 5.11 1.21ZM368.37 177.74l-1.25.17-.7-5.18 6.69-.9.68 5-1.24.16-.48-3.51-1.45.2.42 3.1-1.2.16-.42-3.1-1.55.21ZM374 178.44l.15 1.56-5.45.51.31 3.37-1.26.12-.47-4.92ZM371.12 184.09a3.7 3.7 0 1 1-3.3 3.86 3.48 3.48 0 0 1 3.3-3.86m.29 5.79a2.11 2.11 0 1 0-2.26-2 2.07 2.07 0 0 0 2.26 2M372.46 198.57c-1.51 0-2.45-1.12-2.45-2.92v-1.36h-1.86v-1.56h6.74v2.92c.01 1.78-.89 2.91-2.43 2.92m0-1.58c.74 0 1.17-.49 1.17-1.44v-1.27h-2.34v1.28c-.01.95.43 1.44 1.16 1.44Z" style="fill:#263238"/><path d="M243.94 336.11H125.87v-37h118.07a108.72 108.72 0 0 0 87-43l29.39 22.48a145.47 145.47 0 0 1-116.39 57.52" style="fill:#cd5954"/><path d="m312.23 246.83 62.78 41.79-4.5-61.28z" style="fill:#cd5954"/><path d="m375 288.62-4.5-61.28-58.28 19.49 17 11.35a108.63 108.63 0 0 1-85.34 40.93H125.87v37h118.07a145.43 145.43 0 0 0 116.24-57.36Z" style="opacity:.30000000000000004"/><path d="M311.35 296.46c.9 1.2.56 2.63-.87 3.71l-1.09.82 1.12 1.48-1.25.94-4.06-5.41 2.33-1.76c1.47-1.06 2.91-.99 3.82.22m-1.27 1c-.44-.59-1.09-.65-1.85-.08l-1 .77 1.41 1.87 1-.76c.76-.63.89-1.26.44-1.85ZM310.76 293.84l1.25-.94 3.29 4.37 2.7-2 .77 1-3.95 3ZM322.2 291.86l-2.5 1.89.39 1.51-1.28 1-1.66-7.2 1.23-.93 6.48 3.58-1.31 1Zm-1.11-.65-2.41-1.42.7 2.71ZM326.3 282.13l4.06 5.39-1 .78-5.16-1.25 2.47 3.27-1.23.93-4.06-5.39 1-.78 5.14 1.25-2.46-3.27Z" style="fill:#263238"/><path d="M116.04 276.26v82.7l53.21-41.35z" style="fill:#e0e0e0"/><path d="M15.42 299.11h110.46v37H15.42z" style="fill:#e0e0e0"/><path d="M62.76 316.36c0 1.5-1.13 2.44-2.94 2.44h-1.36v1.86H56.9v-6.75h2.92c1.81 0 2.94.94 2.94 2.45m-1.59 0c0-.74-.48-1.18-1.43-1.18h-1.28v2.35h1.28c.95 0 1.43-.44 1.43-1.17M63.86 313.91h1.56v5.48h3.39v1.27h-5ZM74.19 319.22h-3.14l-.59 1.44h-1.61l3-6.75h1.55l3 6.75h-1.61ZM73.7 318l-1.07-2.59-1.08 2.59ZM83.32 313.91v6.75H82l-3.37-4.1v4.1h-1.5v-6.75h1.29l3.35 4.1v-4.1Z" style="fill:#263238"/><path d="m230.75 449.33-2.84 30.18-16.32-1.21 2.79-30.25z" style="fill:#cd5954"/><path d="M220 477.78c-.13 0 .46-6.63 1.34-14.77s1.68-14.73 1.82-14.71-.46 6.62-1.33 14.76-1.74 14.73-1.83 14.72" style="fill:#263238"/><path d="m228.1 477.43-16.31-1.26-.2 2.13 16.32 1.21zM212.48 468.63a2.3 2.3 0 0 1 .52-.63 11.6 11.6 0 0 1 1.61-1.41 11.2 11.2 0 0 1 2.8-1.51 8.75 8.75 0 0 1 3.88-.5 8.65 8.65 0 0 1 6.08 3.38 7.5 7.5 0 0 1 1 1.89 2.1 2.1 0 0 1 .18.76 16.6 16.6 0 0 0-1.48-2.43 8.67 8.67 0 0 0-5.85-3.11 10 10 0 0 0-6.43 1.81c-1.49.99-2.24 1.82-2.31 1.75" style="fill:#263238"/><path d="m213.59 456.66-.31 3.33 16.36 1.14.24-2.5z" style="opacity:.30000000000000004"/><path d="m296.36 447.22 1.96 30.25-16.31 1.39-2.02-30.31z" style="fill:#cd5954"/><path d="M290.19 477c-.14 0-.59-6.62-1-14.79s-.66-14.81-.53-14.82.6 6.61 1 14.79.67 14.82.53 14.82" style="fill:#263238"/><path d="m298.18 475.39-16.31 1.33.14 2.14 16.31-1.39zM281.37 469.17s.1-.27.37-.69a11 11 0 0 1 1.37-1.64 11 11 0 0 1 2.53-1.93 8.7 8.7 0 0 1 10.28 1.27 7.8 7.8 0 0 1 1.31 1.7 2.2 2.2 0 0 1 .3.72 17.4 17.4 0 0 0-1.85-2.17 8.76 8.76 0 0 0-6.27-2.14 10 10 0 0 0-6.06 2.8c-1.3 1.2-1.91 2.13-1.98 2.08" style="fill:#263238"/><path d="m280.56 457.18.23 3.33 16.33-1.46-.16-2.51z" style="opacity:.30000000000000004"/><path d="m250.18 179.77-22.46 3.35-1.06-19.22s-1.62-.07-3-8.27-4.09-22.1-4.09-22.1a30.84 30.84 0 0 1 30.31-1.21l1.41.73Z" style="fill:#ffbe9d"/><path d="M250.21 143.59c.14-.08 5.58-2.61 6.3 3s-5.29 5.25-5.32 5.08-.98-8.08-.98-8.08M222.69 146.85c-.16 0-5.56-.55-4.47 5s6.69 3.31 6.67 3.14-2.2-8.14-2.2-8.14" style="fill:#ffbe9d"/><path d="M252 142.66c-.11 4.85.46 7.3.17 10.57-.47 5.18-2.41 9.41-6.65 12.65s-10.53 4.21-15.07 1.47c-3.15-1.9-5.54-4.23-6.52-7.7s-2.41-9.66-3-13.22C219.83 140 218.4 134 218.4 134l18.44-6.39 11.81 4.39ZM236.37 170.27a8.84 8.84 0 0 0 6.4-1.74c-.08-.14-1.41.52-3.16 1s-3.24.59-3.24.74" style="fill:#263238"/><path d="M252.38 150.81c-.23-4.91-.76-10.49-.8-15.7 0-2 .24-4.82-.25-6.72a15.8 15.8 0 0 0-2.16-5.45 8.44 8.44 0 0 0-6.47-3.36 8.66 8.66 0 0 0-6.74 3 6.53 6.53 0 0 0-6.92-1.44 6.27 6.27 0 0 0-3.91 5.77 4.6 4.6 0 0 0-5.26.3 4.25 4.25 0 0 0-1.13 5A4.25 4.25 0 0 0 216 135a4 4 0 0 0 .94 3.77c1.09 1.17 2.79 1.63 4 2.72a4.61 4.61 0 0 1 1.11 5" style="fill:#263238"/><path d="M223.19 137.65a1.4 1.4 0 0 0 .3.49 3.8 3.8 0 0 0 1.3 1 4.15 4.15 0 0 0 2.59.36 4.38 4.38 0 0 0 2.82-1.87h-.42a3.92 3.92 0 0 0 3 2.4 4.77 4.77 0 0 0 4.2-1.22 6.28 6.28 0 0 0 1.91-3.43l-.45.12a5.49 5.49 0 0 0 4.67 1.58 5.1 5.1 0 0 0 3.38-2 4.84 4.84 0 0 0 1-2.36 2 2 0 0 0 0-.91s0 .32-.14.88a5.24 5.24 0 0 1-1.05 2.2 4.85 4.85 0 0 1-3.18 1.77 5.05 5.05 0 0 1-4.22-1.49l-.35-.37-.1.5a5.94 5.94 0 0 1-1.77 3.15 4.22 4.22 0 0 1-3.72 1.09 3.45 3.45 0 0 1-2.66-2l-.16-.46-.26.42a4 4 0 0 1-2.5 1.74 3.94 3.94 0 0 1-2.39-.24 5.5 5.5 0 0 1-1.8-1.35M222.87 135.41a4.85 4.85 0 0 1 .48-2.17 3.48 3.48 0 0 1 1.78-1.62 3.73 3.73 0 0 1 3 .06l.52.25-.14-.54a4.1 4.1 0 0 1-.07-1.65 4.5 4.5 0 0 1 1.91-3 4.68 4.68 0 0 1 2.92-.73 6.5 6.5 0 0 1 2.69.94s-.16-.24-.58-.54a4.6 4.6 0 0 0-2.07-.77 5 5 0 0 0-3.23.7 4.9 4.9 0 0 0-2.17 3.33 4.4 4.4 0 0 0 .09 1.85l.37-.3a4.2 4.2 0 0 0-3.4 0 3.75 3.75 0 0 0-1.97 1.88 3.6 3.6 0 0 0-.32 1.71c.07.4.16.61.19.6M235 133.62c.07 0-.07-.32-.11-.78a3.6 3.6 0 0 1 .32-1.75c.29-.64.65-1.31.86-1.67a.56.56 0 0 1 .59-.21s0-.13-.17-.21a.67.67 0 0 0-.7.17 4.3 4.3 0 0 0-.55.75 6 6 0 0 0-.52 1 3 3 0 0 0-.21 2c.16.52.49.74.49.7M245.11 124.73c.06 0-.06-.44-.52-1a3 3 0 0 0-1-.74 2.4 2.4 0 0 0-1.59.01 3.73 3.73 0 0 0-2.08 1.77c-.34.58-.48 1-.42 1s.33-.3.74-.81a4 4 0 0 1 1.91-1.47 2.28 2.28 0 0 1 2.18.57c.47.38.67.71.78.67M246 149a9.2 9.2 0 0 0 1.42-3.91 8.8 8.8 0 0 0 .05-4.13c-.16 0-.17 1.84-.58 4S245.87 149 246 149M243.69 150.8a6.85 6.85 0 0 0 1-2.78 6.75 6.75 0 0 0 .24-2.93 10.5 10.5 0 0 0-.76 2.83 10 10 0 0 0-.48 2.88M227.76 153.77a8.7 8.7 0 0 0 1.45 4.83 9.1 9.1 0 0 0 3.56 3.66 31 31 0 0 1-3.09-3.92 30 30 0 0 1-1.92-4.57M224.54 150.08a8.54 8.54 0 0 0 3 8.23 24 24 0 0 1-2.12-3.89 24.7 24.7 0 0 1-.88-4.34" style="fill:#455a64"/><path d="m226.74 179.23.2-4.82 23.48-4.96.83 3.97z" style="fill:#fff"/><path d="M153.23 237.54s-1.16.6-.36 1.45 11.49 10.33 12.94 11.26a30.4 30.4 0 0 0 5.76 2.05l2.82-.52L176 245l2-3.28-.51-.75 1.87-7.27s-1.62-.66-2.37.51c-1.05 1.65-2.5 4.33-2.5 4.33s-2.94.44-4-.83-7.29-11.78-8-12-1.9 0-1.29 1.71 4.59 7.63 4.44 8-.76.77-1 .48-6.64-8.67-7.65-8.82-1.84.72-.86 2.33 6.16 7.52 5.92 7.9-.92-.08-.92-.08-5.91-6.17-6.74-6.06-1.07 1-.6 1.81 6.45 6.56 6.56 7c.07.3-.18 1.49-.67 1.08s-5.98-3.91-6.45-3.52" style="fill:#ffbe9d"/><path d="m213.6 299-1.24 80.68-2.74 83.75 22.73 1.57 7.65-85.36 8.73-60.59 1.92-.12L267.84 382l10.71 81c1.33-.37 21.45-2 21.45-2l-14-163.87-2.33-13.63-59.84 1.33Z" style="fill:#263238"/><path d="m280.88 255.51-1.73-46.66-2.88-32.22h-19.62l-5-4.89-25.17 4.89-2.33 7s-20.21 6.43-21.33 8.39c0 0 7.09 28 10.43 43.66 2.29 10.76 4.7 21.79 4.7 21.79l-6.38 51.61c-.26 0 38.88-1.72 38.88-1.72l37.8-4.09Z" style="fill:#455a64"/><path d="M301.32 162s-5.76.45-6.1.45-6.22.55-6.22.55a3 3 0 0 1 1.63-2c1.37-.61 4-1.56 4.24-2s.87-1.16.33-1.91-10.48-10.84-10.82-11.38-.89-1.57 0-1.77 2 .75 2.73 1.36 4.61 3.88 5 3.68.07-.55.07-.55-6.57-6.76-6.64-7-.84-2.2 1-1.87c.9.15 7.72 7.13 8 6.85s-5.73-8-5.18-8.58 1.16-1.23 2.25 0 5.78 7.49 6.13 7.56a.57.57 0 0 0 .61-.75c-.13-.47-2.92-5.33-2.92-5.88s.54-.68 1.09-.75 6.4 8.4 6.4 8.4 4.52 7.27 5 8.11a28 28 0 0 1 1.3 3.68Z" style="fill:#ffbe9d"/><path d="m299.88 162.33 3.92 15.14-9 3.36-19.34-4.2v28.59l2.74 7.43s40.5-19.53 43.19-21.65c5-4-2.95-17.86-2.95-17.86l-7.35-15.82ZM202.81 192.05l-4.53 9.07L186.84 239l-12.78 3.41-2.4 11.68s20 4.69 23.7 3.08c6.29-2.73 16.8-28.81 16.8-28.81l-1.42-22.29Z" style="fill:#455a64"/><path d="M316.5 183.66a36.6 36.6 0 0 0-6-4.12 36 36 0 0 0-6.85-2.37 6.6 6.6 0 0 1 2.15.2 19.1 19.1 0 0 1 4.93 1.71 19.4 19.4 0 0 1 4.3 3 6.3 6.3 0 0 1 1.47 1.58" style="fill:#263238"/><path d="M312.69 177.39a27.3 27.3 0 0 0-4.89-.38 28 28 0 0 0-4.79 1 10.34 10.34 0 0 1 9.68-.61ZM256.65 176.63a6.3 6.3 0 0 1-1.1.76c-.36.24-.81.51-1.35.8s-1.15.63-1.85 1a46 46 0 0 1-5 2.07A63 63 0 0 1 241 183a67.5 67.5 0 0 1-11.93 1.53c-1.54.06-2.78.06-3.64 0a7.3 7.3 0 0 1-1.34-.1 6.6 6.6 0 0 1 1.34-.11c.85 0 2.09-.09 3.62-.19a79.6 79.6 0 0 0 11.83-1.67c2.28-.51 4.42-1.12 6.34-1.74s3.61-1.31 5-2c.7-.3 1.32-.61 1.86-.88s1-.5 1.39-.72a6.6 6.6 0 0 1 1.18-.49M262.58 257.54a7 7 0 0 1-1.44.37c-.94.21-2.3.45-4 .68a65.7 65.7 0 0 1-26.56-2c-1.65-.48-3-.92-3.85-1.27a9 9 0 0 1-1.37-.58 7 7 0 0 1 1.43.39c.91.29 2.24.67 3.89 1.11a72.9 72.9 0 0 0 26.41 2c1.7-.18 3.07-.36 4-.51a9 9 0 0 1 1.49-.19M186.13 242.46c-.14 0 1.27-5.27 3.14-11.68s3.49-11.57 3.63-11.53-1.26 5.26-3.13 11.68-3.5 11.57-3.64 11.53M247.5 272.66c.15 0 .41 5.82.59 13s.2 13 .06 13-.41-5.81-.58-13-.21-12.99-.07-13" style="fill:#263238"/><path d="M261.84 316.9c0 .14-5.06 1.19-11.36 2.35s-11.42 2-11.45 1.83 5.06-1.19 11.36-2.35 11.42-1.97 11.45-1.83M284.92 378.11a46 46 0 0 0-6.55.84 48 48 0 0 0-6.19 2.26 5.7 5.7 0 0 1 1.63-1.09 19.5 19.5 0 0 1 4.44-1.67 19.3 19.3 0 0 1 4.71-.56 5.6 5.6 0 0 1 1.96.22M230.17 382c0 .15-1.88-.23-4.18-.12s-4.11.63-4.15.48a11 11 0 0 1 8.33-.36" style="fill:#455a64"/><path d="M217.94 257.5a2.3 2.3 0 0 1-.16-.51c-.1-.4-.23-.89-.37-1.49-.32-1.37-.76-3.23-1.28-5.49-1.06-4.71-2.49-11.09-4.07-18.14s-3-13.44-4.05-18.15c-.51-2.26-.93-4.13-1.23-5.5l-.32-1.5a1.9 1.9 0 0 1-.08-.53 2 2 0 0 1 .18.51c.11.39.25.88.41 1.47.35 1.29.83 3.16 1.39 5.47 1.14 4.62 2.62 11 4.2 18.11s3 13.52 3.93 18.18c.46 2.28.84 4.15 1.11 5.52.11.61.21 1.11.28 1.51a1.8 1.8 0 0 1 .06.54M278.18 192.79a2 2 0 0 1 .05.29l.07.84c.07.73.16 1.82.24 3.23.2 2.8.42 6.87.67 11.89.5 10 1.09 23.92 1.66 39.25.09 2.47.18 4.91.27 7.21 2 13.49 3.85 25.43 5.15 34 .62 4.26 1.13 7.7 1.48 10.11.16 1.16.28 2.07.37 2.73 0 .29.07.52.09.71a.6.6 0 0 1 0 .24.8.8 0 0 1-.06-.23c0-.19-.08-.42-.13-.71-.11-.65-.27-1.56-.47-2.71-.39-2.41-.94-5.84-1.63-10.09-1.35-8.6-3.21-20.53-5.32-34-.08-2.31-.17-4.74-.27-7.21-1.18-30.34-2.06-52.71-2.17-55.55" style="fill:#263238"/><path d="M254.05 178.39c-9.46 3.82-18.8 6.17-29 6.18a8.22 8.22 0 0 0 5.29 2.33 21.2 21.2 0 0 0 5.94-.51 89 89 0 0 0 14.44-4.06c1.67-.6 3.55-2.33 3.33-3.94M206.94 207.82c.16 3.64-.25 8 .52 11.59a21.6 21.6 0 0 0 4.54 9.79c-1.75-6.86-3.24-14.38-5.06-21.38M236.28 262.73l-.31-.05c3.06 3.48 8.14 3.84 12.78 3.87s9.66-.26 12.77-3.7a62.7 62.7 0 0 1-25.24-.12" style="opacity:.30000000000000004"/><path d="M67.39 415.74c1.21 3.76 5.66 6.37 9.34 5 2.09-.79 3.6-2.61 4.89-4.43a20.4 20.4 0 0 1 4.3-5.07 6.32 6.32 0 0 1 4.39-1.24l-16.91-6.36c-7.24 4.36-7.22 8.36-6.01 12.1" style="fill:#cd5954"/><path d="M67.39 415.74c1.21 3.76 5.66 6.37 9.34 5 2.09-.79 3.6-2.61 4.89-4.43a20.4 20.4 0 0 1 4.3-5.07 6.32 6.32 0 0 1 4.39-1.24l-16.91-6.36c-7.24 4.36-7.22 8.36-6.01 12.1" style="fill:#cd5954"/><path d="M67.39 415.74c1.21 3.76 5.66 6.37 9.34 5 2.09-.79 3.6-2.61 4.89-4.43a20.4 20.4 0 0 1 4.3-5.07 6.32 6.32 0 0 1 4.39-1.24l-16.91-6.36c-7.24 4.36-7.22 8.36-6.01 12.1" style="opacity:.30000000000000004"/><path d="M151.58 420.21a14.29 14.29 0 0 0-23.41 5.62l1.69 6.55a8 8 0 0 1 4.16-5.31c2.21-1 4.78-.41 7 .41s4.5 1.93 6.92 2.08 5.13-1 5.85-3.3-.58-4.48-2.21-6.05" style="fill:#cd5954"/><path d="M151.58 420.21a14.29 14.29 0 0 0-23.41 5.62l1.69 6.55a8 8 0 0 1 4.16-5.31c2.21-1 4.78-.41 7 .41s4.5 1.93 6.92 2.08 5.13-1 5.85-3.3-.58-4.48-2.21-6.05" style="opacity:.30000000000000004"/><path d="M110.76 442.06c-3.54-3.36-3.36-9.21-1.6-13.76s5.62-8 9.92-10.34a31.42 31.42 0 0 1 27.37-.89 13 13 0 0 0-10.5 6.17c-1.94 3.22-2.37 7.13-4 10.53a16.57 16.57 0 0 1-21.22 8.29M109.06 421.87c-3.92-4.62-4.44-12-3.86-18.07s2-12.1 1-18.09c-.56-3.54-1.94-6.93-2.4-10.49s.19-7.58 3-9.88c3.17-2.64 8.16-2 11.46.47s5.21 6.37 6.6 10.25c3.07 8.53 4.2 18 1.68 26.69s-8.44 16.49-17.11 19.12" style="fill:#cd5954"/><path d="M107.18 459.8a2.7 2.7 0 0 1 0-.53v-1.53c0-1.33.18-3.24.48-5.6a76 76 0 0 1 1.5-8.2 37.6 37.6 0 0 1 3.75-9.49 39.2 39.2 0 0 1 6.11-8.17 38.8 38.8 0 0 1 6.41-5.33c1-.68 1.92-1.19 2.74-1.67s1.56-.8 2.16-1.09l1.41-.59a2.7 2.7 0 0 1 .5-.18l-.48.24-1.38.65c-.58.3-1.3.68-2.12 1.13s-1.74 1-2.7 1.7a39.9 39.9 0 0 0-12.37 13.47c-3.6 6.3-4.59 12.92-5.3 17.56-.33 2.35-.49 4.26-.58 5.58 0 .64-.07 1.14-.09 1.52a3 3 0 0 1-.04.53" style="fill:#263238"/><path d="M68 408.43c1.89-2.62 6.57-3.38 9.53-2.07s5.12 3.9 7.06 6.48 3.82 5.32 6.5 7.12 6.44 2.45 9.11.64a7.83 7.83 0 0 0 3.1-5.36 18 18 0 0 0-.43-6.32c-.64-3-1.68-6.21-4.11-8.14-2.71-2.16-6.48-2.26-9.93-2.14a37.2 37.2 0 0 0-11.73 1.8c-3.72 1.38-7.52 4.35-9.1 8" style="fill:#cd5954"/><path d="M101.16 454v-.63q0-.66-.06-1.8c0-1.59-.11-3.84-.19-6.61s-.2-6.12-.4-9.8-.48-7.74-1-12a38.6 38.6 0 0 0-1.2-6.07 31.4 31.4 0 0 0-2.31-5.27 30 30 0 0 0-2.8-4.4 29 29 0 0 0-3.06-3.36 22.6 22.6 0 0 0-5.42-3.7c-.36-.16-.67-.32-.94-.43l-.71-.27-.44-.18-.14-.07h.15l.45.14.72.25c.28.1.6.26 1 .41a21.8 21.8 0 0 1 5.52 3.64 28.5 28.5 0 0 1 3.12 3.36 30 30 0 0 1 2.85 4.43 31 31 0 0 1 2.22 5.36 38.3 38.3 0 0 1 1.22 6.12c.56 4.23.83 8.29 1 12s.27 7 .33 9.81.08 5.06.09 6.62v2.27a1 1 0 0 1 0 .18M103.77 457.27a20 20 0 0 1-.8-3.11 32.5 32.5 0 0 1-.33-8.74 58 58 0 0 1 2.76-12.69c1.49-4.66 3.51-9.64 5.23-15a68 68 0 0 0 2.08-7.94 69 69 0 0 0 1-7.57 110 110 0 0 0 .23-13c-.13-3.69-.32-6.67-.44-8.73-.06-1-.11-1.82-.14-2.38v-.83.21c0 .16 0 .36.06.62 0 .56.12 1.35.2 2.37.16 2.06.39 5 .55 8.73a107 107 0 0 1-.16 13 69 69 0 0 1-1 7.61 67 67 0 0 1-2.08 8c-1.73 5.37-3.76 10.35-5.26 15a59 59 0 0 0-2.81 12.61 33.5 33.5 0 0 0 .23 8.7c.17 1 .34 1.8.48 2.32q.09.38.15.6c.04.15.05.22.05.22" style="fill:#263238"/><path d="M121.73 460.55H87.71l-.78-6.55h34.8z" style="fill:#455a64"/><path d="m91.36 459.8 4.25 19.64h18.49l3.98-19.64z" style="fill:#455a64"/><path d="M121.73 460.55c0 .09-7.48.14-16.71.11s-16.7-.12-16.7-.21 7.48-.14 16.7-.11 16.71.12 16.71.21" style="fill:#455a64"/><path d="M115.89 470.24a14.3 14.3 0 0 0-3-1.72 10.9 10.9 0 0 0-3.64-.73 12.7 12.7 0 0 0-4.48.83c-1.55.52-3 1.13-4.41 1.47a10.6 10.6 0 0 1-3.81.11 8.1 8.1 0 0 1-2.45-.77 6 6 0 0 1-.59-.38c-.13-.1-.19-.15-.18-.16s.29.17.83.42a8.3 8.3 0 0 0 2.42.66 10.6 10.6 0 0 0 3.71-.17c1.37-.35 2.81-1 4.38-1.49a12.5 12.5 0 0 1 4.59-.81 10.2 10.2 0 0 1 3.72.81 9.7 9.7 0 0 1 2.22 1.3 7 7 0 0 1 .53.45c.11.11.17.17.16.18" style="fill:#263238"/><path d="M115.63 471.55a15 15 0 0 0-2.88-1.69 9.7 9.7 0 0 0-3.51-.72 12.5 12.5 0 0 0-4.33.78c-1.5.5-2.91 1.08-4.25 1.44a10.9 10.9 0 0 1-3.66.41 6.1 6.1 0 0 1-2.4-.64 5 5 0 0 1-.58-.36c-.12-.1-.18-.15-.17-.16s.28.16.8.4a6.5 6.5 0 0 0 2.36.53 11.1 11.1 0 0 0 3.57-.47c1.31-.37 2.71-1 4.22-1.46a12.4 12.4 0 0 1 4.45-.77 9.7 9.7 0 0 1 5.72 2.09c.23.19.39.34.5.45a1 1 0 0 1 .16.17" style="fill:#fff"/><path d="M116.23 468.94a16.3 16.3 0 0 0-3.08-1.81 11.4 11.4 0 0 0-3.73-.9 12.3 12.3 0 0 0-4.63.81 41 41 0 0 1-4.56 1.49 11.6 11.6 0 0 1-3.94 0 8.9 8.9 0 0 1-2.53-.8 4 4 0 0 1-.61-.38c-.13-.1-.2-.15-.19-.16s.3.17.86.43a9.8 9.8 0 0 0 2.51.68 11.6 11.6 0 0 0 3.84-.07 46 46 0 0 0 4.52-1.5 12.1 12.1 0 0 1 4.74-.81 11.57 11.57 0 0 1 6.08 2.35c.25.2.43.36.55.47a1 1 0 0 1 .17.2" style="fill:#fff"/><path d="M122 460.57c0 .09-7.65.17-17.09.17s-17.1-.08-17.1-.17 7.66-.16 17.1-.16 17.09.07 17.09.16M454.23 479.29c0 .15-91.45.27-204.22.27s-204.25-.12-204.25-.27S137.19 479 250 479s204.23.15 204.23.29" style="fill:#263238"/><path d="m209.23 164.89-11-2.46a26.38 26.38 0 1 1 4.86-8.08Z" style="fill:#fff"/><path d="m209.23 164.89-6-10.6a.11.11 0 0 0-.14 0l.18.09a26.23 26.23 0 0 0 1.41-13.62 22.5 22.5 0 0 0-1-4c-.25-.68-.48-1.37-.75-2.06l-1-2A26.47 26.47 0 0 0 187 120a26.3 26.3 0 0 0-11-1.3 26.8 26.8 0 0 0-11.1 3.71 26 26 0 0 0-8.71 8.55 26.4 26.4 0 0 0-4 11.81 26.9 26.9 0 0 0 1.71 11.81 25.8 25.8 0 0 0 6.22 9.42 26.68 26.68 0 0 0 18.34 7.46 28.4 28.4 0 0 0 8.51-1.41 26.2 26.2 0 0 0 11.33-7.56h-.09l11 2.37-11-2.56a.12.12 0 0 0-.1 0 26 26 0 0 1-11.27 7.43 28 28 0 0 1-8.42 1.36 26.44 26.44 0 0 1-18.09-7.41 25.7 25.7 0 0 1-6.11-9.3 26.4 26.4 0 0 1-1.67-11.64 25.9 25.9 0 0 1 3.91-11.62 25.5 25.5 0 0 1 8.57-8.43 26.5 26.5 0 0 1 10.97-3.6 25.9 25.9 0 0 1 10.86 1.25 26.36 26.36 0 0 1 14.73 12.45c.32.68.64 1.35 1 2s.5 1.36.75 2a23.7 23.7 0 0 1 1 4 26.2 26.2 0 0 1-1.33 13.5.1.1 0 0 0 .06.13.09.09 0 0 0 .11 0H203Z" style="fill:#263238"/><path d="m164.02 145.57 3.77-3.77 7.28 6.47 14.29-13.75 3.5 3.77-18.33 17.25z" style="fill:#cd5954"/></svg>