<svg xmlns="http://www.w3.org/2000/svg" viewBox="0 0 500 500"><path d="M417.48 249.23c-93.1-53.76-243.56-53.76-336.06 0s-92 140.91 1.09 194.66 243.57 53.75 336.07 0 92.01-140.89-1.1-194.66" style="fill:#f5f5f5"/><path d="m91.17 338.62 129.73-75.48a2.29 2.29 0 0 0 0-4l-45.67-26.55a2.32 2.32 0 0 0-2.31 0L42.05 308.76a2.3 2.3 0 0 0 0 4l44.53 25.87a4.58 4.58 0 0 0 4.59-.01M95 355.65l81.88-47.3L242.27 346a43 43 0 0 1 11.65-9.49c23.31-13.46 61-13.46 84.14 0s23 35.28-.27 48.74a70 70 0 0 1-16 6.59l6.57 3.78a3 3 0 0 1 0 5.15l-76 43.86a11.87 11.87 0 0 1-11.87 0L95 360.8a3 3 0 0 1 0-5.15M427.31 393.49c-7.9-4.57-20.68-4.57-28.54 0s-7.81 12 .09 16.53 20.69 4.57 28.55 0 7.81-11.96-.1-16.53" style="fill:#e6e6e6"/><path d="m432.24 367.22-19.15.56-19.15-.56c-.82 12.93 1.7 26.11 5.18 32.54a8.7 8.7 0 0 0 3.79 3.86c5.65 3.26 14.78 3.26 20.39 0a8.47 8.47 0 0 0 3.79-4c3.47-6.43 5.97-19.54 5.15-32.4" style="fill:#fff"/><path d="M426.58 359.38c7.51 4.33 7.54 11.35.09 15.68s-19.57 4.33-27.08 0-7.54-11.35-.08-15.68 19.57-4.33 27.07 0" style="fill:#ebebeb"/><path d="M423.62 361.1c5.85 3.38 5.88 8.86.07 12.24s-15.28 3.38-21.13 0-5.88-8.86-.07-12.24 15.27-3.38 21.13 0" style="fill:#e0e0e0"/><path d="M423.62 361.1c5.85 3.38 5.88 8.86.07 12.24s-15.28 3.38-21.13 0-5.88-8.86-.07-12.24 15.27-3.38 21.13 0" style="opacity:.15"/><path d="M444.57 285.52c-43.15 14.12-43.54 43-33.81 63.55 2.45 4.16 9.88 6.39 16.34-19.17l-11.34 1.45 13.24-6.69 3.43-10.26-11 .82 14-5.88a207 207 0 0 1 9.14-23.82" style="fill:#cd5954"/><path d="M444.57 285.52c-43.15 14.12-43.54 43-33.81 63.55 2.45 4.16 9.88 6.39 16.34-19.17l-11.34 1.45 13.24-6.69 3.43-10.26-11 .82 14-5.88a207 207 0 0 1 9.14-23.82" style="opacity:.2"/><path d="M444.57 285.52c-43.15 14.12-43.54 43-33.81 63.55 2.45 4.16 9.88 6.39 16.34-19.17l-11.34 1.45 13.24-6.69 3.43-10.26-11 .82 14-5.88a207 207 0 0 1 9.14-23.82" style="fill:#fff;opacity:.2"/><path d="M432.37 292.73C409.61 310 407.56 329.8 414 350.47c-2.29-18.2-4.75-36.6 18.37-57.74" style="fill:#fff"/><path d="M371.49 314.84c42.53 6 47.69 32.81 42.05 53.57-1.6 4.28-8.14 7.59-18.41-15.14l10.8-.53-13.41-4-4.9-9 10.38-1.09-14-3.15a196 196 0 0 0-12.51-20.66" style="fill:#cd5954"/><path d="M371.49 314.84c42.53 6 47.69 32.81 42.05 53.57-1.6 4.28-8.14 7.59-18.41-15.14l10.8-.53-13.41-4-4.9-9 10.38-1.09-14-3.15a196 196 0 0 0-12.51-20.66" style="fill:#fff;opacity:.2"/><path d="M371.49 314.84c42.53 6 47.69 32.81 42.05 53.57-1.6 4.28-8.14 7.59-18.41-15.14l10.8-.53-13.41-4-4.9-9 10.38-1.09-14-3.15a196 196 0 0 0-12.51-20.66" style="opacity:.1"/><path d="M384.05 319.53c24.06 12.31 29.27 30.4 26.71 50.72-.9-17.33-1.67-34.87-26.71-50.72" style="fill:#fff"/><path d="M457 324.89c-39 .64-46.66 24.23-43.9 43.57 1 4 6.49 7.76 18.28-11.58l-9.67-1.69 12.54-2.14 5.42-7.54-9.24-2.13 13-1.27A178 178 0 0 1 457 324.89" style="fill:#cd5954"/><path d="M445.17 327.71c-23.07 8.4-29.78 24.13-29.75 42.73 2.75-15.52 5.41-31.25 29.75-42.73" style="fill:#fff"/><path d="M457 324.89c-39 .64-46.66 24.23-43.9 43.57 1 4 6.49 7.76 18.28-11.58l-9.67-1.69 12.54-2.14 5.42-7.54-9.24-2.13 13-1.27A178 178 0 0 1 457 324.89" style="fill:#fff;opacity:.2"/><path d="m341.48 30.29-6.34-3.62-.39 138.52.01.01 51.09 29.17.02-7.26.37-131.27z" style="fill:#f0f0f0"/><path d="m341.1 161.55.38-131.26-6.34-3.62-.39 138.52.01.01 6.37-3.63z" style="opacity:.1"/><path d="m385.87 187.11-44.74-25.54-6.37 3.63 51.09 29.17z" style="opacity:.2"/><path d="m411.38 70.2-6.34-3.62-.39 138.52.01.01 51.09 29.17.02-7.26.37-131.27z" style="fill:#f0f0f0"/><path d="m411 201.46.38-131.26-6.34-3.62-.39 138.52.01.01 6.37-3.63z" style="opacity:.1"/><path d="m455.77 227.02-44.74-25.54-6.37 3.63 51.09 29.17z" style="opacity:.2"/><path d="m89.58 92.96-31.91 18.43.06 24.38 31.91-18.42z" style="fill:none"/><path d="m89.58 92.96.06 24.39 2.96 1.72-.08-27.81z" style="fill:#f0f0f0"/><path d="m57.73 135.77.01 3.42 34.86-20.12-2.96-1.72z" style="fill:#f5f5f5"/><path d="m96.08 85.1-42 24.25.1 36 42-24.25Zm-38.34 54.09v-3.42l-.07-24.38L89.58 93l2.94-1.7.08 27.81Z" style="fill:#e0e0e0"/><path d="m96.08 85.1-2.95-1.72-42 24.25 2.95 1.72z" style="fill:#f5f5f5"/><path d="m51.13 107.63.1 36.01 2.96 1.72-.11-36.01z" style="fill:#f0f0f0"/><path d="m89.55 147.7-31.91 18.42.07 24.39 31.91-18.43z" style="fill:none"/><path d="m89.55 147.7.07 24.38 2.96 1.72-.08-27.8z" style="fill:#f0f0f0"/><path d="m57.71 190.51.01 3.42 34.86-20.13-2.96-1.72z" style="fill:#f5f5f5"/><path d="m96.06 139.83-42 24.25.1 36 42-24.25Zm-38.34 54.1v-3.42l-.07-24.39 31.9-18.42 3-1.7.08 27.8Z" style="fill:#e0e0e0"/><path d="m96.06 139.84-2.96-1.72-42 24.25 2.96 1.71z" style="fill:#f5f5f5"/><path d="m51.1 162.37.11 36.01 2.95 1.71-.1-36.01z" style="fill:#f0f0f0"/><path d="M138.88 108c.38-.18.76-.36 1.15-.56-.39.2-.77.38-1.15.56M138.46 108.2l.42-.21ZM151.9 60.49l-8.73 5.03-8.87 5.12 8.87-5.12zM151.98 89.25l-.03-8.1-.02-7.39.02 7.39zM140 107.44l.24-.12zM152.08 124.74l-.02-6.77-.02-5.92.02 5.92zM135.07 109.6a40.32 40.32 0 0 1 0 0M125.98 85.47l.07 26 .05 15.07-.05-15.07z" style="fill:none"/><path d="M152.06 118v-5.92l-.27.15-.49.29c-4.38 2.64-8.77 6.8-12.86 11.28-.68.75-1.35 1.5-2 2.25-3.45 4-6.82 8.13-10.29 12v9.57l4.17-2.41A91.9 91.9 0 0 1 152.06 118M152.1 132.66v-7.92a50 50 0 0 0-8.88 13Z" style="fill:#ebebeb"/><path d="M143.2 137.79a50 50 0 0 1 8.88-13v-6.77a91.9 91.9 0 0 0-21.73 27.25l12.87-7.43Z" style="fill:#fafafa"/><path d="M138.88 108" style="fill:none;stroke:gray;stroke-linecap:round;stroke-linejoin:round;stroke-width:0"/><path d="m134.47 109.81.6-.21c1.13-.4 2.26-.87 3.39-1.4l.42-.2c.38-.18.76-.36 1.15-.56.66-.33 1.32-.69 2-1.06-.66.37-1.32.73-2 1.06l.24-.12c.58-.3 1.16-.61 1.74-.94l.37-.21.31-.18a63 63 0 0 0 8.93-6.4l.39-.33v-10c-6.35 3.25-12.6 4.26-17.64 2.69a15.48 15.48 0 0 1-8.37-6.48l.07 26a30.6 30.6 0 0 0 8.4-1.66M138.42 123.77c4.09-4.48 8.48-8.64 12.86-11.28l.49-.29.27-.15v-5.74a124.3 124.3 0 0 0-23.4 17.81c-.84.81-1.69 1.63-2.53 2.42v11.52c3.47-3.91 6.84-8.09 10.29-12 .67-.79 1.34-1.54 2.02-2.29" style="fill:#fafafa"/><path d="M152 106.31v-7l-.39.33a63 63 0 0 1-8.93 6.4l-.31.18-.37.21c-.58.33-1.16.64-1.74.94l-.24.12-.16.09.16-.09c-.39.2-.77.38-1.15.56l-.42.21c-1.13.52-2.26 1-3.39 1.39l.64-.24-.64.24-.6.21a30.6 30.6 0 0 1-8.42 1.66v15.07c.84-.79 1.69-1.61 2.53-2.42A124.3 124.3 0 0 1 152 106.31" style="fill:#ebebeb"/><path d="M152 81.15v-7.39c-4-.94-7.12-3.87-8.76-8.24l-8.87 5.12A18.32 18.32 0 0 0 152 81.15" style="fill:#fafafa"/><path d="M134.34 91.94c5 1.57 11.29.56 17.64-2.69v-8.1a18.32 18.32 0 0 1-17.68-10.51l-8.3 4.82v10a15.48 15.48 0 0 0 8.34 6.48" style="fill:#ebebeb"/><path d="m153.35 58-28.87 16.64.22 75.52 28.87-16.67Zm-27.19 89.66V111.5l-.07-26v-10l8.35-4.82 8.87-5.12 8.73-5v72.11l-8.9 5.13-12.87 7.43Z" style="fill:#fff"/><path d="m139.87 107.53.16-.09M142 106.38c-.66.37-1.32.73-2 1.06M135.07 109.6l.64-.24" style="fill:none;stroke:gray;stroke-linecap:round;stroke-linejoin:round;stroke-width:0"/><path d="M151.93 73.76V60.49l-8.73 5c1.61 4.4 4.72 7.33 8.73 8.27" style="fill:#ebebeb"/><path d="m153.57 133.49-28.88 16.67.01 2 30.6-17.66z" style="fill:#cacaca"/><path d="m153.35 57.97.22 75.52 1.73 1.01-.22-77.53z" style="fill:#f0f0f0"/><path d="M159.72 48.93 119.81 72l.25 88.23 39.91-23Zm-35 103.23v-2l-.22-75.52L153.35 58l1.73-1 .22 77.53Z" style="fill:#e0e0e0"/><path d="m159.72 48.93-3.29-1.77-39.91 23.04 3.29 1.77z" style="fill:#f5f5f5"/><path d="m116.52 70.2.25 88.23 3.29 1.77-.25-88.23z" style="fill:#f0f0f0"/><path d="m79.44 102.22 8.7 6.86.02 6.69-28.95 16.71-.01-6.69 5.51-10.96 4.95 3.84-1.75 5.45 2.54-4.84z" style="fill:#e0e0e0"/><path d="M69.93 105.6c1.36-.79 2.47-.16 2.47 1.41a5.42 5.42 0 0 1-2.4 4.26c-1.37.78-2.47.15-2.48-1.41a5.42 5.42 0 0 1 2.41-4.26M79.42 156.96l8.7 6.85.02 6.69-28.95 16.71-.02-6.69 5.52-10.96 4.95 3.85-1.75 5.44 2.54-4.83z" style="fill:#e0e0e0"/><path d="M69.91 160.33c1.36-.79 2.47-.16 2.47 1.41a5.39 5.39 0 0 1-2.46 4.26c-1.36.79-2.47.15-2.47-1.41a5.41 5.41 0 0 1 2.46-4.26" style="fill:#e0e0e0"/><path d="m200.09 265.37 4.54 2.64-.02-5.25z" style="fill:#e6e6e6"/><path d="M204.5 237.39v-.06z" style="fill:#787878"/><rect height="127.6" x="149.24" y="205.41" style="fill:#cfcfcf"/><path d="M204.43 211.87 93.9 275.63z" style="fill:#cfcfcf"/><path d="M204.61 262.76v5.25l4.72-2.73-.18-61.62-120 69.25.18 61.63 4.67-2.73v-5.24l106.09-61.2ZM93.9 275.63l110.53-63.76.06 20L94 295.62Zm.1 25.46 110.5-63.76v.06l.06 19.93L94 321.07Z" style="fill:#ebebeb"/><path d="m204.56 257.31-.06-19.92v-.06L93.97 301.09l.06 19.98zM204.49 231.86l-.06-19.99L93.9 275.63l.06 19.99zM89.12 272.91 42.3 245.7l.17 61.62 46.83 27.22z" style="fill:#f5f5f5"/><path d="m89.12 272.91 120.06-69.25-46.83-27.21L42.3 245.7z" style="fill:#fafafa"/><path d="m273.65 365.86 2.7 1.72a3 3 0 0 0 3-.32 9.45 9.45 0 0 0 4.31-7.45 3.07 3.07 0 0 0-1.21-2.73l-.8-.5 25.85-10.51a1.9 1.9 0 0 0 1 1.51l-2.33 20.33v2.75a9.65 9.65 0 0 0-3.56 6.94 3 3 0 0 0 1.35 2.8l2.7 1.72h.05a3.07 3.07 0 0 0 3-.32 9.47 9.47 0 0 0 4.31-7.46 3.07 3.07 0 0 0-1.21-2.73l-2.81-1.74a2.37 2.37 0 0 0-1.44-.32l3-21.18a6.6 6.6 0 0 0 1.89-.3l24.48 13.23-1.41.89a3 3 0 0 0-1.21 2.73 9.47 9.47 0 0 0 4.3 7.45 3 3 0 0 0 3 .32l2.7-1.72a3 3 0 0 0 1.34-2.81 9.6 9.6 0 0 0-3.5-6.89V357l-22.75-13.52 12-3a8.8 8.8 0 0 0-1.28 4.27 3 3 0 0 0 1.35 2.81l2.7 1.73h.05a3 3 0 0 0 3-.32 9.47 9.47 0 0 0 4.3-7.45 3 3 0 0 0-1.21-2.73l-2.75-1.79a2.55 2.55 0 0 0-2-.2v-.68l-1.46-.5-19.53 1v-3.45c.21-.1.42-.18.61-.29a3.31 3.31 0 0 0 1.94-2.68v-22.55H305v22.59a3.25 3.25 0 0 0 1.91 2.68 6 6 0 0 0 .64.31v2.9l-14.11-3.05-.68.27v2.59l-2.76 1.74a3 3 0 0 0-1.21 2.73 9.3 9.3 0 0 0 2.13 5.5l-13.64 6.14v3.23a6 6 0 0 0-.56.27 9.51 9.51 0 0 0-4.31 7.45 3 3 0 0 0 1.24 2.86m8.13-14.57 9.88-4.4-13.36 5.94Zm17.47-11.11 2 1.07-1.38.63a10 10 0 0 0-.62-1.7m8.27-.36-7.44 3.31Z" style="fill:#e0e0e0"/><path d="m339.21 342.49 2.16-3.7-2.81-1.79a3 3 0 0 0-3.12.26 9.54 9.54 0 0 0-4.31 7.45 3 3 0 0 0 1.35 2.81l2.76 1.76 2.27-3.9a10.3 10.3 0 0 0 1.7-2.89" style="fill:#37474f"/><path d="M338.25 339.05c2.38-1.37 4.32-.27 4.33 2.47a9.47 9.47 0 0 1-4.3 7.45c-2.39 1.38-4.33.28-4.34-2.47a9.51 9.51 0 0 1 4.31-7.45" style="fill:#455a64"/><path d="m292.05 341.44-2.16-3.71 2.81-1.73a3 3 0 0 1 3.12.26 9.47 9.47 0 0 1 4.3 7.45 2.94 2.94 0 0 1-1.34 2.8l-2.78 1.73-2.28-3.91a10.4 10.4 0 0 1-1.67-2.89" style="fill:#37474f"/><path d="M293 338c-2.38-1.38-4.32-.28-4.33 2.46a9.5 9.5 0 0 0 4.3 7.46c2.39 1.37 4.33.27 4.34-2.47A9.51 9.51 0 0 0 293 338" style="fill:#455a64"/><path d="M307.52 332.26h8v13.8a2 2 0 0 1-1.18 1.64 6.23 6.23 0 0 1-5.67 0 2 2 0 0 1-1.16-1.64Z" style="fill:#ebebeb"/><path d="M336.52 336.13v3.29l-20.99 5.29v-6.97z" style="fill:#e0e0e0"/><path d="m336.52 336.13-1.46-.5-19.53 1.03v1.08z" style="fill:#f5f5f5"/><path d="m338.62 366-2.16-3.7 2.81-1.78a3 3 0 0 1 3.12.26 9.5 9.5 0 0 1 4.3 7.45 3 3 0 0 1-1.34 2.81l-2.76 1.75-2.28-3.9a10.4 10.4 0 0 1-1.69-2.89" style="fill:#37474f"/><path d="M339.58 362.52c-2.38-1.38-4.32-.28-4.33 2.46a9.47 9.47 0 0 0 4.3 7.45c2.39 1.38 4.33.28 4.34-2.46a9.51 9.51 0 0 0-4.31-7.45" style="fill:#455a64"/><path d="m310.67 375.36 2.17-3.71-2.84-1.78a3 3 0 0 0-3.12.26 9.51 9.51 0 0 0-4.31 7.45 3 3 0 0 0 1.35 2.8l2.75 1.76 2.28-3.91a10.1 10.1 0 0 0 1.72-2.87" style="fill:#37474f"/><path d="M309.72 371.92c2.38-1.38 4.32-.27 4.33 2.46a9.47 9.47 0 0 1-4.31 7.46c-2.38 1.37-4.32.27-4.33-2.47a9.47 9.47 0 0 1 4.31-7.45" style="fill:#455a64"/><path d="m280.37 360.82 2.17-3.7-2.81-1.78a3 3 0 0 0-3.12.26 9.51 9.51 0 0 0-4.31 7.45 3 3 0 0 0 1.35 2.81l2.75 1.75 2.28-3.9a10.3 10.3 0 0 0 1.69-2.89" style="fill:#37474f"/><path d="M279.42 357.39c2.38-1.38 4.32-.28 4.33 2.46a9.45 9.45 0 0 1-4.31 7.45c-2.38 1.38-4.32.28-4.33-2.46a9.45 9.45 0 0 1 4.31-7.45" style="fill:#455a64"/><path d="M341.56 357.94v5.32l-28.1-15.18v-7.35z" style="fill:#e0e0e0"/><path d="m343.19 357.02-28.12-16.7-1.61.41 28.1 17.21z" style="fill:#f5f5f5"/><path d="m343.19 362.35-1.63.91v-5.32l1.63-.92z" style="fill:#f0f0f0"/><path d="m311.57 340.73-3.43 27.17v4.85l3.43-24.37z" style="fill:#e0e0e0"/><path d="M306.16 367.9h1.98v4.86h-1.98z" style="fill:#f0f0f0"/><path d="m306.16 367.9 3.12-27.17h2.29l-3.43 27.17z" style="fill:#f5f5f5"/><path d="M278.3 352.83v5.11l29.22-11.88v-6.24z" style="fill:#e0e0e0"/><path d="m277.17 357.18 1.13.76v-5.11l-1.13-.73z" style="fill:#f0f0f0"/><path d="m281.78 351.29-3.48 1.54-1.13-.73 30.35-13.67v1.39z" style="fill:#f5f5f5"/><path d="M292.73 333.35v3.34l8.52 4.56 6.27-2.82v-1.37z" style="fill:#e0e0e0"/><path d="m292.73 333.35.67-.27 14.12 3.05v.93z" style="fill:#f5f5f5"/><path d="M305 307.65h13.11v22.59a3.31 3.31 0 0 1-1.94 2.68 10.21 10.21 0 0 1-9.26 0 3.25 3.25 0 0 1-1.91-2.68Z" style="fill:#e0e0e0"/><path d="M253.36 271.35a7.25 7.25 0 0 1 2.49-2.41l4.9-2.51c0-17.47-2.58-15.76-7.39-22.61s2.56-11.11 8.12-8.07 31.06 9.14 39.28 1.07c10.22-10 5.94-35.32 4.72-45.22s0-16.75 2.74-19.64 6.7-7.16 19.56-1.83c0 0 34.67 15 51.64 23.4a22.8 22.8 0 0 1 10.69 5.47 7.2 7.2 0 0 1 2 2.59 3.06 3.06 0 0 1-.38 3.08 3 3 0 0 1-2 .92l-21.42 79.13a19 19 0 0 1-9.72 11.95l-37.49 18.91a12.54 12.54 0 0 1-11.51-.11l-53.4-28.37c-5.33-3.04-5.83-11.2-2.83-15.75" style="fill:#37474f"/><path d="M253.36 271.35a8.36 8.36 0 0 0 2.83 2.68l53.4 28.36a12.51 12.51 0 0 0 11.51.12l37.41-18.95a19 19 0 0 0 9.72-11.95l18-66.68.91.28a7.3 7.3 0 0 0 2.36.35h.1l-21.42 79.13a19 19 0 0 1-9.72 11.95l-37.36 18.94a12.54 12.54 0 0 1-11.51-.11l-53.4-28.37c-5.33-3.04-5.83-11.2-2.83-15.75" style="fill:#37474f"/><path d="m255.85 268.94 38.69-19.85 51 26.22c-1.66.4-3.34.73-5 1.07-4.38.88-8.85 1.85-12.66 4.19s-6.88 6.35-6.91 10.82l1.36 10.51-1.18.61a12.51 12.51 0 0 1-11.51-.12L256.19 274a8.36 8.36 0 0 1-2.83-2.68 7.25 7.25 0 0 1 2.49-2.38" style="fill:#455a64"/><path d="m255.85 268.94 38.69-19.85 51 26.22c-1.66.4-3.34.73-5 1.07-4.38.88-8.85 1.85-12.66 4.19s-6.88 6.35-6.91 10.82l1.36 10.51-1.18.61a12.51 12.51 0 0 1-11.51-.12L256.19 274a8.36 8.36 0 0 1-2.83-2.68 7.25 7.25 0 0 1 2.49-2.38" style="opacity:.1"/><path d="M261.48 235.75s31.06 9.14 39.28 1.07c10.22-10 5.94-35.32 4.72-45.22s0-16.75 2.74-19.64 6.7-7.16 19.56-1.83c-13 6.7-14.69 38.54-10.58 51.32-10.2 10.5-9.5 26.76-9.7 34.31 0 0-26.53 6.48-40.39 14.1Z" style="fill:#455a64"/><path d="M261.48 235.75s31.06 9.14 39.28 1.07c10.22-10 5.94-35.32 4.72-45.22s0-16.75 2.74-19.64 6.7-7.16 19.56-1.83c-13 6.7-14.69 38.54-10.58 51.32-10.2 10.5-9.5 26.76-9.7 34.31 0 0-26.53 6.48-40.39 14.1Z" style="fill:#fff;opacity:.1"/><path d="m267.11 269.86-6.36-3.43c0-17.47-2.58-15.76-7.39-22.61s2.56-11.11 8.12-8.07 7.8 12.25 5.63 34.11" style="fill:#455a64"/><path d="m267.11 269.86-6.36-3.43c0-17.47-2.58-15.76-7.39-22.61s2.56-11.11 8.12-8.07 7.8 12.25 5.63 34.11" style="fill:#fff;opacity:.2"/><path d="M327.78 170.13s34.8 15.07 51.73 23.45l-1.23 6.18-55.49-25.2a14.8 14.8 0 0 1 4.99-4.43" style="fill:#455a64"/><path d="M327.78 170.13s34.8 15.07 51.73 23.45l-1.23 6.18-55.49-25.2a14.8 14.8 0 0 1 4.99-4.43" style="fill:#fff;opacity:.1"/><path d="M317.2 221.45c-3.51-10.91-2.79-35.7 5.59-46.89l55.49 25.2-12.68 63.57-20.1 12-38-19.55c.2-7.57-.5-23.78 9.7-34.33" style="fill:#455a64"/><path d="M351.55 234.2c-.94-.55-1.71-.11-1.71 1a3.72 3.72 0 0 0 1.7 2.94c.94.55 1.7.11 1.71-1a3.75 3.75 0 0 0-1.7-2.94M343 229.15c-.94-.54-1.71-.11-1.71 1a3.77 3.77 0 0 0 1.7 2.95c.94.54 1.71.1 1.71-1a3.75 3.75 0 0 0-1.7-2.95M334.37 224.1c-.94-.54-1.7-.1-1.71 1a3.75 3.75 0 0 0 1.7 2.94c.94.54 1.71.11 1.71-1a3.74 3.74 0 0 0-1.7-2.94M325.79 219.06c-1-.55-1.71-.11-1.72 1a3.75 3.75 0 0 0 1.7 2.94c1 .55 1.71.11 1.71-1a3.71 3.71 0 0 0-1.69-2.94" style="fill:#455a64"/><g style="opacity:.2"><path d="M351.55 234.2c-.94-.55-1.71-.11-1.71 1a3.72 3.72 0 0 0 1.7 2.94c.94.55 1.7.11 1.71-1a3.75 3.75 0 0 0-1.7-2.94M343 229.15c-.94-.54-1.71-.11-1.71 1a3.77 3.77 0 0 0 1.7 2.95c.94.54 1.71.1 1.71-1a3.75 3.75 0 0 0-1.7-2.95M334.37 224.1c-.94-.54-1.7-.1-1.71 1a3.75 3.75 0 0 0 1.7 2.94c.94.54 1.71.11 1.71-1a3.74 3.74 0 0 0-1.7-2.94M325.79 219.06c-1-.55-1.71-.11-1.72 1a3.75 3.75 0 0 0 1.7 2.94c1 .55 1.71.11 1.71-1a3.71 3.71 0 0 0-1.69-2.94" style="fill:#fff"/></g><path d="M327.83 280.57c3.81-2.34 8.28-3.31 12.66-4.19 1.67-.34 3.35-.67 5-1.07a31 31 0 0 0 7.75-2.83c6.14-3.39 10.26-9.73 12.24-16.46s2-13.86 1.6-20.86-1.28-14-1.07-21c.12-4.08.74-8.45 3.5-11.45s7.44-4.06 11.6-3.5a24 24 0 0 1 4 .95l1.85 2.15-.71 2.62-18 66.68a19 19 0 0 1-8.29 11.13c-.47.29-.94.57-1.43.82l-36.25 18.34-1.36-10.51c.08-4.47 3.08-8.48 6.91-10.82" style="fill:#37474f"/><path d="M327.78 273.4c13.25-3.77 26.27-4.26 31.06-13.78s5.16-22.62 2.75-45.49a34.2 34.2 0 0 1 .21-8.84c1.41-8.54 6.55-12.19 12.46-12.28a23 23 0 0 1 15.85 6 7.2 7.2 0 0 1 2 2.59 3.06 3.06 0 0 1-.38 3.08 3 3 0 0 1-2 .92h-.1a7.3 7.3 0 0 1-2.36-.35l-.91-.28c-1.62-.51-3.21-1.12-4.86-1.53a10.63 10.63 0 0 0-6 0 6.34 6.34 0 0 0-3.83 4.27c-5.58 18.25 1.5 37.86-4.78 52.93-5.14 13.7-22.9 19.39-35.43 23.45a7.6 7.6 0 0 0 3.12-2.27 5.26 5.26 0 0 0-.48-6.35 7 7 0 0 0-6.32-2.07" style="fill:#455a64"/><path d="M327.78 273.4c13.25-3.77 26.27-4.26 31.06-13.78s5.16-22.62 2.75-45.49a34.2 34.2 0 0 1 .21-8.84c1.41-8.54 6.55-12.19 12.46-12.28a23 23 0 0 1 15.85 6 7.2 7.2 0 0 1 2 2.59 3.06 3.06 0 0 1-.38 3.08 3 3 0 0 1-2 .92h-.1a7.3 7.3 0 0 1-2.36-.35l-.91-.28c-1.62-.51-3.21-1.12-4.86-1.53a10.63 10.63 0 0 0-6 0 6.34 6.34 0 0 0-3.83 4.27c-5.58 18.25 1.5 37.86-4.78 52.93-5.14 13.7-22.9 19.39-35.43 23.45a7.6 7.6 0 0 0 3.12-2.27 5.26 5.26 0 0 0-.48-6.35 7 7 0 0 0-6.32-2.07" style="fill:#fff;opacity:.1"/><path d="M318.59 282.78a19.8 19.8 0 0 1 3.39-5.94 10.2 10.2 0 0 1 5.8-3.44 7 7 0 0 1 6.27 2 5.26 5.26 0 0 1 .48 6.35 7.6 7.6 0 0 1-3.12 2.27 29 29 0 0 0-2.92 1.44 12.3 12.3 0 0 0-5 7.07 36.8 36.8 0 0 0-1.16 8.76l-.05.57-6.2-3.44a38 38 0 0 1 2.51-15.64" style="fill:#455a64"/><path d="M318.59 282.78a19.8 19.8 0 0 1 3.39-5.94 10.2 10.2 0 0 1 5.8-3.44 7 7 0 0 1 6.27 2 5.26 5.26 0 0 1 .48 6.35 7.6 7.6 0 0 1-3.12 2.27 29 29 0 0 0-2.92 1.44 12.3 12.3 0 0 0-5 7.07 36.8 36.8 0 0 0-1.16 8.76l-.05.57-6.2-3.44a38 38 0 0 1 2.51-15.64" style="fill:#fff;opacity:.2"/><path d="M359.44 153v2.61c4.05.8 8 1.67 12.17-.39l-.23-4.52V145l-4.25-.45Z" style="fill:#ffa8a7"/><path d="M359.44 153c4.62 1.91 7.89-2.39 7.89-2.39a2.52 2.52 0 0 0 3.48-.15l.8 4.76v-11.8l-5.45.24-7.34 7.25Z" style="opacity:.2"/><path d="m367.81 140.15 7.42.37a2.22 2.22 0 0 1 2 1.67 32 32 0 0 1 1 7.92v3.94a2.67 2.67 0 0 1-.78 1.89 2.67 2.67 0 0 1-2.16.77l-2.36-.24a1.49 1.49 0 0 1-1.35-1.41l-.22-4.4V143a2.17 2.17 0 0 0-1.42-2Z" style="fill:#ffa8a7"/><path d="m357.4 146.12 6.41-5.64a3.23 3.23 0 0 1 3.23-.61l2.92 1.06a2.17 2.17 0 0 1 1.42 2v5.43a2 2 0 0 1-2.25 2 2 2 0 0 1-1.83-1.94l-.17-4a7.73 7.73 0 0 1-7.69 8.43Z" style="fill:#ffa8a7"/><path d="m372.14 154.73.21-11.88a1.92 1.92 0 0 0-1.45-1.91l-3.09-.79 2.15.78a2.17 2.17 0 0 1 1.42 2v7.69l.22 4.4a1.49 1.49 0 0 0 1.35 1.41l.59.06-.5-.27a1.67 1.67 0 0 1-.9-1.49" style="opacity:.2"/><path d="M357.4 146.12a13.7 13.7 0 0 0-5.31 4.61l-23.73 35-25.12 12.11 13.69 17.58 21.68-16.82a23.65 23.65 0 0 0 6.94-8.74l15.68-34Z" style="fill:#ffa8a7"/><path d="M360.44 159.25a9.21 9.21 0 0 0-9.42-8.48l-23.38 34.45-24.4 12.66 13.69 17.58 24.27-17.31a18.4 18.4 0 0 0 6.29-7.89Z" style="fill:#cd5954"/><path d="M360.44 159.25a9.21 9.21 0 0 0-9.42-8.48l-23.38 34.45-24.4 12.66 13.69 17.58 24.27-17.31a18.4 18.4 0 0 0 6.29-7.89Z" style="fill:#fff;opacity:.30000000000000004"/><path d="M357.42 153.13a9.35 9.35 0 0 0-6.4-2.36l-3.91 5.75a9.58 9.58 0 0 1 10.48 9.55l2.85-6.82a9.36 9.36 0 0 0-3.02-6.12" style="fill:#fff;opacity:.30000000000000004"/><path d="M375.73 141.94a11.31 11.31 0 0 0 10.29 0 3.59 3.59 0 0 0 2.12-3 3.65 3.65 0 0 0-2.15-3 11.33 11.33 0 0 0-10.3 0 3.15 3.15 0 0 0 0 6Z" style="fill:#e0e0e0"/><path d="M376.43 144.72a9.81 9.81 0 0 0 8.89 0 3.09 3.09 0 0 0 1.82-2.57 3.16 3.16 0 0 0-1.85-2.58 9.81 9.81 0 0 0-8.89 0 2.72 2.72 0 0 0 0 5.15Z" style="fill:#f28f8f"/><path d="M376.43 144.72a9.81 9.81 0 0 0 8.89 0 3.09 3.09 0 0 0 1.82-2.57 3.16 3.16 0 0 0-1.85-2.58 9.81 9.81 0 0 0-8.89 0 2.72 2.72 0 0 0 0 5.15Z" style="opacity:.30000000000000004"/><path d="M376.43 144.72a9.81 9.81 0 0 0 8.89 0 3.09 3.09 0 0 0 1.82-2.57 3.16 3.16 0 0 0-1.85-2.58 9.81 9.81 0 0 0-8.89 0 2.72 2.72 0 0 0 0 5.15Z" style="fill:#fff;opacity:.30000000000000004"/><path d="M388.14 139a3.59 3.59 0 0 1-2.12 3 11.31 11.31 0 0 1-10.29 0 3.63 3.63 0 0 1-2.15-3v17.91a3.65 3.65 0 0 0 2.15 3 11.38 11.38 0 0 0 10.29 0 3.61 3.61 0 0 0 2.12-3z" style="fill:#f5f5f5"/><path d="M310.77 194c13.72 2.27 17.54 7.81 19 12.31l-12.86 9.18-13.69-17.58Z" style="opacity:.2"/><path d="m209.4 149.65 16.81 48.7 34.74-19.28-16.62-48.17z" style="fill:#cd5954"/><path d="m209.4 149.65 16.81 48.7 34.74-19.28-16.62-48.17z" style="opacity:.30000000000000004"/><path d="m209.4 149.65 16.81 48.7 34.74-19.28-16.62-48.17z" style="fill:#fff;opacity:.2"/><path d="m255.79 177.09-13.84-40.1-27.37 14.68 13.98 40.53z" style="fill:#fff"/><path d="m237.13 139.96-15.22 7.98-.66-2.03 2.96-2.6 8.33-4.18 3.79-.71z" style="fill:#455a64"/><path d="m232.54 139.13-.66-1.55-8.13 4.37.46 1.36z" style="fill:#37474f"/><path d="m236.61 135.05-18.4 9.87-.79-1.92 18.56-9.74z" style="fill:#455a64"/><path d="M231.63 135.54c-1.6-5.06-11.22-.29-9.34 4.91Z" style="fill:#37474f"/><path d="m264.92 192.2-14.3 13.42-22.29-21.93a7.75 7.75 0 0 1-2.26-4.57c-1.06-8.32-3.37-14.26-6.33-13.21-1.86.65.52 8.75.52 8.75l-2.78-1.58-3.24-9.4h-1.46a3.71 3.71 0 0 0-3.5 2.49l-1.39 4a11.79 11.79 0 0 0 4.11 13.35l4.89 3.62a7.5 7.5 0 0 1 1.87 2c9.62 14.58 19.9 27 26.14 33.41a6.67 6.67 0 0 0 8.44.87c13.64-9 24.92-24.26 24.92-24.26Z" style="fill:#ffa8a7"/><path d="M217.77 189.15a8.78 8.78 0 0 1 4.32-5.35 10.33 10.33 0 0 1 7.38-1.12l21.2 20.83 14.25-11.31 13.35 6.94c-9.19 12.89-17.84 20.76-23.31 25a8.29 8.29 0 0 1-10.88-.61c-18.76-18.41-26.31-34.38-26.31-34.38" style="fill:#cd5954"/><path d="M217.77 189.15a8.78 8.78 0 0 1 4.32-5.35 10.33 10.33 0 0 1 7.38-1.12l21.2 20.83 14.25-11.31 13.35 6.94c-9.19 12.89-17.84 20.76-23.31 25a8.29 8.29 0 0 1-10.88-.61c-18.76-18.41-26.31-34.38-26.31-34.38" style="fill:#fff;opacity:.30000000000000004"/><path d="M226.05 189.65a12.94 12.94 0 0 1 9-1.49l-5.57-5.48a10.33 10.33 0 0 0-7.38 1.12 8.78 8.78 0 0 0-4.32 5.35s1 2.19 3.3 5.88a12.9 12.9 0 0 1 4.97-5.38" style="fill:#fff;opacity:.30000000000000004"/><path d="M250.67 203.51a27.7 27.7 0 0 0-6.88 6.71c.17-5.6 1.84-7.91 4.72-8.83Z" style="opacity:.2"/><path d="m319.44 199.42 30.71 33.48 26.35-18.5a10.08 10.08 0 0 1 7.72-1.66l10.24 1.94a2.84 2.84 0 0 1 2.28 2.54l.33 3.76a1.79 1.79 0 0 1-1 1.77l-3.22 1.61 2.4 3a2.13 2.13 0 0 1-.33 3 2.12 2.12 0 0 1-2.86-.17l-5.2-5.33-1.63 1.14a3.83 3.83 0 0 1-5.16-.67l-1.49-1.79-21.43 22.31a9.48 9.48 0 0 1-12.71.86L315.73 224Z" style="fill:#ffa8a7"/><path d="m386.87 224.85-4.73-3.85a5.52 5.52 0 0 0 4.27 3.73ZM392.86 224.36l-2.89-3.32 6.11 1.71z" style="opacity:.2"/><path d="M374.62 215.72c-3.67 2.57.08 10.06 2.15 10.75l-18.61 20.91a10.62 10.62 0 0 1-14.47 1.3l-29.08-22.79 1.12-1.87 3.71-24.6 30.67 31.65s19.89-14.59 24.51-15.35" style="fill:#cd5954"/><path d="M374.62 215.72c-3.67 2.57.08 10.06 2.15 10.75l-18.61 20.91a10.62 10.62 0 0 1-14.47 1.3l-29.08-22.79 1.12-1.87 3.71-24.6 30.67 31.65s19.89-14.59 24.51-15.35" style="fill:#fff;opacity:.30000000000000004"/><path d="M374.62 215.72c-1.41.23-4.27 1.77-7.55 3.79a8.16 8.16 0 0 0-.74 6.71 8.3 8.3 0 0 0 6.06 5.18l4.38-4.93c-2.07-.69-5.77-8.18-2.15-10.75" style="fill:#fff;opacity:.6000000000000001"/><path d="m319.44 199.43 5.08 5.24 9.62 36.53-19.53-15.31 1.12-1.88zM350.11 231.07l-6 4.08 3.7-6.46z" style="opacity:.2"/><path d="m377.41 275.51 10.53-43a5.07 5.07 0 0 1 2.4-3.19l26.29-15.14a.9.9 0 0 1 .5-.13 2.47 2.47 0 0 1 2.38 1.67 1 1 0 0 1 .07.67l-10.58 43a5.1 5.1 0 0 1-2.4 3.19l-26.29 15.14a1 1 0 0 1-.69.11 3 3 0 0 1-2.19-1.66v-.08a1 1 0 0 1-.02-.58" style="fill:#cd5954"/><path d="m378.85 276.59 10.54-43a5.07 5.07 0 0 1 2.4-3.19l26.29-15.14a1 1 0 0 1 1.5 1.12L409 259.39a5.1 5.1 0 0 1-2.4 3.19l-26.29 15.14a1 1 0 0 1-1.5-1.13Z" style="opacity:.30000000000000004"/><path d="M395.58 257c-2.8-1.23-9.43 6.41-14.9 5.3l1.37-5.52c-8.58 1-11 4.1-14 4.51a28.3 28.3 0 0 1-5.62-.23 26.3 26.3 0 0 1 .06 13.18c3 0 5.17.09 5.93.09 3.88 0 8.42 1.65 12.63.81 8-1.89 11.12-4.8 11.15-8.26 0 0 3.28-2.23 2.26-5.8-.03-.02 3.92-2.86 1.12-4.08" style="fill:#ffa8a7"/><path d="M356.91 259.36c-7.52-1.33-10.82-2.62-20-3.09l-6.35-17.81c-2.88-8.94-9.71-28.7-15.62-34.7-17 3.63-18.27 11.4-3 48 1.12 2.71 5.4 11.31 8.4 17.27a11 11 0 0 0 9.8 6.05h26.09a32.85 32.85 0 0 0 .68-15.72" style="fill:#cd5954"/><path d="M365.79 260.61c-3.62-.4-6.46-.83-8.88-1.25a32.85 32.85 0 0 1-.65 15.68h8.57s4.17-8.12.96-14.43" style="fill:#cd5954"/><path d="M356.91 259.36c-7.52-1.33-10.82-2.62-20-3.09l-6.35-17.81c-2.88-8.94-9.71-28.7-15.62-34.7-17 3.63-18.27 11.4-3 48 1.12 2.71 5.4 11.31 8.4 17.27a11 11 0 0 0 9.8 6.05h26.09a32.85 32.85 0 0 0 .68-15.72" style="fill:#fff;opacity:.30000000000000004"/><path d="M365.79 260.61c-3.62-.4-6.46-.83-8.88-1.25a32.85 32.85 0 0 1-.65 15.68h8.57s4.17-8.12.96-14.43" style="fill:#fff;opacity:.6000000000000001"/><path d="M336.93 256.27a45.6 45.6 0 0 0-10.93 1.29 24.6 24.6 0 0 1 9.05-6.56Z" style="opacity:.2"/><path d="M295.93 308.1c6.12-2.64 14.45-7.05 17.6-12.93s2.84-16.63 1.64-23.19l-49.24-13.65c-1.48 14.28-14.6 23.63-14.6 23.63Z" style="fill:#263238"/><path d="m227.18 217.9-4.66-3.45a9.2 9.2 0 0 1-3.16-4.24l-1.1-3a11.43 11.43 0 0 0-3.9-5.2 39.2 39.2 0 0 1-7.14-6.86 4.3 4.3 0 0 0-.31 5.43 30 30 0 0 0 2.85 3.26l-2.57.18a8.88 8.88 0 0 1-5.27-1.29l-6.51-4a1.23 1.23 0 0 0-1.88 1 28.1 28.1 0 0 0 1.88 9.42 10.58 10.58 0 0 0 6.21 6.28c3.45 1.32 6.81 2.47 8.73 3.11a11 11 0 0 1 3.06 1.59l6.83 5.09Z" style="fill:#ffa8a7"/><path d="m222.12 213.41 5.88 3.79a11.46 11.46 0 0 1-7.56 9.82l-5.39-5.1s5.19-.8 7.07-8.51" style="fill:#cd5954"/><path d="m222.12 213.41 5.88 3.79a11.46 11.46 0 0 1-7.56 9.82l-5.39-5.1s5.19-.8 7.07-8.51" style="fill:#fff;opacity:.6000000000000001"/><path d="M225.81 223a11.73 11.73 0 0 0 2.19-5.8l18.38 11.85 10.84-30.34a11.44 11.44 0 0 1 9.31-7.5l5.3-.68-4.95 35.52-8.45 16.95a11.27 11.27 0 0 1-17.24 3.68L220.43 227a11.7 11.7 0 0 0 5.38-4" style="fill:#cd5954"/><path d="M225.81 223a11.73 11.73 0 0 0 2.19-5.8l18.38 11.85 10.84-30.34a11.44 11.44 0 0 1 9.31-7.5l5.3-.68-4.95 35.52-8.45 16.95a11.27 11.27 0 0 1-17.24 3.68L220.43 227a11.7 11.7 0 0 0 5.38-4" style="fill:#fff;opacity:.4"/><path d="m246.37 229.05 6.96 5.22-5.03-10.63z" style="opacity:.2"/><path d="m253.24 102.57-1.69 4.05a9.7 9.7 0 0 0-.73 4.4l1 15L266 174a26.9 26.9 0 0 0 4.43 8.74l14.33 18.77 11.76-12.74-13.75-18.06L261.32 125l4.18-4.82a7.4 7.4 0 0 0 1.76-4.06l.49-4.67a1.49 1.49 0 0 0-1.2-1.62 1.66 1.66 0 0 0-1.87 1l-1.5 3.72a3.17 3.17 0 0 1-1 1.3 3.12 3.12 0 0 1-4.45-.68l-2.4-3.42Z" style="fill:#ffa8a7"/><path d="M262.81 126.06a10.14 10.14 0 0 0-10.58 3.73l12.14 44.32a22.6 22.6 0 0 0 3.43 7.19l15.59 21.62 1.33-1.38 11.76-12.74-13.75-18.06Z" style="fill:#cd5954"/><path d="M262.81 126.06a10.14 10.14 0 0 0-10.58 3.73l12.14 44.32a22.6 22.6 0 0 0 3.43 7.19l15.59 21.62 1.33-1.38 11.76-12.74-13.75-18.06Z" style="fill:#fff;opacity:.30000000000000004"/><path d="M259.12 132.51a9.2 9.2 0 0 1 6.67.24l-3-6.69a10.14 10.14 0 0 0-10.58 3.73l1.91 7a9.23 9.23 0 0 1 5-4.28" style="fill:#fff;opacity:.30000000000000004"/><path d="m281.6 189.49-9.78 1c-8 7.07-12.15 21.89-10.43 38.26a292 292 0 0 1 1.21 33.79c21.71 15.86 49.12 12.85 52.57 9.4l-1.61-28.62a13.9 13.9 0 0 1 1.1-6.61c2-4.76 5.71-14.14 6.2-21.4a37.94 37.94 0 0 0-4-18.7l-14.22-6.21Z" style="fill:#cd5954"/><g style="opacity:.5"><path d="m281.6 189.49-9.78 1c-8 7.07-12.15 21.89-10.43 38.26a292 292 0 0 1 1.21 33.79c21.71 15.86 49.12 12.85 52.57 9.4l-1.61-28.62a13.9 13.9 0 0 1 1.1-6.61c2-4.76 5.71-14.14 6.2-21.4a37.94 37.94 0 0 0-4-18.7l-14.22-6.21Z" style="fill:#fff"/></g><path d="M278.88 203.76c-8.18 18.83-8.05 38.22-8.05 38.22l4 8.66 6.32-8.27a325 325 0 0 1 .76-38.05Z" style="fill:#cd5954"/><path d="M278.54 196.65a29.7 29.7 0 0 0 .34 7.11 5.73 5.73 0 0 0 3.05.56 25 25 0 0 0 4.88-5.91l-4.88-1.76Z" style="fill:#cd5954"/><path d="M281.93 196.65c4.21 1.55 8 9 8 9 11.06-9.4 12.78-15.26 12.78-15.26a22 22 0 0 0-5.36-5.66ZM281.93 196.65c-3.22.08-6.06 4.57-6.06 4.57-.52-7.85 6.06-13.88 6.06-13.88Z" style="fill:#cd5954"/><g style="opacity:.35000000000000003"><path d="M281.93 196.65c4.21 1.55 8 9 8 9 11.06-9.4 12.78-15.26 12.78-15.26a22 22 0 0 0-5.36-5.66ZM281.93 196.65c-3.22.08-6.06 4.57-6.06 4.57-.52-7.85 6.06-13.88 6.06-13.88Z" style="fill:#fff"/></g><path d="M302.68 153.16a8.7 8.7 0 0 0-5.58-3L268 152.9c-3.36 7.22-.68 12-.68 12-.45 11-.83 18 3.94 20.33 2.6 1.27 6.56 1.81 10.64 1.5a25.1 25.1 0 0 0 9.75-2.63l.15-.08a8.34 8.34 0 0 0 4.18-5.57 46 46 0 0 0 1-6.51 27 27 0 0 1 .4-3.72 6.67 6.67 0 0 1 1.64-3.29 3.72 3.72 0 0 1 3.35-1.14 2.6 2.6 0 0 1 .6.23c.82-4.91 1.03-9.15-.29-10.86" style="fill:#37474f"/><path d="M292 154a10.43 10.43 0 0 0 .39 6.19 46 46 0 0 1 1.85 6 10 10 0 0 1-.8 6.07 7.07 7.07 0 0 1-4.64 3.76c-3.13.67-6.19-1.18-9.32-1.8a12.93 12.93 0 0 0-8.77 1.57 1.51 1.51 0 0 1-2.29-1.22c-.37-6.34-.37-16.28.56-20.94ZM295 182.32" style="fill:#ffa8a7"/><path d="M297.52 175.1s0 2.57-.12 5.64a8.8 8.8 0 0 0 2.71-4.27 4 4 0 0 1-2.59-1.37M269.48 148.26l-3.62-2.55a7.87 7.87 0 0 0 1.39 7.23 11.44 11.44 0 0 0 6.38 3.81 24.2 24.2 0 0 0 7.5.35 55.3 55.3 0 0 0 10.83-2 8.6 8.6 0 0 0 4.26-2.27 5.76 5.76 0 0 0 .22-6.73 8.4 8.4 0 0 0-6-3.52 22.5 22.5 0 0 0-7.21.58 21.4 21.4 0 0 1-7.2.52 7.52 7.52 0 0 1-5.81-3.9c-2.02 3.34-.74 8.48-.74 8.48" style="fill:#37474f"/><path d="m278.62 165.24-5.31 6.52 4.87 1.75zM282.64 176.75l-4.1 1.28a2.5 2.5 0 0 0 2.76 1.29 2.33 2.33 0 0 0 1.34-2.57" style="fill:#f28f8f"/><path d="m282.64 176.75-4.1 1.28a2.5 2.5 0 0 0 2.76 1.29 2.33 2.33 0 0 0 1.34-2.57" style="opacity:.30000000000000004"/><path d="M280 179.24a2.2 2.2 0 0 0 1.34.08 2.08 2.08 0 0 0 1.33-1.88 2.36 2.36 0 0 0-1.58.3 2.4 2.4 0 0 0-1.09 1.5" style="fill:#f28f8f"/><path d="M285.84 166.67a1.46 1.46 0 1 1-1.38-1.56 1.46 1.46 0 0 1 1.38 1.56M273.64 165.52a1.46 1.46 0 1 1-1.38-1.55 1.47 1.47 0 0 1 1.38 1.55M272.53 159.56l-3.35 2.09a2.13 2.13 0 0 1 .76-2.28 2.42 2.42 0 0 1 2.59.19M285 160.07c1 .81 2.08 1.62 3.11 2.44a2.13 2.13 0 0 0-.51-2.36 2.44 2.44 0 0 0-2.6-.08" style="fill:#263238"/><path d="M305 166.15a4.1 4.1 0 0 0-2-2.14 2.6 2.6 0 0 0-.6-.23 3.72 3.72 0 0 0-3.35 1.14 6.67 6.67 0 0 0-1.64 3.29 27 27 0 0 0-.4 3.72 45.6 45.6 0 0 1-1 6.67 8.2 8.2 0 0 1-4.15 5.41l-.14.08a25.1 25.1 0 0 1-9.75 2.63v9.93l13.76-8.15a3.31 3.31 0 0 0 1.63-2.8c0-1.59.07-3.34.11-5 .07-3.07.12-5.64.12-5.64a4 4 0 0 0 2.59 1.37 3.4 3.4 0 0 0 1.36-.07 5.12 5.12 0 0 0 3-2.62 9.8 9.8 0 0 0 1-4 8.3 8.3 0 0 0-.54-3.59" style="fill:#ffa8a7"/><path d="M293.6 183.89a9.4 9.4 0 0 0 1.7-3.58 8.23 8.23 0 0 1-3.52 3.7l-.14.08a25.1 25.1 0 0 1-9.75 2.63v2.53a24 24 0 0 0 5.76-1.23 12.93 12.93 0 0 0 5.95-4.13" style="opacity:.2"/><path d="M171.77 385.1c2.81 2.95 7.07 4.2 11.14 4.1a33.8 33.8 0 0 0 11.79-3c3.77-1.55 8.5-5.88 12.57-5.8a99 99 0 0 0 11.92-.82 61.9 61.9 0 0 0-1.69-16.14l-19-.51c-5.13 7-15.12 12.89-22.68 15.09a6.63 6.63 0 0 0-4.69 5 .5.5 0 0 0 0 .12 8.1 8.1 0 0 0 .64 1.96" style="fill:#455a64"/><path d="M207.27 380.42c-4.07-.08-8.8 4.25-12.57 5.8a33.8 33.8 0 0 1-11.79 3c-4.07.1-8.33-1.15-11.14-4.1a8.1 8.1 0 0 1-.66-1.94.5.5 0 0 1 0-.12 6 6 0 0 0 0 2.54 8.1 8.1 0 0 0 .66 1.93c2.81 2.95 7.07 4.2 11.14 4.1a33.6 33.6 0 0 0 11.79-3c3.77-1.55 8.5-5.89 12.57-5.81a90 90 0 0 0 11.74-.68q.13-1.27.18-2.55a99 99 0 0 1-11.92.83M261 391.06a28.6 28.6 0 0 1-.57 5.77 13.4 13.4 0 0 1-5.28 8.42c-2.44 1.6-5.46 2.05-8.38 2.23a18.7 18.7 0 0 1-7.67-.79 8.72 8.72 0 0 1-4.49-3.67s0 .07 0 .1a8 8 0 0 0 5.16 5.38 18.6 18.6 0 0 0 7.67.79c2.92-.18 5.94-.62 8.38-2.23a13.35 13.35 0 0 0 5.28-8.42 27.2 27.2 0 0 0 .57-5.77 9.73 9.73 0 0 1 3.1-7.05c.47-.45.93-.91 1.35-1.39a3.44 3.44 0 0 0 .82-2.52c0-.36-.07-.71-.11-1.05-.7.81-2.34 2.76-2.76 3.15a9.72 9.72 0 0 0-3.07 7.05" style="fill:#263238"/><path d="M246.45 371a21 21 0 0 1-1.48 11.7 44.4 44.4 0 0 1-6.19 10.18 28.7 28.7 0 0 0-3.24 4.73 8.45 8.45 0 0 0-.92 5.45 8.72 8.72 0 0 0 4.49 3.67 18.7 18.7 0 0 0 7.67.79c2.92-.18 5.94-.63 8.38-2.23a13.4 13.4 0 0 0 5.28-8.42 28.6 28.6 0 0 0 .57-5.77 9.72 9.72 0 0 1 3.09-7.1c.42-.39 2.06-2.34 2.76-3.15a21.5 21.5 0 0 0-2.85-8.17Z" style="fill:#455a64"/><path d="M228.5 337.05c-2.35 9.94-3.94 16.19-8.26 29.54 0 0-16.72 3.58-23.31-2.94l7.53-36.36ZM269.24 339.9c-.64 10.19-.26 19.38-2.26 33.27 0 0-14.24 4.73-21.84-.58l-1.25-24.29Z" style="fill:#263238"/><path d="M102.22 270.96v88.38l3.12-1.81v-88.37z" style="fill:#455a64"/><path d="M102.22 270.96v88.38l-3.13-1.81v-88.37z" style="fill:#37474f"/><path d="m105.34 294.53 73.14-42.23v-3.35l-73.14 42.22z" style="fill:#455a64"/><path d="m105.34 287.63 70.01-40.49 3.13 1.81-73.14 42.22z" style="fill:#37474f"/><path d="M322.96 310.44v88.37l3.13-1.8v-88.38z" style="fill:#455a64"/><path d="M322.96 310.44v88.37l-3.12-1.8v-88.38z" style="fill:#37474f"/><path d="M246.7 354.49v88.37l3.12-1.81v-88.37z" style="fill:#455a64"/><path d="M246.7 354.49v88.37l-3.13-1.81v-88.37z" style="fill:#37474f"/><path d="m249.82 378.05 73.14-42.22v-3.36l-73.14 42.22z" style="fill:#455a64"/><path d="m249.82 371.15 70.02-40.48 3.12 1.8-73.14 42.22z" style="fill:#37474f"/><g style="opacity:.2"><path d="M322.96 310.44v88.37l3.13-1.8v-88.38zM322.96 310.44v88.37l-3.12-1.8v-88.38zM246.7 354.49v88.37l3.12-1.81v-88.37zM246.7 354.49v88.37l-3.13-1.81v-88.37z" style="fill:#fff"/><path d="m249.82 378.05 73.14-42.22v-3.36l-73.14 42.22zM249.82 371.15l70.02-40.48 3.12 1.8-73.14 42.22z" style="fill:#fff"/></g><g style="opacity:.2"><path d="M102.22 270.96v88.38l3.12-1.81v-88.37zM102.22 270.96v88.38l-3.13-1.81v-88.37zM105.34 294.53l73.14-42.23v-3.35l-73.14 42.22z" style="fill:#fff"/><path d="m105.34 287.63 70.01-40.49 3.13 1.81-73.14 42.22z" style="fill:#fff"/></g><path d="M246.7 345.95 99.09 260.88l79.38-45.85 147.62 85.07zM246.7 354.49 99.09 269.16v-8.28l147.61 85.07z" style="fill:#cd5954"/><path d="m246.7 345.94 79.39-45.85v8.54l-79.39 45.86z" style="fill:#cd5954"/><path d="M246.7 345.95 99.09 260.88l79.38-45.85 147.62 85.07z" style="fill:#fff;opacity:.30000000000000004"/><path d="m246.7 345.94 79.39-45.85v8.54l-79.39 45.86z" style="fill:#fff;opacity:.1"/><path d="M246.7 354.49 99.09 269.16v-8.28l147.61 85.07z" style="fill:#fff;opacity:.2"/><path d="m178.47 215.03 147.61 85.07.01-.01v8.54l-79.39 45.86-147.61-85.33v-8.28z" style="opacity:.2"/><path d="m185.88 235.27-11.84 25.88-30.9-4.79 11.84-25.88z" style="fill:#e6e6e6"/><path d="m197.48 240.28-26.75 21.82-26.08-10.75 26.75-21.81z" style="fill:#f0f0f0"/><path d="m202.96 232.99 16.03 16.05-40.02 13.36-16.04-16.04z" style="fill:#fff"/><path d="m179.13 276.71 32.39-18.83a7.33 7.33 0 0 1 6.64 0l53.44 30.86a2.41 2.41 0 0 1 1.38 1.82v2.06a1.5 1.5 0 0 1 0 .42 2 2 0 0 1-.23.45 3.3 3.3 0 0 1-.4.44 4 4 0 0 1-.6.43l-32.39 18.82a6.4 6.4 0 0 1-.92.41l-.36.11-.47.11a5 5 0 0 1-.58.1h-.14c-.26 0-.52 0-.79.05h-.13c-.26 0-.52 0-.78-.05H235c-.25 0-.5-.08-.75-.13h-.14l-.65-.2h-.12a5 5 0 0 1-.71-.34l-53.44-30.85a5 5 0 0 1-.61-.43l-.15-.17a2 2 0 0 1-.28-.31 1.3 1.3 0 0 1-.11-.2 2 2 0 0 1-.15-.3 2 2 0 0 1 0-.22 1.5 1.5 0 0 1-.05-.31v-1.89a2.33 2.33 0 0 1 1.29-1.85" style="fill:#455a64"/><path d="M273 290.56a1.7 1.7 0 0 1-.06.59 1.6 1.6 0 0 1-.23.45s0 0 0 .05a2.8 2.8 0 0 1-.4.45 3.5 3.5 0 0 1-.6.42l-32.39 18.82a4.8 4.8 0 0 1-.92.41l-.36.11a4 4 0 0 1-.47.12l-.58.1h-1.96a7 7 0 0 1-.75-.13h-.14a5 5 0 0 1-.65-.2h-.12a5 5 0 0 1-.71-.34l-53.44-30.85a4 4 0 0 1-.61-.43c-.06-.05-.1-.11-.15-.16a4 4 0 0 1-.28-.31c0-.07-.07-.14-.11-.2a3 3 0 0 1-.15-.31 2 2 0 0 1 0-.22 1.6 1.6 0 0 1-.05-.3v1.89a1.5 1.5 0 0 0 .05.31 2 2 0 0 0 0 .22 2 2 0 0 0 .15.3 1.3 1.3 0 0 0 .11.2 2 2 0 0 0 .28.31l.15.17a5 5 0 0 0 .61.43l53.44 30.85a5 5 0 0 0 .71.34h.12l.65.2h.14c.25.05.5.1.75.13h.12c.26 0 .52 0 .78.05h.07c.27 0 .53 0 .79-.05h.14a5 5 0 0 0 .58-.1l.47-.11.36-.11a6.4 6.4 0 0 0 .92-.41l32.39-18.82a4 4 0 0 0 .6-.43 3.3 3.3 0 0 0 .4-.44 2 2 0 0 0 .23-.45 1.5 1.5 0 0 0 0-.42v-2.06Z" style="opacity:.30000000000000004"/><path d="m182.29 278.63 51.91 30 .21.1h.11a3 3 0 0 0 .41.12l.28.06h1.24l.34-.06.42-.11a3 3 0 0 0 .36-.15l16.7-9.71-53.62-31Z" style="fill:#37474f"/><path d="M236 309" style="fill:#263238"/><path d="m231.68 270.38-9.77 5.75a1 1 0 0 0 0 1.71l14.6 8.43a1.63 1.63 0 0 0 1.64 0l9.76-5.74a1 1 0 0 0 0-1.71l-14.61-8.43a1.64 1.64 0 0 0-1.62-.01" style="fill:#37474f"/><path d="m170.4 239 1.28-.64a1.58 1.58 0 0 1 1.43.09l53.81 31.28a6.54 6.54 0 0 1 3.15 4.61l5.53 35.18a1.59 1.59 0 0 1-.9 1.7l-1.24.61a1.58 1.58 0 0 1-1.38-.12l-53.81-31.28a6.47 6.47 0 0 1-3.15-4.61l-5.54-35.17a1.61 1.61 0 0 1 .82-1.65" style="fill:#455a64"/><path d="M199.75 271.16a11.93 11.93 0 0 1 5.34 7.7c.35 2.74-1.47 3.76-4.07 2.25a11.86 11.86 0 0 1-5.34-7.69c-.35-2.74 1.47-3.75 4.07-2.26" style="fill:#fff"/><path d="M234.51 310 229 274.86a6.55 6.55 0 0 0-3.16-4.61L172 239a1.57 1.57 0 0 0-1.61 0l1.28-.64a1.58 1.58 0 0 1 1.43.09l53.81 31.28a6.54 6.54 0 0 1 3.15 4.61l5.53 35.18a1.59 1.59 0 0 1-.9 1.7l-1.24.61a1.62 1.62 0 0 0 1.06-1.83" style="opacity:.30000000000000004"/><path d="m316.89 196.65-20.53 55-33.77 13.11a11.76 11.76 0 0 1-5.44.85l-9.07-1.61a6.07 6.07 0 0 0-3.67.86l-6.26 3.79a6.5 6.5 0 0 0-1.66 1.43l-3.07 3.63a2.3 2.3 0 0 0 .42 3.35l1.93 1.38a6.86 6.86 0 0 0 7.08.54l4.84-2.44 2.23.53a22.62 22.62 0 0 0 14.55-1.38l36.63-7.4a16.29 16.29 0 0 0 11.9-10.23s17.5-41.54 13.37-50.94c-1.8-4.06-9.48-10.47-9.48-10.47" style="fill:#ffa8a7"/><path d="M316.89 196.65 295.7 251l-33.76 12.9c6.29 3.52 6.62 11.39 6 12.32l35.75-7.48a13.93 13.93 0 0 0 10.12-8.74l14.35-38a19.73 19.73 0 0 0-11.27-25.34Z" style="fill:#cd5954"/><path d="M316.89 196.65 295.7 251l-33.76 12.9c6.29 3.52 6.62 11.39 6 12.32l35.75-7.48a13.93 13.93 0 0 0 10.12-8.74l14.35-38a19.73 19.73 0 0 0-11.27-25.34Z" style="fill:#fff;opacity:.4"/><path d="M275.82 266.72a13.54 13.54 0 0 0-4.71-6.33l-9.17 3.51c6.29 3.52 6.62 11.39 6 12.32l8.21-1.72a13.5 13.5 0 0 0-.33-7.78" style="fill:#fff;opacity:.4"/><path d="M295.7 251c6.22.09 10.55 2.78 11.21 4.75-1.07-9.32-10.06-7.67-10.06-7.67Z" style="opacity:.2"/><path d="m260.43 123.19-1.27.03 9.7-3.27 1.26-.04z" style="fill:#1e272b"/><path d="M259.58 124.49a.6.6 0 0 1-.1-.24.6.6 0 0 0 .1.24M253.6 98.32a.8.8 0 0 1 .06-.22.8.8 0 0 0-.06.22M259.92 124.75h-.12ZM259.62 124.54a.7.7 0 0 0 .11.12.7.7 0 0 1-.11-.12" style="fill:none"/><path d="M264.57 95.67" style="fill:#1d262a"/><path d="m254.88 98.94 4.54 19.84 1.01 4.41 9.69-3.28-5.55-24.24z" style="fill:#cd5954"/><path d="m271.39 120.22-5.87-25.62a.58.58 0 0 0-.71-.5L254 97.75a.8.8 0 0 0-.19.12.5.5 0 0 0-.1.13.8.8 0 0 0-.06.22.13.13 0 0 1 0 .06 1 1 0 0 0 0 .25l5.87 25.62a.6.6 0 0 0 .1.24v.05a.7.7 0 0 0 .11.12h.27a.6.6 0 0 0 .19 0L271 121.1a.74.74 0 0 0 .39-.88m-6.82-24.55 5.55 24.24-9.69 3.28-1-4.42-4.54-19.83 9.69-3.27Z" style="fill:#455a64"/><path d="M259.8 124.7h-.07a.7.7 0 0 1-.11-.12v-.05a.6.6 0 0 1-.1-.24l-5.87-25.62a1 1 0 0 1 0-.25.13.13 0 0 0 0-.06.8.8 0 0 1 .06-.22.5.5 0 0 1 .1-.13.8.8 0 0 1 .19-.12l10.8-3.65h.14-1.27a.3.3 0 0 0-.13 0l-10.81 3.65a.4.4 0 0 0-.18.11.6.6 0 0 0-.12.18.8.8 0 0 0 0 .16v.06a.13.13 0 0 0 0 .06.7.7 0 0 0 0 .25l5.86 25.62a.62.62 0 0 0 .58.53h1.26-.21Z" style="fill:#37474f"/><path d="m160.94 145.42-31.6 18.14a6.22 6.22 0 0 0-3.1 5.35v27.24a6.1 6.1 0 0 0 9.32 5l5.49-3.14.49.81s.06 0 .09.07h.06c.9.6 2.49 1.45 2.85 1.63a.34.34 0 0 0 .42-.21l2-5.73 20.17-11.53a6.15 6.15 0 0 0 3.11-5.35v-27.26c.02-4.44-6.53-6.6-9.3-5.02" style="fill:#cd5954"/><path d="M134.83 167.3" style="fill:none"/><path d="M141.54 198.84s.06 0 .09.07h.06c.9.6 2.49 1.45 2.85 1.63a.3.3 0 0 1-.2-.14l-2-3.17.39-.22-1.72 1Z" style="fill:#fff;opacity:.2"/><path d="M133.17 169.37a6.4 6.4 0 0 1 1.66-2.07 5 5 0 0 1 .75-.51l31.6-18.14a2.06 2.06 0 0 1 3.08 1.79c0-4.45-6.55-6.6-9.32-5l-31.6 18.14a6.1 6.1 0 0 0-2.3 2.33Z" style="fill:#fff;opacity:.4"/><path d="M132.48 199.38v-27.24a6 6 0 0 1 .05-.73 6.3 6.3 0 0 1 .64-2l-6.17-3.52a6.14 6.14 0 0 0-.8 3v27.24a6.1 6.1 0 0 0 9.32 5 2.06 2.06 0 0 1-3.04-1.75" style="fill:#fff;opacity:.2"/><path d="m144.87 183.33.02 7.46-5.93 3.43-.02-7.46zM154.37 172.37l.03 12.93-5.92 3.42-.03-12.93zM162.35 155.73c.19-.11.34-.11.42 0a.5.5 0 0 1 .07.48l-1.28 4.62a1 1 0 0 1-.44.61l-.17.06c-.24 0-.37-.21-.27-.55l.74-2.7-6.81 9a.8.8 0 0 1-.26.24.37.37 0 0 1-.24.06l-1.82-.25-5.44 7.51a.8.8 0 0 1-.27.25.33.33 0 0 1-.26.06l-1.47-.29-4.92 7.15a1.1 1.1 0 0 1-.29.28.33.33 0 0 1-.38 0 .71.71 0 0 1 .09-.82l5.2-7.55a1 1 0 0 1 .29-.27.4.4 0 0 1 .27-.06l1.47.3 5.43-7.49a1 1 0 0 1 .27-.26.4.4 0 0 1 .25-.06l1.82.25 6.27-8.27-2.26 1.51c-.27.16-.48.06-.51-.21a1 1 0 0 1 .44-.84ZM163.88 163.85l.05 15.95-5.93 3.43-.05-15.95z" style="fill:#fff"/><path d="M201.65 65.7 170 83.84a6.28 6.28 0 0 0-3.1 5.35v23a6.1 6.1 0 0 0 9.32 5l5.49-3.14.5.8s.05 0 .08.08h.06c.91.6 2.5 1.45 2.85 1.63a.34.34 0 0 0 .42-.21l2-5.73 20.17-11.53a6.17 6.17 0 0 0 3.21-5.3V70.72c0-4.45-6.58-6.6-9.35-5.02" style="fill:#cd5954"/><path d="M175.54 87.58" style="fill:none"/><path d="M182.25 114.86s.05 0 .08.08h.06c.91.6 2.5 1.45 2.85 1.63a.3.3 0 0 1-.2-.14l-2-3.17.39-.22-1.73 1Z" style="fill:#fff;opacity:.2"/><path d="M173.88 89.65a6.35 6.35 0 0 1 1.65-2.07 5 5 0 0 1 .75-.51l31.6-18.13a2.05 2.05 0 0 1 3.12 1.78c0-4.45-6.55-6.6-9.32-5L170 83.84a6 6 0 0 0-2.29 2.33Z" style="fill:#fff;opacity:.4"/><path d="M173.19 115.41v-23a6 6 0 0 1 0-.73 6.6 6.6 0 0 1 .65-2l-6.13-3.48a6 6 0 0 0-.81 3v23a6.1 6.1 0 0 0 9.32 5 2.05 2.05 0 0 1-3.03-1.79" style="fill:#fff;opacity:.2"/><path d="M182.9 95.63c1.55-.89 2.81-.17 2.81 1.61a6.17 6.17 0 0 1-2.79 4.86c-1.56.89-2.82.17-2.82-1.61a6.18 6.18 0 0 1 2.8-4.86M193.31 89.62c1.55-.89 2.82-.17 2.82 1.61a6.19 6.19 0 0 1-2.8 4.86c-1.56.89-2.82.17-2.83-1.61a6.21 6.21 0 0 1 2.81-4.86M203.73 83.61c1.54-.89 2.81-.17 2.81 1.61a6.16 6.16 0 0 1-2.8 4.85c-1.55.9-2.81.18-2.82-1.61a6.17 6.17 0 0 1 2.81-4.85" style="fill:#fff"/><path d="m322.31 75.34 31.36 18a6.16 6.16 0 0 1 3.07 5.31v22.82a6 6 0 0 1-9.25 5l-5.44-3.12-.5.8a.3.3 0 0 1-.08.07h-.06c-.9.6-2.47 1.44-2.83 1.63a.34.34 0 0 1-.42-.2l-2-5.69-20-11.44a6.13 6.13 0 0 1-3.08-5.31V80.32c-.02-4.42 6.48-6.55 9.23-4.98" style="fill:#cd5954"/><path d="M348.22 97.05" style="fill:none"/><path d="M341.55 124.12a.3.3 0 0 1-.08.07h-.06c-.9.6-2.47 1.44-2.83 1.63a.3.3 0 0 0 .2-.14l1.94-3.14-.38-.22 1.71 1Z" style="fill:#fff;opacity:.2"/><path d="M349.86 99.1a6.4 6.4 0 0 0-1.64-2 5.5 5.5 0 0 0-.75-.51l-31.36-18a2 2 0 0 0-3.05 1.77c0-4.42 6.5-6.55 9.25-5l31.36 18a6.24 6.24 0 0 1 2.33 2.28Z" style="fill:#fff;opacity:.4"/><path d="M350.55 124.67v-22.82a6 6 0 0 0-.05-.73 6.4 6.4 0 0 0-.64-2l6.14-3.48a6.2 6.2 0 0 1 .79 3v22.82a6 6 0 0 1-9.25 5 2 2 0 0 0 3.01-1.79" style="fill:#fff;opacity:.2"/><path d="M326.62 89.65a3.85 3.85 0 0 0-3.81-.38c-2.11 1.19-2.12 5.11 0 8.73l1.22 2.13 7.58 13.13 7.63-4.35 1.23-.71c2.12-1.19 2.13-5.11 0-8.73a11 11 0 0 0-3.8-4 3.83 3.83 0 0 0-3.8-.38l-1.24.69-1.23-2.11a11 11 0 0 0-3.78-4.02" style="fill:#fff"/></svg>