<svg xmlns="http://www.w3.org/2000/svg" viewBox="0 0 500 500"><path d="M0 382.4h500v.25H0zM416.78 398.49h33.12v.25h-33.12zM322.53 401.21h8.69v.25h-8.69zM396.59 389.21h19.19v.25h-19.19zM52.46 390.89h43.19v.25H52.46zM104.56 390.89h6.33v.25h-6.33zM131.47 395.11h93.68v.25h-93.68zM237 337.8H43.91a5.71 5.71 0 0 1-5.7-5.71V60.66a5.71 5.71 0 0 1 5.7-5.66H237a5.71 5.71 0 0 1 5.71 5.71v271.38a5.71 5.71 0 0 1-5.71 5.71M43.91 55.2a5.46 5.46 0 0 0-5.45 5.46v271.43a5.46 5.46 0 0 0 5.45 5.46H237a5.47 5.47 0 0 0 5.46-5.46V60.66A5.47 5.47 0 0 0 237 55.2ZM453.31 337.8h-193.1a5.72 5.72 0 0 1-5.71-5.71V60.66a5.72 5.72 0 0 1 5.71-5.66h193.1a5.71 5.71 0 0 1 5.69 5.66v271.43a5.71 5.71 0 0 1-5.69 5.71M260.21 55.2a5.47 5.47 0 0 0-5.46 5.46v271.43a5.47 5.47 0 0 0 5.46 5.46h193.1a5.47 5.47 0 0 0 5.46-5.46V60.66a5.47 5.47 0 0 0-5.46-5.46Z" style="fill:#ebebeb"/><path d="M281.05 97.89h68.09v232.07h-68.09z" style="fill:#fafafa" transform="rotate(180 315.1 213.925)"/><path d="M279.48 94.74h71.24v11.39h-71.24z" style="fill:#f0f0f0" transform="rotate(180 315.1 100.435)"/><path d="M279.48 107.39h71.24v5.69h-71.24z" style="fill:#f0f0f0" transform="rotate(180 315.1 110.235)"/><path d="M279.48 115.84h71.24v5.69h-71.24z" style="fill:#f0f0f0" transform="rotate(180 315.1 118.685)"/><path d="M279.48 124.29h71.24v5.69h-71.24z" style="fill:#f0f0f0" transform="rotate(180 315.1 127.14)"/><path d="M279.48 132.74h71.24v5.69h-71.24z" style="fill:#f0f0f0" transform="rotate(180 315.1 135.59)"/><path d="M279.48 141.19h71.24v5.69h-71.24z" style="fill:#f0f0f0" transform="rotate(180 315.1 144.04)"/><path d="M279.48 149.64h71.24v5.69h-71.24z" style="fill:#f0f0f0" transform="rotate(180 315.1 152.49)"/><path d="M279.48 158.09h71.24v5.69h-71.24z" style="fill:#f0f0f0" transform="rotate(180 315.1 160.94)"/><path d="M279.48 166.54h71.24v5.69h-71.24z" style="fill:#f0f0f0" transform="rotate(180 315.1 169.39)"/><path d="M279.48 175h71.24v5.69h-71.24z" style="fill:#f0f0f0" transform="rotate(180 315.1 177.845)"/><path d="M279.48 183.45h71.24v5.69h-71.24z" style="fill:#f0f0f0" transform="rotate(180 315.1 186.295)"/><path d="M279.48 191.9h71.24v5.69h-71.24z" style="fill:#f0f0f0" transform="rotate(180 315.1 194.745)"/><path d="M279.48 200.35h71.24v5.69h-71.24z" style="fill:#f0f0f0" transform="rotate(180 315.1 203.195)"/><path d="M279.48 208.8h71.24v5.69h-71.24z" style="fill:#f0f0f0" transform="rotate(180 315.1 211.645)"/><path d="M279.48 217.25h71.24v5.69h-71.24z" style="fill:#f0f0f0" transform="rotate(180 315.1 220.095)"/><path d="M279.48 225.7h71.24v5.69h-71.24z" style="fill:#f0f0f0" transform="rotate(180 315.1 228.55)"/><path d="M279.48 234.15h71.24v5.69h-71.24z" style="fill:#f0f0f0" transform="rotate(180 315.1 237)"/><path d="M279.48 242.6h71.24v5.69h-71.24z" style="fill:#f0f0f0" transform="rotate(180 315.1 245.45)"/><path d="M279.48 251.05h71.24v5.69h-71.24z" style="fill:#f0f0f0" transform="rotate(180 315.1 253.9)"/><path d="M279.48 259.5h71.24v5.69h-71.24z" style="fill:#f0f0f0" transform="rotate(180 315.1 262.35)"/><path d="M279.48 267.96h71.24v5.69h-71.24z" style="fill:#f0f0f0" transform="rotate(180 315.1 270.805)"/><path d="M279.48 276.41h71.24v5.69h-71.24z" style="fill:#f0f0f0" transform="rotate(180 315.1 279.255)"/><path d="M279.48 284.86h71.24v5.69h-71.24z" style="fill:#f0f0f0" transform="rotate(180 315.1 287.705)"/><path d="M279.48 293.31h71.24V299h-71.24z" style="fill:#f0f0f0" transform="rotate(180 315.1 296.155)"/><path d="M279.48 301.76h71.24v5.69h-71.24z" style="fill:#f0f0f0" transform="rotate(180 315.1 304.605)"/><path d="M279.48 310.21h71.24v5.69h-71.24z" style="fill:#f0f0f0" transform="rotate(180 315.1 313.055)"/><path d="M279.48 318.66h71.24v5.69h-71.24z" style="fill:#f0f0f0" transform="rotate(180 315.1 321.51)"/><path d="M279.48 327.11h71.24v5.69h-71.24z" style="fill:#f0f0f0" transform="rotate(180 315.1 329.96)"/><path d="M366.16 97.89h68.09v232.07h-68.09z" style="fill:#fafafa" transform="rotate(180 400.205 213.925)"/><path d="M364.59 94.74h71.24v11.39h-71.24z" style="fill:#f0f0f0" transform="rotate(180 400.205 100.435)"/><path d="M364.59 107.39h71.24v5.69h-71.24z" style="fill:#f0f0f0" transform="rotate(180 400.205 110.235)"/><path d="M364.59 115.84h71.24v5.69h-71.24z" style="fill:#f0f0f0" transform="rotate(180 400.205 118.685)"/><path d="M364.59 124.29h71.24v5.69h-71.24z" style="fill:#f0f0f0" transform="rotate(180 400.205 127.14)"/><path d="M364.59 132.74h71.24v5.69h-71.24z" style="fill:#f0f0f0" transform="rotate(180 400.205 135.59)"/><path d="M364.59 141.19h71.24v5.69h-71.24z" style="fill:#f0f0f0" transform="rotate(180 400.205 144.04)"/><path d="M364.59 149.64h71.24v5.69h-71.24z" style="fill:#f0f0f0" transform="rotate(180 400.205 152.49)"/><path d="M364.59 158.09h71.24v5.69h-71.24z" style="fill:#f0f0f0" transform="rotate(180 400.205 160.94)"/><path d="M364.59 166.54h71.24v5.69h-71.24z" style="fill:#f0f0f0" transform="rotate(180 400.205 169.39)"/><path d="M364.59 175h71.24v5.69h-71.24z" style="fill:#f0f0f0" transform="rotate(180 400.205 177.845)"/><path d="M364.59 183.45h71.24v5.69h-71.24z" style="fill:#f0f0f0" transform="rotate(180 400.205 186.295)"/><path d="M364.59 191.9h71.24v5.69h-71.24z" style="fill:#f0f0f0" transform="rotate(180 400.205 194.745)"/><path d="M364.59 200.35h71.24v5.69h-71.24z" style="fill:#f0f0f0" transform="rotate(180 400.205 203.195)"/><path d="M364.59 208.8h71.24v5.69h-71.24z" style="fill:#f0f0f0" transform="rotate(180 400.205 211.645)"/><path d="M364.59 217.25h71.24v5.69h-71.24z" style="fill:#f0f0f0" transform="rotate(180 400.205 220.095)"/><path d="M364.59 225.7h71.24v5.69h-71.24z" style="fill:#f0f0f0" transform="rotate(180 400.205 228.55)"/><path d="M364.59 234.15h71.24v5.69h-71.24z" style="fill:#f0f0f0" transform="rotate(180 400.205 237)"/><path d="M364.59 242.6h71.24v5.69h-71.24z" style="fill:#f0f0f0" transform="rotate(180 400.205 245.45)"/><path d="M364.59 251.05h71.24v5.69h-71.24z" style="fill:#f0f0f0" transform="rotate(180 400.205 253.9)"/><path d="M364.59 259.5h71.24v5.69h-71.24z" style="fill:#f0f0f0" transform="rotate(180 400.205 262.35)"/><path d="M364.59 267.96h71.24v5.69h-71.24z" style="fill:#f0f0f0" transform="rotate(180 400.205 270.805)"/><path d="M364.59 276.41h71.24v5.69h-71.24z" style="fill:#f0f0f0" transform="rotate(180 400.205 279.255)"/><path d="M364.59 284.86h71.24v5.69h-71.24z" style="fill:#f0f0f0" transform="rotate(180 400.205 287.705)"/><path d="M364.59 293.31h71.24V299h-71.24z" style="fill:#f0f0f0" transform="rotate(180 400.205 296.155)"/><path d="M364.59 301.76h71.24v5.69h-71.24z" style="fill:#f0f0f0" transform="rotate(180 400.205 304.605)"/><path d="M364.59 310.21h71.24v5.69h-71.24z" style="fill:#f0f0f0" transform="rotate(180 400.205 313.055)"/><path d="M364.59 318.66h71.24v5.69h-71.24z" style="fill:#f0f0f0" transform="rotate(180 400.205 321.51)"/><path d="M364.59 327.11h71.24v5.69h-71.24z" style="fill:#f0f0f0" transform="rotate(180 400.205 329.96)"/><path d="M154.54 99.31h68.09v232.07h-68.09z" style="fill:#fafafa" transform="rotate(180 188.585 215.345)"/><path d="M152.97 96.16h71.24v11.39h-71.24z" style="fill:#f0f0f0" transform="rotate(180 188.585 101.855)"/><path d="M152.97 108.81h71.24v1.05h-71.24z" style="fill:#f0f0f0" transform="rotate(180 188.585 109.335)"/><path d="M152.97 111.19h71.24v1.05h-71.24z" style="fill:#f0f0f0" transform="rotate(180 188.585 111.715)"/><path d="M152.97 113.57h71.24v1.05h-71.24z" style="fill:#f0f0f0" transform="rotate(180 188.585 114.09)"/><path d="M152.97 115.95h71.24V117h-71.24z" style="fill:#f0f0f0" transform="rotate(180 188.585 116.47)"/><path d="M152.97 118.32h71.24v1.05h-71.24z" style="fill:#f0f0f0" transform="rotate(180 188.585 118.845)"/><path d="M152.97 120.7h71.24v1.05h-71.24z" style="fill:#f0f0f0" transform="rotate(180 188.585 121.225)"/><path d="M152.97 123.08h71.24v1.05h-71.24z" style="fill:#f0f0f0" transform="rotate(180 188.585 123.6)"/><path d="M152.97 125.46h71.24v1.05h-71.24z" style="fill:#f0f0f0" transform="rotate(180 188.585 125.98)"/><path d="M152.97 127.83h71.24v1.05h-71.24z" style="fill:#f0f0f0" transform="rotate(180 188.585 128.36)"/><path d="M152.97 130.21h71.24v1.05h-71.24z" style="fill:#f0f0f0" transform="rotate(180 188.585 130.735)"/><path d="M152.97 132.59h71.24v1.05h-71.24z" style="fill:#f0f0f0" transform="rotate(180 188.585 133.115)"/><path d="M152.97 134.97h71.24v1.05h-71.24z" style="fill:#f0f0f0" transform="rotate(180 188.585 135.49)"/><path d="M152.97 137.34h71.24v1.05h-71.24z" style="fill:#f0f0f0" transform="rotate(180 188.585 137.87)"/><path d="M152.97 139.72h71.24v1.05h-71.24z" style="fill:#f0f0f0" transform="rotate(180 188.585 140.245)"/><path d="M152.97 142.1h71.24v1.05h-71.24z" style="fill:#f0f0f0" transform="rotate(180 188.585 142.625)"/><path d="M152.97 144.48h71.24v1.05h-71.24z" style="fill:#f0f0f0" transform="rotate(180 188.585 145)"/><path d="M152.97 146.86h71.24v1.05h-71.24z" style="fill:#f0f0f0" transform="rotate(180 188.585 147.38)"/><path d="M152.97 149.23h71.24v1.05h-71.24z" style="fill:#f0f0f0" transform="rotate(180 188.585 149.755)"/><path d="M69.43 99.31h68.09v232.07H69.43z" style="fill:#fafafa" transform="rotate(180 103.475 215.345)"/><path d="M67.86 96.16h71.24v11.39H67.86z" style="fill:#f0f0f0" transform="rotate(180 103.475 101.855)"/><path d="M67.86 108.81h71.24v1.05H67.86z" style="fill:#f0f0f0" transform="rotate(180 103.475 109.335)"/><path d="M67.86 111.19h71.24v1.05H67.86z" style="fill:#f0f0f0" transform="rotate(180 103.475 111.715)"/><path d="M67.86 113.57h71.24v1.05H67.86z" style="fill:#f0f0f0" transform="rotate(180 103.475 114.09)"/><path d="M67.86 115.95h71.24V117H67.86z" style="fill:#f0f0f0" transform="rotate(180 103.475 116.47)"/><path d="M67.86 118.32h71.24v1.05H67.86z" style="fill:#f0f0f0" transform="rotate(180 103.475 118.845)"/><path d="M67.86 120.7h71.24v1.05H67.86z" style="fill:#f0f0f0" transform="rotate(180 103.475 121.225)"/><path d="M67.86 123.08h71.24v1.05H67.86z" style="fill:#f0f0f0" transform="rotate(180 103.475 123.6)"/><path d="M67.86 125.46h71.24v1.05H67.86z" style="fill:#f0f0f0" transform="rotate(180 103.475 125.98)"/><path d="M67.86 127.83h71.24v1.05H67.86z" style="fill:#f0f0f0" transform="rotate(180 103.475 128.36)"/><path d="M67.86 130.21h71.24v1.05H67.86z" style="fill:#f0f0f0" transform="rotate(180 103.475 130.735)"/><path d="M67.86 132.59h71.24v1.05H67.86z" style="fill:#f0f0f0" transform="rotate(180 103.475 133.115)"/><path d="M67.86 134.97h71.24v1.05H67.86z" style="fill:#f0f0f0" transform="rotate(180 103.475 135.49)"/><path d="M67.86 137.34h71.24v1.05H67.86z" style="fill:#f0f0f0" transform="rotate(180 103.475 137.87)"/><path d="M67.86 139.72h71.24v1.05H67.86z" style="fill:#f0f0f0" transform="rotate(180 103.475 140.245)"/><path d="M67.86 142.1h71.24v1.05H67.86z" style="fill:#f0f0f0" transform="rotate(180 103.475 142.625)"/><path d="M67.86 144.48h71.24v1.05H67.86z" style="fill:#f0f0f0" transform="rotate(180 103.475 145)"/><path d="M67.86 146.86h71.24v1.05H67.86z" style="fill:#f0f0f0" transform="rotate(180 103.475 147.38)"/><path d="M67.86 149.23h71.24v1.05H67.86z" style="fill:#f0f0f0" transform="rotate(180 103.475 149.755)"/><path d="M251.2 360.3s-4.74-10.35.68-20.56 7-12.6 3.53-14.69-5 8.16-5 8.16a23 23 0 0 1-.5-14.44c2.4-7.38 3.91-19.4.63-20.69s-.63 15-3.48 20.55a48 48 0 0 1-2.79-12.11c-.39-5.93.22-15.39-2.37-17.82s-4.25-.75-1.71 12.33a137 137 0 0 1 2.53 23.72s-5.62-17.16-9.4-17.66-3.78 5.06-.54 9.88 9.47 13.45 10.49 17.9c0 0-6.18-12.92-11.74-9s4.84 11.76 9.48 14.58 7.81 20.55 7.81 20.55Z" style="fill:#e0e0e0"/><path d="M247.46 364.54s4.62-10.42-.92-20.54-7.15-12.5-3.72-14.64 5.14 8.08 5.14 8.08a23 23 0 0 0 .34-14.44c-2.5-7.34-4.15-19.34-.88-20.68s.81 15 3.72 20.5a47.9 47.9 0 0 0 2.64-12.15c.33-5.94-.4-15.39 2.16-17.86s4.25-.81 1.85 12.31a137 137 0 0 0-2.24 23.75s5.42-17.24 9.19-17.8 3.84 5 .66 9.87-9.31 13.6-10.28 18.06c0 0 6-13 11.63-9.14s-4.69 11.84-9.29 14.72-7.61 20.61-7.61 20.61Z" style="fill:#ebebeb"/><path d="M268.76 357.11H230.6l3.09 27.31h31.98z" style="fill:#ebebeb"/><ellipse cx="250" cy="416.24" rx="193.89" ry="11.32" style="fill:#f5f5f5"/><path d="M388.66 302.81s-24.75-5-48.64-2.58 11.24 33.64 11.24 33.64h4.94s-18.62-19.79-17.58-24.72 47.92 1.57 47.92 1.57Z" style="fill:#263238"/><path d="M388.66 302.81s-24.75-5-48.64-2.58 11.24 33.64 11.24 33.64h4.94s-18.62-19.79-17.58-24.72 47.92 1.57 47.92 1.57Z" style="fill:#fff;opacity:.2;isolation:isolate"/><path d="M379.73 332.79a444 444 0 0 0 13.5-93.46 11.62 11.62 0 0 1 11.61-11.16h20.83a11.62 11.62 0 0 1 11.62 11.56c.08 19-1.25 61.54-12 93.06Z" style="fill:#263238"/><path d="M379.73 332.79a444 444 0 0 0 13.5-93.46 11.62 11.62 0 0 1 11.61-11.16h20.83a11.62 11.62 0 0 1 11.62 11.56c.08 19-1.25 61.54-12 93.06Z" style="fill:#fff;opacity:.4;isolation:isolate"/><path d="M373.65 327.5c3.38-12.8 11-45.9 12.61-89.63a12.58 12.58 0 0 1 12.58-12.1h22.58A12.59 12.59 0 0 1 434 238.3c.09 20.56-1.35 62.61-12.95 96.78l-43-1.58a4.78 4.78 0 0 1-4.4-6" style="fill:#cd5954"/><path d="M373.65 327.5c3.38-12.8 11-45.9 12.61-89.63a12.58 12.58 0 0 1 12.58-12.1h22.58A12.59 12.59 0 0 1 434 238.3c.09 20.56-1.35 62.61-12.95 96.78l-43-1.58a4.78 4.78 0 0 1-4.4-6" style="opacity:.2;isolation:isolate"/><path d="M342 316.86h76.37v11.93a5 5 0 0 1-5 5H347a5 5 0 0 1-5-5z" style="fill:#cd5954" transform="rotate(180 380.16 325.325)"/><path d="m415.86 393.31-24.47-2.41v-34.39h-9.7v34.38l-24.57 2.42a4.76 4.76 0 0 0-4.3 4.74v3.68h67.34v-3.68a4.76 4.76 0 0 0-4.3-4.74" style="fill:#263238"/><path d="m415.86 393.31-24.47-2.41v-34.39h-9.7v34.38l-24.57 2.42a4.76 4.76 0 0 0-4.3 4.74v3.68h67.34v-3.68a4.76 4.76 0 0 0-4.3-4.74" style="fill:#fff;opacity:.4;isolation:isolate"/><path d="M361.75 406.28a6.34 6.34 0 1 1-6.34-6.34 6.34 6.34 0 0 1 6.34 6.34" style="fill:#263238"/><path d="M355.41 409.62a3.34 3.34 0 1 1 3.34-3.34 3.35 3.35 0 0 1-3.34 3.34" style="fill:#fff;opacity:.4;isolation:isolate"/><path d="M411.23 406.28a6.34 6.34 0 1 0 6.34-6.34 6.33 6.33 0 0 0-6.34 6.34" style="fill:#263238"/><path d="M417.57 409.62a3.34 3.34 0 1 1 3.34-3.34 3.34 3.34 0 0 1-3.34 3.34" style="fill:#fff;opacity:.4;isolation:isolate"/><path d="M380 333.27h13v26.5a4.13 4.13 0 0 1-4.13 4.13h-4.77a4.13 4.13 0 0 1-4.13-4.13v-26.5z" style="fill:#263238"/><path d="M380 333.27h13v26.5a4.13 4.13 0 0 1-4.13 4.13h-4.77a4.13 4.13 0 0 1-4.13-4.13v-26.5z" style="fill:#fff;opacity:.2;isolation:isolate"/><rect width="86.91" height="4.96" x="339.25" y="331.82" rx="2.01" style="fill:#263238" transform="rotate(180 382.71 334.305)"/><g style="opacity:.4;isolation:isolate"><rect width="86.91" height="4.96" x="339.25" y="331.82" rx="2.01" style="fill:#fff" transform="rotate(180 382.71 334.305)"/></g><path d="M432.66 302.81s-24.75-5-48.64-2.58 11.24 33.64 11.24 33.64h4.94s-18.62-19.79-17.58-24.72 47.92 1.57 47.92 1.57Z" style="fill:#263238"/><path d="M432.66 302.81s-24.75-5-48.64-2.58 11.24 33.64 11.24 33.64h4.94s-18.62-19.79-17.58-24.72 47.92 1.57 47.92 1.57Z" style="fill:#fff;opacity:.4;isolation:isolate"/><path d="M127.29 308.17v1h-15.24v-.77c0-1.85 1.92-3.37 4.38-3.47h.81l5.16-.21c2.66-.13 4.89 1.45 4.89 3.45" style="fill:#263238"/><path d="M120.27 308.17v1h-8.22v-.77c0-1.85 1.92-3.37 4.38-3.47h.81c1.76.46 3.03 1.74 3.03 3.24" style="fill:#fff;opacity:.2;isolation:isolate"/><path d="M251.56 412.57h1.53a.36.36 0 0 0 .36-.34l2.42-93.89h-7.09l2.43 93.89a.35.35 0 0 0 .35.34M306.24 412.57h3.54l-10-94.23h-7.09zM77.98 412.57l13.58-94.23h-7.08l-10 94.23zM129.89 412.57h4.08l1.5-94.23h-7.08z" style="fill:#263238"/><g style="opacity:.4;isolation:isolate"><path d="M306.24 412.57h3.54l-10-94.23h-7.09z" style="fill:#fff"/></g><path d="M129.89 412.57h4.08l1.5-94.23h-7.08z" style="fill:#fff;opacity:.4;isolation:isolate"/><g style="opacity:.2;isolation:isolate"><path d="M251.56 412.57h1.53a.36.36 0 0 0 .36-.34l2.42-93.89h-7.09l2.43 93.89a.35.35 0 0 0 .35.34" style="fill:#fff"/></g><path d="m77.98 412.57 13.58-94.23h-7.08l-10 94.23z" style="fill:#fff;opacity:.2;isolation:isolate"/><path d="M142.23 309.7h20.17l3.21-28.16a2 2 0 0 0-2-1.88h-13.49a2 2 0 0 0-2 1.88ZM111.45 238.25h5l5.66 53.18h-5a1.71 1.71 0 0 1-1.67-1.51l-5.34-50.16a1.33 1.33 0 0 1 1.35-1.51" style="fill:#263238"/><path d="M119.24 291.43h75.46a1.34 1.34 0 0 0 1.35-1.51l-5.34-50.16a1.72 1.72 0 0 0-1.67-1.51h-75.46a1.33 1.33 0 0 0-1.35 1.51l5.33 50.16a1.73 1.73 0 0 0 1.68 1.51" style="fill:#263238"/><rect width="26.99" height="2.19" x="140.38" y="307.51" rx=".96" style="fill:#263238" transform="rotate(180 153.875 308.61)"/><path d="M119.24 291.43h75.46a1.34 1.34 0 0 0 1.35-1.51l-5.34-50.16a1.72 1.72 0 0 0-1.67-1.51h-75.46a1.33 1.33 0 0 0-1.35 1.51l5.33 50.16a1.73 1.73 0 0 0 1.68 1.51" style="fill:#fff;opacity:.2;isolation:isolate"/><path d="M120.65 286.52h71.15a1.16 1.16 0 0 0 1.2-1.32l-4.65-43.76a1.5 1.5 0 0 0-1.46-1.32h-71.18a1.16 1.16 0 0 0-1.18 1.32l4.66 43.76a1.5 1.5 0 0 0 1.46 1.32" style="fill:#cd5954"/><rect width="26.99" height="2.19" x="140.38" y="307.51" rx=".96" style="fill:#fff;opacity:.2;isolation:isolate" transform="rotate(180 153.875 308.61)"/><path d="M120.65 286.52h71.15a1.16 1.16 0 0 0 1.2-1.32l-4.65-43.76a1.5 1.5 0 0 0-1.46-1.32h-71.18a1.16 1.16 0 0 0-1.18 1.32l4.66 43.76a1.5 1.5 0 0 0 1.46 1.32" style="opacity:.2;isolation:isolate"/><path d="M141.81 309.07H80.38v9.27h223.5v-9.27zM187.26 307.4h1.88a.36.36 0 0 0 .36-.36v-2a.36.36 0 0 0-.36-.36h-1.35a.35.35 0 0 0-.34.27l-.53 2a.35.35 0 0 0 .34.45" style="fill:#cd5954"/><path d="M184.66 307.4h1.88a.36.36 0 0 0 .36-.36v-2a.36.36 0 0 0-.36-.36h-1.35a.35.35 0 0 0-.34.27l-.54 2a.36.36 0 0 0 .35.45" style="fill:#cd5954"/><path d="M182.06 307.4h1.88a.36.36 0 0 0 .36-.36v-2a.36.36 0 0 0-.36-.36h-1.35a.37.37 0 0 0-.35.27l-.53 2a.36.36 0 0 0 .35.45" style="fill:#cd5954"/><path d="M179.46 307.4h1.88a.36.36 0 0 0 .36-.36v-2a.36.36 0 0 0-.36-.36H180a.37.37 0 0 0-.35.27l-.53 2a.36.36 0 0 0 .34.45" style="fill:#cd5954"/><path d="M176.86 307.4h1.88a.36.36 0 0 0 .36-.36v-2a.36.36 0 0 0-.36-.36h-1.35a.37.37 0 0 0-.35.27l-.53 2a.36.36 0 0 0 .35.45" style="fill:#cd5954"/><path d="M174.26 307.4h1.88a.36.36 0 0 0 .36-.36v-2a.36.36 0 0 0-.36-.36h-1.35a.37.37 0 0 0-.35.27l-.53 2a.36.36 0 0 0 .35.45" style="fill:#cd5954"/><path d="M171.66 307.4h1.88a.36.36 0 0 0 .36-.36v-2a.36.36 0 0 0-.36-.36h-1.35a.36.36 0 0 0-.35.27l-.53 2a.36.36 0 0 0 .35.45" style="fill:#cd5954"/><path d="M169.06 307.4h1.88a.36.36 0 0 0 .36-.36v-2a.36.36 0 0 0-.36-.36h-1.35a.36.36 0 0 0-.35.27l-.53 2a.36.36 0 0 0 .35.45" style="fill:#cd5954"/><path d="M166.46 307.4h1.88a.36.36 0 0 0 .36-.36v-2a.36.36 0 0 0-.36-.36H167a.36.36 0 0 0-.35.27l-.53 2a.36.36 0 0 0 .34.45" style="fill:#cd5954"/><path d="M163.86 307.4h1.88a.36.36 0 0 0 .36-.36v-2a.36.36 0 0 0-.36-.36h-1.35a.36.36 0 0 0-.35.27l-.53 2a.36.36 0 0 0 .35.45" style="fill:#cd5954"/><path d="M161.26 307.4h1.88a.36.36 0 0 0 .36-.36v-2a.36.36 0 0 0-.36-.36h-1.35a.35.35 0 0 0-.35.27l-.53 2a.36.36 0 0 0 .35.45" style="fill:#cd5954"/><path d="M158.66 307.4h1.88a.36.36 0 0 0 .36-.36v-2a.36.36 0 0 0-.36-.36h-1.35a.35.35 0 0 0-.35.27l-.53 2a.36.36 0 0 0 .35.45" style="fill:#cd5954"/><path d="M156.06 307.4h1.88a.36.36 0 0 0 .36-.36v-2a.36.36 0 0 0-.36-.36h-1.35a.35.35 0 0 0-.35.27l-.53 2a.36.36 0 0 0 .35.45" style="fill:#cd5954"/><path d="M153.45 307.4h1.89a.36.36 0 0 0 .36-.36v-2a.36.36 0 0 0-.36-.36H154a.35.35 0 0 0-.35.27l-.53 2a.36.36 0 0 0 .33.45" style="fill:#cd5954"/><path d="M150.85 307.4h1.89a.36.36 0 0 0 .36-.36v-2a.36.36 0 0 0-.36-.36h-1.36a.35.35 0 0 0-.34.27l-.53 2a.36.36 0 0 0 .34.45" style="fill:#cd5954"/><path d="M148.96 306.05h42.08v3.13h-42.08z" style="fill:#263238" transform="rotate(180 170 307.615)"/><path d="M148.96 306.05h42.08v3.13h-42.08z" style="fill:#fff;opacity:.2;isolation:isolate" transform="rotate(180 170 307.615)"/><path d="M148.96 306.05h13.63v3.13h-13.63z" style="fill:#fff;opacity:.2;isolation:isolate" transform="rotate(180 155.78 307.615)"/><path d="M124.29 309.07h179.59v9.27H124.29z" style="fill:#fff;opacity:.2;isolation:isolate" transform="rotate(180 214.085 313.7)"/><path d="M88.25 397.51a1.82 1.82 0 0 0-1.46-2.6 3.87 3.87 0 0 0-1.23-4.24.9.9 0 0 0-.53-.24 1 1 0 0 0-.58.25l-3.4 2.44a2.14 2.14 0 0 0-.67.67c-.7 1.34 1.81 3.07.78 4.18-.3.32-.77.38-1.14.61-.81.51-.91 1.62-1.28 2.5s-1.7 1.55-2.2.74c.37-.84-.75-1.56-1.66-1.67s-1.87-.16-2.37-1c-1.3 1.13-4.2-2-4.13-3.3a2.5 2.5 0 0 0-2 2.07 15.3 15.3 0 0 0-.11 3.18c0 2.06-.7 4.08-.66 6.14 0 1.6.65 3.38 2.11 4a5.5 5.5 0 0 0 2.28.3l16.72-.11a2.5 2.5 0 0 0 1.18-.19c.75-.39.91-1.38 1-2.23l.9-10.9Z" style="fill:#cd5954"/><path d="M88.25 397.51a1.82 1.82 0 0 0-1.46-2.6 3.87 3.87 0 0 0-1.23-4.24.9.9 0 0 0-.53-.24 1 1 0 0 0-.58.25l-3.4 2.44a2.14 2.14 0 0 0-.67.67c-.7 1.34 1.81 3.07.78 4.18-.3.32-.77.38-1.14.61-.81.51-.91 1.62-1.28 2.5s-1.7 1.55-2.2.74c.37-.84-.75-1.56-1.66-1.67s-1.87-.16-2.37-1c-1.3 1.13-4.2-2-4.13-3.3a2.5 2.5 0 0 0-2 2.07 15.3 15.3 0 0 0-.11 3.18c0 2.06-.7 4.08-.66 6.14 0 1.6.65 3.38 2.11 4a5.5 5.5 0 0 0 2.28.3l16.72-.11a2.5 2.5 0 0 0 1.18-.19c.75-.39.91-1.38 1-2.23l.9-10.9Z" style="fill:#fff;opacity:.30000000000000004;isolation:isolate"/><path d="M89.22 379.84H63.28l.21 2.62.15 1.87.4 4.87.23 2.8.3 3.73.12 1.59v.48l.15 1.88.21 2.57.12 1.59.14 1.63.15 1.87.12 1.42.12 1.6.06.7h23.86v-.7l.13-1.59.12-1.43.15-1.88.13-1.62.13-1.59.21-2.58.15-1.87v-.48l.12-1.59.31-3.73.22-2.79.39-4.88.16-1.87.21-2.62Zm1.56 1.72-.5-.5h.54Zm-.13 1.59-.05.63-2.32 2.33-2.66-2.67 2.38-2.38h.56Zm-.67 8.3-1.7 1.7-2.66-2.66 2.66-2.66 1.84 1.84Zm-24.68-1.78 1.84-1.84 2.66 2.66-2.66 2.66-1.7-1.7ZM87.42 387l-2.66 2.66L82.1 387l2.66-2.67Zm-4.18-5.91h3l-1.52 1.52Zm.65 9.43-2.65 2.66-2.67-2.66 2.67-2.66ZM75.05 394l2.66-2.65 2.66 2.65-2.66 2.67Zm1.8 3.53-2.67 2.66-2.65-2.66 2.66-2.66Zm4.39-2.66 2.65 2.66-2.65 2.66-2.67-2.66Zm-3.53-5.25L75.05 387l2.66-2.67 2.66 2.67Zm-.86.86-2.66 2.66-2.66-2.66 2.66-2.66Zm-6.19-.86L68 387l2.66-2.67 2.66 2.67Zm0 1.73 2.66 2.65-2.66 2.67L68 394Zm2.66 9.71-2.66 2.65-2.66-2.64 2.66-2.67Zm.86.85 2.67 2.67-2.66 2.66-2.66-2.66Zm.87-.85 2.66-2.67 2.66 2.67-2.66 2.65Zm6.19.85 2.65 2.67-2.65 2.66-2.67-2.66Zm3.52 3.53 2.66 2.66-1.72 1.73h-1.88l-1.72-1.73Zm-2.66-4.38 2.66-2.67 2.66 2.67-2.66 2.65Zm0-7.06 2.66-2.65 2.66 2.65-2.66 2.67Zm1.79-10.57-2.65 2.67-2.67-2.67 2.43-2.37h.56Zm-6.18-.86-1.52-1.52h3Zm-.86.86-2.66 2.67-2.66-2.67 2.38-2.38h.56Zm-4.67-2.38-1.52 1.52-1.52-1.52Zm-4.76 0 2.38 2.38-2.66 2.67-2.32-2.33v-.63l2.09-2.09Zm-2.28 0-.5.49v-.49Zm-.17 4.6 1.31 1.35-1.11 1.11Zm.73 8.93-.1-1.26.68.68zm.13 1.6 1.31-1.31 2.66 2.66-2.66 2.66-1.08-1.07Zm.39 4.93V401l.06.07-.06.05Zm.47 5.67-.34-4.08.79-.79 2.66 2.67-2.66 2.66zm.24 3-.05-.61.26-.26.86.87Zm1.07-1.67 2.66-2.66 2.66 2.66-1.72 1.73h-1.88Zm5.32 1.73.87-.87.87.87Zm3.45 0-1.72-1.73 2.66-2.66 2.66 2.66-1.72 1.73Zm3.6 0 .87-.87.86.87Zm8.12 0h-1.07l.86-.87.26.26Zm.25-3-.46.46-2.66-2.66 2.66-2.67.79.79Zm.47-5.79v.12l-.06-.05.07-.07Zm.15-1.87-1.08 1.07-2.66-2.66 2.66-2.66 1.32 1.31Zm.37-4.53-.59-.59.69-.68Zm.72-8.94-.19 2.42-1.12-1.13 1.31-1.31Z" style="fill:#cd5954"/><g style="opacity:.6000000000000001;isolation:isolate"><path d="M89.22 379.84H63.28l.21 2.62.15 1.87.4 4.87.23 2.8.3 3.73.12 1.59v.48l.15 1.88.21 2.57.12 1.59.14 1.63.15 1.87.12 1.42.12 1.6.06.7h23.86v-.7l.13-1.59.12-1.43.15-1.88.13-1.62.13-1.59.21-2.58.15-1.87v-.48l.12-1.59.31-3.73.22-2.79.39-4.88.16-1.87.21-2.62Zm1.56 1.72-.5-.5h.54Zm-.13 1.59-.05.63-2.32 2.33-2.66-2.67 2.38-2.38h.56Zm-.67 8.3-1.7 1.7-2.66-2.66 2.66-2.66 1.84 1.84Zm-24.68-1.78 1.84-1.84 2.66 2.66-2.66 2.66-1.7-1.7ZM87.42 387l-2.66 2.66L82.1 387l2.66-2.67Zm-4.18-5.91h3l-1.52 1.52Zm.65 9.43-2.65 2.66-2.67-2.66 2.67-2.66ZM75.05 394l2.66-2.65 2.66 2.65-2.66 2.67Zm1.8 3.53-2.67 2.66-2.65-2.66 2.66-2.66Zm4.39-2.66 2.65 2.66-2.65 2.66-2.67-2.66Zm-3.53-5.25L75.05 387l2.66-2.67 2.66 2.67Zm-.86.86-2.66 2.66-2.66-2.66 2.66-2.66Zm-6.19-.86L68 387l2.66-2.67 2.66 2.67Zm0 1.73 2.66 2.65-2.66 2.67L68 394Zm2.66 9.71-2.66 2.65-2.66-2.64 2.66-2.67Zm.86.85 2.67 2.67-2.66 2.66-2.66-2.66Zm.87-.85 2.66-2.67 2.66 2.67-2.66 2.65Zm6.19.85 2.65 2.67-2.65 2.66-2.67-2.66Zm3.52 3.53 2.66 2.66-1.72 1.73h-1.88l-1.72-1.73Zm-2.66-4.38 2.66-2.67 2.66 2.67-2.66 2.65Zm0-7.06 2.66-2.65 2.66 2.65-2.66 2.67Zm1.79-10.57-2.65 2.67-2.67-2.67 2.43-2.37h.56Zm-6.18-.86-1.52-1.52h3Zm-.86.86-2.66 2.67-2.66-2.67 2.38-2.38h.56Zm-4.67-2.38-1.52 1.52-1.52-1.52Zm-4.76 0 2.38 2.38-2.66 2.67-2.32-2.33v-.63l2.09-2.09Zm-2.28 0-.5.49v-.49Zm-.17 4.6 1.31 1.35-1.11 1.11Zm.73 8.93-.1-1.26.68.68zm.13 1.6 1.31-1.31 2.66 2.66-2.66 2.66-1.08-1.07Zm.39 4.93V401l.06.07-.06.05Zm.47 5.67-.34-4.08.79-.79 2.66 2.67-2.66 2.66zm.24 3-.05-.61.26-.26.86.87Zm1.07-1.67 2.66-2.66 2.66 2.66-1.72 1.73h-1.88Zm5.32 1.73.87-.87.87.87Zm3.45 0-1.72-1.73 2.66-2.66 2.66 2.66-1.72 1.73Zm3.6 0 .87-.87.86.87Zm8.12 0h-1.07l.86-.87.26.26Zm.25-3-.46.46-2.66-2.66 2.66-2.67.79.79Zm.47-5.79v.12l-.06-.05.07-.07Zm.15-1.87-1.08 1.07-2.66-2.66 2.66-2.66 1.32 1.31Zm.37-4.53-.59-.59.69-.68Zm.72-8.94-.19 2.42-1.12-1.13 1.31-1.31Z" style="fill:#fff"/></g><rect width="32.18" height="3.39" x="61.62" y="378.75" rx="1.64" style="fill:#cd5954" transform="rotate(180 77.71 380.45)"/><rect width="27.54" height="3.39" x="63.94" y="409.23" rx="1.64" style="fill:#cd5954"/><rect width="37.32" height="37.32" x="234.45" y="95.26" rx="3.69" style="fill:#cd5954" transform="rotate(170.18 253.105 113.913)"/><path d="M251.85 130.14s6.73 10.19 18.13 11.77c0 0-6.57-2.41-8.1-14ZM261.59 111.1l-4.76.57s-1.56-3.18-2.55-10.54a8.8 8.8 0 0 0-2.44.38c-.77.34.08 8.58.08 8.58s-8.62.6-9 1c-.26.27-.16 1.54 0 2.44a1.09 1.09 0 0 0 1 1h.31l1.53 8.1a1.2 1.2 0 0 0 1.33 1l8-1a4 4 0 0 0 2.13-1l.78-.71 5-.32Z" style="fill:#cd5954"/><path d="m261.59 111.1-4.76.57s-1.56-3.18-2.55-10.54a8.8 8.8 0 0 0-2.44.38c-.77.34.08 8.58.08 8.58s-8.62.6-9 1c-.26.27-.16 1.54 0 2.44a1.09 1.09 0 0 0 1 1h.31l1.53 8.1a1.2 1.2 0 0 0 1.33 1l8-1a4 4 0 0 0 2.13-1l.78-.71 5-.32Z" style="fill:#fff;opacity:.7000000000000001;isolation:isolate"/><path d="M278.54 169.71c-4.36-.17-21.34 27.49-21.34 27.49l-11.54-2.2-2.48 5.9s10.41 5.08 14.59 5.53S278 184.57 278 184.57Z" style="fill:#cd5954"/><path d="m278.54 169.7-.54 14.87s-.39.54-1.06 1.44c-1.22 1.67-3.41 4.6-5.9 7.73-4.87 6.1-10.9 13-13.23 12.7-4.19-.45-14.59-5.51-14.59-5.51l2.48-5.9 11.53 2.18s16.95-27.67 21.31-27.51" style="fill:#fff;opacity:.2;isolation:isolate"/><path d="M276.9 186c-1.22 1.67-3.41 4.6-5.9 7.73.09-5.9 5.25-13.24 5.25-13.24s.37 2.41.65 5.51" style="opacity:.2;isolation:isolate"/><path d="M311.66 411.78h9.75a.71.71 0 0 1 .69.55l1.58 7.15a1.19 1.19 0 0 1-.91 1.41h-.26c-3.16-.05-5.46-.24-9.42-.24-2.44 0-9.81.25-13.18.25s-3.81-3.33-2.43-3.64c6.19-1.34 10.85-3.21 12.83-5a1.93 1.93 0 0 1 1.35-.48M270.28 411.52H280a.7.7 0 0 1 .68.55l1.59 7.16a1.19 1.19 0 0 1-.92 1.4 1 1 0 0 1-.26 0c-3.15-.06-5.45-.25-9.42-.25-2.44 0-9.8.26-13.17.26s-3.81-3.33-2.43-3.64c6.19-1.35 10.84-3.22 12.83-5a2 2 0 0 1 1.38-.48" style="fill:#263238"/><path d="M316.83 230.94h-42.62c-4.06 22.13-16.74 112-7.64 181.77H281s-1.34-106 11.4-140.22c1.47 18.33 16.37 140.14 16.37 140.14h14.69s-2.2-45.82-4.4-89.11c-1.38-27.25-2.17-86.99-2.23-92.58" style="fill:#263238"/><path d="M292.4 272.49a114.5 114.5 0 0 0-4.76 18.44c-1.19-16.31 3.58-33.6 3.58-33.6Z" style="opacity:.2;isolation:isolate"/><path d="M273.85 231.45h42.9v5.11l-43.45-.53z"/><path d="M301.43 229.15h1.53v9.07h-1.53zM279.72 229.15h1.53v9.07h-1.53z" style="fill:#263238"/><path d="M285.47 230.55h7.94v5.72h-7.94z" style="fill:#fff"/><path d="M316.89 232.27c1.13-24.41 8.31-59 8.31-59-19.92-4.8-46.66-3.6-46.66-3.6-5.21 18.64-5.12 48.72-4.67 62.56Z" style="fill:#cd5954"/><path d="M325.2 173.3s-.8 3.87-1.91 9.92c-.53 2.89-1.14 6.28-1.75 10-.36 2.17-.73 4.44-1.08 6.78s-.71 4.63-1 7c-1.18 8.48-2.17 17.41-2.54 25.28h-43c-.45-13.84-.54-43.92 4.67-62.57-.05-.01 26.7-1.21 46.61 3.59" style="fill:#fff;opacity:.2;isolation:isolate"/><path d="M323.29 183.22c-.53 2.89-1.14 6.28-1.75 10-.36 2.17-.73 4.44-1.08 6.78-3.16-8.29 2.22-19.49 2.22-19.49Z" style="opacity:.2;isolation:isolate"/><path d="m292.7 173 1.07 5.28s-6.15 25.67-7.47 39l2.24 2.24 3.53-2.24s.31-27.11 3.43-38.5l5.58-4.57-4.4-1.43Z" style="fill:#263238"/><path d="M309.4 170.61c-3.68 3.35-12.72 2.11-12.72 2.11s-5.63-1.54-4.45-3.3c3.32-.55 4.93-2.1 5.59-4.08a9.5 9.5 0 0 0 .34-3.79 19 19 0 0 0-.28-2.12l11.17-8.27c-1.47 5.46-3.26 15.5.35 19.45" style="fill:#eec1bb"/><path d="M306.47 156.42c-.45 6.7-6 8.54-8.65 8.92a9.5 9.5 0 0 0 .34-3.79Z" style="opacity:.2;isolation:isolate"/><path d="m307.76 166.36-10.68 4.82-.62-3.86-3.93 1.38a3.21 3.21 0 0 0-2.13 3.37l.44 4.24 5.41-3 2.7 3.81 12.82-6.12Z" style="fill:#cd5954"/><path d="m307.76 166.36-10.68 4.82-.62-3.86-3.93 1.38a3.21 3.21 0 0 0-2.13 3.37l.44 4.24 5.41-3 2.7 3.81 12.82-6.12Z" style="fill:#fff;opacity:.30000000000000004;isolation:isolate"/><path d="M286.16 135.65s-1.67 10.75 4 14.91 5.76-15.87 5.76-15.87Z" style="fill:#263238"/><path d="M306.73 159.15a9.74 9.74 0 0 1-11.22 3.75 10.84 10.84 0 0 1-6.19-5.07 11 11 0 0 1-.51-1c-2.79-6.58-3.65-18.08 3.31-22.37a10.58 10.58 0 0 1 14.57 3.36 10.4 10.4 0 0 1 1.57 4.66c.83 7.66 1.68 12.14-1.53 16.67" style="fill:#eec1bb"/><path d="M297.05 146.52c.14.61-.14 1.18-.55 1.25s-.82-.39-.93-1 .15-1.17.55-1.24.82.37.93.99M290 147.7c.14.61-.15 1.18-.55 1.24s-.82-.38-.92-1 .14-1.18.54-1.24.86.41.93 1" style="fill:#263238"/><path d="M292.31 147.63a22.3 22.3 0 0 1-2.08 5.81 3.68 3.68 0 0 0 3.08.06Z" style="fill:#d4827d"/><path d="M286.92 145.14a.4.4 0 0 0 .38-.07 3 3 0 0 1 2.57-.75.36.36 0 0 0 .45-.25.38.38 0 0 0-.26-.46 3.66 3.66 0 0 0-3.24.9.37.37 0 0 0-.05.52.5.5 0 0 0 .15.11M298 143.48a.32.32 0 0 0 .08-.61 3.64 3.64 0 0 0-3.36-.29.36.36 0 0 0-.17.49.37.37 0 0 0 .49.17 3 3 0 0 1 2.66.27.34.34 0 0 0 .3-.03M301.07 133.88v3.43a2.55 2.55 0 0 1 1.65 3c-.76 3 1.38 7.19 3.78 8.69 0 0-.08-1.24 1-1.07s1.56 6.62-.11 9.93c0 0 2.74-3.14 3.67-10.08.86-6.43.44-11.65-1.12-13.91Z" style="fill:#263238"/><path d="M312.64 148.14a7.38 7.38 0 0 1-3.54 4.37c-2.28 1.21-4-.69-3.81-3.13.16-2.17 1.52-5.48 4-5.66s4 2.12 3.35 4.42" style="fill:#eec1bb"/><path d="M294.12 155.38a21 21 0 0 1 1.43 2.57l.5-.15c2.25-.66 3.07-1.71 3.31-2.67a3.1 3.1 0 0 0 0-1.43 3 3 0 0 0-.29-.76 11 11 0 0 1-4.15 2.2c-.5.16-.8.24-.8.24" style="fill:#263238"/><path d="m294.88 155.14.44.75c2.12-.63 3.53-1.35 4-2.19a3 3 0 0 0-.29-.76 11 11 0 0 1-4.15 2.2" style="fill:#fff"/><path d="M296.05 157.8c2.25-.66 3.07-1.71 3.31-2.67a7.7 7.7 0 0 0-2.36 1.23 2.84 2.84 0 0 0-.95 1.44" style="fill:#de5753"/><path d="M309.4 135.5s3.69-4.5-5.16-7.26-21.8 5.46-19.17 8.71 11.7 1.89 11.7 1.89a6.8 6.8 0 0 1-3.46-1.46s13.12.88 16.09-1.88" style="fill:#263238"/><path d="M325.2 173.31c5.61 1.9 9.45 36.78 9.38 39.81s-8.66 4.34-9.38-2-3.66-19.82-3.66-19.82-.78-6.1 0-9.8 3.66-8.19 3.66-8.19" style="fill:#cd5954"/><path d="M325.2 173.31c5.61 1.9 9.45 36.78 9.38 39.81s-8.66 4.34-9.38-2-3.66-19.82-3.66-19.82-.78-6.1 0-9.8 3.66-8.19 3.66-8.19" style="fill:#fff;opacity:.2;isolation:isolate"/><path d="M165.63 201.22h196.9v136.97h-196.9z" style="fill:#cd5954" transform="rotate(6.18 263.867 269.447)"/><path d="M165.63 201.22h196.9v136.97h-196.9z" style="fill:#fff;opacity:.6000000000000001;isolation:isolate" transform="rotate(6.18 263.867 269.447)"/><path d="m350.55 343.77-186.79-20.21 13.84-127.93 186.79 20.21Zm-185.68-21.1 184.79 20 13.63-125.94-184.8-20Z" style="fill:#cd5954"/><path d="m352.64 346.25-10.89-1.18.42-3.85-169.67-18.36-.42 3.85-10.89-1.17 1.18-10.89 3.95.43 12-110.61-4-.43 1.18-10.89 10.89 1.18-.41 3.85 169.67 18.36.41-3.85 10.94 1.17-1.18 10.89-3.95-.42-12 110.6 4 .43Zm-9.79-2.06 8.9 1 1-8.9-4-.43 12.18-112.6 4 .43 1-8.9-8.9-1-.42 3.85-171.73-18.57.42-3.86-8.9-1-1 8.9 3.95.43-12.18 112.6-4-.43-1 8.9 8.9 1 .42-3.85 171.66 18.57Z" style="fill:#cd5954"/><path d="m180.31 199.13 2.27.25-.25 2.27-2.27-.24zm-.89-1.1-.11 1-.24 2.28-.11 1 1 .11 2.28.25 1 .1.11-1 .24-2.27.11-1-1-.11-2.28-.24-1-.11ZM167.4 318.45l2.27.24-.25 2.27-2.27-.24zm-.89-1.11-.11 1-.24 2.27-.11 1 1 .1 2.28.25 1 .11.11-1 .24-2.27.11-1-1-.1-2.28-.25zM358.73 218.44l2.27.24-.24 2.28-2.28-.25zm-.89-1.11-.11 1-.24 2.27-.11 1 1 .1 2.28.25 1 .11.11-1 .25-2.27.1-1-1-.11-2.27-.25-1-.11ZM345.82 337.75l2.27.25-.24 2.27-2.28-.25zm-.89-1.1-.11 1-.24 2.28-.11 1 1 .11 2.27.24 1 .11.11-1 .25-2.28.1-1-1-.11-2.27-.24zM216.9 220.23a5 5 0 0 1 8.91-2.27l-1.22.92a3.24 3.24 0 0 0-2.34-1.34 3.25 3.25 0 1 0-.7 6.46 3.25 3.25 0 0 0 2.58-.82l1 1.17a5 5 0 0 1-8.22-4.12ZM233.66 225.24l-.16 1.44-6.89-.75 1-9.2 6.71.73-.15 1.43-5-.54-.26 2.39 4.45.48-.16 1.41-4.44-.48-.27 2.53ZM241.42 227.53l-1.58-2.89h-.36l-2.08-.22-.29 2.68-1.7-.19 1-9.19 3.78.41c2.42.26 3.79 1.65 3.57 3.69a3 3 0 0 1-2.28 2.69l1.79 3.25Zm-1.47-8-2-.21-.39 3.66 2 .22c1.5.16 2.35-.44 2.47-1.6s-.58-1.91-2.03-2.07ZM247.58 220.36l-3.05-.33.16-1.45 7.8.85-.15 1.44-3.05-.33-.84 7.75-1.71-.18ZM253.78 219.57l1.71.18-1 9.2-1.71-.19ZM259.52 221.64l-.3 2.79 4.44.48-.16 1.45-4.44-.48-.38 3.52-1.71-.18 1-9.2 6.71.73-.15 1.43ZM266.34 220.92l1.7.19-1 9.2-1.71-.19ZM269.37 225.91a4.72 4.72 0 0 1 5.44-4.2 4.66 4.66 0 0 1 3.47 1.93l-1.21.92a3.26 3.26 0 0 0-2.34-1.35 3.25 3.25 0 1 0 1.87 5.64l1 1.17a5 5 0 0 1-8.22-4.11ZM285.08 230.1l-4.6-.49-1.14 2-1.76-.19 5.14-8.75 1.68.18 3.15 9.64-1.78-.19Zm-.42-1.4-1.3-4.21-2.16 3.84ZM291 225.05l-3.05-.33.15-1.44 7.81.84-.16 1.45-3.05-.33-.83 7.75-1.71-.19ZM297.16 224.26l1.71.19-1 9.19-1.71-.18ZM300.2 229.24a5 5 0 1 1 4.44 5.27 4.73 4.73 0 0 1-4.44-5.27m8.18.89a3.25 3.25 0 1 0-3.58 2.87 3.16 3.16 0 0 0 3.58-2.87M320.59 226.79l-1 9.2-1.4-.15-4.4-6.78-.68 6.23-1.69-.18 1-9.2 1.41.15 4.4 6.78.67-6.23Z" style="fill:#cd5954"/><path d="m311.17 262.28-91.51-9.9a3.89 3.89 0 0 0-.84 7.74l91.51 9.9a3.89 3.89 0 0 0 .84-7.74" style="fill:#fff;opacity:.6000000000000001;isolation:isolate"/><path d="M333.42 282.37h-.06l-139.68-15.11a.5.5 0 0 1 .11-1l139.68 15.12a.49.49 0 0 1 .44.55.5.5 0 0 1-.49.44M333.87 278.18h-.06l-128.73-13.93a.5.5 0 0 1-.44-.55.49.49 0 0 1 .55-.44l128.73 13.92a.5.5 0 0 1-.05 1M278.21 280.83l-85-9.19a.5.5 0 0 1 .11-1l84.94 9.19a.5.5 0 0 1-.05 1M337.07 248.63H337L208.28 234.7a.5.5 0 0 1 .11-1l128.73 13.93a.5.5 0 0 1 .44.55.49.49 0 0 1-.49.45M336.61 252.82h-.05L196.88 237.7a.5.5 0 0 1 .11-1l139.68 15.11a.5.5 0 0 1-.06 1ZM259 253.28l-63.06-6.82a.5.5 0 0 1 .11-1l63.06 6.83a.5.5 0 0 1 .44.55.51.51 0 0 1-.55.44M336.14 257.2h-.05l-139.68-15.12a.5.5 0 1 1 .11-1l139.67 15.12a.5.5 0 0 1-.05 1M318.51 328.62l-5.77-3.95-6.48 2.62 2.24-20.74 12.26 1.33z" style="fill:#cd5954"/><path d="m318.51 328.62-5.77-3.95-6.48 2.62 2.24-20.74 12.26 1.33z" style="opacity:.2;isolation:isolate"/><path d="m316.35 291.32 2.02-1.17 1.28 1.96 2.26-.63.75 2.21 2.34-.05.18 2.34 2.28.52-.41 2.31 2.08 1.08-.97 2.13 1.74 1.57-1.47 1.82 1.3 1.95-1.87 1.4.77 2.21-2.17.89.21 2.33-2.32.33-.39 2.31-2.33-.27-.95 2.14-2.18-.83-1.45 1.84-1.92-1.35-1.86 1.42-1.52-1.79-2.15.91-1.03-2.1-2.31.34-.47-2.29-2.33-.24.12-2.34-2.2-.81.69-2.24-1.92-1.33 1.23-2-1.54-1.76 1.69-1.63-1.05-2.1 2.04-1.15-.49-2.29 2.26-.61.09-2.34 2.35-.03.67-2.24 2.28.55 1.2-2.01 2.07 1.11 1.67-1.65z" style="fill:#cd5954"/><path d="m316.05 294.05 1.62-.94 1.02 1.57 1.8-.51.6 1.77 1.87-.04.14 1.87 1.83.42-.33 1.84 1.66.86-.78 1.71 1.4 1.24-1.18 1.46 1.04 1.56-1.5 1.12.62 1.76-1.73.71.16 1.86-1.85.26-.31 1.85-1.86-.22-.76 1.72-1.74-.67-1.16 1.47-1.53-1.08-1.48 1.13-1.22-1.42-1.72.72-.81-1.68-1.85.28-.38-1.83-1.86-.2.1-1.86-1.76-.65.56-1.79-1.54-1.06.98-1.59-1.23-1.42 1.35-1.29-.83-1.68 1.62-.92-.39-1.83 1.81-.49.07-1.86 1.87-.03.54-1.79 1.82.44.96-1.6 1.65.88 1.33-1.31z" style="fill:#fff;opacity:.2;isolation:isolate"/><path d="m314.89 305.76 1.4.16-.1.93-1.51-.16-.41 1.73-.94-.1.41-1.73-1.74-.19-.4 1.73-.94-.1.41-1.73-1.4-.15.1-.94 1.51.16.44-1.81-1.4-.15.1-.94 1.51.16.41-1.73.94.1-.41 1.74 1.73.18.41-1.73.94.1-.41 1.73 1.39.15-.09.94-1.51-.16Zm-.94-.1.43-1.81-1.73-.19-.44 1.81ZM320.3 301.77l-.78 7.22-1.34-.14.66-6.11-1.53-.16.12-1.12ZM204.15 284.19a1.06 1.06 0 0 1 1.43.34 1.07 1.07 0 0 0 1.19.44 1.07 1.07 0 0 1 1.3.69 1.07 1.07 0 0 0 1 .72 1.08 1.08 0 0 1 1.09 1 1.05 1.05 0 0 0 .82 1 1.07 1.07 0 0 1 .81 1.23 1.05 1.05 0 0 0 .56 1.13 1.08 1.08 0 0 1 .48 1.39 1.06 1.06 0 0 0 .26 1.24 1.08 1.08 0 0 1 .12 1.47 1.05 1.05 0 0 0-.06 1.26 1.08 1.08 0 0 1-.25 1.45 1.05 1.05 0 0 0-.37 1.21 1.06 1.06 0 0 1-.6 1.34 1.07 1.07 0 0 0-.66 1.08 1.07 1.07 0 0 1-.92 1.15 1.05 1.05 0 0 0-.9.88 1.08 1.08 0 0 1-1.18.89 1.08 1.08 0 0 0-1.1.63 1.05 1.05 0 0 1-1.35.56 1.07 1.07 0 0 0-1.22.34 1.07 1.07 0 0 1-1.46.21 1.07 1.07 0 0 0-1.26 0 1.07 1.07 0 0 1-1.47-.16 1.08 1.08 0 0 0-1.23-.29 1.06 1.06 0 0 1-1.37-.51 1.07 1.07 0 0 0-1.12-.59 1.08 1.08 0 0 1-1.21-.85 1.07 1.07 0 0 0-.93-.85 1.06 1.06 0 0 1-1-1.11 1.07 1.07 0 0 0-.7-1.06 1.07 1.07 0 0 1-.65-1.32 1.06 1.06 0 0 0-.41-1.19 1.07 1.07 0 0 1-.3-1.44 1.08 1.08 0 0 0-.1-1.26 1.06 1.06 0 0 1 .06-1.47 1.07 1.07 0 0 0 .22-1.25 1.06 1.06 0 0 1 .43-1.41 1.06 1.06 0 0 0 .51-1.15 1.07 1.07 0 0 1 .77-1.26 1.07 1.07 0 0 0 .79-1 1.07 1.07 0 0 1 1.05-1 1.06 1.06 0 0 0 1-.76 1.06 1.06 0 0 1 1.28-.73 1.08 1.08 0 0 0 1.17-.49 1.05 1.05 0 0 1 1.41-.39 1.06 1.06 0 0 0 1.25-.18 1.08 1.08 0 0 1 1.48 0 1.06 1.06 0 0 0 1.34.07" style="fill:#cd5954"/><circle cx="202.35" cy="294.97" r="9.22" style="fill:#fff;opacity:.2;isolation:isolate"/><path d="m202.84 290.39 1.17 3.18 3.27.84-2.66 2.09.21 3.37-2.81-1.89-3.14 1.25.93-3.26-2.16-2.6 3.38-.12z" style="fill:#cd5954"/><circle cx="236.17" cy="298.63" r="11.19" style="fill:#cd5954" transform="rotate(-38.83 236.126 298.593)"/><path d="M244.56 299.54a8.44 8.44 0 1 1-7.48-9.3 8.44 8.44 0 0 1 7.48 9.3" style="fill:#fff;opacity:.2;isolation:isolate"/><g style="opacity:.2;isolation:isolate"><path d="M235.13 308.26a9.69 9.69 0 1 1 10.68-8.59 9.69 9.69 0 0 1-10.68 8.59m2-18.68a9.1 9.1 0 1 0 8.07 10 9.11 9.11 0 0 0-8.05-10Z" style="fill:#fff"/></g><path d="m237.95 299.01-1.41-3.79-2.19 3.41-3.51-3.71.85 6.67 2.09.22 1.82.2.41.05 1.82.19 2.09.23 2.25-6.34z" style="fill:#cd5954"/><path d="m241.66 200.92 2.47-2.26 2 .22.38-2.88-3.62-.83s-5-.69-6.78-.7c-.73 0-1.58 0-3.61 4.47-.34.8 9.16 1.98 9.16 1.98M323.29 207.22a16.2 16.2 0 0 1 1.91-3.22c.67-.59 6.77.76 7.79 1.59s.53 2.71.53 2.71-1.7 2.66-2.86 2.52-7.05-.44-7.37-.87 0-2.73 0-2.73" style="fill:#eec1bb"/></svg>