<svg xmlns="http://www.w3.org/2000/svg" viewBox="0 0 500 500"><path d="M0 382.4h500v.25H0zM416.78 398.49h33.12v.25h-33.12zM322.53 401.21h8.69v.25h-8.69zM396.59 389.21h19.19v.25h-19.19zM52.46 390.89h43.19v.25H52.46zM104.56 390.89h6.33v.25h-6.33zM131.47 395.11h93.68v.25h-93.68zM237 337.8H43.91a5.71 5.71 0 0 1-5.7-5.71V60.66a5.71 5.71 0 0 1 5.7-5.66H237a5.71 5.71 0 0 1 5.71 5.71v271.38a5.71 5.71 0 0 1-5.71 5.71M43.91 55.2a5.46 5.46 0 0 0-5.45 5.46v271.43a5.46 5.46 0 0 0 5.45 5.46H237a5.47 5.47 0 0 0 5.46-5.46V60.66A5.47 5.47 0 0 0 237 55.2ZM453.31 337.8h-193.1a5.72 5.72 0 0 1-5.71-5.71V60.66a5.72 5.72 0 0 1 5.71-5.66h193.1a5.71 5.71 0 0 1 5.69 5.66v271.43a5.71 5.71 0 0 1-5.69 5.71M260.21 55.2a5.47 5.47 0 0 0-5.46 5.46v271.43a5.47 5.47 0 0 0 5.46 5.46h193.1a5.47 5.47 0 0 0 5.46-5.46V60.66a5.47 5.47 0 0 0-5.46-5.46Z" style="fill:#ebebeb"/><path d="m423.1 378.22-.45-66.22-9.83-8.3-4.55-21.9-5.89-6.8-3.17-15.32-5.38 7-3 41.9-3-4.79-2.42-16.3-4.86 5.22-6.07 1.52-3.55 34.62-90.23 10.7-18.79-16.07-7.64-31.34-7.92-8.14-2.41-15.1-7.57 2.62v15.94l-6.44 3.7-2.75 32.35-8.08 11.18-2.3-20s-6.19-4.95-7.55-6.15-9.18-22.93-8-24.55-1.69-15.73-1.69-15.73l-7.8 4.67v23.37l-8.14 2.06-1.23 10.18-20.76 3.36-3.34-15.6H149l-2.91 8.89-8.42-.06-13.33 9.56-11-21.51-11.14 5.18-8-18.64-8.44 10.93-3.13 35.43-4.32.5-2-7.63-8.11 7.63v51.66ZM273.18 201.43H223.4a7.94 7.94 0 0 1 .23-15.88 8.2 8.2 0 0 1 2.28.33 16 16 0 0 1-.18-2.44 16.83 16.83 0 0 1 16.83-16.83 17.6 17.6 0 0 1 3.1.29 14.71 14.71 0 0 1 27.27 7.44h.25a13.56 13.56 0 0 1 0 27.11ZM269.32 97.85H250.6a3 3 0 0 1 .08-6 3 3 0 0 1 .86.12 7 7 0 0 1-.07-.91 6.33 6.33 0 0 1 6.33-6.33 6.5 6.5 0 0 1 1.17.11 5.53 5.53 0 0 1 10.26 2.79h.09a5.1 5.1 0 1 1 0 10.2ZM135.36 102.85h-18.72a3 3 0 0 1 .09-6 3 3 0 0 1 .85.12 7 7 0 0 1-.06-.91 6.32 6.32 0 0 1 6.33-6.33 6.3 6.3 0 0 1 1.16.11 5.53 5.53 0 0 1 10.26 2.79h.09a5.1 5.1 0 0 1 0 10.2ZM383.75 111H365a3 3 0 0 1 .08-6 3 3 0 0 1 .86.12 5.5 5.5 0 0 1-.07-.91 6.32 6.32 0 0 1 6.33-6.33 6.5 6.5 0 0 1 1.17.1 5.54 5.54 0 0 1 10.26 2.8h.09a5.1 5.1 0 1 1 0 10.2ZM141.77 188.2h-18.72a3 3 0 0 1 .08-6 3 3 0 0 1 .86.12 5.5 5.5 0 0 1-.07-.91 6.33 6.33 0 0 1 6.33-6.34 6.5 6.5 0 0 1 1.17.11 5.54 5.54 0 0 1 10.26 2.8h.09a5.1 5.1 0 1 1 0 10.19ZM408.22 197.94h-27.07a4.32 4.32 0 0 1 .12-8.64 4.2 4.2 0 0 1 1.24.18 10 10 0 0 1-.1-1.33 9.16 9.16 0 0 1 9.16-9.15 8.5 8.5 0 0 1 1.68.16 8 8 0 0 1 14.84 4h.13a7.38 7.38 0 1 1 0 14.75ZM331 147.59h-27.1a4.32 4.32 0 0 1 .12-8.64 4.2 4.2 0 0 1 1.24.18 9.6 9.6 0 0 1-.1-1.33 9.16 9.16 0 0 1 9.16-9.15 9.4 9.4 0 0 1 1.69.16 8 8 0 0 1 14.83 4h.16a7.38 7.38 0 0 1 0 14.75Z" style="fill:#f5f5f5"/><path d="m75.41 360.22 15.86-3.16 3.57-43.35 10.82-7.49 3.77-37.22 9.72-10.94 4.52 8.53 7.38 13.47 2.46 13.21 4.19 11.8 9 14.14 8.11-7.25s4.43-7.18 6.54-8.11 10.77-1.73 10.77-1.73l12 11.55v9l12.31 6.57 7.57 7.61c3.32 3.33 6.43 9.26 12 9.38 7.61.17 17.37-13.54 21-19.21 2.88-4.43 5.22-9.24 8.61-13.29 8-9.5 21.61-15 24.71-27l9.61 8.88a3.26 3.26 0 0 0 5.46.13c4.84-4.38 9.82-8.95 12.39-14.94a53 53 0 0 1 2.39-5.64c1.48-2.55 3.83-4.45 5.93-6.52 8.06-7.94 12.69-18.64 17.13-29.05 9.19 10.29 24.76.5 28.89 17.11a178 178 0 0 0 5.99 19.3c8.53 23 21.46 44.26 37.11 63.06a250 250 0 0 0 20.36 21.66q5.91 5.58 12.15 10.79c2.54 2.13 10.34 10.63 13.56 10.63H58.09Z" style="fill:#ebebeb"/><path d="m87.72 382.4 16.42-22.53s7.59-.08 9.2-1.68 6-5.49 11.11-10.87 13.45-15.66 13.45-15.66l10.68 3.56s6.33 14.64 7.91 18.2 6.77 11.47 6.77 11.47l15.28 4.75s1.45-8.31 5.92-13.85 11.22-15.43 11.22-15.43l6.32-19.15 8.27-6.91 8.11 10.7s5.28 5.61 6.11 8.69 3 11.85 4.27 13.6 7.71 12.1 7.71 12.1l4 5.87 16.32.39s1.57-2.23 4.23-6.26 4.38-8.85 5.7-10.2 6-15.5 6-15.5l6-4.83 23.8 37.19s23.28 6.94 28 5.45 7.1-.31 11.46-3.48 17.55-38 18.08-39.95 2.11-1.66 7.65-5 8.34-6.24 8.52-4.18 6.67 15.12 7.18 18.87 2.18 9.49 2.73 13.54a24.3 24.3 0 0 0 4.12 10.22c1.58 2.14 12.8 20.84 12.8 20.84Z" style="fill:#e0e0e0"/><circle cx="187.98" cy="223.75" r="17.82" style="fill:#fafafa" transform="rotate(-76.72 187.975 223.749)"/><ellipse cx="250" cy="416.24" rx="193.89" ry="11.32" style="fill:#f5f5f5"/><path d="M380.63 132.17s-23.47 12.62-23.87 16.15 7 14 5.4 19.84-5.56 17.65-5.41 19.39 2.78 8.44 2.78 8.44 5.46 1.82 5.63 1.78 29.18 1.87 29.18 1.87l15.07-9.06s3.92 3.15 3.92 5.41-9.49.34-12.66 3.15-9.49 4.73-9.49 4.73-3.7 29.29-.53 32.94 12.13 16.57 12.13 16.57l-6.19 47.9s-1.19 17 3 22.15 4.69 6.7 6.56 7.76 18.75 51.23 18.75 51.23v17.34s12.14-55.39 12.14-58.55-7.39-20.59-7.39-20.59l7.42-30.62 6.82-37.47s7.77-63.77 6-66.39-16.56-14.57-16.56-14.57-2.08-31.84-7.35-35-22.54-16-22.54-16-2.25 13.08-4.36 11.65-18.45-.05-18.45-.05" style="fill:#cd5954"/><path d="M450.16 188.73c0 12.44-6.27 63.78-6.27 63.78L437.07 290l-7.39 30.64c.22.53 7.38 17.46 7.38 20.58s-12.14 58.55-12.14 58.55v-17.35s-9.2-27.42-14.77-42.12c-2-5.21-3.48-8.83-4-9.11-1.87-1.06-2.34-2.64-6.56-7.76s-3-22.15-3-22.15l6.19-47.9s-9-12.92-12.13-16.57.53-32.94.53-32.94 6.33-1.91 9.49-4.73 12.66-.88 12.66-3.15-3.92-5.41-3.92-5.41l-15.07 9.06s-29-1.9-29.18-1.87-5.63-1.78-5.63-1.78-2.64-6.69-2.78-8.44 3.83-13.55 5.41-19.39c1.08-3.95-2-10-3.92-14.65-.93-2.19-1.61-4-1.48-5.19.4-3.53 23.87-16.15 23.87-16.15s16.35-1.42 18.46 0 4.36-11.65 4.36-11.65 17.26 12.86 22.54 16a2.5 2.5 0 0 1 .49.39c4.1 4 6.14 25.47 6.69 32.43.12 1.37.17 2.18.17 2.18s14.8 11.94 16.56 14.57a7 7 0 0 1 .26 2.64" style="fill:#fff;opacity:.6000000000000001;isolation:isolate"/><path d="m411.09 141.15-12-9c2.11 1.43 4.36-11.65 4.36-11.65s17.26 12.86 22.54 16a2.5 2.5 0 0 1 .49.39l-.36 1.71ZM403.45 282.46c-.67 12.07-4.23 27.92-2.65 32.26s3.67 8.71 3.67 8.71 7.8-19 9.39-18.23 6.72 8 6.72 8l7.52-34.53-2.77-9.49 8.7-13 2.77 17.76-9.49 42.12 2.37 4.57c.22.53 7.38 17.46 7.38 20.58s-12.14 58.55-12.14 58.55v-15.2l4-31.88-8.31-25.16-6.72 3.4-3.71 9.38c-2-5.21-3.48-8.83-4-9.11-1.87-1.06-2.34-2.64-6.56-7.76s-3-22.15-3-22.15l6.19-47.9s-9-12.92-12.13-16.57.53-32.94.53-32.94 6.33-1.91 9.49-4.73 12.66-.88 12.66-3.15-3.92-5.41-3.92-5.41l-15.07 9.06s-29-1.9-29.18-1.87-5.63-1.78-5.63-1.78-2.64-6.69-2.78-8.44 3.83-13.55 5.41-19.39c1.08-3.95-2-10-3.92-14.65l10.51 8 14.63-3.17 4.76-5.84 11.48 9-10.29 19-13.85 7.07v5.1l18.2 2.42 20.18-10.32h13.05l6.26-15.39c.12 1.37.17 2.18.17 2.18s14.8 11.94 16.56 14.57a7 7 0 0 1 .26 2.61l-13 3.92L418.6 194l.8 8.25-14.93 4.41s-10-.48-10 .75-1.18 26.47-1.18 26.47l10.16 11.63L418.21 234s-1.19-13 .39-12.4 22.16 4.09 22.16 4.09l-17 10.59-8.76 5.11s-10.88 29.01-11.55 41.07" style="opacity:.1;isolation:isolate"/><path d="M365.16 216.56s-25.87 10.91-33.39 12.49c-4.65 1-18.31 1.61-28.06 1.95-6 .21-10.57.31-10.57.31l.76-3.27 1.61-6.9s24.59 1.39 33.69.79 34.22-10.1 34.22-10.1Z" style="fill:#e4897b"/><path d="M303.71 231c-6 .21-10.57.31-10.57.31l.76-3.27a39.7 39.7 0 0 1 9.81 2.96" style="opacity:.2;isolation:isolate"/><path d="m263.9 204.35-3.42 7.56-2.1 4.65s-2.72-4.85-5.92-11c-4.21-8.08-9.26-18.37-10-22.68-1.28-7.58-7.63-37.53-7.63-37.53l4.95-1.18s7.12 30.06 9.58 34.81 14.54 25.37 14.54 25.37" style="fill:#e4897b"/><path d="m260.48 211.91-2.1 4.65s-2.72-4.85-5.92-11a24.6 24.6 0 0 1 8.02 6.35" style="opacity:.2;isolation:isolate"/><path d="M363.09 214.72s-1.19-2.24-1.06-2.89 4.09-4.33 7.39-5.13 4.09 0 4.09 0l2 9.23s-10.07 2.55-10.94 1.9-1.48-3.11-1.48-3.11" style="fill:#e4897b"/><path d="M381 206.35s-.83-1.56-1.88-1.82a1 1 0 0 0-1.32.56s1.45.13 1.09 1.94 2.11-.68 2.11-.68M382.14 210.22s0 2.26-2 2.52a2.74 2.74 0 0 0-.08-2.78Z" style="fill:#263238"/><path d="M381 206.35s-.83-1.56-1.88-1.82a1 1 0 0 0-1.32.56s1.45.13 1.09 1.94 2.11-.68 2.11-.68M382.14 210.22s0 2.26-2 2.52a2.74 2.74 0 0 0-.08-2.78Z" style="fill:#fff;opacity:.4;isolation:isolate"/><path d="M382.51 208.88s-1.3-.4-1.3-1.12a2.34 2.34 0 0 1 .73-1.41l-1.25-1-6.46 3.56s-1.81-2.9-3.49-1.12c-.74.78.24 2.89.65 4.07.62 1.77.57 3 2 3 2.12 0 1.84-3.33 1.84-3.33l7.3-1Zm-8.91 4.88c-.56.2-.85-.27-1.15-1.78s-1.92-3.17-.69-3.77c.92-.45 1.88 1.43 2.31 2.32s.09 3.03-.47 3.23" style="fill:#cd5954"/><path d="m236.23 147.36 4.08-1 3.44-10.06s.39-4.55-3.76-6.14-8.51 5.94-8.51 5.94 1.59 10.67 4.75 11.26" style="fill:#e4897b"/><path d="M228.8 306.06a2.48 2.48 0 0 0-.05-1.85 2.42 2.42 0 0 0-1.85-1.42 2.45 2.45 0 0 0-2.39 3.81 1.58 1.58 0 0 1-.11 2 3.63 3.63 0 1 0 5-.57 1.67 1.67 0 0 1-.6-1.97m-3.92-.66a1.64 1.64 0 1 1 3.26-.39 1.64 1.64 0 0 1-3.26.39m2.61 7.92a2.48 2.48 0 1 1 2.16-2.75 2.47 2.47 0 0 1-2.16 2.75" style="fill:#263238"/><path d="M228.8 306.06a2.48 2.48 0 0 0-.05-1.85 2.42 2.42 0 0 0-1.85-1.42 2.45 2.45 0 0 0-2.39 3.81 1.58 1.58 0 0 1-.11 2 3.63 3.63 0 1 0 5-.57 1.67 1.67 0 0 1-.6-1.97m-3.92-.66a1.64 1.64 0 1 1 3.26-.39 1.64 1.64 0 0 1-3.26.39m2.61 7.92a2.48 2.48 0 1 1 2.16-2.75 2.47 2.47 0 0 1-2.16 2.75" style="fill:#fff;opacity:.6000000000000001;isolation:isolate"/><path d="M213.28 304.84c.92-.06 1.92-.08 2.28.84.53 1.37.1 4.28-.35 7.59-.24 1.76-4 2-5.33.28-.47-.61.14-2.28.14-2.28l.95.27s-.49.82 0 1.23c1.21 1 2.31.86 2.91.08.15-.2 1.05-6.29.71-6.7a1 1 0 0 0-1.55-.11c-.83 1-2.08 5.5-2.08 5.5l-.76-.54s.69-2.06 1.24-3.94c.21-.69.8-2.14 1.84-2.22" style="fill:#263238"/><path d="M213.28 304.84c.92-.06 1.92-.08 2.28.84.53 1.37.1 4.28-.35 7.59-.24 1.76-4 2-5.33.28-.47-.61.14-2.28.14-2.28l.95.27s-.49.82 0 1.23c1.21 1 2.31.86 2.91.08.15-.2 1.05-6.29.71-6.7a1 1 0 0 0-1.55-.11c-.83 1-2.08 5.5-2.08 5.5l-.76-.54s.69-2.06 1.24-3.94c.21-.69.8-2.14 1.84-2.22" style="fill:#fff;opacity:.6000000000000001;isolation:isolate"/><path d="M220.33 308.67c-1.07-.4-2.24-.76-3 .2-1.09 1.43-1.57 5-2.18 9-.32 2.16 4.08 3.71 6.18 2.16.76-.57.6-2.74.6-2.74h-1.21s.3 1.13-.42 1.44c-1.76.75-3 .23-3.45-.9-.12-.28.9-7.75 1.45-8.11a1.26 1.26 0 0 1 1.86.4c.64 1.43.56 7.17.56 7.17l1.08-.37s-.1-2.67-.11-5.06c.03-.86-.17-2.75-1.36-3.19" style="fill:#263238"/><path d="M220.33 308.67c-1.07-.4-2.24-.76-3 .2-1.09 1.43-1.57 5-2.18 9-.32 2.16 4.08 3.71 6.18 2.16.76-.57.6-2.74.6-2.74h-1.21s.3 1.13-.42 1.44c-1.76.75-3 .23-3.45-.9-.12-.28.9-7.75 1.45-8.11a1.26 1.26 0 0 1 1.86.4c.64 1.43.56 7.17.56 7.17l1.08-.37s-.1-2.67-.11-5.06c.03-.86-.17-2.75-1.36-3.19" style="fill:#fff;opacity:.6000000000000001;isolation:isolate"/><path d="M219.29 288.1s.28 15.06-.72 22.38a1.09 1.09 0 0 0 1.74 0s2.27-15.23.89-22.38ZM226.48 282s-.29 15.07.71 22.38a1.08 1.08 0 0 1-1.73 0s-2.28-15.23-.9-22.38ZM216.91 285.07s-2 14.94-4.12 22a1.09 1.09 0 0 0 1.72.26s4.57-14.7 4.29-22ZM232.24 253.38s-3.79-6.33-6.43-7.51-5.8 1.32-5.4 1.58l1.18.79s-10.15 2.9-11.34 7 .4 13.06 8.31 11.21 16.65-8.79 13.68-13.07" style="fill:#cd5954"/><path d="M232.24 253.38s-3.79-6.33-6.43-7.51-5.8 1.32-5.4 1.58l1.18.79s-10.15 2.9-11.34 7 .4 13.06 8.31 11.21 16.65-8.79 13.68-13.07" style="opacity:.2;isolation:isolate"/><path d="M264.12 275.24s-.59 4.25-.49 4.75 1.88 2.08 3 4-3.75 6-3.75 6h-1.79s2.14-3.32 2.85-4.18-1.86-3.34-2-3.64-.8-6.4-.8-6.4ZM213.19 260.8s4.25-3.26 4.65-3.16a11.9 11.9 0 0 0 3.75-.6c1.78-.49 8.71-3.66 8.71-3.66l2.27 1.39-18.79 8.9Z" style="fill:#263238"/><path d="M261.55 199.14s14.22 20.53 38.83 21.64c0 0-9.18 26.84-34.84 48.43L234.74 254s21.85-31.26 26.81-54.86" style="fill:#cd5954"/><path d="M272.73 213.34c.83 5.11 9 10 9 10s5.58 2.4 5.76.2c-2.34-2.6-2.64-4.9-1.9-6.94a10 10 0 0 1 2.19-3.3 20 20 0 0 1 1.6-1.54l-3.71-13.95c-2.39 5.34-7.44 14.66-12.94 15.53" style="fill:#e4897b"/><path d="M284.32 203.71c-4 5.73-.71 10.8 1.23 12.85a10 10 0 0 1 2.19-3.3Z" style="opacity:.2;isolation:isolate"/><path d="M302.56 185.15s2.38 11-3.27 15.71-6.94-16.11-6.94-16.11Z" style="fill:#263238"/><path d="M282.66 210.79a10.13 10.13 0 0 0 11.86 3.2 11.3 11.3 0 0 0 6.11-5.64 10 10 0 0 0 .47-1.1c2.49-7 2.68-19-4.81-23a11 11 0 0 0-16.24 9.31c-.39 8.02-1 12.72 2.61 17.23" style="fill:#e4897b"/><path d="M291.93 197.09c-.12.64.21 1.22.64 1.26s.83-.45.9-1.1-.22-1.21-.65-1.25-.82.44-.89 1.09M299.28 197.88c-.12.64.22 1.22.64 1.26s.83-.45.9-1.09-.22-1.22-.65-1.26-.83.48-.89 1.09" style="fill:#263238"/><path d="M296.91 198a23.4 23.4 0 0 0 2.5 5.9 3.77 3.77 0 0 1-3.18.25Z" style="fill:#de5753"/><path d="M302.34 195a.44.44 0 0 1-.4 0 3.1 3.1 0 0 0-2.7-.62.39.39 0 0 1-.49-.24.38.38 0 0 1 .24-.48 3.8 3.8 0 0 1 3.42.73.38.38 0 0 1 .08.54 1 1 0 0 1-.15.07M290.79 194a.4.4 0 0 1-.21-.1.38.38 0 0 1 .1-.53 3.8 3.8 0 0 1 3.47-.5.38.38 0 0 1 .21.5.4.4 0 0 1-.5.21 3.08 3.08 0 0 0-2.74.44.42.42 0 0 1-.33-.02M287 184.23l.22 3.56a2.62 2.62 0 0 0-1.52 3.23c1 3-1 7.55-3.39 9.26 0 0 0-1.3-1.1-1.05s-1.2 7 .73 10.28c0 0-3-3.08-4.43-10.23-1.29-6.61-1.17-12.05.32-14.48ZM295.51 206.1a20.6 20.6 0 0 0-1.33 2.75l-.53-.12c-2.37-.54-3.29-1.58-3.59-2.57a3.1 3.1 0 0 1-.05-1.48 2.9 2.9 0 0 1 .25-.81 11.45 11.45 0 0 0 4.44 2c.49.13.81.23.81.23" style="fill:#263238"/><path d="m294.7 205.9-.41.8c-2.24-.52-3.74-1.18-4.28-2a2.9 2.9 0 0 1 .25-.81 11.45 11.45 0 0 0 4.44 2.01" style="fill:#fff"/><path d="M293.65 208.73c-2.37-.54-3.29-1.58-3.59-2.57a7.9 7.9 0 0 1 2.51 1.13 2.9 2.9 0 0 1 1.08 1.44" style="fill:#de5753"/><path d="M287.2 187.79s17.2 5.4 14.44-6.44c0 0-9-5.47-17.25-3.4s-7.09 10.68-7.09 10.68ZM283.9 193.15s-.75 10.52 1.74 17.31 7.37 5 8.88 3.53l-2.07.57a2.85 2.85 0 0 1-3.11-.47c-1.42-1.32-4.94-6.52-3.7-21.39Z" style="fill:#263238"/><path d="M283.9 193.15s-.75 10.52 1.74 17.31 7.37 5 8.88 3.53l-2.07.57a2.85 2.85 0 0 1-3.11-.47c-1.42-1.32-4.94-6.52-3.7-21.39Z" style="fill:#fff;opacity:.2;isolation:isolate"/><path d="M293.65 176.9c-10.87-2.9-18.65 3.8-20.92 12.1-.43 1.59.66 7.35 2.14 11.22l2.95 1.64s-.14-5.37 1.2-6.88a3.63 3.63 0 0 1 3.88-1.16 1.8 1.8 0 0 0 1.44-.24c2.35-1.56 9.74-6.21 14.08-6.35 5.23-.17 5.79 1.12 5.79 1.12l.79-1.73s-.47-6.82-11.35-9.72" style="fill:#cd5954"/><path d="M293.65 176.9c-10.87-2.9-18.65 3.8-20.92 12.1-.43 1.59.66 7.35 2.14 11.22l2.95 1.64s-.14-5.37 1.2-6.88a3.63 3.63 0 0 1 3.88-1.16 1.8 1.8 0 0 0 1.44-.24c2.35-1.56 9.74-6.21 14.08-6.35 5.23-.17 5.79 1.12 5.79 1.12l.79-1.73s-.47-6.82-11.35-9.72" style="fill:#fff;opacity:.2;isolation:isolate"/><path d="M276.8 201.54s.24-5.65 2.35-8 4.42-.75 4.75-.87 5.77-5.07 10.8-6.25 8.82-.26 10 .86v1.31l-.81.07s-.09-1.85-6.18-1.12-12.35 6.76-13.21 6.77-2.06-.61-3.46 0c-2.16 1-3.13 6.71-2.8 7.86-.01-.02-.75.56-1.44-.63" style="fill:#263238"/><path d="M276.8 201.54s.24-5.65 2.35-8 4.42-.75 4.75-.87 5.77-5.07 10.8-6.25 8.82-.26 10 .86v1.31l-.81.07s-.09-1.85-6.18-1.12-12.35 6.76-13.21 6.77-2.06-.61-3.46 0c-2.16 1-3.13 6.71-2.8 7.86-.01-.02-.75.56-1.44-.63" style="fill:#fff;opacity:.30000000000000004;isolation:isolate"/><path d="M297.35 181.91s-5.71-4.81-9.61-5.21a10.2 10.2 0 0 1 4.16 0c1.69.53 7.17 3.63 5.45 5.21M293.14 181.91c-1.95-2.21-8.76-3.82-11.24-3.62a5.67 5.67 0 0 0-3.93 2.63s10.9.46 13.23 1.39 2.27-.03 1.94-.4M298.73 179.19a10.35 10.35 0 0 1 2.91 3.49c.79 1.87 1.62.68 1-.37a18 18 0 0 0-3.91-3.12" style="opacity:.2;isolation:isolate"/><path d="M279.75 204.35a12.85 12.85 0 0 0 5.89 3.74l.44 1.71s-3.61-.52-6.33-5.45" style="fill:#263238"/><path d="M279.75 204.35a12.85 12.85 0 0 0 5.89 3.74l.44 1.71s-3.61-.52-6.33-5.45" style="fill:#fff;opacity:.2;isolation:isolate"/><path d="M275.85 199.73a7.67 7.67 0 0 0 3.95 4.27c2.43 1.12 4.07-1 3.75-3.48-.3-2.24-1.91-5.59-4.53-5.62s-4.02 2.48-3.17 4.83M234.22 252l-9.87 6.86s-40.21 9.82-55.44 17.06c-21.12 10.06-65.25 47.83-65.25 47.83l5.07 4.89s51.75-28.84 62.07-33.31 57.86-7.85 57.86-7.85 21.59 34.81 22.66 40.86-51.69 18.93-51.69 18.93l3.55 9.44s55.28-9.48 64.38-16.23-8-56.67-8-56.67l3.79-11.2Z" style="fill:#e4897b"/><path d="m234.22 252.01-11.31 5.59-37.71 11.61 5.8 23.4 37.19-2.83 17.4 29.8 24.64-4.22-9.34-33.05 4.22-11.52z" style="fill:#263238"/><path d="m234.22 252.01-11.31 5.59-37.71 11.61 5.8 23.4 37.19-2.83 17.4 29.8 24.64-4.22-9.34-33.05 4.22-11.52z" style="fill:#fff;opacity:.4;isolation:isolate"/><path d="m236.43 248.24 32.04 20.97-4.35 8.7-34.95-24.53zM204.46 262.55l10.1-3.05 5.85 31.67-10.39.89zM231.88 297.7l31.15-9.6 2.67 8.9-28.58 9.4z" style="fill:#263238"/><path d="m233.16 249.03 34.4 23.97-1.26 2.24-35.11-24.43zM211.8 259.5l5.34 32.56h-3.36l-5.84-31.26zM232.81 300.52l31.81-9.65 1.08 3.26-30.96 9.69zM203.38 357.54l1.08-10.08a.74.74 0 0 0-.5-.77l-7.21-2.42a1.23 1.23 0 0 0-1.55.79 1.3 1.3 0 0 0-.06.27c-.29 3.26-.35 5.66-.78 9.75-.27 2.53-1.35 10.11-1.72 13.59s3 4.3 3.49 2.91c2.08-6.25 4.52-10.85 6.58-12.7a2 2 0 0 0 .67-1.34M103 322.57l7.92 6.33a.74.74 0 0 1 .19.89l-3.36 6.83a1.23 1.23 0 0 1-1.65.55 1.1 1.1 0 0 1-.23-.15c-2.53-2.09-4.26-3.74-7.48-6.32-2-1.58-8.12-6.16-10.85-8.35s-.93-5.17.39-4.53c5.9 2.93 10.89 4.44 13.65 4.29a2 2 0 0 1 1.42.46" style="fill:#cd5954"/><path d="M243.81 248.41a2.5 2.5 0 0 0 .51-1.78 2.42 2.42 0 0 0-1.33-1.91 2.46 2.46 0 0 0-3.5 1.73 2.4 2.4 0 0 0 .07 1.19 1.59 1.59 0 0 1-.7 1.84 3.62 3.62 0 1 0 4.94 1 1.67 1.67 0 0 1 .01-2.07m-3.53-1.81a1.64 1.64 0 1 1 1.31 1.92 1.64 1.64 0 0 1-1.31-1.92m.1 8.34a2.48 2.48 0 1 1 2.89-2 2.48 2.48 0 0 1-2.89 2" style="fill:#263238"/><path d="M243.81 248.41a2.5 2.5 0 0 0 .51-1.78 2.42 2.42 0 0 0-1.33-1.91 2.46 2.46 0 0 0-3.5 1.73 2.4 2.4 0 0 0 .07 1.19 1.59 1.59 0 0 1-.7 1.84 3.62 3.62 0 1 0 4.94 1 1.67 1.67 0 0 1 .01-2.07m-3.53-1.81a1.64 1.64 0 1 1 1.31 1.92 1.64 1.64 0 0 1-1.31-1.92m.1 8.34a2.48 2.48 0 1 1 2.89-2 2.48 2.48 0 0 1-2.89 2" style="fill:#fff;opacity:.4;isolation:isolate"/><path d="M247.07 253.42a2.42 2.42 0 0 0 1.73-.66 2.38 2.38 0 0 0 .73-2.21 2.44 2.44 0 0 0-3.48-1.75 2.36 2.36 0 0 0-.91.77 1.6 1.6 0 0 1-1.89.54 3.61 3.61 0 0 0-4.78 4.17 3.63 3.63 0 0 0 5.15 2.48 3.58 3.58 0 0 0 1.83-2.13 1.69 1.69 0 0 1 1.62-1.21m-.67-3.91a1.64 1.64 0 1 1-.75 2.2 1.65 1.65 0 0 1 .75-2.2m-6.61 5.09a2.48 2.48 0 1 1 3.32 1.13 2.48 2.48 0 0 1-3.32-1.13" style="fill:#263238"/><path d="M247.07 253.42a2.42 2.42 0 0 0 1.73-.66 2.38 2.38 0 0 0 .73-2.21 2.44 2.44 0 0 0-3.48-1.75 2.36 2.36 0 0 0-.91.77 1.6 1.6 0 0 1-1.89.54 3.61 3.61 0 0 0-4.78 4.17 3.63 3.63 0 0 0 5.15 2.48 3.58 3.58 0 0 0 1.83-2.13 1.69 1.69 0 0 1 1.62-1.21m-.67-3.91a1.64 1.64 0 1 1-.75 2.2 1.65 1.65 0 0 1 .75-2.2m-6.61 5.09a2.48 2.48 0 1 1 3.32 1.13 2.48 2.48 0 0 1-3.32-1.13" style="fill:#fff;opacity:.6000000000000001;isolation:isolate"/><path d="M240 254.13a1.62 1.62 0 0 1 2.63-.72c1.2 1.11 1.39 4.17 1.39 4.17a1.34 1.34 0 0 1-2.17.47s0-2.5-.65-3.22a1.7 1.7 0 0 0-1.2-.7M241.51 246.55a1 1 0 0 1-1-1c0-1.06 1.21-106.18 1.21-113.21 0-5.21-9-9.53-24.08-11.54a1 1 0 0 1-.86-1.12 1 1 0 0 1 1.12-.86c9.64 1.29 25.82 4.75 25.82 13.52 0 7-1.19 112.17-1.21 113.23a1 1 0 0 1-1 .98" style="fill:#cd5954"/><path d="M241.51 246.55a1 1 0 0 1-1-1c0-1.06 1.21-106.18 1.21-113.21 0-5.21-9-9.53-24.08-11.54a1 1 0 0 1-.86-1.12 1 1 0 0 1 1.12-.86c9.64 1.29 25.82 4.75 25.82 13.52 0 7-1.19 112.17-1.21 113.23a1 1 0 0 1-1 .98" style="opacity:.30000000000000004"/><path d="M307.92 299c-36.66 0-61.44-47-61.69-47.55a1 1 0 0 1 .42-1.34 1 1 0 0 1 1.35.43c.27.51 26.83 50.94 65.05 46.14s59.18-83.42 59.39-84.22a1 1 0 1 1 1.93.51c-.85 3.29-21.49 80.71-61.07 85.69a43 43 0 0 1-5.38.34" style="fill:#cd5954"/><path d="M307.92 299c-36.66 0-61.44-47-61.69-47.55a1 1 0 0 1 .42-1.34 1 1 0 0 1 1.35.43c.27.51 26.83 50.94 65.05 46.14s59.18-83.42 59.39-84.22a1 1 0 1 1 1.93.51c-.85 3.29-21.49 80.71-61.07 85.69a43 43 0 0 1-5.38.34" style="opacity:.30000000000000004"/><path d="M227.71 119.09s13.35 8.39 14.18 14.24-12.72 16.84-12.72 16.84l-1.46 11.7S187 183.59 185.2 180.38s-16.62 3.85-16.62 3.85-23.73 36.16-23.73 39.6-39.12 31.41-41.19 36.68-8 1.06-8 1.06-19.9 36.71-18.32 39.71 10.22 21.07 10.22 21.07l10.84 8.35s-3.66 21.59-8.4 22.64-3.87 18.88-3.87 18.88l-16.7 18.57-4.23 27.94S62 381.3 59.4 377.6s0-43.59 0-43.59-3.86-11.3-6.94-13.39 2-61.18 0-62.76 8-20.05 8-20.05 13 2.26 13.61-8.88-.64-29.64 0-34.64 7.15-21.73 12.06-30 18.44-42.45 18.44-42.45 17.6 11.11 19.71 8.94 22.41-18.71 22.41-18.71Z" style="fill:#cd5954"/><path d="m229.17 150.17-1.46 11.7S187 183.59 185.2 180.38a2.16 2.16 0 0 0-1.94-.83c-4.52-.18-14.68 4.68-14.68 4.68s-23.73 36.16-23.73 39.6-39.12 31.41-41.19 36.68-8 1.06-8 1.06-19.9 36.71-18.32 39.71 10.22 21.07 10.22 21.07l10.84 8.35s-3.66 21.59-8.4 22.64-3.86 18.88-3.86 18.88l-16.72 18.57-4.22 27.94s-2.2-26.44-4.51-37.07a13.9 13.9 0 0 0-1.29-4.06c-2.64-3.69 0-43.59 0-43.59s-3.86-11.3-6.94-13.39 2-61.18 0-62.76 8-20.05 8-20.05a15 15 0 0 0 2.22.18c3.73.08 10.92-.84 11.39-9.06.15-2.61.19-5.63.17-8.78 0-10.3-.66-22-.17-25.86.63-5 7.15-21.73 12.07-30 2.45-4.11 7-14.7 11-24.27s7.39-18.18 7.39-18.18 17.6 11.11 19.71 8.94 22.41-18.71 22.41-18.71l81 7s13.35 8.39 14.18 14.24-12.66 16.86-12.66 16.86" style="fill:#fff;opacity:.4;isolation:isolate"/><path d="m173.73 175.45 9.53 4.1c-4.52-.18-14.68 4.68-14.68 4.68s-23.73 36.16-23.73 39.6-39.12 31.41-41.19 36.68-8 1.06-8 1.06-19.9 36.71-18.32 39.71 10.22 21.07 10.22 21.07l10.84 8.35s-3.66 21.59-8.4 22.64-3.86 18.88-3.86 18.88l-16.72 18.57-4.22 27.94s-2.2-26.44-4.51-37.07L63 378.4l7.51 6.16 12.27-14.24-8.68-6.56-9.52-13.45 5.14-4.2 9.89 7.76L91 348.33l1.59-12.66-13.06-8.15-17 2.22-1.19-12 10.68-15 2.38-36.51-17.4-6.69 15-2.41 2.38-10.22L62.67 238c3.73.08 10.92-.84 11.39-9.06.15-2.61.19-5.63.17-8.78l11.9-.77 5.31 27.53 9.1 8.08 39.92-31.16 2.8-25.87-17-13.21-13 16.4-21.82 5.54 17.41-13.18 13.84-18.86-24-24.49-1.49-10.12c4-9.6 7.39-18.18 7.39-18.18s17.6 11.11 19.71 8.94l-1.58 18.71 5.54 23.56 34 7.3ZM229.17 150.17l-1.46 11.7S187 183.59 185.2 180.38l27.34-16.8h-19.93l-22.45-13.41 39.74-7.83Z" style="opacity:.1;isolation:isolate"/><path d="m244.46 261.5-2.57 13.74-25.57.54v3l25.57-.87 3.77 16.56 3.1-1.07-4.3-15.49 2.65-14.24z" style="fill:#263238"/><path d="M100.59 385.56a202.5 202.5 0 0 1-28.68-2.14 1 1 0 0 1 .29-2c44.11 6.36 81-1.58 109.72-23.61 48.64-37.34 57-103.15 57.05-103.81a1 1 0 1 1 2 .24c-.08.66-8.49 67.28-57.8 105.14-22.69 17.42-50.38 26.18-82.58 26.18" style="fill:#cd5954"/><path d="M100.59 385.56a202.5 202.5 0 0 1-28.68-2.14 1 1 0 0 1 .29-2c44.11 6.36 81-1.58 109.72-23.61 48.64-37.34 57-103.15 57.05-103.81a1 1 0 1 1 2 .24c-.08.66-8.49 67.28-57.8 105.14-22.69 17.42-50.38 26.18-82.58 26.18" style="opacity:.30000000000000004"/><path d="m234.91 271.4.43-1 .26.24-.28 1.1Z" style="fill:#263238"/><path d="M241.73 275.68c-1.08.55-2.56-.53-3.18-1.1l-1.57-1.4.27-1.07a17 17 0 0 0 3.52 2.52 1.21 1.21 0 0 0 1.47-1.06c.1-.62-4.51-6.15-4.78-6.25-1.09-.42-2.26.13-2.86 1.85-.25.71.74 1.23.74 1.23l-.78.85s-1.63-1.29-1.54-2.19c.25-2.48 4.18-4.58 5.5-3 2.46 3 4.67 5.68 5 7.36.18 1.17-.83 1.76-1.79 2.26" style="fill:#263238"/><path d="m234.91 271.4.43-1 .26.24-.28 1.1Z" style="fill:#fff;opacity:.6000000000000001;isolation:isolate"/><path d="M241.73 275.68c-1.08.55-2.56-.53-3.18-1.1l-1.57-1.4.27-1.07a17 17 0 0 0 3.52 2.52 1.21 1.21 0 0 0 1.47-1.06c.1-.62-4.51-6.15-4.78-6.25-1.09-.42-2.26.13-2.86 1.85-.25.71.74 1.23.74 1.23l-.78.85s-1.63-1.29-1.54-2.19c.25-2.48 4.18-4.58 5.5-3 2.46 3 4.67 5.68 5 7.36.18 1.17-.83 1.76-1.79 2.26" style="fill:#fff;opacity:.6000000000000001;isolation:isolate"/><path d="m241.93 273.41 1.99 2.62-1.71 1.48-1.68-3.24z" style="fill:#263238"/><path d="M266.75 421.14h106l13.12-2.6h37.2l-10.32-18.78-16.19-10.3s-7.52-12.7-9.11-14.81-10.54-23.74-10.54-23.74l-5.61-19.51h-12.37l-17.34 44.87-12.44 5.73-11.29 1.1-16.22 21.82-12.82 2.93Z" style="fill:#cd5954"/><path d="M423.1 418.54h-37.2l-13.12 2.6h-106l22.07-13.3 12.82-2.93 16.22-21.82 11.29-1.1 12.44-5.72 17.34-44.87h12.34l5.63 19.49s6.27 15.14 9.25 21.32a18.5 18.5 0 0 0 1.29 2.42c1.59 2.11 9.11 14.81 9.11 14.81l16.2 10.3Z" style="fill:#fff;opacity:.2;isolation:isolate"/><path d="M358.93 331.4h12.37l-4.52 3.82-4.76-2-5.26 11s-3.83 22.66-3.83 24.24 3.81 7.82 3.81 7.82l-6.18 19.46-5.63-17.51-10.59 5.41-7.47 7.51s-13.5 11.33-14.29 13.77a86.5 86.5 0 0 1-5.58 11.32c-1.58 2.69-.79-3.48-2-5.46s-8.77-2.94-8.77-2.94l-29.48 13.3 22.07-13.3 12.82-2.93 16.22-21.82 11.29-1.1 12.44-5.72ZM396.59 389.46s-3.73 17.72-5.84 29.08h-3.36c-.53-3.1-1-5.78-1-5.78l-3.05-19.6 2.81-20.93a18.5 18.5 0 0 0 1.29 2.42c1.63 2.11 9.15 14.81 9.15 14.81" style="opacity:.1;isolation:isolate"/></svg>