<svg xmlns="http://www.w3.org/2000/svg" viewBox="0 0 500 500"><path d="M0 382.4h500v.25H0zM355.33 389.91h33.12v.25h-33.12zM257.97 398.37H302v.25h-44.03zM389.46 399.19h44.78v.25h-44.78zM53.69 389.66h43.19v.25H53.69zM105.79 389.66h6.33v.25h-6.33zM132.7 393.88h93.68v.25H132.7zM237 337.8H43.91a5.71 5.71 0 0 1-5.7-5.71V60.66a5.71 5.71 0 0 1 5.7-5.66H237a5.71 5.71 0 0 1 5.71 5.71v271.38a5.71 5.71 0 0 1-5.71 5.71M43.91 55.2a5.46 5.46 0 0 0-5.45 5.46v271.43a5.46 5.46 0 0 0 5.45 5.46H237a5.47 5.47 0 0 0 5.46-5.46V60.66A5.47 5.47 0 0 0 237 55.2ZM453.31 337.8h-193.1a5.72 5.72 0 0 1-5.71-5.71V60.66a5.72 5.72 0 0 1 5.71-5.66h193.1a5.71 5.71 0 0 1 5.69 5.66v271.43a5.71 5.71 0 0 1-5.69 5.71M260.21 55.2a5.47 5.47 0 0 0-5.46 5.46v271.43a5.47 5.47 0 0 0 5.46 5.46h193.1a5.47 5.47 0 0 0 5.46-5.46V60.66a5.47 5.47 0 0 0-5.46-5.46Z" style="fill:#ebebeb"/><path d="M207.15 284.93H86.26V113.82c0-13.63 120.89-13.63 120.89 0Z" style="fill:#e0e0e0"/><path d="M204.37 284.93H83.49V113.82c0-13.63 120.89-13.63 120.88 0Z" style="fill:#ebebeb"/><path d="M89.49 276.34V117.2a2.58 2.58 0 0 1 1.71-2.44c6.71-2.42 25-5.16 52.73-5.16s46 2.74 52.73 5.16a2.58 2.58 0 0 1 1.71 2.44v159.14a2.58 2.58 0 0 1-2.58 2.59H92.07a2.58 2.58 0 0 1-2.58-2.59" style="fill:#fafafa"/><path d="M115 110.75 96.19 278.93h27.53l19-169.33c-10.72.03-19.98.48-27.72 1.15M150.64 109.66l-19 169.27h15.21l18.92-168.7c-4.59-.23-9.65-.48-15.13-.57" style="fill:#fff"/><path d="M77.5 191.45h174.14v5.28H77.5z" style="fill:#ebebeb" transform="rotate(90 164.575 194.085)"/><path d="M34.98 191.45h174.14v5.28H34.98z" style="fill:#ebebeb" transform="rotate(90 122.055 194.085)"/><path d="M38.1 193.61h174.14v.95H38.1z" style="fill:#e0e0e0" transform="rotate(90 125.165 194.085)"/><path d="M80.62 193.61h174.14v.95H80.62z" style="fill:#e0e0e0" transform="rotate(90 167.685 194.085)"/><path d="M86.31 145.38h114v5.28h-114z" style="fill:#ebebeb"/><path d="M77.98 283.32h123.33v5.83H77.98z" style="fill:#f5f5f5"/><path d="M201.31 283.32h5.84v5.83h-5.84z" style="fill:#e0e0e0" transform="rotate(180 204.23 286.235)"/><path d="M422 284.93H301.13V113.82c0-13.63 120.89-13.63 120.89 0Z" style="fill:#e0e0e0"/><path d="M419.24 284.93H298.36V113.82c0-13.63 120.88-13.63 120.88 0Z" style="fill:#ebebeb"/><path d="M304.36 276.34V117.2a2.58 2.58 0 0 1 1.71-2.44c6.71-2.42 25-5.16 52.73-5.16s46 2.74 52.73 5.16a2.58 2.58 0 0 1 1.71 2.44v159.14a2.58 2.58 0 0 1-2.58 2.59H306.94a2.58 2.58 0 0 1-2.58-2.59" style="fill:#fafafa"/><path d="m329.91 110.75-18.85 168.18h27.53l19-169.33c-10.72.03-19.98.48-27.68 1.15M365.51 109.66l-19 169.27h15.21l18.92-168.7c-4.59-.23-9.64-.48-15.13-.57" style="fill:#fff"/><path d="M292.37 191.45h174.14v5.28H292.37z" style="fill:#ebebeb" transform="rotate(90 379.44 194.08)"/><path d="M249.85 191.45h174.14v5.28H249.85z" style="fill:#ebebeb" transform="rotate(90 336.925 194.085)"/><path d="M252.97 193.61h174.14v.95H252.97z" style="fill:#e0e0e0" transform="rotate(90 340.035 194.085)"/><path d="M295.49 193.61h174.14v.95H295.49z" style="fill:#e0e0e0" transform="rotate(90 382.555 194.085)"/><path d="M301.18 145.38h114v5.28h-114z" style="fill:#ebebeb"/><path d="M292.85 283.32h123.33v5.83H292.85z" style="fill:#f5f5f5"/><path d="M416.18 283.32h5.84v5.83h-5.84z" style="fill:#e0e0e0" transform="rotate(180 419.1 286.235)"/><path d="M56.11 77.22h30.15v8.52H56.11z" style="fill:#f0f0f0"/><path d="M71.19 85.74h30.15v8.52H71.19z" style="fill:#e6e6e6"/><path d="M258.63 196.38h30.15v8.52h-30.15zM302 312.86h30.15v8.52H302z" style="fill:#f5f5f5"/><path d="M89.49 315.53h30.15v8.52H89.49z" style="fill:#e6e6e6" transform="rotate(180 104.56 319.79)"/><path d="M179.02 68.7h30.15v8.52h-30.15z" style="fill:#f0f0f0"/><path d="M185.24 307.01h30.15v8.52h-30.15zM406.95 302.75h30.15v8.52h-30.15z" style="fill:#f5f5f5"/><path d="M170.16 315.53h30.15v8.52h-30.15z" style="fill:#f0f0f0"/><path d="M292.85 85.74H323v8.52h-30.15z" style="fill:#f0f0f0" transform="rotate(180 307.925 90.005)"/><path d="M426.75 90.11a13.47 13.47 0 1 0 0-26.94h-1.62v26.94Z" style="fill:#e0e0e0"/><circle cx="425.13" cy="76.64" r="13.47" style="fill:#ebebeb"/><path d="M422.39 73.38c-2.34 2.93-5.49 4.31-7 3.09s-.87-4.6 1.47-7.53 5.49-4.31 7-3.09.87 4.59-1.47 7.53" style="fill:#f5f5f5;opacity:.6000000000000001"/><circle cx="425.13" cy="76.64" r="1.89" style="fill:#e0e0e0"/><path d="M432.26 100h-10.49a4 4 0 0 1-4-4 4 4 0 0 1 4-4h10.49a4 4 0 0 1 4 4 4 4 0 0 1-4 4" style="fill:#e0e0e0"/><path d="M430.37 100h-10.49a4 4 0 0 1-4-4 4 4 0 0 1 4-4h10.49a4 4 0 0 1 4 4 4 4 0 0 1-4 4" style="fill:#f5f5f5"/><path d="m435.36 95.31-.36-1.06a6.14 6.14 0 0 0 4-7.71l1.06-.33a7.26 7.26 0 0 1-4.7 9.1" style="fill:#e0e0e0"/><path d="M440.09 88a1.08 1.08 0 0 1-1.34-.7l-.38-1.2a1.08 1.08 0 0 1 .7-1.34 1.06 1.06 0 0 1 1.34.7l.38 1.2a1.07 1.07 0 0 1-.7 1.34" style="fill:#e0e0e0"/><ellipse cx="250" cy="416.24" rx="193.89" ry="11.32" style="fill:#f5f5f5"/><path d="M104.67 103.88a.53.53 0 0 1-.48-.3c-.86-1.79.18-3.2 1.27-4.7 1.57-2.15 3.52-4.82 1.46-10-3.64-9.28-.73-14.68-.6-14.9a.53.53 0 0 1 .92.52c0 .05-2.78 5.21.67 14 2.27 5.77 0 8.82-1.6 11-1.15 1.58-1.72 2.46-1.17 3.62a.53.53 0 0 1-.25.71.6.6 0 0 1-.22.05" style="fill:#cd5954"/><path d="M106.81 75.68a1.49 1.49 0 1 1 1.48-1.48 1.49 1.49 0 0 1-1.48 1.48m0-1.91a.43.43 0 1 0 0 .85.43.43 0 0 0 0-.85" style="fill:#cd5954"/><path d="m123.61 94.56.5.83-49.55 30.27-.5-.83 20.08-22.82z" style="fill:#263238"/><path d="m124.11 95.39-20.08 22.82-29.47 7.45 20.08-22.82z" style="fill:#cd5954"/><path d="M120.43 113.05a125.1 125.1 0 0 0-28.86 17.63 1.14 1.14 0 0 1-1.7-.22l-5.3-8.68a1.13 1.13 0 0 1 .29-1.45 125.1 125.1 0 0 1 29.43-18 1.12 1.12 0 0 1 1.42.4l5.3 8.68a1.14 1.14 0 0 1-.58 1.64" style="fill:#cd5954"/><path d="M120.43 113.05a125.1 125.1 0 0 0-28.86 17.63 1.14 1.14 0 0 1-1.7-.22l-5.3-8.68a1.13 1.13 0 0 1 .29-1.45 125.1 125.1 0 0 1 29.43-18 1.12 1.12 0 0 1 1.42.4l5.3 8.68a1.14 1.14 0 0 1-.58 1.64" style="fill:#263238;opacity:.30000000000000004"/><path d="M398.39 200.34a.8.8 0 0 1-.6-.28c-1.86-2.2-1-4.58-.1-7.09 1.35-3.76 2.87-8-3.29-13.88-12.18-11.58-4.63-23-4.55-23.06a.8.8 0 0 1 1.1-.21.81.81 0 0 1 .21 1.11c-.29.41-6.85 10.38 4.33 21 6.92 6.57 5.05 11.77 3.69 15.57-.92 2.57-1.39 4.09-.18 5.52a.79.79 0 0 1-.1 1.12.75.75 0 0 1-.51.2" style="fill:#cd5954"/><path d="M390.54 158.69a2.22 2.22 0 1 1 2.15-2.78 2.23 2.23 0 0 1-1.59 2.71 2.2 2.2 0 0 1-.56.07m0-2.86h-.16a.6.6 0 0 0-.39.3.6.6 0 0 0-.07.48.64.64 0 0 0 .78.46.65.65 0 0 0 .46-.78.65.65 0 0 0-.3-.39.6.6 0 0 0-.32-.07" style="fill:#cd5954"/><path d="m427.45 240.08-1.01.78-46.67-60.82 1.01-.78 32.77 23.17z" style="fill:#263238"/><path d="m426.44 240.86-32.77-23.17-13.9-37.65 32.77 23.17z" style="fill:#cd5954"/><path d="M402.74 238.49a165.3 165.3 0 0 0-27.18-35.41 1.51 1.51 0 0 1 .05-2.27l10.65-8.17a1.49 1.49 0 0 1 1.94.17 165.2 165.2 0 0 1 27.72 36.12 1.49 1.49 0 0 1-.33 1.93L404.94 239a1.5 1.5 0 0 1-2.2-.51" style="fill:#cd5954"/><path d="M402.74 238.49a165.3 165.3 0 0 0-27.18-35.41 1.51 1.51 0 0 1 .05-2.27l10.65-8.17a1.49 1.49 0 0 1 1.94.17 165.2 165.2 0 0 1 27.72 36.12 1.49 1.49 0 0 1-.33 1.93L404.94 239a1.5 1.5 0 0 1-2.2-.51" style="fill:#263238;opacity:.30000000000000004"/><path d="M121.16 219.31a76.5 76.5 0 0 0 20 5.28.7.7 0 0 1 .62.84l-1.59 6a.69.69 0 0 1-.76.49 76.8 76.8 0 0 1-20.43-5.39.68.68 0 0 1-.42-.8l1.59-6a.69.69 0 0 1 .99-.42" style="fill:#cd5954"/><path d="m114.26 216.96.16-.57 34.26 9.07-.15.57-18.54.78z" style="fill:#263238"/><path d="m114.42 216.39 18.53-.78 15.73 9.85-18.54.78z" style="fill:#cd5954"/><g style="opacity:.4"><path d="m114.42 216.39 18.53-.78 15.73 9.85-18.54.78z" style="fill:#263238"/></g><path d="M132.5 221.2a.23.23 0 0 1-.14 0 .28.28 0 0 1-.1-.38c.34-.59.08-1.08-.47-2a5.36 5.36 0 0 1-.37-5.92c2.21-4.51 1-7.34 1-7.37a.28.28 0 0 1 .14-.37.27.27 0 0 1 .37.14c.06.12 1.37 3.1-.95 7.85a4.78 4.78 0 0 0 .34 5.37c.52.84 1 1.63.47 2.54a.27.27 0 0 1-.29.14" style="fill:#cd5954"/><path d="M132.61 206.2h-.06a.82.82 0 0 1-.54-.28.78.78 0 0 1-.18-.57.77.77 0 0 1 .27-.54.8.8 0 0 1 .58-.18.74.74 0 0 1 .53.27.79.79 0 0 1-.6 1.3m0-1a.2.2 0 0 0-.14.05.19.19 0 0 0-.08.15.23.23 0 0 0 .2.25.23.23 0 0 0 .25-.21.23.23 0 0 0-.21-.24Z" style="fill:#cd5954"/><path d="M248.77 121.16c-7.23-2-11.28 9.38-13.22 18.9A13.58 13.58 0 0 1 225.14 151s25.47 16.57 44.45 7.41c15.28-7.38 10.4-24.83 3.52-32.86s-19.93-11.3-24.34-4.39" style="fill:#263238"/><path d="m262.86 407.32-8.64.85-8.99-20.56 8.64-.84zM317.63 381.98l-6.97 5.52-12.67-16.51 6.98-5.52z" style="fill:#ff8b7b"/><path d="m307.92 384.34 5.59-8.34a.72.72 0 0 1 .91-.26l7.24 3.48a1.44 1.44 0 0 1 .52 2.08c-2 2.87-3.11 4.16-5.57 7.83-1.51 2.26-4.53 7.47-6.62 10.59s-5.28 1.21-4.69-.27c2.65-6.66 2.58-10.5 2.24-13.56a2.34 2.34 0 0 1 .38-1.55M253.07 405.5h10.61a.89.89 0 0 1 .84.65l2.3 8.39a1.32 1.32 0 0 1-1.29 1.68H241.1c-3.88 0-4.69-3.91-3.08-4.27 7.19-1.59 11.33-3.79 13.55-5.88a2.17 2.17 0 0 1 1.5-.57" style="fill:#263238"/><path d="m245.24 387.62 4.63 10.59h9.01l-5-11.44zM304.97 365.47 298 371l6.53 8.51 6.97-5.53z" style="opacity:.2"/><path d="M237 223.33s-16.76 52.94-11.81 91.67c3.31 25.93 20.81 80.14 20.81 80.14l15.43-.39s-12.5-55.07-13.79-76.57c-2.21-36.77 16-94.91 16-94.91Z" style="fill:#cd5954"/><path d="m243.79 395.94 19.07-.48-1.11-5.86h-19.32z" style="fill:#263238"/><path d="M244.9 223.42s2.35 57.83 15.24 90.37c10.4 26.29 40.81 65 40.81 65l9.29-8.09s-19.3-40.94-27.2-58.48c-19.38-43 1.92-72.82-9.75-89Z" style="fill:#cd5954"/><path d="m299.99 379.91 11.93-9.82-3.24-5.29-13.06 10.87z" style="fill:#263238"/><path d="M305.82 388.9a1.3 1.3 0 0 1-.75-.35.68.68 0 0 1-.25-.65c.19-1.11 3.14-2.38 3.47-2.52a.17.17 0 0 1 .19 0 .17.17 0 0 1 0 .19c-.42 1.11-1.27 3-2.36 3.27a1 1 0 0 1-.3.06m2.22-3c-1 .47-2.76 1.41-2.87 2.09a.34.34 0 0 0 .14.32.79.79 0 0 0 .77.25c.62-.18 1.34-1.16 1.92-2.69Z" style="fill:#cd5954"/><path d="M305.62 386.11a2 2 0 0 1-1.25-.42.71.71 0 0 1-.08-.88 1.08 1.08 0 0 1 .71-.57c1.24-.32 3.37 1.09 3.46 1.15a.21.21 0 0 1 .08.16.2.2 0 0 1-.1.15 6.35 6.35 0 0 1-2.82.41m-.05-1.56a1.5 1.5 0 0 0-.48 0 .72.72 0 0 0-.49.39c-.13.26-.06.39 0 .47.49.49 2.37.39 3.36.07a6.5 6.5 0 0 0-2.39-.93M248.37 407.22a3.5 3.5 0 0 1-2.05-.49 1.26 1.26 0 0 1-.52-1 .56.56 0 0 1 .25-.55c1-.66 4.81 1.12 5.25 1.33a.17.17 0 0 1 .1.18.18.18 0 0 1-.14.15 14 14 0 0 1-2.89.38m-1.7-1.83a.86.86 0 0 0-.43.09.24.24 0 0 0-.09.24.92.92 0 0 0 .38.73c.87.65 3 .38 4.13.16a13.5 13.5 0 0 0-3.99-1.22" style="fill:#cd5954"/><path d="M251.22 406.85h-.06c-1.16-.47-3.59-2.42-3.46-3.39 0-.2.17-.46.7-.53 2.07-.24 3 3.56 3 3.72a.18.18 0 0 1-.06.17.16.16 0 0 1-.12.03m-2.63-3.59h-.15c-.36.05-.38.18-.39.23-.08.62 1.65 2.2 2.91 2.86-.26-.88-1.04-3.09-2.37-3.09M182.83 137.91l-3.07-6.74 20.04-8.32 19.42-9.69 3.07 6.74-20.04 8.32z" style="fill:#cd5954"/><path d="m182.83 137.91-3.07-6.74 20.04-8.32 19.42-9.69 3.07 6.74-20.04 8.32z" style="fill:#fafafa;opacity:.5"/><rect width="2.5" height="8.02" x="203.53" y="119.96" rx="1.13" style="fill:#cd5954" transform="rotate(-17.01 204.753 123.94)"/><rect width="2.5" height="8.02" x="196.1" y="123.42" rx="1.13" style="fill:#cd5954" transform="rotate(-35.38 197.368 127.441)"/><path d="m203.5 134.55 2.12-7.7-9.19 1.72s.12 5.42 4.48 8.19ZM202.51 119.63l-6.58 2.55.5 6.39 9.19-1.72z" style="fill:#ff8b7b"/><path d="M195.81 152c.23-8.2 3.58-19.61 3.58-19.61l4.65-.58a90.5 90.5 0 0 0-.47 17.52Z" style="fill:#ff8b7b"/><path d="M240.71 187.25c-.58.16-.92.24-1.37.35l-1.25.28-2.46.53c-1.63.34-3.26.67-4.92.93a87 87 0 0 1-10.21 1.18 41.7 41.7 0 0 1-11.47-.83 23.4 23.4 0 0 1-6.61-2.57c-.56-.32-1.13-.73-1.68-1.12l-.21-.15-.28-.23-.57-.48c-.33-.32-.67-.65-1-1a17.5 17.5 0 0 1-2.48-3.63 29.2 29.2 0 0 1-2.27-6c-.49-1.85-.81-3.6-1.09-5.31-.58-3.41-.84-6.69-1.11-9.92s-.39-6.42-.49-9.6l-.15-4.77-.07-2.4c0-.83-.05-1.57-.05-2.5l20 1.78c-.13.57-.27 1.33-.39 2l-.33 2.12c-.21 1.42-.36 2.85-.52 4.28-.27 2.85-.46 5.71-.49 8.51a67 67 0 0 0 .33 8.13 36 36 0 0 0 .6 3.58 13 13 0 0 0 .78 2.47c.11.21.18.27 0 .11s-.1-.11-.17-.16a.7.7 0 0 0-.13-.11l-.07-.06c.08 0 .11.09.21.14a6.1 6.1 0 0 0 1.81.65 22.2 22.2 0 0 0 6.56.14 48 48 0 0 0 7.69-1.5c1.29-.37 2.59-.76 3.87-1.22.64-.23 1.27-.47 1.9-.72l.91-.38c.27-.12.64-.28.78-.36Z" style="fill:#263238"/><g style="opacity:.2"><path d="M231.63 345.71c1.41 5.48 2.91 11 4.39 16.27 4.36-1.21 10.56-3 17.44-5.25-1.17-6.08-2.3-12.29-3.26-18.11ZM288.43 324l-19.57 7.46c3 5.28 6.29 10.62 9.6 15.71 6.4-2.92 12.18-6.08 16.36-9.4Z"/></g><path d="M231.44 174c.58 13.73-17.25 70.16-8.94 185.39 8.34 1.88 68.43-23.51 75.5-30.75-.61-13.81-25.95-103.35-19.69-154 .4-3.21-1.43-6.25-4.64-6.72-2.71-.4-6.09-.8-9.5-1a116 116 0 0 0-16.49 0c-4.12.39-8.64 1.16-11.7 1.73a5.36 5.36 0 0 0-4.54 5.35" style="fill:#263238"/><path d="M262.49 148.45c-1 5.31-2 15 1.68 18.56 0 0-5.29 8.27-14.31 12.35-7.18-6.08-2.18-12.31-2.18-12.31 5.91-1.42 5.75-5.81 4.71-9.93Z" style="fill:#ff8b7b"/><path d="m249.48 180.59 1.12-6.4 12.17-9.85 4.17 2.4s-10.94 14.2-17.46 13.85" style="fill:#e6e6e6"/><path d="m249.48 180.59 1.12-6.4L249 166l-3.87.71s-2.13 14.23 4.35 13.88" style="fill:#e6e6e6"/><path d="M250.6 174.19s5.23 5.16 5.49 9.83c3.53-3.44 12-14.46 12.17-17.64-1.85-1.54-5.6-2.48-5.6-2.48ZM250.6 174.19s-5.08 4-5.35 8.71c-3.53-3.44-1.87-13.18-1.43-15.87 1.85-1.54 5.54-2 5.54-2Z" style="fill:#fff"/><path d="m258.37 152-6 5.12a17 17 0 0 1 .52 2.93c2.26-.33 5.66-2.37 5.89-4.73a9.3 9.3 0 0 0-.41-3.32" style="opacity:.2"/><path d="M267.91 140.48c-3 8.37-4 12-9.58 15.11-8.34 4.73-18-.72-17.58-9.81.35-8.17 5.12-20.48 14.43-21.49a12.11 12.11 0 0 1 12.73 16.19" style="fill:#ff8b7b"/><path d="M264.41 130.74c-5.26 1.85-4.8 12.35.42 16s11.46-20.17-.42-16" style="fill:#263238"/><path d="M249 127c5.3 4.65 12.91 6.45 15.58 5.1 1.94 1.51 8.4 4.57 4.55-2.72s-10.67-8.23-15.11-8.17S244.49 123 249 127" style="fill:#263238"/><path d="M267.94 148.36a7 7 0 0 1-4.29 3c-2.28.49-3.12-1.71-2.24-3.9.79-2 2.93-4.59 5.1-4.09s2.67 3.07 1.43 4.99" style="fill:#ff8b7b"/><path d="M254.31 139.17c-.2.69-.73 1.15-1.18 1s-.66-.79-.46-1.49.72-1.15 1.18-1 .66.8.46 1.49M246.47 136.93c-.2.7-.73 1.16-1.18 1s-.66-.8-.46-1.49.72-1.15 1.18-1 .66.8.46 1.49" style="fill:#263238"/><path d="m246.2 135.54-1.53-1s.48 1.59 1.53 1" style="fill:#263238"/><path d="M248.2 138.72a19.4 19.4 0 0 1-3.73 3.72 3.12 3.12 0 0 0 2.34 1.17Z" style="fill:#ff5652"/><path d="M249.78 147.24a6.5 6.5 0 0 1-1.3-.24.17.17 0 0 1-.12-.22.17.17 0 0 1 .21-.12 5.77 5.77 0 0 0 5.13-.87.18.18 0 0 1 .25 0 .18.18 0 0 1 0 .25 5.86 5.86 0 0 1-4.17 1.2M258.59 135.1a.34.34 0 0 1-.28-.2 3.4 3.4 0 0 0-2.46-1.93.37.37 0 0 1-.31-.4.36.36 0 0 1 .39-.3 4.11 4.11 0 0 1 3 2.32.36.36 0 0 1-.16.47.4.4 0 0 1-.18.04M243.73 132.55a.34.34 0 0 1-.29-.2.36.36 0 0 1 .17-.47 4.16 4.16 0 0 1 3.8.1.37.37 0 0 1 .11.49.36.36 0 0 1-.49.11 3.38 3.38 0 0 0-3.12-.06.3.3 0 0 1-.18.03" style="fill:#263238"/><path d="m312 172.44 1-7.92 7.81 5.12s-2.19 5-7.28 5.83ZM318.66 159.05l5.1 4.88-2.93 5.71-7.81-5.12z" style="fill:#ff8b7b"/><path d="M312.4 191.49c2.94-7.65 4.24-19.47 4.24-19.47l-4.07-2.32a91 91 0 0 1-6.31 16.3Z" style="fill:#ff8b7b"/><path d="M277.72 171.09c.53 1.12 1.21 2.46 1.87 3.68s1.37 2.47 2.08 3.69c1.43 2.44 2.94 4.82 4.52 7.1a77 77 0 0 0 4.93 6.44c.85 1 1.7 1.9 2.55 2.74a22 22 0 0 0 2.42 2.06 5 5 0 0 0 .51.34l.22.15c.07 0 0 0 0 0h-.08a3.4 3.4 0 0 0-1.25-.29 3.6 3.6 0 0 0-1.22.16c-.23.08-.23.1-.13 0a8 8 0 0 0 1.38-1.52 27 27 0 0 0 1.75-2.77 49 49 0 0 0 3-7.05c.46-1.26.83-2.56 1.21-3.86l.5-2c.08-.33.15-.66.21-1s.15-.68.16-.86l19.28 5.9c-.2.53-.35.86-.53 1.26l-.5 1.14-1 2.25c-.66 1.49-1.38 3-2.09 4.45a93 93 0 0 1-4.92 8.92 43 43 0 0 1-3.28 4.59 26.7 26.7 0 0 1-4.95 4.74 17.2 17.2 0 0 1-4 2.15 14.5 14.5 0 0 1-5.6.88 14.05 14.05 0 0 1-5.54-1.4l-.57-.29c-.18-.09-.4-.21-.49-.27l-.73-.44c-.5-.29-.93-.59-1.35-.89a52.5 52.5 0 0 1-8.08-7.33c-2.25-2.48-4.32-4.95-6.28-7.46s-3.83-5-5.66-7.57l-2.72-3.83L262 183c-.47-.67-.89-1.27-1.39-2ZM254 137.78l-1.52-1s.52 1.59 1.52 1M290.34 124.46l-.16.63-56.32-14.13.16-.63 29.63 1.2z" style="fill:#263238"/><path d="m290.18 125.09-29.63-1.2-26.69-12.93 29.63 1.21z" style="fill:#cd5954"/><path d="M276 131.8a154.4 154.4 0 0 0-32.8-8.23c-.7-.09-1.22-.64-1.09-1.16l2-8a1 1 0 0 1 1.19-.61 154.4 154.4 0 0 1 33.45 8.39 1 1 0 0 1 .75 1.1l-2 8a1.1 1.1 0 0 1-1.5.51" style="fill:#cd5954"/><path d="M276 131.8a154.4 154.4 0 0 0-32.8-8.23c-.7-.09-1.22-.64-1.09-1.16l2-8a1 1 0 0 1 1.19-.61 154.4 154.4 0 0 1 33.45 8.39 1 1 0 0 1 .75 1.1l-2 8a1.1 1.1 0 0 1-1.5.51" style="fill:#263238;opacity:.30000000000000004"/><path d="M281 154.83a.54.54 0 0 1-.34-.12.54.54 0 0 1-.06-.75c4.9-5.77 2.18-8.38-1.59-12-2.16-2.08-4.62-4.44-5.86-7.78-3.43-9.21 7.05-15.29 7.15-15.35a.53.53 0 0 1 .72.2.52.52 0 0 1-.19.72c-.41.23-9.8 5.7-6.69 14.06 1.16 3.12 3.52 5.39 5.61 7.39 3.7 3.56 7.2 6.92 1.66 13.44a.53.53 0 0 1-.41.19" style="fill:#cd5954"/><path d="M281 155.79a1.49 1.49 0 1 1 1.48-1.49 1.49 1.49 0 0 1-1.48 1.49m0-1.91a.43.43 0 1 0 .42.42.42.42 0 0 0-.42-.42" style="fill:#cd5954"/></svg>