<svg xmlns="http://www.w3.org/2000/svg" viewBox="0 0 500 500"><path d="M416.78 398.49h33.12v.25h-33.12zM322.53 401.21h8.69v.25h-8.69zM396.59 389.21h19.19v.25h-19.19zM52.46 390.89h43.19v.25H52.46zM104.56 390.89h6.33v.25h-6.33zM131.47 395.11h93.68v.25h-93.68zM238.4 337.8H45.3a5.71 5.71 0 0 1-5.71-5.71V60.66A5.71 5.71 0 0 1 45.3 55h193.1a5.71 5.71 0 0 1 5.71 5.71v271.38a5.71 5.71 0 0 1-5.71 5.71M45.3 55.2a5.47 5.47 0 0 0-5.46 5.46v271.43a5.47 5.47 0 0 0 5.46 5.46h193.1a5.47 5.47 0 0 0 5.46-5.46V60.66a5.47 5.47 0 0 0-5.46-5.46ZM454.7 337.8H261.6a5.71 5.71 0 0 1-5.71-5.71V60.66A5.71 5.71 0 0 1 261.6 55h193.1a5.71 5.71 0 0 1 5.71 5.71v271.38a5.71 5.71 0 0 1-5.71 5.71M261.6 55.2a5.47 5.47 0 0 0-5.46 5.46v271.43a5.47 5.47 0 0 0 5.46 5.46h193.1a5.47 5.47 0 0 0 5.46-5.46V60.66a5.47 5.47 0 0 0-5.46-5.46ZM0 382.4h500v.25H0z" style="fill:#ebebeb"/><path d="M135.3 179.58A41.59 41.59 0 1 1 176.89 138a41.64 41.64 0 0 1-41.59 41.58m0-75.17A33.59 33.59 0 1 0 168.89 138a33.63 33.63 0 0 0-33.59-33.59" style="fill:#ebebeb"/><path d="M135.3 164.34A26.35 26.35 0 1 1 161.65 138a26.38 26.38 0 0 1-26.35 26.34m0-44.69A18.35 18.35 0 1 0 153.65 138a18.36 18.36 0 0 0-18.35-18.35" style="fill:#ebebeb"/><circle cx="135.3" cy="137.99" r="10.4" style="fill:#ebebeb"/><path d="M397.26 355.75a41.58 41.58 0 1 1 41.59-41.58 41.63 41.63 0 0 1-41.59 41.58m0-75.16a33.58 33.58 0 1 0 33.59 33.58 33.62 33.62 0 0 0-33.59-33.58" style="fill:#f0f0f0"/><path d="M397.26 340.51a26.34 26.34 0 1 1 26.35-26.34 26.37 26.37 0 0 1-26.35 26.34m0-44.68a18.34 18.34 0 1 0 18.35 18.34 18.36 18.36 0 0 0-18.35-18.34" style="fill:#f0f0f0"/><circle cx="397.27" cy="314.17" r="10.4" style="fill:#f0f0f0"/><path d="M129.71 326.51a28 28 0 0 0-.52-5.38l5.57-4.07a34.2 34.2 0 0 0-3-7.16L125 311a28.1 28.1 0 0 0-7.61-7.61l1.06-6.82a34.2 34.2 0 0 0-7.16-3l-4.07 5.57a28.1 28.1 0 0 0-10.76 0l-4.07-5.57a34.3 34.3 0 0 0-7.15 3l1.06 6.82a28.1 28.1 0 0 0-7.63 7.61l-6.82-1.06a33.6 33.6 0 0 0-3 7.16l5.57 4.07a27.6 27.6 0 0 0 0 10.76L68.89 336a34 34 0 0 0 3 7.16l6.82-1.06a28.1 28.1 0 0 0 7.61 7.61l-1.06 6.81a33.8 33.8 0 0 0 7.15 3l4.07-5.57a28.1 28.1 0 0 0 10.76 0l4.07 5.57a33.7 33.7 0 0 0 7.16-3l-1.06-6.81a28.1 28.1 0 0 0 7.61-7.61l6.82 1.06a34.4 34.4 0 0 0 3-7.16l-5.57-4.07a28 28 0 0 0 .44-5.42m-27.89 13.75a13.75 13.75 0 1 1 13.75-13.75 13.76 13.76 0 0 1-13.75 13.75" style="fill:#ebebeb"/><path d="M427.33 109.19a28 28 0 0 0-.53-5.38l5.57-4.07a34 34 0 0 0-3-7.16l-6.82 1.07A28 28 0 0 0 415 86l1-6.78a34.3 34.3 0 0 0-7.15-3l-4.07 5.58a27.6 27.6 0 0 0-10.76 0L390 76.25a34.2 34.2 0 0 0-7.16 3l1.05 6.75a28 28 0 0 0-7.61 7.61l-6.82-1.07a34.6 34.6 0 0 0-3 7.16l5.57 4.07a28.1 28.1 0 0 0 0 10.76l-5.57 4.07a34.2 34.2 0 0 0 3 7.16l6.82-1.06a28.1 28.1 0 0 0 7.61 7.61l-1.06 6.82a34.2 34.2 0 0 0 7.16 3l4.07-5.57a28.1 28.1 0 0 0 10.76 0l4.07 5.57a34.3 34.3 0 0 0 7.15-3l-1.04-6.78a28.1 28.1 0 0 0 7.61-7.61l6.82 1.06a33.6 33.6 0 0 0 3-7.16l-5.57-4.07a28 28 0 0 0 .47-5.38m-27.89 13.75a13.75 13.75 0 1 1 13.75-13.75 13.74 13.74 0 0 1-13.75 13.75M378.84 154a14 14 0 0 0-.26-2.69l2.79-2a16.6 16.6 0 0 0-1.49-3.58l-3.4.53a14.1 14.1 0 0 0-3.81-3.8l.53-3.41a17 17 0 0 0-3.58-1.48l-2 2.78a14 14 0 0 0-5.38 0l-2-2.78a17 17 0 0 0-3.58 1.48l.53 3.41a14 14 0 0 0-3.8 3.8l-3.41-.53a17 17 0 0 0-1.48 3.58l2.78 2a14 14 0 0 0 0 5.38l-2.78 2a17 17 0 0 0 1.48 3.58l3.41-.53a14 14 0 0 0 3.8 3.8l-.53 3.41a17 17 0 0 0 3.58 1.49l2-2.79a14 14 0 0 0 5.38 0l2 2.79a17 17 0 0 0 3.58-1.44l-.53-3.41a14.1 14.1 0 0 0 3.81-3.8l3.4.53a16.6 16.6 0 0 0 1.49-3.58l-2.79-2a14 14 0 0 0 .26-2.74m-13.94 6.87a6.88 6.88 0 1 1 6.87-6.87 6.88 6.88 0 0 1-6.87 6.86Z" style="fill:#f0f0f0"/><ellipse cx="250" cy="412.39" rx="193.89" ry="11.32" style="fill:#f5f5f5"/><path d="M191.18 117.32h10.18l10.25 117.25h-10.17a9.5 9.5 0 0 1-9.28-8.54l-8.77-100.17a7.7 7.7 0 0 1 7.79-8.54" style="fill:#cd5954"/><path d="M184.88 129.08a.91.91 0 0 0-.89-.82.74.74 0 0 0-.74.82l.69 7.86a.89.89 0 0 0 .88.81.73.73 0 0 0 .75-.81Z" style="fill:#cd5954"/><path d="M184.88 129.08a.91.91 0 0 0-.89-.82.74.74 0 0 0-.74.82l.69 7.86a.89.89 0 0 0 .88.81.73.73 0 0 0 .75-.81Z" style="fill:#fff;opacity:.5"/><path d="M203.52 234.57h41.92a7.7 7.7 0 0 0 7.79-8.54l-8.77-100.17a9.5 9.5 0 0 0-9.28-8.54h-41.91a7.69 7.69 0 0 0-7.79 8.54L194.24 226a9.5 9.5 0 0 0 9.28 8.57" style="fill:#cd5954"/><path d="M203.52 234.57h41.92a7.7 7.7 0 0 0 7.79-8.54l-8.77-100.17a9.5 9.5 0 0 0-9.28-8.54h-41.91a7.69 7.69 0 0 0-7.79 8.54L194.24 226a9.5 9.5 0 0 0 9.28 8.57" style="fill:#fff;opacity:.5"/><path d="M193.44 119.28h10.89a1.59 1.59 0 0 1 1.52 1.24l.07.34a3.86 3.86 0 0 0 3.7 3H220a3.1 3.1 0 0 0 3.17-3v-.34a1.27 1.27 0 0 1 1.3-1.24h10.89a7.32 7.32 0 0 1 7.15 6.58L251.27 226a5.93 5.93 0 0 1-6 6.58h-41.92a7.32 7.32 0 0 1-7.15-6.58l-8.77-100.17a5.94 5.94 0 0 1 6.01-6.55" style="fill:#fff"/><path d="M217 120.39a.92.92 0 0 0 .9.83.75.75 0 0 0 .76-.83.92.92 0 0 0-.9-.83.75.75 0 0 0-.76.83M211.05 119.56h2.85a.93.93 0 0 1 .91.83.75.75 0 0 1-.76.83h-2.85a.93.93 0 0 1-.91-.83.75.75 0 0 1 .76-.83M248.29 192.33h-55.07l-4.81-55.06h55.06zM199.85 130.73a4 4 0 0 1-4.09 4.48 5 5 0 0 1-4.87-4.48 4 4 0 0 1 4.09-4.48 5 5 0 0 1 4.87 4.48M236.83 132.79h-8.6a2.29 2.29 0 0 1-2.24-2.06 1.86 1.86 0 0 1 1.88-2.06h8.6a2.29 2.29 0 0 1 2.24 2.06 1.86 1.86 0 0 1-1.88 2.06M218 200h-18.4a2.19 2.19 0 0 1-2.15-2 1.77 1.77 0 0 1 1.8-2h18.41a2.2 2.2 0 0 1 2.15 2 1.79 1.79 0 0 1-1.81 2M242 207.75h-41.7a2.21 2.21 0 0 1-2.15-2 1.79 1.79 0 0 1 1.81-2h41.7a2.21 2.21 0 0 1 2.16 2 1.79 1.79 0 0 1-1.82 2M232.1 213.77h-31.27a2.21 2.21 0 0 1-2.15-2 1.78 1.78 0 0 1 1.8-2h31.28a2.21 2.21 0 0 1 2.15 2 1.79 1.79 0 0 1-1.81 2M238.16 219.79h-36.8a2.19 2.19 0 0 1-2.15-2 1.78 1.78 0 0 1 1.8-2h36.81a2.21 2.21 0 0 1 2.15 2 1.79 1.79 0 0 1-1.81 2M213.15 225.81h-11.27a2.21 2.21 0 0 1-2.15-2 1.79 1.79 0 0 1 1.81-2h11.26a2.19 2.19 0 0 1 2.15 2 1.78 1.78 0 0 1-1.8 2" style="fill:#263238"/><path d="M248.29 192.33h-55.07l-4.81-55.06h55.06zM199.85 130.73a4 4 0 0 1-4.09 4.48 5 5 0 0 1-4.87-4.48 4 4 0 0 1 4.09-4.48 5 5 0 0 1 4.87 4.48M236.83 132.79h-8.6a2.29 2.29 0 0 1-2.24-2.06 1.86 1.86 0 0 1 1.88-2.06h8.6a2.29 2.29 0 0 1 2.24 2.06 1.86 1.86 0 0 1-1.88 2.06M218 200h-18.4a2.19 2.19 0 0 1-2.15-2 1.77 1.77 0 0 1 1.8-2h18.41a2.2 2.2 0 0 1 2.15 2 1.79 1.79 0 0 1-1.81 2M242 207.75h-41.7a2.21 2.21 0 0 1-2.15-2 1.79 1.79 0 0 1 1.81-2h41.7a2.21 2.21 0 0 1 2.16 2 1.79 1.79 0 0 1-1.82 2M232.1 213.77h-31.27a2.21 2.21 0 0 1-2.15-2 1.78 1.78 0 0 1 1.8-2h31.28a2.21 2.21 0 0 1 2.15 2 1.79 1.79 0 0 1-1.81 2M238.16 219.79h-36.8a2.19 2.19 0 0 1-2.15-2 1.78 1.78 0 0 1 1.8-2h36.81a2.21 2.21 0 0 1 2.15 2 1.79 1.79 0 0 1-1.81 2M213.15 225.81h-11.27a2.21 2.21 0 0 1-2.15-2 1.79 1.79 0 0 1 1.81-2h11.26a2.19 2.19 0 0 1 2.15 2 1.78 1.78 0 0 1-1.8 2" style="fill:#fff;opacity:.9"/><path d="M229.68 181.9h-16.92a4.82 4.82 0 0 1-4.71-4.33l-1.48-16.92a4.17 4.17 0 0 1 1.05-3.19 4.1 4.1 0 0 1 3.07-1.32h16.92a4.82 4.82 0 0 1 4.71 4.33l1.48 16.92a4.17 4.17 0 0 1-1.05 3.19 4.1 4.1 0 0 1-3.07 1.32m-19-23.73a2.05 2.05 0 0 0-2.1 2.3l1.48 16.92a2.76 2.76 0 0 0 2.69 2.48h16.92a2.05 2.05 0 0 0 2.1-2.3l-1.48-16.92a2.76 2.76 0 0 0-2.69-2.48Z" style="fill:#263238"/><g style="opacity:.5"><path d="M229.68 181.9h-16.92a4.82 4.82 0 0 1-4.71-4.33l-1.48-16.92a4.17 4.17 0 0 1 1.05-3.19 4.1 4.1 0 0 1 3.07-1.32h16.92a4.82 4.82 0 0 1 4.71 4.33l1.48 16.92a4.17 4.17 0 0 1-1.05 3.19 4.1 4.1 0 0 1-3.07 1.32m-19-23.73a2.05 2.05 0 0 0-2.1 2.3l1.48 16.92a2.76 2.76 0 0 0 2.69 2.48h16.92a2.05 2.05 0 0 0 2.1-2.3l-1.48-16.92a2.76 2.76 0 0 0-2.69-2.48Z" style="fill:#fff"/></g><path d="m216.68 176.07-12.92-11.88a2.24 2.24 0 0 1-.13-3.15 2.24 2.24 0 0 1 3.15-.13l9.62 8.85 18.66-20.44a2.22 2.22 0 0 1 3.14-.15 2.24 2.24 0 0 1 .15 3.15Z" style="fill:#cd5954"/><path d="m216.68 176.07-12.92-11.88a2.24 2.24 0 0 1-.13-3.15 2.24 2.24 0 0 1 3.15-.13l9.62 8.85 18.66-20.44a2.22 2.22 0 0 1 3.14-.15 2.24 2.24 0 0 1 .15 3.15Z" style="opacity:.2"/><path d="M249.16 370a1.93 1.93 0 0 0-1.38 0h-34.3l-14.41 42.26h36.18L236 410h2.18l12.11-37.57a1.94 1.94 0 0 0-1.13-2.43m-15.73 19.92-1.24 3.86a5.82 5.82 0 0 1-5.54 4h-1.73a4.46 4.46 0 0 1-4.25-5.83l1.25-3.86a5.81 5.81 0 0 1 5.53-4h1.74a4.46 4.46 0 0 1 4.24 5.85Z" style="fill:#263238"/><path d="M249.16 370a1.93 1.93 0 0 0-1.38 0h-34.3l-14.41 42.26h36.18L236 410h2.18l12.11-37.57a1.94 1.94 0 0 0-1.13-2.43m-15.73 19.92-1.24 3.86a5.82 5.82 0 0 1-5.54 4h-1.73a4.46 4.46 0 0 1-4.25-5.83l1.25-3.86a5.81 5.81 0 0 1 5.53-4h1.74a4.46 4.46 0 0 1 4.24 5.85Z" style="fill:#fff;opacity:.30000000000000004"/><path d="M277.49 410h-35.68a1.93 1.93 0 0 1 1.93 1.93v.73a1.92 1.92 0 0 1-1.93 1.93h35.68a1.92 1.92 0 0 0 1.92-1.93v-.73a1.93 1.93 0 0 0-1.92-1.93" style="fill:#263238"/><path d="M277.49 410h-35.68a1.93 1.93 0 0 1 1.93 1.93v.73a1.92 1.92 0 0 1-1.93 1.93h35.68a1.92 1.92 0 0 0 1.92-1.93v-.73a1.93 1.93 0 0 0-1.92-1.93" style="fill:#fff;opacity:.30000000000000004"/><path d="M241.81 414.57H197l14-43.34a1.93 1.93 0 0 1 2.53-1.21 1.93 1.93 0 0 1 1.14 2.39L202.5 410h39.31a1.93 1.93 0 0 1 1.93 1.93v.73a1.92 1.92 0 0 1-1.93 1.91" style="fill:#263238"/><g style="opacity:.6000000000000001"><path d="M241.81 414.57H197l14-43.34a1.93 1.93 0 0 1 2.53-1.21 1.93 1.93 0 0 1 1.14 2.39L202.5 410h39.31a1.93 1.93 0 0 1 1.93 1.93v.73a1.92 1.92 0 0 1-1.93 1.91" style="fill:#fff"/></g><path d="M229.19 384.11h-2.12a4.46 4.46 0 0 1 3.75 5.8l-1.24 3.86a5.8 5.8 0 0 1-5.16 4 4 4 0 0 0 .5 0h1.73a5.82 5.82 0 0 0 5.54-4l1.24-3.86a4.46 4.46 0 0 0-4.24-5.8" style="fill:#263238"/><path d="M151.41 246.92h-17.73a6.06 6.06 0 0 0-6.14 6.73l10 115a7.5 7.5 0 0 0 7.33 6.73h17.72Z" style="fill:#cd5954"/><path d="M151.41 246.92h-17.73a6.06 6.06 0 0 0-6.14 6.73l10 115a7.5 7.5 0 0 0 7.33 6.73h17.72Z" style="fill:#fff;opacity:.2"/><path d="M308.27 375.33H149.5a7.48 7.48 0 0 1-7.32-6.73l-10.06-115a6.07 6.07 0 0 1 6.15-6.73H297a7.48 7.48 0 0 1 7.32 6.73l10.06 115a6.07 6.07 0 0 1-6.11 6.73" style="fill:#cd5954"/><path d="M308.27 375.33H149.5a7.48 7.48 0 0 1-7.32-6.73l-10.06-115a6.07 6.07 0 0 1 6.15-6.73H297a7.48 7.48 0 0 1 7.32 6.73l10.06 115a6.07 6.07 0 0 1-6.11 6.73" style="fill:#fff;opacity:.5"/><path d="m141.16 357 1 11.61a7.48 7.48 0 0 0 7.32 6.73h158.79a6.07 6.07 0 0 0 6.15-6.73l-1-11.61Z" style="fill:#cd5954"/><path d="m141.16 357 1 11.61a7.48 7.48 0 0 0 7.32 6.73h158.79a6.07 6.07 0 0 0 6.15-6.73l-1-11.61Z" style="fill:#fff;opacity:.2"/><path d="m137.77 252.65 8.63 98.6h160.77l-8.63-98.6z" style="fill:#fff"/><path d="M175.64 268.06h-30.07l-.94-10.82h30.06zM226.17 262.65H207.9l-.47-5.41h18.27zM191.5 346.8h-29.94l-1.27-14.49h29.94zM227.68 346.8h-29.94l-1.27-14.49h29.94zM263.86 346.8h-29.94l-1.27-14.49h29.94zM300.04 346.8H270.1l-1.27-14.49h29.94zM248.34 262.65h-18.27l-.47-5.41h18.27zM270.51 262.65h-18.27l-.48-5.41h18.28zM292.68 262.65h-18.27l-.48-5.41h18.27zM305.04 327.43H144.27l-4.54-51.82h160.78z" style="fill:#263238"/><g style="opacity:.9"><path d="M175.64 268.06h-30.07l-.94-10.82h30.06zM226.17 262.65H207.9l-.47-5.41h18.27zM191.5 346.8h-29.94l-1.27-14.49h29.94zM227.68 346.8h-29.94l-1.27-14.49h29.94zM263.86 346.8h-29.94l-1.27-14.49h29.94zM300.04 346.8H270.1l-1.27-14.49h29.94zM248.34 262.65h-18.27l-.47-5.41h18.27zM270.51 262.65h-18.27l-.48-5.41h18.28zM292.68 262.65h-18.27l-.48-5.41h18.27zM305.04 327.43H144.27l-4.54-51.82h160.78z" style="fill:#fff"/></g><path d="M241.15 314.17h-18.8a5.36 5.36 0 0 1-5.23-4.81l-1.65-18.8a4.6 4.6 0 0 1 1.17-3.54 4.56 4.56 0 0 1 3.41-1.47h18.8a5.36 5.36 0 0 1 5.23 4.81l1.65 18.8a4.6 4.6 0 0 1-1.17 3.54 4.56 4.56 0 0 1-3.41 1.47m-21.1-26.37a2.28 2.28 0 0 0-2.33 2.56l1.64 18.8a3.07 3.07 0 0 0 3 2.76h18.8a2.33 2.33 0 0 0 1.75-.74 2.36 2.36 0 0 0 .59-1.82l-1.65-18.8a3.07 3.07 0 0 0-3-2.76Z" style="fill:#263238"/><g style="opacity:.5"><path d="M241.15 314.17h-18.8a5.36 5.36 0 0 1-5.23-4.81l-1.65-18.8a4.6 4.6 0 0 1 1.17-3.54 4.56 4.56 0 0 1 3.41-1.47h18.8a5.36 5.36 0 0 1 5.23 4.81l1.65 18.8a4.6 4.6 0 0 1-1.17 3.54 4.56 4.56 0 0 1-3.41 1.47m-21.1-26.37a2.28 2.28 0 0 0-2.33 2.56l1.64 18.8a3.07 3.07 0 0 0 3 2.76h18.8a2.33 2.33 0 0 0 1.75-.74 2.36 2.36 0 0 0 .59-1.82l-1.65-18.8a3.07 3.07 0 0 0-3-2.76Z" style="fill:#fff"/></g><path d="m226.7 307.69-14.35-13.2a2.47 2.47 0 0 1-.14-3.49 2.47 2.47 0 0 1 3.49-.15l10.7 9.83L247.12 278a2.48 2.48 0 0 1 3.5-.16 2.48 2.48 0 0 1 .16 3.5Z" style="fill:#cd5954"/><path d="m226.7 307.69-14.35-13.2a2.47 2.47 0 0 1-.14-3.49 2.47 2.47 0 0 1 3.49-.15l10.7 9.83L247.12 278a2.48 2.48 0 0 1 3.5-.16 2.48 2.48 0 0 1 .16 3.5Z" style="opacity:.2"/><path d="M86.72 138.75h-8.63a8 8 0 0 0-8.1 8.87l9.63 110.07a9.88 9.88 0 0 0 9.65 8.87h8.63Z" style="fill:#cd5954"/><path d="M86.72 138.75h-8.63a8 8 0 0 0-8.1 8.87l9.63 110.07a9.88 9.88 0 0 0 9.65 8.87h8.63Z" style="fill:#fff;opacity:.2"/><path d="M92.71 266.56h75.62a8 8 0 0 0 8.09-8.87l-9.62-110.07a9.88 9.88 0 0 0-9.65-8.87H81.53a8 8 0 0 0-8.1 8.87l9.63 110.07a9.88 9.88 0 0 0 9.65 8.87" style="fill:#cd5954"/><path d="M92.71 266.56h75.62a8 8 0 0 0 8.09-8.87l-9.62-110.07a9.88 9.88 0 0 0-9.65-8.87H81.53a8 8 0 0 0-8.1 8.87l9.63 110.07a9.88 9.88 0 0 0 9.65 8.87" style="fill:#fff;opacity:.5"/><path d="m173.33 257.69-9.63-110.07H76.53l9.63 110.07z" style="fill:#fff"/><path d="M130.35 264.66a3.11 3.11 0 0 1-3-2.8 2.51 2.51 0 0 1 2.54-2.79 3.1 3.1 0 0 1 3 2.79 2.53 2.53 0 0 1-2.54 2.8m-.42-4.9a1.9 1.9 0 0 0-1.93 2.1 2.36 2.36 0 0 0 2.29 2.11 1.9 1.9 0 0 0 1.92-2.11 2.33 2.33 0 0 0-2.28-2.1" style="fill:#cd5954"/><path d="M159.92 158.32h-6.42l-.56-6.42h6.42zM100.76 158.32H82.41l-.56-6.42h18.35zM164.14 206.48H86.63l-3.53-40.36h77.5zM135.44 250.71H90.5l-3.39-38.73h44.95zM147.73 220.81h-10.32l-.77-8.83h10.32zM162.13 215h-11.3a1.66 1.66 0 0 1-1.62-1.49 1.35 1.35 0 0 1 1.36-1.49h11.3a1.67 1.67 0 0 1 1.62 1.49 1.35 1.35 0 0 1-1.36 1.49M163.9 220.81h-12.56a1.67 1.67 0 0 1-1.62-1.49 1.35 1.35 0 0 1 1.36-1.49h12.56a1.66 1.66 0 0 1 1.62 1.49 1.35 1.35 0 0 1-1.36 1.49M163.15 226.66h-23.73a1.67 1.67 0 0 1-1.63-1.49 1.34 1.34 0 0 1 1.36-1.49h23.74a1.65 1.65 0 0 1 1.62 1.49 1.35 1.35 0 0 1-1.36 1.49M164.92 232.5h-25a1.65 1.65 0 0 1-1.62-1.49 1.34 1.34 0 0 1 1.36-1.49h25a1.65 1.65 0 0 1 1.62 1.49 1.34 1.34 0 0 1-1.36 1.49M162.22 238.35h-21.78a1.66 1.66 0 0 1-1.62-1.49 1.34 1.34 0 0 1 1.36-1.49H162a1.65 1.65 0 0 1 1.62 1.49 1.34 1.34 0 0 1-1.4 1.49M166 244.2h-25a1.66 1.66 0 0 1-1.62-1.49 1.35 1.35 0 0 1 1.36-1.49h25a1.67 1.67 0 0 1 1.62 1.49 1.35 1.35 0 0 1-1.36 1.49M158.69 250.05h-17.23a1.66 1.66 0 0 1-1.62-1.49 1.34 1.34 0 0 1 1.36-1.49h17.23a1.65 1.65 0 0 1 1.62 1.49 1.35 1.35 0 0 1-1.36 1.49" style="fill:#263238"/><path d="M159.92 158.32h-6.42l-.56-6.42h6.42zM100.76 158.32H82.41l-.56-6.42h18.35zM164.14 206.48H86.63l-3.53-40.36h77.5zM135.44 250.71H90.5l-3.39-38.73h44.95zM147.73 220.81h-10.32l-.77-8.83h10.32zM162.13 215h-11.3a1.66 1.66 0 0 1-1.62-1.49 1.35 1.35 0 0 1 1.36-1.49h11.3a1.67 1.67 0 0 1 1.62 1.49 1.35 1.35 0 0 1-1.36 1.49M163.9 220.81h-12.56a1.67 1.67 0 0 1-1.62-1.49 1.35 1.35 0 0 1 1.36-1.49h12.56a1.66 1.66 0 0 1 1.62 1.49 1.35 1.35 0 0 1-1.36 1.49M163.15 226.66h-23.73a1.67 1.67 0 0 1-1.63-1.49 1.34 1.34 0 0 1 1.36-1.49h23.74a1.65 1.65 0 0 1 1.62 1.49 1.35 1.35 0 0 1-1.36 1.49M164.92 232.5h-25a1.65 1.65 0 0 1-1.62-1.49 1.34 1.34 0 0 1 1.36-1.49h25a1.65 1.65 0 0 1 1.62 1.49 1.34 1.34 0 0 1-1.36 1.49M162.22 238.35h-21.78a1.66 1.66 0 0 1-1.62-1.49 1.34 1.34 0 0 1 1.36-1.49H162a1.65 1.65 0 0 1 1.62 1.49 1.34 1.34 0 0 1-1.4 1.49M166 244.2h-25a1.66 1.66 0 0 1-1.62-1.49 1.35 1.35 0 0 1 1.36-1.49h25a1.67 1.67 0 0 1 1.62 1.49 1.35 1.35 0 0 1-1.36 1.49M158.69 250.05h-17.23a1.66 1.66 0 0 1-1.62-1.49 1.34 1.34 0 0 1 1.36-1.49h17.23a1.65 1.65 0 0 1 1.62 1.49 1.35 1.35 0 0 1-1.36 1.49" style="fill:#fff;opacity:.9"/><path d="M139.66 206.78h-16.92a4.82 4.82 0 0 1-4.71-4.33l-1.48-16.92a4.08 4.08 0 0 1 4.12-4.51h16.91a4.83 4.83 0 0 1 4.72 4.33l1.48 16.92a4.14 4.14 0 0 1-1.06 3.19 4.1 4.1 0 0 1-3.06 1.32m-19-23.73a2 2 0 0 0-2.1 2.3l1.48 16.92a2.76 2.76 0 0 0 2.69 2.48h16.92a2.08 2.08 0 0 0 1.57-.66 2.13 2.13 0 0 0 .53-1.64l-1.48-16.92a2.76 2.76 0 0 0-2.7-2.48Z" style="fill:#263238"/><g style="opacity:.5"><path d="M139.66 206.78h-16.92a4.82 4.82 0 0 1-4.71-4.33l-1.48-16.92a4.08 4.08 0 0 1 4.12-4.51h16.91a4.83 4.83 0 0 1 4.72 4.33l1.48 16.92a4.14 4.14 0 0 1-1.06 3.19 4.1 4.1 0 0 1-3.06 1.32m-19-23.73a2 2 0 0 0-2.1 2.3l1.48 16.92a2.76 2.76 0 0 0 2.69 2.48h16.92a2.08 2.08 0 0 0 1.57-.66 2.13 2.13 0 0 0 .53-1.64l-1.48-16.92a2.76 2.76 0 0 0-2.7-2.48Z" style="fill:#fff"/></g><path d="m126.65 201-12.91-11.88a2.22 2.22 0 0 1-.13-3.15 2.23 2.23 0 0 1 3.14-.13l9.63 8.85L145 174.2a2.23 2.23 0 0 1 3.15-.15 2.23 2.23 0 0 1 .14 3.15Z" style="fill:#cd5954"/><path d="m126.65 201-12.91-11.88a2.22 2.22 0 0 1-.13-3.15 2.23 2.23 0 0 1 3.14-.13l9.63 8.85L145 174.2a2.23 2.23 0 0 1 3.15-.15 2.23 2.23 0 0 1 .14 3.15Z" style="opacity:.2"/><path d="M81.59 323.79h-6.27a4.17 4.17 0 0 0-4.22 4.62l7 79.94a5.14 5.14 0 0 0 5 4.62h6.3Z" style="fill:#cd5954"/><path d="M81.59 323.79h-6.27a4.17 4.17 0 0 0-4.22 4.62l7 79.94a5.14 5.14 0 0 0 5 4.62h6.3Z" style="fill:#fff;opacity:.2"/><path d="M183.63 413H85.85a5.14 5.14 0 0 1-5-4.62l-7-79.94a4.17 4.17 0 0 1 4.22-4.62h97.78a5.14 5.14 0 0 1 5 4.62l7 79.94a4.16 4.16 0 0 1-4.22 4.62" style="fill:#cd5954"/><path d="M183.63 413H85.85a5.14 5.14 0 0 1-5-4.62l-7-79.94a4.17 4.17 0 0 1 4.22-4.62h97.78a5.14 5.14 0 0 1 5 4.62l7 79.94a4.16 4.16 0 0 1-4.22 4.62" style="fill:#fff;opacity:.5"/><path d="M141 406.34h107v2.16a6 6 0 0 1-6 6H141v-8.16" style="fill:#cd5954"/><path d="M141 406.34h107v2.16a6 6 0 0 1-6 6H141v-8.16" style="fill:#fff;opacity:.2"/><path d="M203.34 410.42h-8.55a4.08 4.08 0 0 1-4.07-4.08h16.7a4.08 4.08 0 0 1-4.08 4.08" style="fill:#fff;opacity:.4"/><path d="m181.69 399.46-6.15-70.32H79.27l6.15 70.32z" style="fill:#fff"/><path d="M131.67 326.51a1.07 1.07 0 0 1-1.08 1.19 1.33 1.33 0 0 1-1.3-1.19 1.07 1.07 0 0 1 1.09-1.19 1.31 1.31 0 0 1 1.29 1.19" style="fill:#263238"/><path d="M81.15 406.34h67.08v2.16a6 6 0 0 1-6 6H87.15a6 6 0 0 1-6-6z" style="fill:#cd5954"/><path d="M91.63 411.18H87a1 1 0 0 1-1-1 1 1 0 0 1 1-1h4.65a1 1 0 0 1 1 1 1 1 0 0 1-1.02 1M101.63 411.18H97a1 1 0 0 1-1-1 1 1 0 0 1 1-1h4.65a1 1 0 0 1 1 1 1 1 0 0 1-1.02 1" style="fill:#fff;opacity:.4"/><path d="M100.84 340.27H84.6l-.55-6.31h16.24zM135.85 336.25h-10.17l-.2-2.29h10.17zM148.08 336.25h-10.17l-.2-2.29h10.17zM160.31 336.25h-10.17l-.2-2.29h10.17zM172.54 336.25h-10.17l-.2-2.29h10.17zM174.39 357.47H86.11l-1.21-13.76h88.29zM143.3 386.51H88.65l-2.33-26.56h54.66zM128.2 391.86H90.36a1.37 1.37 0 0 1-1.36-1.24 1.12 1.12 0 0 1 1.13-1.24H128a1.39 1.39 0 0 1 1.35 1.24 1.12 1.12 0 0 1-1.15 1.24M124.53 395.88H90.71a1.38 1.38 0 0 1-1.35-1.24 1.13 1.13 0 0 1 1.13-1.25h33.83a1.39 1.39 0 0 1 1.35 1.25 1.12 1.12 0 0 1-1.14 1.24M172.4 377h-22.19a1.39 1.39 0 0 1-1.36-1.24 1.13 1.13 0 0 1 1.14-1.25h22.19a1.38 1.38 0 0 1 1.35 1.25 1.11 1.11 0 0 1-1.13 1.24M168.74 381h-18.18a1.37 1.37 0 0 1-1.35-1.24 1.11 1.11 0 0 1 1.13-1.24h18.18a1.37 1.37 0 0 1 1.35 1.24 1.11 1.11 0 0 1-1.13 1.24M174.13 371.99h-25.98l-1.06-12.04h25.99zM176.25 396.17h-25.99l-1.05-12.04h25.99z" style="fill:#263238"/><g style="opacity:.9"><path d="M100.84 340.27H84.6l-.55-6.31h16.24zM135.85 336.25h-10.17l-.2-2.29h10.17zM148.08 336.25h-10.17l-.2-2.29h10.17zM160.31 336.25h-10.17l-.2-2.29h10.17zM172.54 336.25h-10.17l-.2-2.29h10.17zM174.39 357.47H86.11l-1.21-13.76h88.29zM143.3 386.51H88.65l-2.33-26.56h54.66zM128.2 391.86H90.36a1.37 1.37 0 0 1-1.36-1.24 1.12 1.12 0 0 1 1.13-1.24H128a1.39 1.39 0 0 1 1.35 1.24 1.12 1.12 0 0 1-1.15 1.24M124.53 395.88H90.71a1.38 1.38 0 0 1-1.35-1.24 1.13 1.13 0 0 1 1.13-1.25h33.83a1.39 1.39 0 0 1 1.35 1.25 1.12 1.12 0 0 1-1.14 1.24M172.4 377h-22.19a1.39 1.39 0 0 1-1.36-1.24 1.13 1.13 0 0 1 1.14-1.25h22.19a1.38 1.38 0 0 1 1.35 1.25 1.11 1.11 0 0 1-1.13 1.24M168.74 381h-18.18a1.37 1.37 0 0 1-1.35-1.24 1.11 1.11 0 0 1 1.13-1.24h18.18a1.37 1.37 0 0 1 1.35 1.24 1.11 1.11 0 0 1-1.13 1.24M174.13 371.99h-25.98l-1.06-12.04h25.99zM176.25 396.17h-25.99l-1.05-12.04h25.99z" style="fill:#fff"/></g><path d="M145.5 376.09h-18.8a5.36 5.36 0 0 1-5.23-4.81l-1.65-18.8a4.54 4.54 0 0 1 4.58-5h18.8a5.36 5.36 0 0 1 5.23 4.81l1.65 18.8a4.54 4.54 0 0 1-4.58 5m-21.1-26.37a2.37 2.37 0 0 0-1.75.74 2.32 2.32 0 0 0-.58 1.82l1.64 18.8a3.07 3.07 0 0 0 3 2.76h18.8a2.29 2.29 0 0 0 2.34-2.56l-1.65-18.8a3.07 3.07 0 0 0-3-2.76Z" style="fill:#263238"/><g style="opacity:.5"><path d="M145.5 376.09h-18.8a5.36 5.36 0 0 1-5.23-4.81l-1.65-18.8a4.54 4.54 0 0 1 4.58-5h18.8a5.36 5.36 0 0 1 5.23 4.81l1.65 18.8a4.54 4.54 0 0 1-4.58 5m-21.1-26.37a2.37 2.37 0 0 0-1.75.74 2.32 2.32 0 0 0-.58 1.82l1.64 18.8a3.07 3.07 0 0 0 3 2.76h18.8a2.29 2.29 0 0 0 2.34-2.56l-1.65-18.8a3.07 3.07 0 0 0-3-2.76Z" style="fill:#fff"/></g><path d="m131.05 369.61-14.35-13.19a2.49 2.49 0 0 1-.15-3.5 2.47 2.47 0 0 1 3.49-.15l10.7 9.84 20.72-22.72a2.48 2.48 0 0 1 3.5-.16 2.48 2.48 0 0 1 .16 3.5Z" style="fill:#cd5954"/><path d="m131.05 369.61-14.35-13.19a2.49 2.49 0 0 1-.15-3.5 2.47 2.47 0 0 1 3.49-.15l10.7 9.84 20.72-22.72a2.48 2.48 0 0 1 3.5-.16 2.48 2.48 0 0 1 .16 3.5Z" style="opacity:.2"/><path d="M373.64 336.1h11.86a12 12 0 0 0 11.94-11l2.16-27.36-4.5-.36-2.16 27.36a7.49 7.49 0 0 1-7.44 6.87h-11.86Z" style="fill:#263238"/><path d="M373.64 336.1h11.86a12 12 0 0 0 11.94-11l2.16-27.36-4.5-.36-2.16 27.36a7.49 7.49 0 0 1-7.44 6.87h-11.86Z" style="fill:#fff;opacity:.30000000000000004"/><path d="m390.12 330-.7 3.21a6.7 6.7 0 0 1-1.24 2.61 11.8 11.8 0 0 1-2.68.32h-11.86v-4.52h11.86a7.4 7.4 0 0 0 4.62-1.62" style="opacity:.2"/><path d="M379.63 300.63A5.18 5.18 0 0 1 375 295l3.59-35a5.18 5.18 0 0 1 5.68-4.63h34.3a3.44 3.44 0 0 1 3.08 3.79l-3.93 38.45a3.46 3.46 0 0 1-3.79 3.09Z" style="fill:#cd5954"/><path d="M379.63 300.63A5.18 5.18 0 0 1 375 295l3.59-35a5.18 5.18 0 0 1 5.68-4.63h34.3a3.44 3.44 0 0 1 3.08 3.79l-3.93 38.45a3.46 3.46 0 0 1-3.79 3.09Z" style="opacity:.30000000000000004"/><path d="m417.72 297.54 3.94-38.45a3.46 3.46 0 0 0-3.09-3.79 5.18 5.18 0 0 0-5.68 4.63l-3.59 35a5.18 5.18 0 0 0 4.63 5.68 3.46 3.46 0 0 0 3.79-3.07" style="fill:#cd5954"/><path d="m378.93 402.4-.31-.93a2.9 2.9 0 0 0-2.76-2h-32.07a2.92 2.92 0 0 0-2.84 2.29l-.08.36a2.81 2.81 0 0 1-2.75 2.22 2.82 2.82 0 0 1-2.76-3.43l.08-.37a8.56 8.56 0 0 1 8.35-6.71h32.07a8.56 8.56 0 0 1 8.14 5.87l.31.93a2.83 2.83 0 0 1-2.68 3.71 2.82 2.82 0 0 1-2.7-1.94" style="fill:#263238"/><path d="m378.93 402.4-.31-.93a2.9 2.9 0 0 0-2.76-2h-32.07a2.92 2.92 0 0 0-2.84 2.29l-.08.36a2.81 2.81 0 0 1-2.75 2.22 2.82 2.82 0 0 1-2.76-3.43l.08-.37a8.56 8.56 0 0 1 8.35-6.71h32.07a8.56 8.56 0 0 1 8.14 5.87l.31.93a2.83 2.83 0 0 1-2.68 3.71 2.82 2.82 0 0 1-2.7-1.94" style="fill:#fff;opacity:.30000000000000004"/><path d="M355.12 393.83h9.92v5.64h-9.92z" style="opacity:.2"/><path d="M360.08 403.7a2.82 2.82 0 0 0 2.82-2.82v-75h-5.64v75a2.82 2.82 0 0 0 2.82 2.82" style="fill:#263238"/><path d="M360.08 403.7a2.82 2.82 0 0 0 2.82-2.82v-75h-5.64v75a2.82 2.82 0 0 0 2.82 2.82" style="fill:#fff;opacity:.30000000000000004"/><path d="M356.13 408.82a3.95 3.95 0 1 0 3.95-3.95 4 4 0 0 0-3.95 3.95M380.48 408.82a3.95 3.95 0 1 0 3.95-3.95 4 4 0 0 0-3.95 3.95M331.35 408.82a3.95 3.95 0 1 0 3.94-3.95 3.94 3.94 0 0 0-3.94 3.95" style="fill:#263238"/><path d="M357.26 330.28h5.64v13.34h-5.64z" style="opacity:.2"/><path d="M341.78 336.7H379a6.64 6.64 0 0 0 6.49-5.22l1.11-5h-53l1.87 5.69a6.66 6.66 0 0 0 6.31 4.53" style="fill:#263238"/><path d="M341.78 336.7H379a6.64 6.64 0 0 0 6.49-5.22l1.11-5h-53l1.87 5.69a6.66 6.66 0 0 0 6.31 4.53" style="fill:#fff;opacity:.30000000000000004"/><path d="M327.74 321.35h57.9a3.31 3.31 0 0 1 3.31 3.31v.76a5 5 0 0 1-5 5H329.4a5 5 0 0 1-5-5v-.76a3.31 3.31 0 0 1 3.34-3.31" style="fill:#cd5954" transform="rotate(-180 356.695 325.875)"/><path d="M327.74 321.35h57.9a3.31 3.31 0 0 1 3.31 3.31v.76a5 5 0 0 1-5 5H329.4a5 5 0 0 1-5-5v-.76a3.31 3.31 0 0 1 3.34-3.31" style="opacity:.30000000000000004" transform="rotate(-180 356.695 325.875)"/><path d="M361.59 321.35h35.34a3.31 3.31 0 0 1 3.31 3.31v.76a5 5 0 0 1-5 5h-32a5 5 0 0 1-5-5v-.76a3.31 3.31 0 0 1 3.35-3.31" style="fill:#cd5954" transform="rotate(180 379.26 325.875)"/><path d="m304.98 386.43-3.33 16.05-7.09-.96 1.46-16.64z" style="fill:#ff8b7b"/><path d="m294.07 400.71 8.61.6a.56.56 0 0 1 .53.57l-.06 6.93a1.36 1.36 0 0 1-1.43 1.28c-3-.26-4.42-.54-8.21-.83a68 68 0 0 1-10.06-1.08c-3.19-.74-2.34-3.86-.94-3.83a20.9 20.9 0 0 0 10.2-3.33 2.15 2.15 0 0 1 1.36-.31" style="fill:#263238"/><path d="M289.85 401.35a1 1 0 0 1-.15-1 .68.68 0 0 1 .44-.49c1-.3 3 1.35 3.28 1.54a.3.3 0 0 1 .05.2.18.18 0 0 1-.15.13 9.5 9.5 0 0 1-2.06.13 2.13 2.13 0 0 1-1.41-.51m.4-1.13a.35.35 0 0 0-.22.24.68.68 0 0 0 .08.66c.34.38 1.34.49 2.73.32-.85-.64-2.08-1.38-2.59-1.22" style="fill:#263238"/><path d="M293.18 401.69c-.72-.51-1.75-2.21-1.53-3.05a.7.7 0 0 1 .69-.5 1 1 0 0 1 .75.3c.71.82.38 3.06.38 3.14a.23.23 0 0 1-.11.13.1.1 0 0 1-.07 0 .14.14 0 0 1-.11-.02m-.82-3.15c-.26 0-.36.13-.36.24a3.8 3.8 0 0 0 1.14 2.44 4 4 0 0 0-.33-2.49.52.52 0 0 0-.37-.19Z" style="fill:#263238"/><path d="m296.02 384.88 8.96 1.55-1.68 8.11-8.05-.84z" style="opacity:.2"/><path d="M364.68 281.25s-.92 15-4.92 15.69S304.85 308 301.18 320s-6.69 71.84-6.69 71.84l10.19.92s14-50.76 13.33-64.26c0 0 44.5 0 59.34-8.17s7.7-37.32 7.7-37.32Z" style="fill:#263238"/><path d="M364.68 281.25s-.92 15-4.92 15.69S304.85 308 301.18 320s-6.69 71.84-6.69 71.84l10.19.92s14-50.76 13.33-64.26c0 0 44.5 0 59.34-8.17s7.7-37.32 7.7-37.32Z" style="fill:#fff;opacity:.5"/><path d="M319.27 328.51c1.87 0 5.68-.08 10.55-.28l6.4-5 37.5-7.56 1.42-12.07s-36.92 2.57-46.82 8.07c-7.42 4.17-8.82 12.78-9.05 16.84" style="opacity:.2"/><path d="m328.85 389.58-3.31 16.3-7.12-.71 1.42-16.83z" style="fill:#ff8b7b"/><path d="m317.8 403.07 8.57.94a.53.53 0 0 1 .51.57l-.31 6.94a1.36 1.36 0 0 1-1.44 1.27c-3-.37-4.37-.71-8.18-1.15a70.4 70.4 0 0 1-10-1.39c-3.11-.86-2.19-3.95-.8-3.87 3.3.19 8-1.48 10.35-3a2.13 2.13 0 0 1 1.3-.31" style="fill:#263238"/><path d="M313.61 403.59a1 1 0 0 1-.13-1.07.72.72 0 0 1 .46-.47c1-.22 3 1.47 3.21 1.67a.2.2 0 0 1 0 .2.14.14 0 0 1-.15.11 9.6 9.6 0 0 1-2.07.07 2.15 2.15 0 0 1-1.32-.51m.37-1.14a.29.29 0 0 0-.22.22.63.63 0 0 0 .08.66c.31.4 1.32.55 2.72.43-.84-.67-2-1.47-2.56-1.31Z" style="fill:#263238"/><path d="M316.9 404c-.73-.5-1.7-2.25-1.44-3.07a.68.68 0 0 1 .71-.48.9.9 0 0 1 .73.33c.69.84.25 3.08.26 3.15a.2.2 0 0 1-.11.13.07.07 0 0 1-.06 0 .13.13 0 0 1-.09-.06m-.73-3.1c-.25 0-.38.12-.37.23a3.92 3.92 0 0 0 1.07 2.49 4.15 4.15 0 0 0-.24-2.51.6.6 0 0 0-.37-.21Z" style="fill:#263238"/><path d="m328.71 390.22-1.3 6.42-8.14-1.5.57-6.78z" style="opacity:.2"/><path d="M380.13 233.74c-8.13-1.07-1.81-3.78-1.81-3.78 5.52-1 5.85-5 5.36-8.77l10.11-7.39c-1.52 4.75-3.51 13.48-.53 16.83 0 0 2.05 4.32-10.62 3.36Z" style="fill:#ff8b7b"/><path d="m389.67 216.81-6 4.37a15 15 0 0 1 .14 2.67c2.09-.21 5.17-2.32 5.64-4.45a7.2 7.2 0 0 0 .22-2.59" style="opacity:.2"/><path d="M398.33 204.34c-1.81 7.69-2.41 11-7 14.5-6.91 5.3-15.93 1.93-16.45-6-.46-7.15 2.57-18.53 10.68-20.74a10.13 10.13 0 0 1 12.77 12.24" style="fill:#ff8b7b"/><path d="M386 205.08c-.13.65-.57 1.14-1 1.09s-.65-.62-.53-1.27.56-1.15 1-1.1.63.62.53 1.28M378.07 204.25c-.12.65-.56 1.14-1 1.09s-.66-.62-.54-1.27.57-1.14 1-1.09.66.62.54 1.27" style="fill:#263238"/><path d="m377.71 203-1.45-.64s.56 1.36 1.45.64" style="fill:#263238"/><path d="M380.07 205.58a20 20 0 0 1-3.08 3.9 2.63 2.63 0 0 0 2.2.7Z" style="fill:#ff5652"/><path d="M382.42 213a5.8 5.8 0 0 1-1.09 0 .18.18 0 0 1-.15-.21.19.19 0 0 1 .22-.17 5.55 5.55 0 0 0 4.53-1.53.19.19 0 1 1 .27.25 5.8 5.8 0 0 1-3.78 1.66M388.35 201.65a.4.4 0 0 1-.27-.13 2.84 2.84 0 0 0-2.46-1.08.36.36 0 0 1-.42-.32.42.42 0 0 1 .35-.44 3.54 3.54 0 0 1 3.14 1.32.4.4 0 0 1-.07.55.4.4 0 0 1-.27.1M376.46 200.4a.35.35 0 0 1-.26-.1.37.37 0 0 1 0-.54 4.07 4.07 0 0 1 3.35-1.32.36.36 0 0 1 .29.44.42.42 0 0 1-.47.32 3.27 3.27 0 0 0-2.64 1.07.4.4 0 0 1-.27.13M385.62 203.86l-1.45-.63s.55 1.32 1.45.63" style="fill:#263238"/><path d="M331.8 268.82h.44c.85-.06 2-.09 2.92-.2s2-.24 2.91-.42a19.1 19.1 0 0 0 5-1.57 10 10 0 0 0 1.86-1.15 9 9 0 0 0 .73-.65 3 3 0 0 0 .33-.35l.4-.42 2-2.19 2-2.21c2.59-3 5-6.07 7.37-9.2 1.17-1.57 2.3-3.16 3.41-4.75.55-.8 1.09-1.6 1.61-2.4s1.07-1.64 1.48-2.32l.07-.12a6.19 6.19 0 0 1 7.62-2.14c2.85 1.23 4 4.23 2.6 6.7-.6 1-1.1 1.91-1.69 2.82s-1.16 1.77-1.77 2.64a85 85 0 0 1-3.76 5.11 113 113 0 0 1-8.49 9.61c-1.51 1.54-3.1 3-4.7 4.49-.17.16-.46.4-.75.64a10 10 0 0 1-.88.67 15 15 0 0 1-1.88 1.16 20.7 20.7 0 0 1-4 1.62 25.4 25.4 0 0 1-8.06.84 30.8 30.8 0 0 1-7.51-1.37 2.59 2.59 0 0 1-1.84-2.14 2.62 2.62 0 0 1 2.58-2.7" style="fill:#ff8b7b"/><path d="M368 234.34s-2.31 0-11 14.9c0 0 3.57 8.72 12.86 9.17-.04 0 18.14-25.07-1.86-24.07" style="fill:#263238"/><path d="m365.44 239 4.82-1.15 5.66 3 1.13 2.82c-1.46 6.77-7.23 14.73-7.23 14.73a14 14 0 0 1-9.48-4.31 97 97 0 0 0 5.1-15.09" style="opacity:.5"/><path d="m323.07 267.3 2.64-1.29a4 4 0 0 1 3.23-.1l4.81 2a5.9 5.9 0 0 1 3.67 4.17l.23 1.13c-4.21 2.4-10.8 2.29-10.8 2.29l-1.88.15a2.87 2.87 0 0 1-3.27-2.26l-.39-3.24a2.89 2.89 0 0 1 1.76-2.85" style="fill:#ff8b7b"/><path d="M373.76 281.25s1.08 23-2.93 23.69S329.92 309 326.26 321s-7.69 71.84-7.69 71.84l10.19 1.92s16-52.76 15.33-66.26c0 0 40.61 1.2 49.33-7.17s6.71-38.33 6.71-38.33Z" style="fill:#263238"/><path d="M373.76 281.25s1.08 23-2.93 23.69S329.92 309 326.26 321s-7.69 71.84-7.69 71.84l10.19 1.92s16-52.76 15.33-66.26c0 0 40.61 1.2 49.33-7.17s6.71-38.33 6.71-38.33Z" style="fill:#fff;opacity:.5"/><path d="M380.22 229.82c-.27.18-6.71 4.36 1.69 4.36s11.09-3.64 11.09-3.73c3 .44 6.38 1.09 10.11 2l-2.74 56.33s-23.61 2.14-36.8-3.82c0 0-1.69-41.45 2.23-48 .04.04 1.99-6.17 14.42-7.14" style="fill:#263238"/><path d="m402.61 242.85-1.15 21.91c-4.7-15.59-4.55-23.64-4.55-23.64l1.25-2.94Z" style="opacity:.5"/><path d="M430 246.5a2.46 2.46 0 0 0-2.49 1.07v.05c-1.18 1.72-2.36 3.51-3.59 5.2s-2.43 3.4-3.7 5c-.82 1-1.67 2-2.51 2.91a1.19 1.19 0 0 1-1.91-.31c-1.3-2.72-2.51-5.51-3.66-8.35-.82-2.08-1.64-4.17-2.41-6.29s-1.53-4.28-2.22-6.29v-.11a5 5 0 0 0-6.63-3 5.1 5.1 0 0 0-2.84 6.18c.69 2.36 1.47 4.5 2.28 6.71S402 253.75 403 256s2.05 4.36 3.19 6.51 2.39 4.25 3.72 6.33l.17.26a2.8 2.8 0 0 0 .41.5 7.4 7.4 0 0 0 1.76 1.33 6.5 6.5 0 0 0 2.41.74 7.1 7.1 0 0 0 3.9-.75 13.1 13.1 0 0 0 3.71-2.94 35.2 35.2 0 0 0 4.16-5.92c1.13-2 2.13-4 3.05-6s1.73-4.07 2.46-6.22a2.52 2.52 0 0 0-1.94-3.34" style="fill:#ff8b7b"/><path d="M416.91 252.33a22 22 0 0 1-15.45 6.32s-10.1-23.88-1.3-26.36c8.33-2.36 16.75 20.04 16.75 20.04" style="fill:#263238"/><path d="m428.41 239.19-1.94 1.81a3 3 0 0 0-1 2.64l.58 4.6a5.71 5.71 0 0 0 3 4.33l1 .54c3.42-2.74 5.09-8.23 5.09-8.23l.66-1.51a2.57 2.57 0 0 0-1.27-3.41l-3-1.32a3 3 0 0 0-3.12.55" style="fill:#ff8b7b"/><path d="m381.42 298-56.57 5.3a1.55 1.55 0 0 0 .29 3.08l56.57-5.31a1.54 1.54 0 1 0-.29-3.07" style="fill:#cd5954"/><path d="m325.89 305.39 26.11-2.46a.72.72 0 0 0 .59-1l-13.36-29.12a2.06 2.06 0 0 0-2.08-1.2L311 274a.73.73 0 0 0-.59 1l13.36 29.13a2.09 2.09 0 0 0 2.12 1.26" style="fill:#cd5954"/><path d="m325 305.48 26.11-2.48a.73.73 0 0 0 .6-1l-13.37-29.13a2.08 2.08 0 0 0-2.08-1.2l-26.16 2.46a.72.72 0 0 0-.59 1l13.37 29.12a2.07 2.07 0 0 0 2.12 1.23" style="fill:#cd5954"/><path d="m325 305.48 26.11-2.48a.73.73 0 0 0 .6-1l-13.37-29.13a2.08 2.08 0 0 0-2.08-1.2l-26.16 2.46a.72.72 0 0 0-.59 1l13.37 29.12a2.07 2.07 0 0 0 2.12 1.23M354.6 303.64a1.54 1.54 0 1 1-.29-3.07l27.11-2.57a1.54 1.54 0 1 1 .29 3.07Z" style="fill:#fff;opacity:.7000000000000001"/><path d="M359.04 301.21h2.2v.72h-2.2z" style="opacity:.5" transform="rotate(174.64 360.147 301.57)"/><path d="M355.68 301.53h2.2v.72h-2.2z" style="opacity:.5" transform="rotate(174.64 356.775 301.889)"/><path d="M395.93 210.2a10.2 10.2 0 0 1-2.7-11.78 16.9 16.9 0 0 0-6.52-1.49c-5 0-10.72 1.07-9.19-2.76 0 0-5.31-6.75 3.73-7.71 0 0-.46-8.51 6.84-3 0 0 6.07-7.21 9.09 2.56 0 0 9.13-4.77 6.75 7 0 0 6.46.11 2.38 7.64 0 0 3.38 4.59-3.33 8.62 0 0 .54 6.55-4.35 5.37 0 0-5.61 7.87-6.38 4.2-.7-3.41 3.68-8.65 3.68-8.65" style="fill:#263238"/><path d="M398.75 211.85a5.47 5.47 0 0 1-3.43 2.75c-1.83.39-2.52-1.71-1.83-3.75.63-1.84 2.33-4.26 4.08-3.73s2.17 2.95 1.18 4.73" style="fill:#ff8b7b"/><path d="m394.84 213.8-1.9 3.47h4.33l-1.91-3.47z" style="fill:#cd5954"/><path d="m394.84 213.8-1.9 3.47h4.33l-1.91-3.47z" style="opacity:.2"/><path d="m392.94 217.27 1.9-3.47 1.91 3.47z" style="fill:#cd5954"/><path d="m293.82 392.3 11.14 1.17.88-3.17-12.02-1.33zM318.01 393.47l11.05 1.88 1.07-3.1-11.91-2.1zM306.33 226.23c-19.17 0-36.13-15.6-37.81-34.76s12.56-34.77 31.72-34.77 36.13 15.6 37.81 34.77-12.56 34.76-31.72 34.76" style="fill:#263238"/><path d="M308 225.39c-19.17 0-36.13-15.59-37.81-34.76s12.56-34.76 31.73-34.76 36.12 15.59 37.8 34.76-12.55 34.76-31.72 34.76" style="fill:#cd5954"/><g style="opacity:.7000000000000001"><path d="M308 225.39c-19.17 0-36.13-15.59-37.81-34.76s12.56-34.76 31.73-34.76 36.12 15.59 37.8 34.76-12.55 34.76-31.72 34.76" style="fill:#fff"/></g><path d="M308 225.39c-19.17 0-36.13-15.59-37.81-34.76s12.56-34.76 31.73-34.76 36.12 15.59 37.8 34.76-12.55 34.76-31.72 34.76m-5.5-62.84c-15.48 0-27 12.6-25.62 28.08s15.05 28.07 30.53 28.07 27-12.59 25.62-28.07-15.03-28.08-30.53-28.08" style="fill:#cd5954"/><path d="M306.88 212.65a24.56 24.56 0 0 1-23.95-22 19.88 19.88 0 0 1 20.1-22 24.55 24.55 0 0 1 24 22 19.88 19.88 0 0 1-20.15 22m-3.27-37.36a13.84 13.84 0 0 0-14 15.34A17.09 17.09 0 0 0 306.3 206a13.84 13.84 0 0 0 14-15.33 17.09 17.09 0 0 0-16.69-15.38" style="fill:#cd5954"/><path d="M313.65 190.63a7.84 7.84 0 0 1-7.93 8.7 9.68 9.68 0 0 1-9.46-8.7 7.85 7.85 0 0 1 7.94-8.7 9.68 9.68 0 0 1 9.45 8.7" style="fill:#cd5954"/><path d="m329.35 166.32-1.7-6.61 6.9-6.89 1.69 6.61z" style="fill:#263238"/><path d="m329.35 166.32 6.61 1.7 6.89-6.89-6.61-1.7z" style="fill:#263238"/><path d="M317.21 157.51h1.88v40.02h-1.88z" style="fill:#263238" transform="rotate(45 318.148 177.521)"/></svg>