<svg xmlns="http://www.w3.org/2000/svg" viewBox="0 0 500 500"><path d="M0 382.4h500v.25H0zM379.33 398.49h70.57v.25h-70.57zM341 401.21h15.03v.25H341zM396.59 389.21h13.16v.25h-13.16zM52.46 390.89h38.83v.25H52.46zM100.19 390.89h10.69v.25h-10.69zM189.58 395.11h54.56v.25h-54.56zM237 337.8H43.91a5.71 5.71 0 0 1-5.7-5.71V60.66a5.71 5.71 0 0 1 5.7-5.66H237a5.71 5.71 0 0 1 5.71 5.71v271.38a5.71 5.71 0 0 1-5.71 5.71M43.91 55.2a5.46 5.46 0 0 0-5.45 5.46v271.43a5.46 5.46 0 0 0 5.45 5.46H237a5.47 5.47 0 0 0 5.46-5.46V60.66A5.47 5.47 0 0 0 237 55.2ZM453.31 337.8h-193.1a5.72 5.72 0 0 1-5.71-5.71V60.66a5.72 5.72 0 0 1 5.71-5.66h193.1a5.71 5.71 0 0 1 5.69 5.66v271.43a5.71 5.71 0 0 1-5.69 5.71M260.21 55.2a5.47 5.47 0 0 0-5.46 5.46v271.43a5.47 5.47 0 0 0 5.46 5.46h193.1a5.47 5.47 0 0 0 5.46-5.46V60.66a5.47 5.47 0 0 0-5.46-5.46Z" style="fill:#ebebeb"/><path d="M71.76 218.81s.54 12 21.27 12 21.28-12 21.28-12Z" style="fill:#f0f0f0"/><path d="M147.37 239.58h25.81V382.4h-25.81z" style="fill:#e6e6e6"/><path d="M168.28 382.4h4.91v-10.28h-10.05z" style="fill:#f0f0f0"/><path d="M50.9 239.58h25.81V382.4H50.9z" style="fill:#e6e6e6"/><path d="M72.44 239.58h100.75V376.1H72.44z" style="fill:#f0f0f0"/><path d="M88.23 282.1h117.38v44.93H88.23z" style="fill:#e6e6e6" transform="rotate(-90 146.92 304.56)"/><path d="M40.01 282.09h117.38v44.93H40.01z" style="fill:#e6e6e6" transform="rotate(-90 98.705 304.555)"/><path d="M103.15 248.74h-8.89a16.85 16.85 0 0 1-10.21-3.23h29.3a16.8 16.8 0 0 1-10.2 3.23M151.82 248.74h-8.89a16.85 16.85 0 0 1-10.21-3.23H162a16.8 16.8 0 0 1-10.18 3.23M77.34 382.4h-4.9v-10.28h10.04z" style="fill:#f0f0f0"/><path d="M71.76 227.53s.54 12 21.27 12 21.28-12 21.28-12Z" style="fill:#e6e6e6"/><path d="M136.17 227s.33 7.32 12.93 7.32S162 227 162 227Z" style="fill:#f5f5f5"/><path d="M136.17 232.26s.33 7.31 12.93 7.31 12.9-7.31 12.9-7.31ZM63.11 74.5h86.83v117.87H63.11z" style="fill:#e6e6e6"/><path d="M64.88 74.5h88.85v117.87H64.88z" style="fill:#f0f0f0"/><path d="M57.01 94.33H161.6v78.22H57.01z" style="fill:#fafafa" transform="rotate(90 109.305 133.435)"/><path d="M95.78 133.1h104.59v.68H95.78z" style="fill:#e6e6e6" transform="rotate(90 148.075 133.435)"/><path d="M114.21 158.27h-12.16a6.94 6.94 0 0 1-6.84-5.93 35.7 35.7 0 0 0-7.11-16.48 25.14 25.14 0 0 1 20.72-40.37 25.13 25.13 0 0 1 19.25 40.4A35.66 35.66 0 0 0 121 152.4a6.87 6.87 0 0 1-6.79 5.87m-6.12-61.48a23.83 23.83 0 0 0-19 38.27 37 37 0 0 1 7.37 17.09 5.62 5.62 0 0 0 5.54 4.81h12.16a5.56 5.56 0 0 0 5.47-4.75 36.93 36.93 0 0 1 7.37-17.12 23.83 23.83 0 0 0-18.22-38.29ZM101.6 170.74h13a4.43 4.43 0 0 0 4.41-4.42 4.42 4.42 0 0 0-4.41-4.41h-13a4.43 4.43 0 0 0-4.42 4.41 4.43 4.43 0 0 0 4.42 4.42" style="fill:#e6e6e6"/><path d="M108.1 129a5.66 5.66 0 1 1 5.65-5.65 5.66 5.66 0 0 1-5.65 5.65m0-10a4.34 4.34 0 1 0 4.34 4.34 4.34 4.34 0 0 0-4.34-4.34" style="fill:#e6e6e6"/><path d="M101.52 129a5.66 5.66 0 1 1 5.66-5.65 5.65 5.65 0 0 1-5.66 5.65m0-10a4.34 4.34 0 1 0 4.34 4.34 4.34 4.34 0 0 0-4.34-4.34M114.67 129a5.66 5.66 0 1 1 5.66-5.65 5.66 5.66 0 0 1-5.66 5.65m0-10a4.34 4.34 0 1 0 4.34 4.34 4.34 4.34 0 0 0-4.34-4.34" style="fill:#e6e6e6"/><ellipse cx="250" cy="416.24" rx="193.89" ry="11.32" style="fill:#f5f5f5"/><path d="M425.41 334.13H190.17l7.71-119.45h12.19l-6.92 107.26h149.17l.55-8.53h-79.42l.79-12.19h120.39l6.7-103.94h-8.53l-6.16 95.41H266.26l-1.34 20.72h-52.69l12.5-193.79h150.53l.55-8.54H216.75l-6.13 95.07h-12.19l3.47-53.83h-8.53l-12.28 190.35h252.3l.8-12.4h-8.53z" style="fill:#cd5954"/><path d="m197.37 90.36-2.73 42.19h8.54l2.17-33.65h186.76l-1.34 20.72h27.76l-3.46 53.63h-12.19l2.67-41.44H290.79l-.55 8.53h60.19l-.79 12.19h-94.12l-7.98 123.71-.28 4.26-.78 12.19h-12.19l5.91-91.62h-8.53l-6.46 100.15h29.25l1.33-20.72h74.7l.55-8.53h-40.16l.79-12.19h20.92l.55-8.53H278.4l.42-6.57h-8.53l-.97 15.1h13.82l-.79 12.19h-26l7.15-110.91h110.91l-4.26 66.02h8.54l4.81-74.55h-25.32l.78-12.19h37.51l-2.67 41.44h20.72l-3.27 50.71h8.53l7.83-121.41h-27.75l.78-12.18h39.94L430.97 248h-20.72l-4.22 65.41h-33.39l-.55 8.53h41.92l4.22-65.41h12.19l-3.48 53.97h8.53l14.2-220.14z" style="fill:#cd5954"/><path d="m241.47 181.3 2.64-40.96h26.34l.55-8.53h-34.87l-3.19 49.49zM345.99 280.5h29.25l2.17-33.65h-8.53l-1.62 25.12h-12.19l.79-12.19.27-4.26 5.31-82.27H274.9l-3.33 51.66h8.53l2.78-43.13h69.48l-4.48 69.47h-14.97l-.55 8.53h14.96z" style="fill:#cd5954"/><path d="m321.59 230.53-.55 8.53h15.44l2.91-45.1h-45.1l-2.91 45.1h10.56l.55-8.53h-2.03l1.81-28.04h28.03l-1.8 28.04z" style="fill:#cd5954"/><g style="opacity:.6000000000000001"><path d="M425.41 334.13H190.17l7.71-119.45h12.19l-6.92 107.26h149.17l.55-8.53h-79.42l.79-12.19h120.39l6.7-103.94h-8.53l-6.16 95.41H266.26l-1.34 20.72h-52.69l12.5-193.79h150.53l.55-8.54H216.75l-6.13 95.07h-12.19l3.47-53.83h-8.53l-12.28 190.35h252.3l.8-12.4h-8.53z" style="fill:#fff"/><path d="m197.37 90.36-2.73 42.19h8.54l2.17-33.65h186.76l-1.34 20.72h27.76l-3.46 53.63h-12.19l2.67-41.44H290.79l-.55 8.53h60.19l-.79 12.19h-94.12l-7.98 123.71-.28 4.26-.78 12.19h-12.19l5.91-91.62h-8.53l-6.46 100.15h29.25l1.33-20.72h74.7l.55-8.53h-40.16l.79-12.19h20.92l.55-8.53H278.4l.42-6.57h-8.53l-.97 15.1h13.82l-.79 12.19h-26l7.15-110.91h110.91l-4.26 66.02h8.54l4.81-74.55h-25.32l.78-12.19h37.51l-2.67 41.44h20.72l-3.27 50.71h8.53l7.83-121.41h-27.75l.78-12.18h39.94L430.97 248h-20.72l-4.22 65.41h-33.39l-.55 8.53h41.92l4.22-65.41h12.19l-3.48 53.97h8.53l14.2-220.14z" style="fill:#fff"/><path d="m241.47 181.3 2.64-40.96h26.34l.55-8.53h-34.87l-3.19 49.49zM345.99 280.5h29.25l2.17-33.65h-8.53l-1.62 25.12h-12.19l.79-12.19.27-4.26 5.31-82.27H274.9l-3.33 51.66h8.53l2.78-43.13h69.48l-4.48 69.47h-14.97l-.55 8.53h14.96z" style="fill:#fff"/><path d="m321.59 230.53-.55 8.53h15.44l2.91-45.1h-45.1l-2.91 45.1h10.56l.55-8.53h-2.03l1.81-28.04h28.03l-1.8 28.04z" style="fill:#fff"/></g><path d="M421.09 329.01h-60.31l1.47-22.66h37.17l7.61-117.99h-18.78l-3.2 49.57h-22.66l4.41-68.39h-96.31l-4.15 64.29h19.77l-.67 10.36h39.01l-1.33 20.72h20.24l-1.52 23.67h-79.98l-1.27 19.71h-42.9l7.61-118.07h20.72l2.89-44.76h31.08l1.34-20.72h102.53l1.21-18.78H211.96l-2.42 37.44h-23.46v-1.93h21.65l2.41-37.45h176.99l-1.46 22.66H283.14l-1.34 20.72h-31.08l-2.88 44.75h-20.72l-7.37 114.2h39.03l1.27-19.71h79.97l1.28-19.79h-20.25l1.34-20.72h-39.01l.67-10.37h-19.77l4.4-68.16h100.19l-4.42 68.4h18.79l3.19-49.57h22.66l-7.86 121.86h-37.17l-1.21 18.78h56.43l.49-7.65h22.98v1.93h-21.16z" style="fill:#cd5954"/><path d="M316.87 222.38h-4.4l.42-6.55h5.48l.21-3.18h-6.56l-.06.93h-4.4l.34-5.33h15.37l-.78 11.99h-5.48zM316.56 227.3h-4.41l.22-3.36h4.4z" style="fill:#cd5954"/><path d="M95.78 309.25c5.79-41.49 6.54-69.23 12.62-89.68l35-.53s-16.7 65.84-24.36 93.26-21.43 95.1-21.43 95.1H85.88s-.31-66.04 9.9-98.15" style="fill:#263238"/><path d="M126.51 249.73c-2.56 5.93-7.57 44-7.54 63l.12-.44c2.69-9.63 6.5-24 10.31-38.62Z"/><path d="M107.56 413.12s-9.91-3.79-11-6.33h-9l-.49 9.45h7.31l.9-.87 1.34.87c4.47 0 8.59-.17 11.45-1.18a2 2 0 0 0-.51-1.94M129.17 310.42c-7-41.27-9.91-91-9.91-91l38.51-.62s-4.43 67.06-6 95.15c-1.6 29.21-2.72 93.48-2.72 93.48h-12.83s-10.93-60.91-7.05-97.01" style="fill:#263238"/><path d="M124 113.56c-1.71 7.42-3 16.95-5.13 22.43 3.72 3.46 9.75 7.75 17.79 7.63s6.57-5.55 4.41-8.35c-5.76-2.91-6-5.85-4.58-8.43Z" style="fill:#ff8b7b"/><path d="M111.39 137.79s4.88-4.3 6.9-5.31 17.6-.67 21.22 0 8 6.07 8 6.07ZM149.4 112.63c-.17.73.09 1.4.56 1.5s1-.4 1.16-1.13-.09-1.39-.56-1.5-1 .41-1.16 1.13" style="fill:#263238"/><path d="M149.13 113.64a26.3 26.3 0 0 0 2.08 7c-1.56.92-3.62-.1-3.62-.1Z" style="fill:#ff5652"/><path d="M151.91 108.45a.43.43 0 0 1-.41 0 3.43 3.43 0 0 0-3.15.11.44.44 0 0 1-.6-.13.45.45 0 0 1 .13-.61 4.33 4.33 0 0 1 4-.18.43.43 0 0 1 .06.77Z" style="fill:#263238"/><path d="M125.29 105.24c-1.45 9-2.76 14.25.73 19.8 5.25 8.35 17.21 6.65 21.34-1.8 3.73-7.6 5.48-21.1-2.48-26.53a12.62 12.62 0 0 0-19.59 8.53" style="fill:#ff8b7b"/><path d="M138.53 116.93c-2.87 3.37-4 7.33-9.07 7.58s-8.53.93-8.28-3c.42-6.57-3-15-3.55-19.2s-.24-10.89 5.49-9.09c-2-3.9.85-7.24 5.3-6.82 8.08.76 16.16 6.36 20.55 5.08 4.21-1.24.43-2.47.43-2.47s8.36-.45 6.92 7.52c-1.61 8.87-9.78 5.77-9.78 5.77s5.57 6.89-8.01 14.63" style="fill:#263238"/><path d="M137.74 112.62a7.7 7.7 0 0 0 .56 5.63c1.19 2.15 3.53 1.16 4.65-1.16 1-2.09 1.62-5.73-.27-7.06s-4.28.18-4.94 2.59" style="fill:#ff8b7b"/><path d="M111.91 136.77c12.45-1.53 30.13-1.39 41.86.65a13.32 13.32 0 0 1 10.94 12.08c1.46 17.89-2.5 49.18-5.92 80.66-27.61 9.27-55.63-.12-55.63-.12-.61-6.36 2.81-27.17 4.94-38.28-1.57-11.48-5.54-24.61-7.79-39.85a13.34 13.34 0 0 1 11.6-15.14" style="fill:#263238"/><path d="M111.91 136.77c12.45-1.53 30.13-1.39 41.86.65a13.32 13.32 0 0 1 10.94 12.08c1.46 17.89-2.5 49.18-5.92 80.66-27.61 9.27-55.63-.12-55.63-.12-.61-6.36 2.81-27.17 4.94-38.28-1.57-11.48-5.54-24.61-7.79-39.85a13.34 13.34 0 0 1 11.6-15.14" style="fill:#fff;opacity:.1"/><path d="M149.4 161.83c1.88 10.78 7.85 23.62 13.3 32.12.75-7.44 1.38-14.54 1.78-21.07Z"/><path d="m163.45 146.88 1.41 3.78 1.49 3.9c1 2.59 2 5.13 3.09 7.57.53 1.22 1.09 2.41 1.65 3.54s1.11 2.23 1.67 3.2 1.14 1.82 1.57 2.44.8.9.14.67l-13.29 7.11a5.2 5.2 0 0 0 0 1.7 2 2 0 0 0 .2.67c.11.22.15.09.1-.13a8.7 8.7 0 0 0-1-2.14 58 58 0 0 0-3.75-5.56c-1.42-1.93-3-3.87-4.52-5.85s-3.19-4-4.67-6l-.15-.2a5.38 5.38 0 0 1 6.65-8.05 74 74 0 0 1 7.2 4c2.32 1.47 4.57 3 6.81 4.79 1.11.87 2.2 1.8 3.29 2.78a40 40 0 0 1 3.27 3.25 29 29 0 0 1 3.27 4.35 16.3 16.3 0 0 1 1.59 3.45 14.4 14.4 0 0 1 .59 2.57 13 13 0 0 1 0 3.63 9.39 9.39 0 0 1-10.71 7.88 9.3 9.3 0 0 1-2.13-.58l-.44-.19a18.7 18.7 0 0 1-4.11-2.35 25 25 0 0 1-2.8-2.4 37 37 0 0 1-3.91-4.62 65.6 65.6 0 0 1-5.42-8.86c-1.55-2.93-2.85-5.87-4.07-8.82-.59-1.49-1.18-3-1.7-4.47-.27-.75-.53-1.5-.78-2.27l-.74-2.39a10.61 10.61 0 0 1 20.06-6.88Z" style="fill:#263238"/><path d="m163.45 146.88 1.41 3.78 1.49 3.9c1 2.59 2 5.13 3.09 7.57.53 1.22 1.09 2.41 1.65 3.54s1.11 2.23 1.67 3.2 1.14 1.82 1.57 2.44.8.9.14.67l-13.29 7.11a5.2 5.2 0 0 0 0 1.7 2 2 0 0 0 .2.67c.11.22.15.09.1-.13a8.7 8.7 0 0 0-1-2.14 58 58 0 0 0-3.75-5.56c-1.42-1.93-3-3.87-4.52-5.85s-3.19-4-4.67-6l-.15-.2a5.38 5.38 0 0 1 6.65-8.05 74 74 0 0 1 7.2 4c2.32 1.47 4.57 3 6.81 4.79 1.11.87 2.2 1.8 3.29 2.78a40 40 0 0 1 3.27 3.25 29 29 0 0 1 3.27 4.35 16.3 16.3 0 0 1 1.59 3.45 14.4 14.4 0 0 1 .59 2.57 13 13 0 0 1 0 3.63 9.39 9.39 0 0 1-10.71 7.88 9.3 9.3 0 0 1-2.13-.58l-.44-.19a18.7 18.7 0 0 1-4.11-2.35 25 25 0 0 1-2.8-2.4 37 37 0 0 1-3.91-4.62 65.6 65.6 0 0 1-5.42-8.86c-1.55-2.93-2.85-5.87-4.07-8.82-.59-1.49-1.18-3-1.7-4.47-.27-.75-.53-1.5-.78-2.27l-.74-2.39a10.61 10.61 0 0 1 20.06-6.88Z" style="fill:#fff;opacity:.1"/><path d="m173.48 159.35 1.93 5.17a2 2 0 0 1-.2 2.13l-1.21 1.19a2.15 2.15 0 0 1-3.26-.59l-3.64-5.35a2.2 2.2 0 0 1 .7-3.33l2.84-1.18c.94-.39 2.36.55 2.84 1.96" style="fill:#ff8b7b"/><path d="M164.88 413.12S149 409.33 148 406.79h-9l-.48 9.45H144l.89-.87 1.35.87c4.47 0 16.34-.17 19.2-1.18a2 2 0 0 0-.56-1.94" style="fill:#263238"/></svg>