<svg xmlns="http://www.w3.org/2000/svg" viewBox="0 0 500 500"><path d="M0 382.4h500v.25H0zM363 398.49h86.9v.25H363zM357.66 389.21h8.69v.25h-8.69zM280.12 397.5h19.19v.25h-19.19zM52.46 390.89h21.6v.25h-21.6zM82.96 390.89h27.93v.25H82.96zM207.67 394.99h46.84v.25h-46.84zM237 337.8H43.91a5.71 5.71 0 0 1-5.7-5.71V60.66a5.71 5.71 0 0 1 5.7-5.66H237a5.71 5.71 0 0 1 5.71 5.71v271.38a5.71 5.71 0 0 1-5.71 5.71M43.91 55.2a5.46 5.46 0 0 0-5.45 5.46v271.43a5.46 5.46 0 0 0 5.45 5.46H237a5.47 5.47 0 0 0 5.46-5.46V60.66A5.47 5.47 0 0 0 237 55.2ZM453.31 337.8h-193.1a5.72 5.72 0 0 1-5.71-5.71V60.66a5.72 5.72 0 0 1 5.71-5.66h193.1a5.71 5.71 0 0 1 5.69 5.66v271.43a5.71 5.71 0 0 1-5.69 5.71M260.21 55.2a5.47 5.47 0 0 0-5.46 5.46v271.43a5.47 5.47 0 0 0 5.46 5.46h193.1a5.47 5.47 0 0 0 5.46-5.46V60.66a5.47 5.47 0 0 0-5.46-5.46Z" style="fill:#ebebeb"/><path d="M54.01 72.94h154.63v221.13H54.01z" style="fill:#e6e6e6"/><path d="M56.18 72.94h157.1v221.13H56.18z" style="fill:#f0f0f0"/><path d="M54.01 294.07h154.63v4.05H54.01z" style="fill:#e6e6e6"/><path d="M58.65 294.07h157.1v4.05H58.65z" style="fill:#f0f0f0"/><path d="M30.66 111.45H238.8v144.11H30.66z" style="fill:#fafafa" transform="rotate(90 134.735 183.505)"/><path d="m129.26 287.57 34.96-208.13h18l-34.96 208.13zM83.84 287.57 118.8 79.44h18l-34.96 208.13z" style="fill:#fff"/><path d="M65.68 183.1c-.27 0-.49-.33-.49-.74V83.9c0-.41.22-.73.49-.73s.5.32.5.73v98.46c0 .41-.18.74-.5.74" style="fill:#f0f0f0"/><path d="m151.13 287.57 34.96-208.13h7.01l-34.96 208.13z" style="fill:#fff"/><path d="M102.31 183.09h208.14v.82H102.31z" style="fill:#e6e6e6" transform="rotate(90 206.375 183.505)"/><path d="M214.82 98.21H60.19l-.6-16.25h154.63zM214.82 124.91H60.19l-.6-16.24h154.63zM214.82 151.62H60.19l-.6-16.24h154.63zM214.82 178.33H60.19l-.6-16.25h154.63zM214.82 205.03H60.19l-.6-16.24h154.63zM214.82 231.74H60.19l-.6-16.24h154.63z" style="fill:#e0e0e0;opacity:.5"/><path d="M214.82 111.56H60.19l-.6-16.25h154.63zM214.82 138.27H60.19l-.6-16.25h154.63zM214.82 164.97H60.19l-.6-16.24h154.63zM214.82 191.68H60.19l-.6-16.24h154.63zM214.82 218.39H60.19l-.6-16.25h154.63zM214.82 245.1H60.19l-.6-16.25h154.63z" style="fill:#e0e0e0;opacity:.5"/><path d="M266.25 224.55h30.82V379h-30.82zM272.17 379h151.98v3.4H272.17z" style="fill:#f0f0f0"/><path d="M297.07 224.55h132.99V379H297.07z" style="fill:#f5f5f5" transform="rotate(180 363.56 301.775)"/><path d="M414.76 311.57H312.35a3.68 3.68 0 0 1-3.67-3.67V284a3.68 3.68 0 0 1 3.67-3.68h16.93a3.71 3.71 0 0 1 3.27 2.07 3.82 3.82 0 0 0 3.37 2h55.29a3.8 3.8 0 0 0 2.69-1.12 4.1 4.1 0 0 0 .72-1 3.63 3.63 0 0 1 3.24-2h16.9a3.68 3.68 0 0 1 3.68 3.68v23.95a3.68 3.68 0 0 1-3.68 3.67m-102.41-30.24a2.68 2.68 0 0 0-2.67 2.68v23.89a2.68 2.68 0 0 0 2.67 2.67h102.41a2.68 2.68 0 0 0 2.68-2.67V284a2.68 2.68 0 0 0-2.68-2.68h-16.9a2.64 2.64 0 0 0-2.35 1.42 4.8 4.8 0 0 1-.91 1.25 4.78 4.78 0 0 1-3.39 1.41h-55.29a4.82 4.82 0 0 1-4.25-2.54 2.74 2.74 0 0 0-2.39-1.54ZM414.76 353.3H312.35a3.68 3.68 0 0 1-3.67-3.67v-23.89a3.68 3.68 0 0 1 3.67-3.68h16.93a3.71 3.71 0 0 1 3.27 2.07 3.82 3.82 0 0 0 3.37 2h55.29a3.73 3.73 0 0 0 2.68-1.12 3.9 3.9 0 0 0 .73-1 3.63 3.63 0 0 1 3.24-2h16.9a3.68 3.68 0 0 1 3.68 3.68v23.89a3.68 3.68 0 0 1-3.68 3.72m-102.41-30.24a2.68 2.68 0 0 0-2.67 2.68v23.89a2.68 2.68 0 0 0 2.67 2.67h102.41a2.68 2.68 0 0 0 2.68-2.67v-23.89a2.68 2.68 0 0 0-2.68-2.68h-16.9a2.64 2.64 0 0 0-2.35 1.42 4.8 4.8 0 0 1-.91 1.25 4.72 4.72 0 0 1-3.39 1.41h-55.29a4.82 4.82 0 0 1-4.25-2.54 2.74 2.74 0 0 0-2.39-1.54ZM418.44 371.88H308.68V363h109.76Zm-108.76-1h107.76V364H309.68ZM414.76 269.85H312.35a3.68 3.68 0 0 1-3.67-3.67v-23.89a3.68 3.68 0 0 1 3.67-3.68h16.93a3.71 3.71 0 0 1 3.27 2.06 3.81 3.81 0 0 0 3.37 2h55.29a3.8 3.8 0 0 0 2.69-1.12 4.1 4.1 0 0 0 .72-1 3.63 3.63 0 0 1 3.24-2h16.9a3.68 3.68 0 0 1 3.68 3.68v23.89a3.68 3.68 0 0 1-3.68 3.73m-102.41-30.24a2.68 2.68 0 0 0-2.67 2.68v23.89a2.68 2.68 0 0 0 2.67 2.67h102.41a2.68 2.68 0 0 0 2.68-2.67v-23.89a2.68 2.68 0 0 0-2.68-2.68h-16.9a2.64 2.64 0 0 0-2.35 1.42 4.8 4.8 0 0 1-.91 1.25 4.76 4.76 0 0 1-3.39 1.41h-55.29a4.83 4.83 0 0 1-4.25-2.54 2.74 2.74 0 0 0-2.39-1.54Z" style="fill:#ebebeb"/><path d="M297.07 222.06h137.1v2.49h-137.1z" style="fill:#f0f0f0"/><path d="M261.94 222.06h35.12v2.49h-35.12z" style="fill:#e6e6e6" transform="rotate(180 279.505 223.305)"/><path d="M286.69 78.27h117.63v116.75H286.69z" style="fill:#e6e6e6"/><path d="M287.89 78.27h122.78v116.75H287.89z" style="fill:#f0f0f0"/><path d="M296.57 80.93h105.42v111.44H296.57z" style="fill:#fff" transform="rotate(90 349.28 136.65)"/><path d="M349.28 180.05a43.4 43.4 0 1 1 43.4-43.4 43.45 43.45 0 0 1-43.4 43.4m0-86.05a42.65 42.65 0 1 0 42.65 42.65A42.69 42.69 0 0 0 349.28 94" style="fill:#f5f5f5"/><ellipse cx="250" cy="416.24" rx="193.89" ry="11.32" style="fill:#f5f5f5"/><path d="M67.78 359.58h244.89l17.6-152.35H85.39z" style="fill:#cd5954"/><path d="M67.78 359.58h244.89l17.6-152.35H85.39z" style="fill:#fff;opacity:.4"/><path d="M360.77 365.29H115.88L85.39 207.23h244.88z" style="fill:#cd5954"/><path d="M360.77 365.29H115.88L85.39 207.23h244.88z" style="fill:#fff;opacity:.6000000000000001"/><path d="M351.39 356.81H121.98L97.35 229.1h229.41z" style="fill:#fff"/><g style="opacity:.5"><path d="M139.84 260.07h-23.99l-4.63-24h23.99zM320.21 260.07h-24l-4.62-24h23.99zM290.14 260.07h-23.99l-4.63-24h24zM260.08 260.07h-23.99l-4.63-24h24zM230.02 260.07h-23.99l-4.63-24h23.99zM199.96 260.07h-23.99l-4.63-24h23.99zM169.9 260.07h-23.99l-4.63-24h23.99z" style="fill:#cd5954"/><path d="M145.61 289.99h-23.99L116.99 266h23.99z" style="fill:#cd5954;opacity:.5"/><path d="M325.98 289.99h-23.99L297.36 266h23.99z" style="fill:#cd5954"/><path d="M295.92 289.99h-23.99L267.3 266h23.99z" style="fill:#cd5954;opacity:.5"/><path d="M265.86 289.99h-24L237.24 266h23.99zM235.79 289.99H211.8L207.17 266h24zM205.73 289.99h-23.99L177.11 266h23.99zM175.67 289.99h-23.99L147.05 266h23.99zM151.38 319.91h-23.99l-4.63-23.99h23.99zM331.75 319.91h-23.99l-4.63-23.99h23.99zM301.69 319.91H277.7l-4.63-23.99h23.99zM271.63 319.91h-23.99l-4.63-23.99H267zM241.57 319.91h-24l-4.62-23.99h23.99zM211.5 319.91h-23.99l-4.63-23.99h24zM181.44 319.91h-23.99l-4.63-23.99h23.99zM157.15 349.84h-23.99l-4.63-24h24zM337.52 349.84h-23.99l-4.63-24h23.99zM307.46 349.84h-23.99l-4.63-24h23.99zM277.4 349.84h-23.99l-4.63-24h23.99zM247.34 349.84h-23.99l-4.63-24h23.99zM217.28 349.84h-24l-4.62-24h23.99z" style="fill:#cd5954"/><path d="M187.22 349.84h-24l-4.62-24h23.99z" style="fill:#cd5954;opacity:.5"/></g><path d="m115.59 218.08-.31-1.59c2.83 0 4.41-4.24 3.44-9.26s-4.18-9.27-7-9.27-4.41 4.25-3.45 9.27h-1.58c-1.18-6.09.9-10.85 4.72-10.85s7.74 4.76 8.91 10.85-.91 10.85-4.73 10.85M139.27 218.08l-.31-1.59c2.83 0 4.41-4.24 3.44-9.26s-4.18-9.27-7-9.27-4.41 4.25-3.45 9.27h-1.58c-1.18-6.09.9-10.85 4.72-10.85s7.74 4.76 8.91 10.85-.91 10.85-4.73 10.85M163 218.08l-.31-1.59c2.83 0 4.41-4.24 3.44-9.26s-4.18-9.27-7-9.27-4.42 4.25-3.45 9.27H154c-1.18-6.09.9-10.85 4.72-10.85s7.74 4.76 8.91 10.85-.86 10.85-4.63 10.85M186.62 218.08l-.3-1.59c2.83 0 4.41-4.24 3.44-9.26s-4.18-9.27-7-9.27-4.41 4.25-3.44 9.27h-1.59c-1.17-6.09.91-10.85 4.73-10.85s7.73 4.76 8.91 10.85-.92 10.85-4.75 10.85M210.3 218.08l-.3-1.59c2.83 0 4.41-4.24 3.44-9.26s-4.18-9.27-7-9.27-4.41 4.25-3.44 9.27h-1.59c-1.17-6.09.91-10.85 4.73-10.85s7.73 4.76 8.91 10.85-.92 10.85-4.75 10.85M234 218.08l-.3-1.59c2.83 0 4.41-4.24 3.44-9.26s-4.18-9.27-7-9.27-4.41 4.25-3.44 9.27h-1.59c-1.17-6.09.9-10.85 4.73-10.85s7.73 4.76 8.91 10.85-.94 10.85-4.75 10.85M257.66 218.08l-.3-1.59c2.83 0 4.41-4.24 3.44-9.26s-4.18-9.27-7-9.27-4.41 4.25-3.44 9.27h-1.59c-1.17-6.09.9-10.85 4.73-10.85s7.73 4.76 8.91 10.85-.92 10.85-4.75 10.85M281.34 218.08l-.3-1.59c2.83 0 4.41-4.24 3.44-9.26s-4.18-9.27-7-9.27-4.41 4.25-3.44 9.27h-1.59c-1.17-6.09.9-10.85 4.73-10.85s7.73 4.76 8.91 10.85-.93 10.85-4.75 10.85M305 218.08l-.3-1.59c2.83 0 4.41-4.24 3.44-9.26s-4.18-9.27-7-9.27-4.41 4.25-3.44 9.27h-1.59c-1.17-6.09.9-10.85 4.73-10.85s7.73 4.76 8.9 10.85-.9 10.85-4.74 10.85" style="fill:#263238"/><path d="M202.69 256.69h-84.12l-4.63-23.99h84.12zM238.54 286.62h-24l-4.62-24h23.99zM313.6 317.34l-1.3-1.13a39.6 39.6 0 0 0-8.83-5.85l.83-2.45a43.2 43.2 0 0 1 8.34 5.29 54.8 54.8 0 0 1 17-16.21l1.79 2.44a52.6 52.6 0 0 0-17.06 16.71Z" style="fill:#cd5954"/><path d="M229.74 266.59h-2.17l-3.63 6.57-6.15-6.57h-2.17l7.52 8.03-4.43 8.02h2.18l3.62-6.56 6.15 6.56h2.18l-7.53-8.02z" style="fill:#fff"/><path d="m274.21 324.06 4 20.81h-20.8l-4-20.81h20.81m1.29-1.59h-24l4.63 24h24l-4.62-24Z" style="fill:#cd5954"/><path d="M214.23 316.54h-54.05l-4.63-23.99h54.05z" style="fill:#263238"/><path d="M177 302.12a3.69 3.69 0 0 1-3.72 4.61 5.85 5.85 0 0 1-5.5-4.61 3.7 3.7 0 0 1 3.72-4.61 5.86 5.86 0 0 1 5.5 4.61" style="fill:#fff"/><path d="M178.11 306.48a5.32 5.32 0 0 1-4.48 2.21 8 8 0 0 1-5.32-2.2 4.8 4.8 0 0 0-2.44 5.08h16.64a7.71 7.71 0 0 0-4.4-5.09M205.22 303.05h-18.4l-.51-2.65h18.4zM200.15 308.68h-12.24l-.51-2.65h12.24z" style="fill:#fff"/><path d="M296.76 234.94c4.74 0 11.45.69 16.52 4a8 8 0 0 1 3.71 5c.89 3.93-1.2 8.22-3.51 10.55-3.65 3.68-9.33 6-16 6.46-.76.06-1.54.09-2.31.09a37.5 37.5 0 0 1-13.7-2.72c-4.29-1.71-8.84-4-10.12-8.46a7.32 7.32 0 0 1 .79-6.2 9.4 9.4 0 0 1 2.93-2.86 38.8 38.8 0 0 1 18.36-5.75c1.11-.07 2.23-.11 3.33-.11m-.3-1.54c-1.19 0-2.34 0-3.42.12a40.16 40.16 0 0 0-19 5.94 10.65 10.65 0 0 0-3.29 3.22 8.73 8.73 0 0 0-.91 7.33c1.5 5.18 6.63 7.87 11.29 9.72a39 39 0 0 0 14.33 2.84c.81 0 1.61 0 2.41-.08 6.34-.46 12.66-2.62 16.82-6.82s6.81-13.11-.74-18c-5.09-3.29-11.75-4.27-17.5-4.27Z" style="fill:#263238"/><path d="m387.02 409.16 7.16-1.9-3.49-16.84-7.16 1.91z" style="fill:#b55b52"/><path d="m394.41 405.94-7.91 2.6a.53.53 0 0 0-.37.65l1.68 6.39a1.31 1.31 0 0 0 1.64.85c2.74-1 4-1.55 7.48-2.69 2.14-.71 7.32-2.3 10.27-3.27s1.92-3.86.58-3.72c-6 .66-9.51.13-12-.77a2.05 2.05 0 0 0-1.37-.04" style="fill:#263238"/><path d="m383.53 392.33 7.16-1.91 1.8 8.68-7.17 1.91z" style="opacity:.2"/><path d="M365.17 220.72s10 60.35 13 81.4c3.25 23.05 15.42 92.39 15.42 92.39l-12 4.54s-19.15-68.17-24.44-90.58c-5.75-24.33-18.41-87.75-18.41-87.75Z" style="fill:#263238"/><path d="M349.1 245.47c5.12 12.79 5.7 34.53 3.62 43.44-3.14-14.63-6.74-32.13-9.51-45.74.99-3.49 2.79-5.48 5.89 2.3" style="opacity:.30000000000000004"/><path d="m381.05 400.75 13.93-4.18-.4-5.7-16.58 4.85z" style="fill:#263238"/><path d="M397.31 406.35a9.5 9.5 0 0 1-2 .36.19.19 0 0 1-.17-.08.19.19 0 0 1 0-.19c.17-.23 1.72-2.25 2.69-2.2a.66.66 0 0 1 .53.34.94.94 0 0 1 .09 1 2 2 0 0 1-1.14.77m-1.59 0c1.35-.17 2.26-.51 2.48-.94a.64.64 0 0 0-.07-.63.32.32 0 0 0-.26-.17c-.52-.05-1.5.93-2.15 1.72Z" style="fill:#cd5954"/><path d="M395.39 406.7a.1.1 0 0 1-.08 0 .17.17 0 0 1-.13-.1c0-.09-.86-2.06-.38-3a.91.91 0 0 1 .62-.46.66.66 0 0 1 .76.31c.42.71-.15 2.53-.71 3.17-.03.06-.05.08-.08.08m0-3.17a.55.55 0 0 0-.3.26 3.84 3.84 0 0 0 .27 2.39 3.45 3.45 0 0 0 .5-2.53c-.05-.09-.14-.19-.39-.14Z" style="fill:#cd5954"/><path d="M363.65 158.59c.29.47.69 1.13 1.06 1.7l1.14 1.8c.79 1.19 1.57 2.38 2.4 3.55 1.63 2.33 3.35 4.59 5.13 6.74a60 60 0 0 0 5.62 5.93 30.2 30.2 0 0 0 6 4.36l-1.58-.45a16.3 16.3 0 0 0 4.71.27c.86-.08 1.74-.19 2.64-.35s1.81-.38 2.73-.63a48 48 0 0 0 5.57-1.89c.93-.38 1.86-.77 2.79-1.19s1.88-.89 2.69-1.27l.27-.13a3.25 3.25 0 0 1 4.33 1.52 3.28 3.28 0 0 1-.59 3.65 40.585 40.585 0 0 1-5.36 4.67 43.7 43.7 0 0 1-6.12 3.74 33.5 33.5 0 0 1-7.09 2.61 31 31 0 0 1-4 .65 25 25 0 0 1-4.25 0 4.2 4.2 0 0 1-1.17-.29l-.4-.17a38.4 38.4 0 0 1-9.17-5.61 60.6 60.6 0 0 1-7.33-7 85 85 0 0 1-6.14-7.64q-1.41-2-2.72-4c-.43-.69-.86-1.37-1.28-2.08s-.8-1.37-1.26-2.23a6.49 6.49 0 0 1 11.29-6.42Z" style="fill:#263238"/><path d="M369.81 176.88c-3.9-8-10.55-7.54-13.23-5.07l.76 1.11a85 85 0 0 0 5.86 7.4 66 66 0 0 0 6.92 6.77c.78.64 1.59 1.27 2.41 1.87a32 32 0 0 0-2.72-12.08" style="opacity:.30000000000000004"/><path d="m406.77 176 5-4.17 3 6.47s-7.45 5.33-9.16 3.45l-.2-2.41a3.93 3.93 0 0 1 1.36-3.34" style="fill:#b55b52"/><path d="m418.44 172.62 1.57 5-5.28.65-2.98-6.47zM324.38 408.92h7.41l.96-17.17h-7.41z" style="fill:#b55b52"/><path d="M332.18 408.06h-8.33a.53.53 0 0 0-.55.51l-.41 6.59a1.32 1.32 0 0 0 1.3 1.32c2.9-.05 4.29-.22 7.95-.22 2.25 0 8.46.23 11.57.23s3-3.08 1.71-3.36c-5.92-1.24-9.87-3-12-4.61a2 2 0 0 0-1.24-.46" style="fill:#263238"/><path d="M325.34 391.76h7.41l-.5 8.85h-7.41z" style="opacity:.2"/><path d="M350.69 220.72s-.64 64.41-1.84 85.64c-1.32 23.24-13.42 92.11-13.42 92.11h-13.58s5.92-67 5.1-90c-.89-25-1.43-87.75-1.43-87.75Z" style="fill:#263238"/><path d="M320.76 398.47h16.56l.81-5.15-18.07.8z" style="fill:#263238"/><path d="M334.8 409.35a9.5 9.5 0 0 1-2-.26.17.17 0 0 1-.06-.31c.24-.17 2.33-1.6 3.24-1.24a.64.64 0 0 1 .4.48 1 1 0 0 1-.21.94 2 2 0 0 1-1.37.39m-1.5-.51c1.33.26 2.31.22 2.65-.12a.62.62 0 0 0 .13-.62.3.3 0 0 0-.2-.24c-.48-.19-1.72.43-2.58.98" style="fill:#cd5954"/><path d="M332.87 409.09a.1.1 0 0 1-.08 0 .16.16 0 0 1-.09-.14c0-.09-.18-2.22.57-2.94a.89.89 0 0 1 .73-.24.67.67 0 0 1 .63.52c.17.81-.94 2.36-1.67 2.8a.15.15 0 0 1-.09 0m1-3a.53.53 0 0 0-.37.15 3.82 3.82 0 0 0-.49 2.35c.65-.54 1.38-1.72 1.27-2.25 0-.1-.08-.22-.33-.25Z" style="fill:#cd5954"/><path d="M362.05 160.49a7.21 7.21 0 0 0-5.47-5 45 45 0 0 0-5.55-.95 148 148 0 0 0-16.85 0c-2.94.14-5.94.5-8.33.85h-.09a4.73 4.73 0 0 0-4 5.5 233 233 0 0 1 3.69 30.11c.58 14.67-.21 26.19.07 29.73h39.65c2.41-35.81-.7-52.08-3.12-60.24" style="fill:#e6e6e6"/><path d="M335.3 153.88c3.12 12.66 6 44.74 5.95 69.82h-16.76c-.3-3.74.54-15.88-.07-31.35a248 248 0 0 0-3.85-31.69 5 5 0 0 1 4.18-5.8h.09c2.52-.37 5.68-.75 8.78-.9ZM364.09 160.67a8.39 8.39 0 0 0-6-5.67 75 75 0 0 0-8-.82c3.17 11 9.39 44.51 7.54 69.52h10.58c2.51-37.53-1.76-56.17-4.12-63.03" style="fill:#263238"/><path d="M425.89 195.34 347 229.1l-9.48-22.04 78.9-33.76z" style="fill:#cd5954"/><path d="M359.31 208.15a4.61 4.61 0 1 1-6.06-2.42 4.61 4.61 0 0 1 6.06 2.42" style="fill:#fff"/><path d="M361.3 212.05a6.56 6.56 0 0 1-9 3.86 6 6 0 0 0-1.14 6l15.3-6.54a6 6 0 0 0-5.16-3.32M414.67 185.48l-46.11 19.73-1.04-2.44 46.11-19.73zM411.24 193.07l-40.45 17.31-1.05-2.44 40.45-17.31z" style="fill:#fff"/><path d="M329.67 173.5c-.28-8.41-6.49-11.62-8.24-9.36a2.4 2.4 0 0 0-.21.29c1.09 6.48 2.42 15.4 3 24.19 2.95-1.7 5.71-7.13 5.45-15.12" style="opacity:.30000000000000004"/><path d="M350.23 154.52c-4.9-1.16-5.76-4.19-5.43-7.52a20 20 0 0 1 .39-2.48l-6.14-5.1-4.51-3.74c1.25 5.43 2.66 15.32-1 18.94 0 0 3 5 11.43 4.56 7.03-.39 5.26-4.66 5.26-4.66" style="fill:#b55b52"/><path d="M341.6 163.65a11.9 11.9 0 0 1 2.76-4.44 25.5 25.5 0 0 1-10-6.12l-2.57 1s.91 6.53 9.81 9.56" style="fill:#fff"/><path d="M348.46 162.53a12.4 12.4 0 0 0-4.1-3.32c2.47-.7 3.43-5.71 3.43-5.71l2.41.5s4.45 6.53-1.74 8.53" style="fill:#fff"/><path d="M345.19 144.52a20 20 0 0 0-.39 2.48c-2.29-.46-5.35-2.9-5.67-5.24a10.7 10.7 0 0 1-.08-2.34Z" style="opacity:.2"/><path d="M348.05 117.85c3.09-.56 6.69 2.68 5 9.26s-9.72-8.41-5-9.26" style="fill:#263238"/><path d="M332.68 127.87c1.57 7.21 2.12 11.5 6.38 14.79a9.59 9.59 0 0 0 15.51-6.91c.56-6.71-2.09-17.37-9.68-19.41a9.7 9.7 0 0 0-12.21 11.53" style="fill:#b55b52"/><path d="M335.58 135.68c1.06-2.5 2-9.46 1.14-12.35 3.45-.11 10.7-.75 13.72-4.11 4.64-5.16-1.48-11.26-9.18-6.4-5 3.13-15.79 2.51-14 6-5.26 5.79.65 12.33 8.32 16.86" style="fill:#263238"/><path d="M327.25 119.08a.25.25 0 0 1-.19-.09c-.64-.79-.84-1.45-.62-2 .53-1.32 3.28-1.68 6.45-2.08 3-.38 6.32-.81 7.38-2.16a.26.26 0 0 1 .35 0 .24.24 0 0 1 0 .35c-1.19 1.51-4.5 1.93-7.7 2.34-2.77.36-5.63.72-6 1.78-.15.38 0 .89.53 1.52a.25.25 0 0 1 0 .35.3.3 0 0 1-.2-.01" style="fill:#263238"/><path d="M331.57 133.69a6.92 6.92 0 0 0 3.68 2.85c1.93.58 2.59-1.2 1.81-3.08-.71-1.7-2.57-4.05-4.38-3.8s-2.2 2.34-1.11 4.03" style="fill:#b55b52"/><path d="M343 128.59c.09.59.48 1 .87 1s.62-.56.53-1.15-.48-1-.87-1-.62.56-.53 1.15M349.71 127.79c.09.59.48 1 .87 1s.63-.57.53-1.16-.48-1-.86-1-.63.57-.54 1.16" style="fill:#263238"/><path d="M348.68 128.34a22.5 22.5 0 0 0 3.62 4.72 3.4 3.4 0 0 1-2.76.86Z" style="fill:#a02724"/><path d="M347.36 135.81a5.12 5.12 0 0 1-3.73-1.54.17.17 0 1 1 .26-.23 5 5 0 0 0 4.12 1.38.17.17 0 0 1 .2.15.17.17 0 0 1-.15.19 6 6 0 0 1-.7.05M340.81 126.68a.4.4 0 0 1-.17-.05.35.35 0 0 1-.13-.48 3.36 3.36 0 0 1 2.62-1.77.35.35 0 0 1 .37.33.35.35 0 0 1-.33.37 2.66 2.66 0 0 0-2.05 1.42.35.35 0 0 1-.31.18M352.72 125.15a.34.34 0 0 1-.29-.16 2.94 2.94 0 0 0-2.22-1.34.35.35 0 1 1 0-.7 3.64 3.64 0 0 1 2.8 1.65.36.36 0 0 1-.1.49.35.35 0 0 1-.19.06M330.58 165.75c.05-.06 0 0 0 0l-.07.11-.17.28-.36.63c-.25.45-.49.91-.73 1.39-.46 1-.91 2-1.31 3a43.4 43.4 0 0 0-1.9 6.44 48.2 48.2 0 0 0-.81 13.77 18.5 18.5 0 0 0 .39 2.88 15.6 15.6 0 0 0 .95 2.79 32.8 32.8 0 0 0 3.39 5.82 82.7 82.7 0 0 0 9.76 11l.14.14a3.24 3.24 0 0 1-3.73 5.21 52.6 52.6 0 0 1-7.18-4.43 55 55 0 0 1-6.51-5.52 37.5 37.5 0 0 1-5.6-7.11 24.8 24.8 0 0 1-2.15-4.45 27 27 0 0 1-1.21-4.83 51 51 0 0 1-.8-8.77 49 49 0 0 1 .67-8.89 47 47 0 0 1 2.33-8.74 41 41 0 0 1 1.85-4.23c.36-.7.73-1.39 1.15-2.08.21-.35.43-.7.66-1.06l.37-.54.5-.69a6.5 6.5 0 0 1 10.37 7.83Z" style="fill:#263238"/><path d="m341.84 213.94 4.13-.22-4.79 8s-6.68-.85-6-4.26l.93-1a8.52 8.52 0 0 1 5.73-2.52M350.25 216.59l-3.6 8.5-5.47-3.34 4.79-8.03z" style="fill:#b55b52"/></svg>