<svg xmlns="http://www.w3.org/2000/svg" viewBox="0 0 500 500"><path d="M0 382.4h500v.25H0zM416.78 398.49h33.12v.25h-33.12zM260.33 395.36h12.89v.25h-12.89zM322.53 396.42h27.14v.25h-27.14zM359.67 389.21h56.11v.25h-56.11zM52.46 400.78h26.53v.25H52.46zM87.89 400.78h23v.25h-23zM131 395.24h60.81v.25H131zM237 337.8H43.91a5.71 5.71 0 0 1-5.7-5.71V60.66a5.71 5.71 0 0 1 5.7-5.66H237a5.71 5.71 0 0 1 5.71 5.71v271.38a5.71 5.71 0 0 1-5.71 5.71M43.91 55.2a5.46 5.46 0 0 0-5.45 5.46v271.43a5.46 5.46 0 0 0 5.45 5.46H237a5.47 5.47 0 0 0 5.46-5.46V60.66A5.47 5.47 0 0 0 237 55.2ZM453.31 337.8h-193.1a5.72 5.72 0 0 1-5.71-5.71V60.66a5.72 5.72 0 0 1 5.71-5.66h193.1a5.71 5.71 0 0 1 5.69 5.66v271.43a5.71 5.71 0 0 1-5.69 5.71M260.21 55.2a5.47 5.47 0 0 0-5.46 5.46v271.43a5.47 5.47 0 0 0 5.46 5.46h193.1a5.47 5.47 0 0 0 5.46-5.46V60.66a5.47 5.47 0 0 0-5.46-5.46Z" style="fill:#ebebeb"/><path d="M75.21 75.81h137.78v127.17H75.21z" style="fill:#e6e6e6" transform="rotate(180 144.1 139.395)"/><path d="M71.01 75.81h140.02v127.17H71.01z" style="fill:#f0f0f0" transform="rotate(180 141.015 139.395)"/><path d="M75.21 202.98h137.78v5.61H75.21z" style="fill:#e6e6e6" transform="rotate(180 144.1 205.785)"/><path d="M64 202.98h140.02v5.61H64z" style="fill:#f0f0f0" transform="rotate(180 134.01 205.785)"/><path d="M83.32 75.27h115.4v128.25H83.32z" style="fill:#fafafa" transform="rotate(90 141.015 139.395)"/><path d="M176.22 197.1 159.84 81.7h-25.56l16.38 115.4z" style="fill:#fff"/><path d="M202.42 191.24a.42.42 0 0 0 .42-.42V85.53a.43.43 0 1 0-.85 0v105.29a.42.42 0 0 0 .43.42" style="fill:#f0f0f0"/><path d="M145.17 197.1 128.79 81.7h-9.97l16.38 115.4z" style="fill:#fff"/><path d="M19.56 139.02h115.4v.75H19.56z" style="fill:#e6e6e6" transform="rotate(90 77.265 139.395)"/><path d="M69.61 90.57h137.78l.55-6.59H70.16z" style="fill:#ebebeb;opacity:.6000000000000001"/><path d="M69.61 94.28h137.78l.55-6.58H70.16z" style="fill:#ebebeb;opacity:.6000000000000001"/><path d="M69.61 98h137.78l.55-6.59H70.16z" style="fill:#ebebeb;opacity:.6000000000000001"/><path d="M69.61 101.72h137.78l.55-6.59H70.16z" style="fill:#ebebeb;opacity:.6000000000000001"/><path d="M69.61 105.43h137.78l.55-6.59H70.16z" style="fill:#ebebeb;opacity:.6000000000000001"/><path d="M69.61 109.15h137.78l.55-6.59H70.16z" style="fill:#ebebeb;opacity:.6000000000000001"/><path d="M402.3 216.61h29.04v161.24H402.3z" style="fill:#f0f0f0" transform="rotate(180 416.82 297.235)"/><path d="M282.56 377.86h143.2v4.54h-143.2z" style="fill:#f0f0f0" transform="rotate(180 354.16 380.125)"/><path d="M276.99 216.61H402.3v161.24H276.99z" style="fill:#f5f5f5"/><path d="M288.4 278.65h102.48v37.17H288.4zM288.4 324.11h102.48v37.17H288.4z" style="fill:#f0f0f0"/><rect width="28.67" height="6.23" x="325.31" y="277.4" rx="2.69" style="fill:#f5f5f5" transform="rotate(-180 339.645 280.515)"/><path d="M288.4 233.19h102.48v37.17H288.4z" style="fill:#f0f0f0"/><rect width="28.67" height="6.23" x="325.31" y="231.94" rx="2.69" style="fill:#f5f5f5" transform="rotate(180 339.645 235.06)"/><rect width="28.67" height="6.23" x="325.31" y="322.86" rx="2.69" style="fill:#f5f5f5" transform="rotate(180 339.645 325.975)"/><path d="M273.12 210.56H402.3v6.06H273.12z" style="fill:#f0f0f0" transform="rotate(180 337.71 213.585)"/><path d="M402.3 210.56h33.1v6.06h-33.1z" style="fill:#e6e6e6"/><path d="M125.25 229.22h13.01v148.05h-13.01z" style="fill:#f0f0f0" transform="rotate(180 131.755 303.25)"/><path d="M62.78 377.28h72.05v5.11H62.78z" style="fill:#f0f0f0" transform="rotate(180 98.8 379.83)"/><path d="M59.35 229.22h65.91v148.05H59.35z" style="fill:#f5f5f5"/><path d="M66.37 306.32h51.85v26.44H66.37zM66.37 340.92h51.85v26.44H66.37z" style="fill:#f0f0f0"/><rect width="17.65" height="3.63" x="83.47" y="317.72" rx="1.5" style="fill:#f5f5f5" transform="rotate(180 92.3 319.535)"/><rect width="17.65" height="3.63" x="83.47" y="352.32" rx="1.5" style="fill:#f5f5f5" transform="rotate(180 92.3 354.135)"/><path d="M66.37 237.39h51.85v26.44H66.37zM66.37 271.72h51.85v26.44H66.37z" style="fill:#f0f0f0"/><rect width="17.65" height="3.63" x="83.47" y="248.79" rx="1.5" style="fill:#f5f5f5" transform="rotate(180 92.3 250.605)"/><rect width="17.65" height="3.63" x="83.47" y="283.12" rx="1.5" style="fill:#f5f5f5" transform="rotate(-180 92.3 284.935)"/><path d="M197.38 229.22h21.52v148.05h-21.52z" style="fill:#f0f0f0" transform="rotate(180 208.135 303.25)"/><path d="M134.9 377.28h80v5.11h-80z" style="fill:#f0f0f0" transform="rotate(180 174.9 379.83)"/><path d="M131.47 229.22h65.91v148.05h-65.91z" style="fill:#f5f5f5"/><path d="M138.5 306.32h51.85v26.44H138.5zM138.5 340.92h51.85v26.44H138.5z" style="fill:#f0f0f0"/><rect width="17.65" height="3.63" x="155.6" y="317.72" rx="1.5" style="fill:#f5f5f5" transform="rotate(180 164.42 319.535)"/><rect width="17.65" height="3.63" x="155.6" y="352.32" rx="1.5" style="fill:#f5f5f5" transform="rotate(180 164.42 354.135)"/><path d="M138.5 237.39h51.85v26.44H138.5zM138.5 271.72h51.85v26.44H138.5z" style="fill:#f0f0f0"/><rect width="17.65" height="3.63" x="155.6" y="248.79" rx="1.5" style="fill:#f5f5f5" transform="rotate(180 164.42 250.605)"/><rect width="17.65" height="3.63" x="155.6" y="283.12" rx="1.5" style="fill:#f5f5f5" transform="rotate(-180 164.42 284.935)"/><path d="M384.43 155.31h21.98l-2.59-52.88h-19.39zM418.82 158.17l4.74 15.71h-4.74l-29.06-15.71z" style="fill:#f5f5f5"/><path d="M423.56 158.17v15.71l-29.06-15.71z" style="fill:#e6e6e6"/><path d="m304.86 158.17 4.74 15.71h-4.74l-29.06-15.71z" style="fill:#f5f5f5"/><path d="M309.6 158.17v15.71l-29.06-15.71zM404.7 155.39h27.28v3.39H404.7z" style="fill:#e6e6e6"/><path d="M269.07 155.39H404.7v3.39H269.07z" style="fill:#f5f5f5" transform="rotate(180 336.885 157.085)"/><path d="M352.15 155.31h47.17l5.84-64.08h-47.18z" style="fill:#e0e0e0"/><path d="M349.71 155.31h47.17l5.83-64.08h-47.17z" style="fill:#e6e6e6"/><path d="m392.92 148.22 5.33-49.9H359.5l-5.33 49.9z" style="fill:#f5f5f5"/><path d="M331.04 155.31h15.13l-1.79-36.41h-13.34z" style="fill:#e0e0e0"/><path d="M308.81 155.31h32.48l4.01-44.12h-32.48z" style="fill:#f0f0f0"/><path d="M307.12 155.31h32.49l4.01-44.12h-32.48z" style="fill:#f5f5f5"/><path d="m336.88 150.43 3.67-34.36h-26.68l-3.67 34.36z" style="fill:#ebebeb"/><ellipse cx="250" cy="416.24" rx="193.89" ry="11.32" style="fill:#f5f5f5"/><path d="m321.1 402.69-7.58-2.08 2.82-18.12 7.58 2.09zM377.05 407.73h-7.87l-1.96-18.21h7.87z" style="fill:#ffc3bd"/><path d="M368.54 406.82h9.58a.69.69 0 0 1 .67.54l1.56 7a1.16 1.16 0 0 1-1.16 1.4c-3.08-.05-5.33-.24-9.22-.24-2.39 0-9.59.25-12.89.25s-3.74-3.26-2.39-3.56c6.06-1.32 10.63-3.15 12.57-4.89a1.9 1.9 0 0 1 1.28-.5M313.81 399.74l8.28 2.28a.69.69 0 0 1 .5.7l-.36 7.15a1.14 1.14 0 0 1-1.46 1.05c-3-.88-7.24-2.24-11-3.27-4.39-1.21-8.25-2-13.39-3.44-3.11-.86-3.11-4.24-1.73-4.17 6.29.34 11.17 1.54 17.16-.21a3.65 3.65 0 0 1 2-.09" style="fill:#263238"/><path d="m316.34 382.5-1.46 9.33 7.59 2.09 1.45-9.33zM375.09 389.53h-7.87l1.02 9.39h7.86z" style="opacity:.2"/><path d="m283.06 158.56-.68-7.54-7.38 3.59s1.94 6.69 5.6 6Z" style="fill:#ffc3bd"/><path d="m280.72 147.47-8.32 1.72 2.62 5.42 7.36-3.59z" style="fill:#ffc3bd"/><path d="M331.49 159.7a73.3 73.3 0 0 0-11.32 5.66c-.77.38-1.54.76-2.32 1.12-1.9.86-3.83 1.65-5.77 2.33a35.9 35.9 0 0 1-11.33 2.31c-.42 0-.85 0-1.25-.05h-.42a2 2 0 0 1-.31-.06 7.6 7.6 0 0 1-1.91-.64 21.7 21.7 0 0 1-4.65-3.25 66 66 0 0 1-8.62-9.47l-5.13 2.93a68.4 68.4 0 0 0 7.35 12.42 31.7 31.7 0 0 0 5.5 5.73 15.5 15.5 0 0 0 4.13 2.4 13 13 0 0 0 1.32.4l.71.16.55.09c.71.13 1.42.21 2.12.28a46.4 46.4 0 0 0 15.4-1.68c2.08-.54 4.1-1.17 6.09-1.86 2.14-.45 19.74-4.35 22.75-10.66 3.89-8.17-3.53-11.5-12.89-8.16" style="fill:#263238"/><path d="M328.16 176.83a68 68 0 0 0 7.28-2.54l.6-6.44s-4.7 1.92-7.88 8.98" style="opacity:.2"/><path d="M378 160.84a1.8 1.8 0 0 1 1.29 2.2 180 180 0 0 0-4.53 24.13c-.74 6.09-1.19 11.9-1.46 17.18-.66 12.36-.39 21.78-.75 25-6.15-.42-29.32-2-42-2.92-5.71-44.73 5.2-67.77 5.2-67.77a82 82 0 0 1 10-1.25c.71 0 1.43-.07 2.17-.08a155 155 0 0 1 17.84 1.24c1.12.13 2.25.3 3.36.48 3.62.55 6.88 1.31 8.88 1.79" style="fill:#263238"/><path d="M372.33 169a23.93 23.93 0 0 0 2.76 15.39c.5-3.71 1.12-7.5 1.88-11.33Z" style="opacity:.2"/><path d="M365.44 138.33c-1.53 5.67-3 15.78-.08 20.31-3.15 2.82-6.9 2.11-10.11 1.61-3.91-.61-4.43-1.5-3.19-3.33.77-.84.91-1.7 1.64-3.66a12.5 12.5 0 0 0 .14-6.34Z" style="fill:#ffc3bd"/><path d="M351.8 154.5c.51 2.57-2.67 3.94-1.74 5.06s9.22 3.94 12.87 2.61 3.26-1.66 3-4.88 1.8-5.32-.86-4.46c-1.36.44-8.42-.72-10.45-.72s-3.23.33-2.82 2.39" style="fill:#263238"/><path d="m360.71 141.84-6.87 5.07a17.8 17.8 0 0 1 .33 3.21c2.47-.18 6-2.63 6.46-5.17a8.7 8.7 0 0 0 .08-3.11" style="opacity:.2"/><path d="M350.25 119.44c-1.75.81-4.58 4.59-2.25 7.09s4.72-8.22 2.25-7.09" style="fill:#263238"/><path d="M367.74 130.08c-1.29 7.7-1.66 12.27-6 15.84-6.51 5.36-15.7.8-16.74-7.13-.93-7.13 1.34-18.52 9.25-20.8a10.64 10.64 0 0 1 13.49 12.09" style="fill:#ffc3bd"/><path d="M365.44 135.6c-2.88-1.83-3-3.95-2.13-5.85 2.77-6.42 2-9.67-2.92-9.08s-11.93 1.16-11.06-1.09 7.05-3.2 12.3-2.58 10.88 4.7 9.76 11.12c-1.08 6.14-2.39 7.88-5.95 7.48" style="fill:#263238"/><path d="M370.5 137.35a7.45 7.45 0 0 1-4.49 3.46c-2.52.66-3.73-1.6-3-4 .66-2.11 2.77-5 5.28-4.63s3.39 3.07 2.21 5.17" style="fill:#ffc3bd"/><path d="m312.53 389.3 12.83 3.53s10.11-50.67 10.74-75.16c.19-7.45 3.41-16.26 5.87-27.32 3.12-13.93 7-29 10.22-40.8 3.38-12.43 5.95-21.22 5.95-21.22l-27.58-1.93s-14.24 65.41-15.95 89.35c-1.79 24.89-2.08 73.55-2.08 73.55" style="fill:#cd5954"/><path d="m312.53 389.3 12.83 3.53s10.11-50.67 10.74-75.16c.19-7.45 3.41-16.26 5.87-27.32 3.12-13.93 7-29 10.22-40.8 3.38-12.43 5.95-21.22 5.95-21.22l-27.58-1.93s-14.24 65.41-15.95 89.35c-1.79 24.89-2.08 73.55-2.08 73.55" style="opacity:.4"/><path d="M342 290.35c3.12-13.93 7-29 10.22-40.8l-2.86-6.17c-6.87 8.13-8.71 33.3-7.36 46.97" style="opacity:.2"/><path d="M345.44 227.44s2 62.56 5.28 85.36c3.64 25 13.88 84.3 13.88 84.3H379s-.77-56.5-5.28-80.69c-5.14-27.54-1.21-87.08-1.21-87.08Z" style="fill:#cd5954"/><path d="M345.44 227.44s2 62.56 5.28 85.36c3.64 25 13.88 84.3 13.88 84.3H379s-.77-56.5-5.28-80.69c-5.14-27.54-1.21-87.08-1.21-87.08Z" style="opacity:.4"/><path d="M362.88 397.41h16.96v-5.07l-18.96-.33zM310.83 389.15l15.3 4.22 1.36-4.94-17.03-4.97zM356.77 130.51c-.06.63-.45 1.11-.86 1.07s-.7-.59-.63-1.22.45-1.11.87-1.07.69.59.62 1.22M348.86 130.26c-.06.63-.45 1.11-.87 1.06s-.69-.59-.62-1.22.45-1.1.87-1.06.69.59.62 1.22" style="fill:#263238"/><path d="M356.21 135a5 5 0 1 1 4.63-5 4.84 4.84 0 0 1-4.63 5m0-9.55a4.54 4.54 0 1 0 4.12 4.52 4.33 4.33 0 0 0-4.12-4.49Z" style="fill:#fff"/><path d="M346 135a5 5 0 1 1 4.63-5 4.84 4.84 0 0 1-4.63 5m0-9.55a4.54 4.54 0 1 0 4.1 4.55 4.33 4.33 0 0 0-4.1-4.52Z" style="fill:#fff"/><path d="M350.72 130.67a22.8 22.8 0 0 1-3.11 5.37 3.64 3.64 0 0 0 3 .62Z" style="fill:#ed847e"/><path d="M358.65 128.58a.36.36 0 0 1-.36-.13 3 3 0 0 0-2.42-1.2.37.37 0 1 1-.06-.74 3.7 3.7 0 0 1 3.06 1.47.38.38 0 0 1-.06.53.5.5 0 0 1-.16.07M352.9 140a5.75 5.75 0 0 0 4.72-2.35.2.2 0 0 0-.34-.22 5.43 5.43 0 0 1-4.38 2.17.2.2 0 1 0 0 .4M344.5 128.61a.46.46 0 0 1-.23-.06.38.38 0 0 1-.12-.51 3.7 3.7 0 0 1 2.89-1.81.38.38 0 0 1 .38.37.39.39 0 0 1-.37.38 2.91 2.91 0 0 0-2.26 1.45.39.39 0 0 1-.29.18" style="fill:#263238"/><path d="M365.94 408.2a2.4 2.4 0 0 1-1.52-.4 1.12 1.12 0 0 1-.38-1 .57.57 0 0 1 .31-.52c.88-.45 3.41 1.11 3.7 1.29a.18.18 0 0 1 .08.18.18.18 0 0 1-.14.16 9.3 9.3 0 0 1-2.05.29m-1.17-1.63a.43.43 0 0 0-.24.05c-.06 0-.11.07-.12.22a.75.75 0 0 0 .25.67 3.8 3.8 0 0 0 2.79.14 7.6 7.6 0 0 0-2.68-1.08" style="fill:#cd5954"/><path d="M368 407.92h-.09c-.81-.44-2.39-2.17-2.22-3a.61.61 0 0 1 .59-.49 1 1 0 0 1 .8.24c.91.74 1.1 3 1.1 3.11a.17.17 0 0 1-.08.17.2.2 0 0 1-.1-.03m-1.59-3.19h-.08c-.24 0-.27.14-.27.19-.1.51.9 1.82 1.71 2.43a4.4 4.4 0 0 0-.93-2.46.67.67 0 0 0-.48-.16ZM312.79 400.58c-1.29-.09-3.54-.39-4.17-1.36a1 1 0 0 1-.09-1 .58.58 0 0 1 .42-.4c1.06-.24 3.69 2.13 4 2.4a.18.18 0 0 1-.1.32Zm-3.74-2.36H309a.22.22 0 0 0-.16.17.67.67 0 0 0 .05.63c.36.54 1.58 1 3.33 1.14-1.05-.91-2.55-2.01-3.17-1.94" style="fill:#cd5954"/><path d="M312.79 400.58a.18.18 0 0 1-.14 0c-.8-.66-2.17-2.8-1.79-3.62.09-.19.3-.4.81-.32a1.4 1.4 0 0 1 .91.59c.74 1.05.38 3.15.37 3.24a.17.17 0 0 1-.12.14Zm-1.4-3.62c-.15 0-.18.09-.19.12-.23.49.65 2.11 1.43 2.93a4.34 4.34 0 0 0-.36-2.61 1 1 0 0 0-.67-.43.8.8 0 0 0-.21.03Z" style="fill:#cd5954"/><path d="m375.79 223.12-8 .8 4.77 7.57s6.48-2.55 5.51-6.13Z" style="fill:#ffc3bd"/><path d="m362.53 227.9 4.92 6.7 5.15-3.11-4.77-7.57z" style="fill:#ffc3bd"/><path d="M394.5 188.76c-.72-2-1.54-4-2.41-5.89-.65-2.09-6.15-19.25-12.72-21.67-8.47-3.12-11.1 4.58-6.91 13.59a73 73 0 0 0 6.68 10.75c.45.73.9 1.46 1.32 2.2 1 1.82 2 3.67 2.86 5.54a35.8 35.8 0 0 1 3.35 11.06c0 .43.06.85.06 1.26v.29a.6.6 0 0 0 0 .13 2 2 0 0 1 0 .31 7.5 7.5 0 0 1-.46 2 22 22 0 0 1-2.8 4.93 65.7 65.7 0 0 1-8.65 9.46l3.4 4.84a68.2 68.2 0 0 0 11.69-8.47 32 32 0 0 0 5.21-6 15.6 15.6 0 0 0 2-4.34 11 11 0 0 0 .28-1.35l.09-.72v-.56c.06-.72.07-1.43.08-2.13a46.4 46.4 0 0 0-3.07-15.23" style="fill:#263238"/><path d="M86.07 251.57h166.09a8.38 8.38 0 0 0 8.29-8l3.72-105.92a7.7 7.7 0 0 0-7.72-8H90.35a8.37 8.37 0 0 0-8.29 8l-3.72 105.91a7.71 7.71 0 0 0 7.73 8.01" style="fill:#cd5954"/><path d="M86.07 251.57h166.09a8.38 8.38 0 0 0 8.29-8l3.72-105.92a7.7 7.7 0 0 0-7.72-8H90.35a8.37 8.37 0 0 0-8.29 8l-3.72 105.91a7.71 7.71 0 0 0 7.73 8.01" style="opacity:.4"/><path d="M87.65 251.57h166.1a8.39 8.39 0 0 0 8.29-8l3.72-105.92a7.7 7.7 0 0 0-7.73-8H91.93a8.37 8.37 0 0 0-8.28 8l-3.72 105.91a7.7 7.7 0 0 0 7.72 8.01" style="fill:#cd5954"/><path d="M252.16 244.9a3.31 3.31 0 0 0 3.27-3.16L259 139.46a3 3 0 0 0-3-3.16H93.52a3.32 3.32 0 0 0-3.27 3.16l-3.59 102.28a3 3 0 0 0 3 3.16Z" style="fill:#fff;opacity:.9"/><path d="M203.14 217.22a40.67 40.67 0 0 0 8.76-23.14 37.37 37.37 0 0 0-6.48-23.08v-.12a3 3 0 0 0-.26-.33A36.92 36.92 0 0 0 174.77 155a41.22 41.22 0 0 0-31.93 15.54c-.08.09-.16.17-.23.26a1 1 0 0 1-.05.1 40.66 40.66 0 0 0-8.77 23.15 37.33 37.33 0 0 0 6.49 23.16.4.4 0 0 0 0 .09l.09.11a36.92 36.92 0 0 0 30.51 15.7 41.22 41.22 0 0 0 31.89-15.5 4 4 0 0 0 .26-.31 1 1 0 0 0 .11-.08m-32 11.27c-5.59 0-10.3-6.53-12.69-16.16A68.2 68.2 0 0 1 172 211a66.4 66.4 0 0 1 13.42 1.34c-3.34 9.66-8.69 16.15-14.27 16.15Zm1.09-22.15a73.2 73.2 0 0 0-14.7 1.46 65 65 0 0 1-.78-11.39h31.95a69 69 0 0 1-1.9 11.39 71.3 71.3 0 0 0-14.56-1.46Zm-33.83-9.93h13.7a69.5 69.5 0 0 0 .84 12.51 47 47 0 0 0-9.81 4 32.7 32.7 0 0 1-4.72-16.51Zm6.6-21.16a42.2 42.2 0 0 0 9.42 4 72.5 72.5 0 0 0-2.07 12.52h-13.7a35.8 35.8 0 0 1 6.35-16.52m29.55-15.57c5.59 0 10.29 6.53 12.69 16.16a69 69 0 0 1-13.56 1.33 67 67 0 0 1-13.42-1.33c3.34-9.63 8.74-16.16 14.28-16.16Zm-1.09 22.14a73.4 73.4 0 0 0 14.7-1.46 66 66 0 0 1 .78 11.4H157a68 68 0 0 1 1.9-11.4 71 71 0 0 0 14.55 1.46Zm33.83 9.94h-13.7a70.5 70.5 0 0 0-.84-12.52 47.4 47.4 0 0 0 9.81-4 32.8 32.8 0 0 1 4.72 16.52Zm-13.93 4.65h13.7a35.9 35.9 0 0 1-6.36 16.5 42.4 42.4 0 0 0-9.42-4 71.6 71.6 0 0 0 2.07-12.5Zm6.55-24.89a42.6 42.6 0 0 1-8.09 3.19 37.1 37.1 0 0 0-5.66-13 32.3 32.3 0 0 1 13.74 9.81Zm-37.18-9.79a42 42 0 0 0-6.94 13 39.2 39.2 0 0 1-7.77-3.19 37 37 0 0 1 14.7-9.81Zm-16.93 54.92a43.5 43.5 0 0 1 8.08-3.2 37.2 37.2 0 0 0 5.66 13 32.3 32.3 0 0 1-13.75-9.8Zm37.2 9.78a41.6 41.6 0 0 0 6.94-13 39 39 0 0 1 7.77 3.2 36.9 36.9 0 0 1-14.71 9.8" style="fill:#cd5954;opacity:.30000000000000004"/><path d="m123.47 136.3-14.44 108.6h19.22l14.44-108.6zM149.25 136.3l-14.44 108.6h7.88l14.45-108.6z" style="fill:#fff;opacity:.6000000000000001"/><path d="M173.63 133.15a1.18 1.18 0 0 0 1.19 1.23 1.28 1.28 0 0 0 1.27-1.23 1.18 1.18 0 0 0-1.19-1.23 1.28 1.28 0 0 0-1.27 1.23" style="fill:#fff;opacity:.30000000000000004"/><path d="M278.11 362.12H112a10.69 10.69 0 0 1-9.84-8l-21.26-92.9c-1-4.4 1.77-8 6.17-8h166.1a10.7 10.7 0 0 1 9.84 8l21.26 92.9c1.02 4.4-1.76 8-6.16 8" style="fill:#cd5954"/><path d="M278.11 362.12H112a10.69 10.69 0 0 1-9.84-8l-21.26-92.9c-1-4.4 1.77-8 6.17-8h166.1a10.7 10.7 0 0 1 9.84 8l21.26 92.9c1.02 4.4-1.76 8-6.16 8" style="opacity:.4"/><path d="M279.7 362.12H113.6a10.68 10.68 0 0 1-9.84-8L82.5 261.21c-1-4.4 1.77-8 6.17-8h166.1a10.7 10.7 0 0 1 9.84 8l21.26 92.9c1.01 4.41-1.77 8.01-6.17 8.01" style="fill:#cd5954"/><path d="M104.81 315.75a4.21 4.21 0 0 1-3.88-3.16L89.59 263a2.44 2.44 0 0 1 2.41-3.12h162.47a4.2 4.2 0 0 1 3.88 3.16l11.35 49.55a2.45 2.45 0 0 1-2.44 3.16ZM171.75 354.73a2.47 2.47 0 0 1-2.27-1.84L162.87 324a1.43 1.43 0 0 1 1.42-1.84h46.42A2.46 2.46 0 0 1 213 324l6.62 28.89a1.43 1.43 0 0 1-1.42 1.84Z" style="opacity:.2"/><path d="m284.23 289.9 5-131.77a6.14 6.14 0 0 0-6.1-6.4l-84-.71a6.61 6.61 0 0 0-6.6 6.3l-5 131.76a6.14 6.14 0 0 0 6.1 6.41l84 .71a6.62 6.62 0 0 0 6.6-6.3" style="fill:#cd5954"/><path d="m284.23 289.9 5-131.77a6.14 6.14 0 0 0-6.1-6.4l-84-.71a6.61 6.61 0 0 0-6.6 6.3l-5 131.76a6.14 6.14 0 0 0 6.1 6.41l84 .71a6.62 6.62 0 0 0 6.6-6.3" style="opacity:.4"/><path d="m286.08 289.9 5.05-131.77a6.15 6.15 0 0 0-6.11-6.4L201 151a6.61 6.61 0 0 0-6.6 6.3l-5 131.76a6.14 6.14 0 0 0 6.1 6.41l84 .71a6.61 6.61 0 0 0 6.58-6.28" style="fill:#cd5954"/><path d="M285.78 159.53a2.42 2.42 0 0 0-2.41-2.52l-81.11-.69a2.61 2.61 0 0 0-2.6 2.49l-4.94 128.87a2.43 2.43 0 0 0 2.41 2.53l81.11.68a2.6 2.6 0 0 0 2.6-2.48Z" style="fill:#fff;opacity:.9"/><path d="M270.41 246.25a37.8 37.8 0 0 0 8.13-21.49 34.72 34.72 0 0 0-6-21.48v-.1a1.5 1.5 0 0 0-.25-.31 34.25 34.25 0 0 0-28.16-14.37 38.3 38.3 0 0 0-29.65 14.43 3 3 0 0 0-.21.25l-.05.09a37.62 37.62 0 0 0-8.22 21.49 34.62 34.62 0 0 0 6 21.5.4.4 0 0 1 0 .09l.09.1a34.26 34.26 0 0 0 28.4 14.55 38.25 38.25 0 0 0 29.61-14.39 3 3 0 0 0 .25-.28Zm-29.71 10.46c-5.18 0-9.55-6.07-11.78-15a64 64 0 0 1 12.58-1.24 62.3 62.3 0 0 1 12.5 1.23c-3.14 8.94-8.11 15.01-13.3 15.01m1-20.56a68 68 0 0 0-13.65 1.35 60.7 60.7 0 0 1-.73-10.58H257a63.6 63.6 0 0 1-1.77 10.58 66 66 0 0 0-13.51-1.35Zm-31.41-9.23H223a63.5 63.5 0 0 0 .78 11.62 43.8 43.8 0 0 0-9.11 3.7 30.4 30.4 0 0 1-4.36-15.32Zm6.11-19.64a39 39 0 0 0 8.75 3.7 66.7 66.7 0 0 0-1.93 11.63h-12.7a33.2 33.2 0 0 1 5.9-15.33Zm27.43-14.46c5.19 0 9.56 6.06 11.79 15a63.4 63.4 0 0 1-12.59 1.24 61.4 61.4 0 0 1-12.46-1.24c3.13-8.94 8.09-15 13.28-15Zm-1 20.56a67.5 67.5 0 0 0 13.66-1.38 61 61 0 0 1 .72 10.59h-29.65a63 63 0 0 1 1.76-10.59 65.6 65.6 0 0 0 13.52 1.38Zm31.41 9.23h-12.71a65.5 65.5 0 0 0-.78-11.63 43.2 43.2 0 0 0 9.11-3.7 30.46 30.46 0 0 1 4.39 15.33Zm-12.93 4.31H274a33.36 33.36 0 0 1-5.9 15.32 39.7 39.7 0 0 0-8.75-3.7 67.6 67.6 0 0 0 1.97-11.62Zm6.08-23.11a40 40 0 0 1-7.51 3 34.4 34.4 0 0 0-5.25-12.05 30 30 0 0 1 12.77 9.05Zm-34.52-9.08a38.6 38.6 0 0 0-6.44 12.05 35.6 35.6 0 0 1-7.21-3 34.3 34.3 0 0 1 13.66-9.05Zm-15.72 51a39.7 39.7 0 0 1 7.5-3 34.6 34.6 0 0 0 5.26 12.05 29.94 29.94 0 0 1-12.75-9.06Zm34.52 9.08a38.9 38.9 0 0 0 6.44-12.05 36.4 36.4 0 0 1 7.21 3 34.2 34.2 0 0 1-13.64 9.04Z" style="fill:#cd5954;opacity:.30000000000000004"/><path d="m219.79 156.47-14.41 133.81 19.2.16 14.41-133.81zM245.54 156.69 231.13 290.5l7.88.06 14.41-133.81z" style="fill:#fff;opacity:.6000000000000001"/><path d="M241.12 154.74a1 1 0 0 0 1-1 .94.94 0 0 0-.94-1 1 1 0 0 0-1 1 .94.94 0 0 0 .94 1" style="fill:#fff;opacity:.30000000000000004"/><path d="m309.55 325.22 5.05-103.42a6.15 6.15 0 0 0-6.1-6.41l-48.57-.7a6.61 6.61 0 0 0-6.6 6.29l-5 103.43a6.14 6.14 0 0 0 6.1 6.4l48.57.71a6.61 6.61 0 0 0 6.55-6.3" style="fill:#cd5954"/><path d="m309.55 325.22 5.05-103.42a6.15 6.15 0 0 0-6.1-6.41l-48.57-.7a6.61 6.61 0 0 0-6.6 6.29l-5 103.43a6.14 6.14 0 0 0 6.1 6.4l48.57.71a6.61 6.61 0 0 0 6.55-6.3" style="opacity:.4"/><path d="m311.41 325.22 5-103.42a6.14 6.14 0 0 0-6.1-6.41l-48.57-.7a6.6 6.6 0 0 0-6.59 6.29l-5.05 103.43a6.14 6.14 0 0 0 6.1 6.4l48.57.71a6.62 6.62 0 0 0 6.64-6.3" style="fill:#cd5954"/><path d="M311.11 223.2a2.44 2.44 0 0 0-2.41-2.53L263 220a2.61 2.61 0 0 0-2.6 2.49L255.48 323a2.43 2.43 0 0 0 2.41 2.53l45.68.68a2.6 2.6 0 0 0 2.6-2.48Z" style="fill:#fff;opacity:.9"/><path d="M300.56 287a23.2 23.2 0 0 0 5-13.19 21.34 21.34 0 0 0-3.69-13.19s0 0 0-.06a1.3 1.3 0 0 0-.14-.19 21.06 21.06 0 0 0-17.3-8.82 23.47 23.47 0 0 0-18.19 8.86l-.14.15v.06a23.13 23.13 0 0 0-5 13.19 21.22 21.22 0 0 0 3.69 13.2v.05l.05.06A21 21 0 0 0 282.2 296a23.48 23.48 0 0 0 18.17-8.83 1.4 1.4 0 0 0 .16-.18Zm-18.23 6.42c-3.19 0-5.87-3.72-7.23-9.21a39.3 39.3 0 0 1 7.72-.76 38.2 38.2 0 0 1 7.65.76c-1.91 5.44-4.96 9.16-8.14 9.16Zm.62-12.62a42 42 0 0 0-8.38.83 37.5 37.5 0 0 1-.44-6.49h18.2a38 38 0 0 1-1.08 6.49 40.7 40.7 0 0 0-8.25-.88Zm-19.28-5.66h7.81a39.6 39.6 0 0 0 .48 7.13 26.8 26.8 0 0 0-5.6 2.27 18.7 18.7 0 0 1-2.69-9.45Zm3.75-12.14a24.4 24.4 0 0 0 5.37 2.27 41 41 0 0 0-1.18 7.14h-7.81a20.4 20.4 0 0 1 3.62-9.41m16.84-8.88c3.19 0 5.87 3.72 7.24 9.21a38.8 38.8 0 0 1-7.73.76 37.5 37.5 0 0 1-7.65-.76c1.88-5.46 4.96-9.18 8.14-9.18Zm-.62 12.62a42 42 0 0 0 8.38-.83 37.5 37.5 0 0 1 .44 6.5h-18.2a39 39 0 0 1 1.08-6.5 40.7 40.7 0 0 0 8.3.86Zm19.28 5.67h-7.81a40 40 0 0 0-.48-7.14 26.8 26.8 0 0 0 5.6-2.27 18.7 18.7 0 0 1 2.69 9.44Zm-7.92 2.68h7.81a20.4 20.4 0 0 1-3.62 9.4 24.4 24.4 0 0 0-5.37-2.27 41 41 0 0 0 1.18-7.13m3.74-14.19a24.5 24.5 0 0 1-4.61 1.82 21.1 21.1 0 0 0-3.23-7.4 18.4 18.4 0 0 1 7.82 5.58Zm-21.19-5.58a23.8 23.8 0 0 0-4 7.4 22 22 0 0 1-4.43-1.82 21.06 21.06 0 0 1 8.41-5.58Zm-9.65 31.3a24.8 24.8 0 0 1 4.6-1.82 21.3 21.3 0 0 0 3.23 7.4 18.3 18.3 0 0 1-7.85-5.58Zm21.18 5.58a23.8 23.8 0 0 0 4-7.4 22.5 22.5 0 0 1 4.43 1.82 21.06 21.06 0 0 1-8.45 5.58Z" style="fill:#cd5954;opacity:.30000000000000004"/><path d="M271.46 220.12 260.2 325.56l15.06.23 11.36-105.45zM291.79 220.42l-11.36 105.45 6.22.09 11.36-105.45z" style="fill:#fff;opacity:.6000000000000001"/><path d="M266.37 218.56a1 1 0 0 0 1-1 1 1 0 0 0-.94-1 1 1 0 0 0-1 1 1 1 0 0 0 .94 1" style="fill:#fff;opacity:.30000000000000004"/></svg>