<svg xmlns="http://www.w3.org/2000/svg" width="900" height="600"><path fill="#d26a65" d="M1072.277 438.415c43.4 23.8 70 80 77.7 137.5 7.7 57.5-3.6 116.3-36.5 152.6s-87.4 50.1-133.7 51.9c-46.2 1.7-84.1-8.6-128.1-17.9-43.9-9.4-93.7-17.7-134.4-49.9-40.7-32.1-72.2-88.2-69.4-144 2.9-55.9 40.1-111.5 89.3-134.3 49.2-22.9 110.5-12.8 171.2-12.1 60.6.8 120.6-7.7 163.9 16.2M130.2-184.877c24.6 35.2 23.5 86.5 39.2 140.1 15.7 53.6 48.1 109.5 38.8 155.8-9.4 46.3-60.5 83.1-118.4 106.5-58 23.4-122.8 33.4-170.8 10.3-48-23-79.4-79.2-100.7-132.9-21.3-53.8-32.6-105.2-26.5-155.9 6.1-50.7 29.6-100.7 68-133.4 38.4-32.8 91.7-48.2 143.6-46.4 51.9 1.8 102.2 20.8 126.8 55.9M1004.067-134.359c49.3 16.8 115.6 37.8 127.7 73.2 12.1 35.4-30.1 85.2-68 125.1-37.9 39.8-71.5 69.7-114.8 95.1-43.4 25.4-96.4 46.4-133.5 30.1-37.2-16.2-58.6-69.7-86.2-118.9-27.7-49.2-61.7-94.2-63.1-141.5-1.4-47.4 29.9-97.1 72.7-115.1 42.9-17.9 97.3-4.1 140.6 9.2 43.2 13.3 75.4 26 124.6 42.8"/></svg>