<svg id="visual" viewBox="0 0 600 900" width="600" height="900" xmlns="http://www.w3.org/2000/svg"
     xmlns:xlink="http://www.w3.org/1999/xlink" version="1.1">
  <g transform="translate(627.8325741408008 939.8267004731888)">
    <path
      d="M97.1 -131.6C129.9 -88.2 163.4 -61.5 181.7 -22.5C200 16.5 203.1 67.8 182.7 107.7C162.3 147.6 118.4 176.2 75.2 180.8C31.9 185.4 -10.7 166 -64 155.5C-117.3 144.9 -181.2 143.2 -216.3 111C-251.4 78.8 -257.6 16.1 -248.9 -45.7C-240.2 -107.6 -216.5 -168.7 -172.5 -210.1C-128.6 -251.5 -64.3 -273.3 -16.1 -254.1C32.1 -235 64.3 -174.9 97.1 -131.6"
      fill="#d26a65"></path>
  </g>
  <g transform="translate(-6.147825960941759 13.515286802679157)">
    <path
      d="M122.1 -155.5C161.5 -112.5 198.9 -77.1 205.4 -36.8C211.8 3.5 187.3 48.8 161.7 93.6C136.1 138.5 109.5 182.9 67.2 208.8C25 234.6 -32.8 241.8 -84.7 225.9C-136.6 210 -182.6 171 -192.1 125.2C-201.7 79.3 -174.7 26.6 -165.7 -30.1C-156.8 -86.8 -165.8 -147.6 -141.2 -193.3C-116.6 -238.9 -58.3 -269.5 -8.5 -259.4C41.4 -249.3 82.7 -198.6 122.1 -155.5"
      fill="#d26a65"></path>
  </g>
  <g transform="translate(617.2038868521942 -17.100860909158882)">
    <path
      d="M134.9 -147.3C177.3 -125.2 215.7 -85 218.2 -42.6C220.8 -0.2 187.5 44.4 161.2 96C134.9 147.7 115.7 206.3 81.4 215C47.2 223.6 -2.1 182.3 -46.9 154.7C-91.7 127.1 -132 113.3 -172.7 81.1C-213.4 49 -254.4 -1.6 -252.7 -50.3C-251 -99.1 -206.5 -146.1 -157.2 -166.9C-108 -187.7 -54 -182.3 -3.9 -177.8C46.3 -173.2 92.6 -169.3 134.9 -147.3"
      fill="#d26a65"></path>
  </g>
</svg>
