<svg id="visual" viewBox="0 0 900 600" width="900" height="600" xmlns="http://www.w3.org/2000/svg"
     xmlns:xlink="http://www.w3.org/1999/xlink" version="1.1">
  <g transform="translate(908.9769870729687 620.5153922552746)">
    <path
      d="M163.3 -182.1C206.7 -158.3 233.3 -102.1 241 -44.6C248.7 12.9 237.4 71.7 204.5 108C171.6 144.3 117.1 158.1 70.8 159.9C24.6 161.6 -13.3 151.3 -57.3 142C-101.2 132.6 -151 124.3 -191.7 92.1C-232.4 60 -263.9 3.9 -261.1 -51.9C-258.2 -107.8 -221 -163.4 -171.8 -186.2C-122.6 -209.1 -61.3 -199 -0.6 -198.3C60 -197.5 120 -206 163.3 -182.1"
      fill="#d26a65"></path>
  </g>
  <g transform="translate(4.899143501961163 -20.976546835785555)">
    <path
      d="M125.3 -163.9C149.9 -128.7 148.8 -77.4 164.5 -23.8C180.2 29.8 212.6 85.7 203.3 132C193.9 178.3 142.8 215.1 84.9 238.5C26.9 261.9 -37.9 271.9 -85.9 248.8C-133.9 225.8 -165.3 169.6 -186.6 115.9C-207.9 62.1 -219.2 10.7 -213.1 -40C-207 -90.7 -183.5 -140.7 -145.1 -173.4C-106.7 -206.2 -53.4 -221.6 -1.5 -219.8C50.4 -218 100.7 -199 125.3 -163.9"
      fill="#d26a65"></path>
  </g>
  <g transform="translate(890.5667701066848 -23.558673120793628)">
    <path
      d="M113.5 -110.8C162.8 -94 229.1 -73 241.2 -37.6C253.3 -2.2 211.1 47.6 173.2 87.5C135.3 127.3 101.7 157.2 58.4 182.6C15 208 -38 229 -75.1 212.7C-112.3 196.5 -133.7 143 -161.3 93.8C-189 44.6 -223 -0.4 -224.4 -47.7C-225.8 -95.1 -194.5 -144.8 -151.7 -162.8C-108.8 -180.7 -54.4 -166.9 -11.1 -153.6C32.1 -140.3 64.3 -127.6 113.5 -110.8"
      fill="#d26a65"></path>
  </g>
</svg>
