<svg xmlns="http://www.w3.org/2000/svg" width="64" height="61" fill="none"><path fill="#CD5954" d="M13.446 33.038a2.4 2.4 0 0 1 .445-1.39c.29-.411.704-.732 1.188-.922a2.8 2.8 0 0 1 1.532-.145c.515.095.988.332 1.359.681l12.21 11.43c.248.233.542.418.866.543a2.8 2.8 0 0 0 2.04-.012c.322-.129.614-.316.86-.552L46.023 31.1c.245-.235.537-.423.86-.552a2.8 2.8 0 0 1 2.039-.011c.324.125.618.309.866.542a2.43 2.43 0 0 1 .781 1.758 2.43 2.43 0 0 1-.76 1.767L37.703 46.149c-1.483 1.413-3.5 2.214-5.609 2.226s-4.134-.765-5.634-2.161L14.225 34.809a2.5 2.5 0 0 1-.577-.812 2.4 2.4 0 0 1-.202-.959"/><path fill="#CD5954" d="M13.345 15.539a2.4 2.4 0 0 1 .445-1.39c.291-.412.705-.733 1.19-.923a2.8 2.8 0 0 1 1.531-.145c.515.096.987.333 1.359.682l14.102 13.144 13.951-13.305c.246-.236.538-.424.86-.552a2.8 2.8 0 0 1 2.04-.012c.324.125.618.31.866.542a2.43 2.43 0 0 1 .781 1.758c.004.66-.27 1.296-.761 1.767L33.885 32.196a2.7 2.7 0 0 1-.86.552 2.8 2.8 0 0 1-2.039.012 2.7 2.7 0 0 1-.866-.542L14.124 17.309a2.5 2.5 0 0 1-.576-.812 2.4 2.4 0 0 1-.203-.958"/></svg>