<svg xmlns="http://www.w3.org/2000/svg" viewBox="0 0 500 500"><path d="M451.2 100.8c-24-42.58-74.12-64.4-124.17-67.31-55.48-3.23-106 14.31-143 52.9-14.65 15.3-27.88 31.81-44.13 45.73-27.95 23.94-63 43.56-87.4 70.64-30.85 34.24-35.09 88.06.2 120.9 12.24 11.39 27.4 19.72 43 26.66 38.45 17.06 80.48 26.3 122.74 31.35 47.64 5.7 97.32 6 142.25-9.75 99.15-34.79 125.6-148.64 104-236.54a136.6 136.6 0 0 0-13.49-34.58" style="fill:#cd5954"/><path d="M451.2 100.8c-24-42.58-74.12-64.4-124.17-67.31-55.48-3.23-106 14.31-143 52.9-14.65 15.3-27.88 31.81-44.13 45.73-27.95 23.94-63 43.56-87.4 70.64-30.85 34.24-35.09 88.06.2 120.9 12.24 11.39 27.4 19.72 43 26.66 38.45 17.06 80.48 26.3 122.74 31.35 47.64 5.7 97.32 6 142.25-9.75 99.15-34.79 125.6-148.64 104-236.54a136.6 136.6 0 0 0-13.49-34.58" style="fill:#fff;opacity:.7000000000000001"/><ellipse cx="63.85" cy="410.45" rx="29.47" ry="8.21" style="fill:#263238"/><path d="M56.29 411.07h14.44A17.37 17.37 0 0 0 88 395.26L92.37 347H34.65L39 395.26a17.37 17.37 0 0 0 17.29 15.81" style="fill:#fff;stroke:#263238;stroke-linecap:round;stroke-linejoin:round;stroke-width:.9663184813154366px"/><path d="M56.29 411.07h14.44A17.37 17.37 0 0 0 88 395.26L92.37 347H34.65L39 395.26a17.37 17.37 0 0 0 17.29 15.81" style="fill:#fff;stroke:#263238;stroke-linecap:round;stroke-linejoin:round;stroke-width:.9663184813154366px"/><path d="m39 395.26-.23-2.55 26.55 4.83L43 404.81a17.27 17.27 0 0 1-4-9.55M88.02 395.28l-26.31-11.27 28.86-17.03zM68.92 365.97l-31.42 12.7-2.42-26.87z" style="fill:#263238;stroke:#263238;stroke-linecap:round;stroke-linejoin:round;stroke-width:.9663184813154366px"/><path d="M35.33 347c0 2.14 12.59 3.88 28.11 3.88s28.12-1.74 28.12-3.88-12.56-3.84-28.12-3.84-28.11 1.73-28.11 3.84" style="fill:#fff;stroke:#263238;stroke-linecap:round;stroke-linejoin:round;stroke-width:.9663184813154366px"/><path d="M63.44 350.92c-10.93 0-20.39-.86-25-2.12 2.74-1.75 14-3.06 27.47-3.06 10.93 0 20.4.87 25 2.12-2.73 1.75-13.99 3.06-27.47 3.06" style="fill:#263238;stroke:#263238;stroke-linecap:round;stroke-linejoin:round;stroke-width:.9663184813154366px"/><path d="M93 294.6a1 1 0 0 0-1.32-.36l-19.56 11.34 10.15-20.1a1 1 0 1 0-1.73-.87l-9.09 18C72 286.33 70 267.18 69 257.05c-.35-3.45-.6-5.94-.6-6.77a1 1 0 1 0-1.93 0c0 .93.24 3.33.61 7 1.09 10.84 3.24 32.07 2.3 48.82L51.67 285a1 1 0 0 0-1.48 1.25l18.86 22.4v.05h.07A59.8 59.8 0 0 1 67 321.62L53 308a1 1 0 0 0-1.35 1.39l14.68 14.2a64 64 0 0 0-2.33 8.1h-.06l-17.24-9.2a1 1 0 0 0-.91 1.71l17.68 9.43h.12a58.3 58.3 0 0 0-.95 13.37 1 1 0 0 0 1 .92 1 1 0 0 0 .92-1A56 56 0 0 1 65.67 333l15.16-7.58a1 1 0 0 0 .44-1.3 1 1 0 0 0-1.3-.43l-13.76 6.88a61 61 0 0 1 2.13-6.86c1.5-4 2.37-9.34 2.81-15.34l21.52-12.45a1 1 0 0 0 .33-1.32" style="fill:#263238"/><path d="M69.22 279s10.83-9.48 12.19-18.28-3.39-14.89-2-19 5.41-10.82 2-16.24-20.31-18.26-20.31-18.26A32.1 32.1 0 0 1 57 219.4c-3.38 5.41-1.35 12.18 0 16.92s-7.44 10.15-2.7 16.92 4.73 7.44 4.73 12.86 2.75 11.5 10.19 12.9M57.72 293.17s2-5.42-1.35-10.15-6.77-2-8.12-7.45-3.39-8.8-6.77-11.5-3.39-2-6.09-4.06-3.39-4.74-6.09-6.77-8.8-2.71-8.8-2.71 2 5.42 2 8.8-2.71 8.8 1.35 12.86 7.45 2.71 10.15 7.44 6.8 12.86 23.72 13.54M59.07 314.15s.68-8.8-7.44-12.18-9.48-12.86-18.27-14.89-15.57 0-16.25 5.41a119 119 0 0 0-.67 12.18s4.06-6.76 8.12-6.09 6.77 0 11.5 7.45 16.25 12.18 23.01 8.12M55.69 329c-2-.68-6.09-13.54-18.27-14.89S9 318.21 9 318.21s7.45 4.06 18.28 9.47S55.69 329 55.69 329M70.58 328.36S76 315.5 84.79 312.79s11.51 1.36 16.24 4.74 8.12 5.42 8.12 5.42-5.41-2-10.82 3.38-12.86 6.77-19.63 6.09-8.12-4.06-8.12-4.06M83.44 299.94s0-3.39 4.06-10.83 4.74-14.89 12.86-16.25 8.79-2 13.53-5.41 16.24 2.71 19 5.41a35 35 0 0 1 4.06 4.74s-8.8-.67-12.18 3.39-10.83 7.44-14.21 8.79-6.77-1.35-10.15 4.06-6.14 7.45-16.97 6.1" style="fill:#cd5954"/><path d="M78 290.46s-6.09-10.15-3.38-15.56 8.12-7.45 7.44-10.83-3.38-7.45 0-12.18 6.09-2.71 10.16-5.42a124 124 0 0 0 10.15-8.12s1.35 14.21 0 21S97 266.77 97 272.19s-2.7 8.8-6.09 12.86S78 290.46 78 290.46" style="fill:#cd5954"/><path d="m28.88 261.6-3.24-3.54M57.72 293.17l-24.2-26.49" style="fill:none;stroke:#263238;stroke-miterlimit:10;stroke-width:.9663184813154366px"/><path d="M65.78 220.36a33 33 0 0 0-1.13-4M69.22 279s.55-31.91-2.22-51.75" style="fill:none;stroke:#263238;stroke-linecap:round;stroke-linejoin:round;stroke-width:.9663184813154366px"/><path d="m97.18 251.29 2.12-4.33M78.02 290.46l16.12-32.96M120.46 274a19 19 0 0 1 2.38-.16h4.71M83.44 299.94c1.06.16 7.11-7.91 17.54-16a61.5 61.5 0 0 1 12.58-7.86M18.65 296.32a8.4 8.4 0 0 0-1.42 4.12M59.07 314.15s-5.85-.93-16.28-11.7c-9.69-10-17.63-11.29-21.41-9M96.32 319c1.62.27 3.07.67 4.32 1M70.58 328.36s2.15 1 10.55-5.39a19.6 19.6 0 0 1 9.7-4.18M18.92 318.77c-2.91 0-4.71.16-4.71.16M55.69 329s-1.13-1.36-14.24-6.41a62 62 0 0 0-17.8-3.69" style="fill:none;stroke:#263238;stroke-miterlimit:10;stroke-width:.9663184813154366px"/><path d="M470.05 316h-11.66v-3.18a.35.35 0 0 0-.35-.35h-12.73a.35.35 0 0 0-.35.35V316h-3.66a.73.73 0 0 0-.73.72v17.91h30.2v-17.89a.72.72 0 0 0-.72-.74ZM470.05 343.62h-11.66v-3.18a.35.35 0 0 0-.35-.35h-12.73a.35.35 0 0 0-.35.35v3.18h-3.66a.73.73 0 0 0-.73.72v17.91h30.2v-17.91a.72.72 0 0 0-.72-.72ZM470.05 371.21h-11.66V368a.35.35 0 0 0-.35-.35h-12.73a.35.35 0 0 0-.35.35v3.17h-3.66a.73.73 0 0 0-.73.73v17.91h30.2v-17.87a.73.73 0 0 0-.72-.73ZM414.59 79.2l-4.19-.29a25.7 25.7 0 0 0-.41-4.23l4.06-1.09a1.19 1.19 0 0 0 .85-1.46l-.51-1.89a1.2 1.2 0 0 0-1.46-.85l-4.05 1.09a26 26 0 0 0-1.77-3.86l3.48-2.35a1.19 1.19 0 0 0 .32-1.66L409.82 61a1.2 1.2 0 0 0-1.66-.32L404.67 63a26.5 26.5 0 0 0-2.92-3.08l2.53-3.35a1.2 1.2 0 0 0-.23-1.68l-1.57-1.18a1.19 1.19 0 0 0-1.67.24l-2.53 3.35a27 27 0 0 0-3.76-2l1.29-4a1.19 1.19 0 0 0-.77-1.51l-1.86-.61a1.2 1.2 0 0 0-1.51.77l-1.29 4a24.4 24.4 0 0 0-3.75-.59v-4.15a1.19 1.19 0 0 0-1.2-1.19h-1.95a1.19 1.19 0 0 0-1.2 1.19v4.21a26.4 26.4 0 0 0-4.19.69l-1.36-4a1.21 1.21 0 0 0-1.52-.74l-1.86.64a1.2 1.2 0 0 0-.74 1.52l1.37 4a26 26 0 0 0-3.73 2l-2.59-3.31A1.19 1.19 0 0 0 366 54l-1.54 1.21a1.2 1.2 0 0 0-.21 1.68l2.59 3.31a26 26 0 0 0-2.84 3.17l-3.53-2.29a1.19 1.19 0 0 0-1.65.35l-1.07 1.64a1.2 1.2 0 0 0 .35 1.66l3.48 2.27a25 25 0 0 0-1.69 3.9l-4.07-1a1.19 1.19 0 0 0-1.45.87l-.48 1.9a1.2 1.2 0 0 0 .87 1.45l4.08 1a26 26 0 0 0-.34 4.14s0 .06 0 .09l-4.19.36a1.21 1.21 0 0 0-1.09 1.3l.17 2a1.2 1.2 0 0 0 1.3 1.09l4.19-.37A24.3 24.3 0 0 0 360 87.8l-3.84 1.71a1.2 1.2 0 0 0-.61 1.58l.8 1.79a1.2 1.2 0 0 0 1.58.61l3.83-1.71a27 27 0 0 0 2.35 3.53L361 98.18a1.19 1.19 0 0 0-.06 1.69l1.33 1.43a1.2 1.2 0 0 0 1.7.06L367 98.5a25 25 0 0 0 3.37 2.58l-2 3.71a1.2 1.2 0 0 0 .5 1.62l1.73.92a1.18 1.18 0 0 0 1.61-.5l2-3.7a26.5 26.5 0 0 0 4 1.34l-.66 4.15a1.21 1.21 0 0 0 1 1.37l1.93.31a1.2 1.2 0 0 0 1.37-1l.66-4.15c.63 0 1.26.07 1.9.07.79 0 1.57 0 2.34-.11l.73 4.14a1.2 1.2 0 0 0 1.39 1l1.93-.34a1.19 1.19 0 0 0 1-1.38l-.73-4.13a26 26 0 0 0 4-1.43l2 3.68a1.2 1.2 0 0 0 1.63.46l1.71-1a1.19 1.19 0 0 0 .47-1.62l-2-3.67a26.3 26.3 0 0 0 3.31-2.65l3.13 2.81a1.18 1.18 0 0 0 1.69-.09l1.31-1.45a1.2 1.2 0 0 0-.09-1.69l-3.1-2.75a27 27 0 0 0 2.28-3.58l3.86 1.58a1.2 1.2 0 0 0 1.57-.63l.77-1.81A1.2 1.2 0 0 0 413 89l-3.86-1.64a25 25 0 0 0 1-4.12l4.19.29a1.2 1.2 0 0 0 1.28-1.11l.13-2a1.19 1.19 0 0 0-1.15-1.22Zm-30.13 14.64A14.57 14.57 0 1 1 399 79.27a14.57 14.57 0 0 1-14.54 14.57ZM452.25 100.33l-2.75-.2a18 18 0 0 0-.27-2.76l2.66-.72a.79.79 0 0 0 .56-1l-.34-1.24a.79.79 0 0 0-1-.55l-2.65.71a17.6 17.6 0 0 0-1.16-2.53l2.28-1.54a.79.79 0 0 0 .22-1.09l-.72-1.06a.78.78 0 0 0-1.09-.21l-2.29 1.54a16.6 16.6 0 0 0-1.91-2l1.66-2.2a.78.78 0 0 0-.16-1.1l-1-.77a.79.79 0 0 0-1.1.15L441.55 86a18 18 0 0 0-2.46-1.29l.85-2.61a.79.79 0 0 0-.51-1l-1.22-.39a.77.77 0 0 0-1 .5l-.86 2.62a16 16 0 0 0-2.45-.39v-2.76a.78.78 0 0 0-.78-.79h-1.29a.78.78 0 0 0-.78.79v2.75a18 18 0 0 0-2.75.45l-.89-2.6a.78.78 0 0 0-1-.48l-1.21.42a.78.78 0 0 0-.49 1l.9 2.6a18 18 0 0 0-2.45 1.33L421.49 84a.78.78 0 0 0-1.1-.13l-1 .79a.78.78 0 0 0-.14 1.1l1.7 2.17a17.4 17.4 0 0 0-1.88 2l-2.31-1.5a.79.79 0 0 0-1.09.23l-.7 1.08a.78.78 0 0 0 .24 1.08l2.3 1.5a19 19 0 0 0-1.11 2.55l-2.67-.66a.78.78 0 0 0-1 .57l-.27 1.22a.78.78 0 0 0 .54 1l2.67.67a17.3 17.3 0 0 0-.21 2.72v.05l-2.75.24a.78.78 0 0 0-.71.85l.11 1.28a.78.78 0 0 0 .85.71l2.75-.24a17 17 0 0 0 .69 2.7l-2.51 1.12a.77.77 0 0 0-.4 1l.52 1.17a.78.78 0 0 0 1 .4l2.51-1.12a17 17 0 0 0 1.54 2.32l-2 1.88a.8.8 0 0 0 0 1.11l.88.94a.79.79 0 0 0 1.11 0l2-1.87a18 18 0 0 0 2.21 1.69L422 117.1a.78.78 0 0 0 .32 1.06l1.13.6a.78.78 0 0 0 1.06-.32l1.3-2.43a15.6 15.6 0 0 0 2.63.88l-.43 2.72a.8.8 0 0 0 .66.9l1.26.2a.79.79 0 0 0 .9-.65l.43-2.73h1.24c.41 0 1 0 1.54-.07l.48 2.71a.78.78 0 0 0 .91.64l1.26-.22a.79.79 0 0 0 .64-.91l-.48-2.71a16.6 16.6 0 0 0 2.62-.93l1.34 2.41a.77.77 0 0 0 1.06.3L443 118a.79.79 0 0 0 .3-1.07l-1.33-2.4a16.5 16.5 0 0 0 2.17-1.74l2.05 1.85a.79.79 0 0 0 1.11-.06l.86-1a.79.79 0 0 0-.06-1.11l-2-1.84a18 18 0 0 0 1.5-2.35l2.53 1.08a.79.79 0 0 0 1-.42l.5-1.18a.79.79 0 0 0-.41-1l-2.54-1.07a16.5 16.5 0 0 0 .65-2.71l2.75.19a.78.78 0 0 0 .83-.73l.09-1.28a.77.77 0 0 0-.75-.83Zm-19.76 9.59a9.55 9.55 0 1 1 9.55-9.54 9.54 9.54 0 0 1-9.55 9.54ZM168.16 71.85H87.3a3 3 0 0 1-3-3 3 3 0 0 1 3-3h80.86a3 3 0 0 1 3 3 3 3 0 0 1-3 3Z" style="fill:none;stroke:#b2b2b2;stroke-miterlimit:10;stroke-width:.973653256893158px"/><circle cx="158.01" cy="68.85" r="3.05" style="fill:none;stroke:#b2b2b2;stroke-miterlimit:10;stroke-width:.973653256893158px"/><path d="M168.16 61.47H87.3a3 3 0 0 1-3-3 3 3 0 0 1 3-3h80.86a3 3 0 0 1 3 3 3 3 0 0 1-3 3Z" style="fill:none;stroke:#b2b2b2;stroke-miterlimit:10;stroke-width:.973653256893158px"/><circle cx="120.16" cy="58.48" r="3.05" style="fill:none;stroke:#b2b2b2;stroke-miterlimit:10;stroke-width:.973653256893158px"/><path d="M425.18 415.44c0 7.3-74.29 13.21-165.93 13.21s-165.93-5.91-165.93-13.21 74.29-13.2 165.93-13.2 165.93 5.91 165.93 13.2" style="fill:#263238"/><path d="M92.53 106.48H429.7v194.47H92.53z" style="fill:#cd5954;stroke:#263238;stroke-miterlimit:10;stroke-width:.9663184813154366px"/><path d="M103.77 226.72h108.7v45.94h-108.7z" style="fill:#fff"/><path d="M103.77 224.13h108.7v7.76h-108.7z" style="fill:#263238"/><path d="M108.52 228.07a1.22 1.22 0 1 1-1.21-1.21 1.21 1.21 0 0 1 1.21 1.21M114 228.07a1.22 1.22 0 1 1-1.22-1.21 1.22 1.22 0 0 1 1.22 1.21" style="fill:#cd5954"/><circle cx="118.22" cy="228.07" r="1.21" style="fill:#cd5954"/><path d="M116.71 237.6H140v9.71h-23.29z" style="fill:#cd5954"/><path d="M109.59 244.4h37.53v19.41h-37.53z" style="fill:#525252"/><path d="M116.71 244.4H140v6.47h-23.29z" style="fill:#757575"/><path d="M116.71 254.1H140v9.71h-23.29z" style="fill:#263238"/><path d="M116.71 259.6H140v9.71h-23.29z" style="fill:#cd5954"/><path d="M154.24 253.45h23.94v8.41h-23.94z" style="fill:#ccc"/><path d="M182.06 253.45H206v8.41h-23.94z" style="fill:#cd5954"/><path d="M155.5 240.59c1.05 0 1.46.66 1.46 1.66v.75c0 1.08-.49 1.62-1.57 1.62h-.85v2.8h-.44v-6.81Zm-.11 3.6c.78 0 1.13-.35 1.13-1.18v-.79c0-.74-.26-1.22-1-1.22h-1v3.19ZM159.05 240.59c1 0 1.46.58 1.46 1.54v.59a1.49 1.49 0 0 0 0 2.8v1.06a1.5 1.5 0 0 0 .17.82h-.47a1.6 1.6 0 0 1-.15-.82v-1.07c0-.9-.49-1.16-1.27-1.16h-.71v3.05h-.45v-6.81Zm-.25 3.41c.8 0 1.26-.23 1.26-1.14v-.64c0-.73-.28-1.17-1-1.17h-1V244ZM161.83 240.59v6.81h-.44v-6.81ZM163 247.4h-.41v-6.81h.58l2.05 5.75v-5.75h.4v6.81h-.49l-2.13-6.07ZM167.56 247.4V241h-1.38v-.41h3.22v.41H168v6.4ZM172.25 243.74v.41h-1.85V247h2.23v.41H170v-6.81h2.68v.4h-2.28v2.74ZM174.78 240.59c1 0 1.46.58 1.46 1.54v.59a1.49 1.49 0 0 0 0 2.8v1.06a1.5 1.5 0 0 0 .17.82h-.47a1.6 1.6 0 0 1-.15-.82v-1.07c0-.9-.49-1.16-1.27-1.16h-.71v3.05h-.45v-6.81Zm-.25 3.36c.8 0 1.26-.23 1.26-1.14v-.64c0-.73-.28-1.17-1-1.17h-1v3ZM237.72 117.7h140.1v87.04h-140.1z" style="fill:#263238"/><path d="M237.72 117.7h140.1v80.81h-140.1z" style="fill:#fff"/><path d="M237.72 117.7h32.75v80.81h-32.75z" style="fill:#ccc"/><path d="M237.72 115.9h140.1v22.67h-140.1z" style="fill:#263238"/><path d="M244.74 120.19a1.35 1.35 0 1 1-1.35-1.35 1.35 1.35 0 0 1 1.35 1.35" style="fill:#cd5954"/><circle cx="249.46" cy="120.19" r="1.35" style="fill:#cd5954"/><circle cx="255.52" cy="120.19" r="1.35" style="fill:#cd5954"/><path d="M369.81 130.9h-29.42a3.9 3.9 0 0 1-3.9-3.9 3.91 3.91 0 0 1 3.9-3.9h29.42a3.91 3.91 0 0 1 3.9 3.9 3.9 3.9 0 0 1-3.9 3.9Z" style="fill:#fff;stroke:#263238;stroke-miterlimit:10;stroke-width:.9663184813154366px"/><path d="M320.29 123.7h8.4v6h-8.4zM303.56 123.7h8.4v6h-8.4zM241.05 123.7h8.4v6h-8.4zM250.06 123.7h8.4v6h-8.4z" style="fill:#696969;stroke:#263238;stroke-miterlimit:10;stroke-width:.9663184813154366px"/><path d="M276.41 147.09H289a.77.77 0 0 1 .77.77v7.93h-14.13v-7.93a.77.77 0 0 1 .77-.77" style="fill:#ccc"/><rect width="6.27" height="3.26" x="277.69" y="145.44" rx=".38" style="fill:#ccc"/><path d="M306.57 147.09h12.56a.77.77 0 0 1 .77.77v7.93h-14.1v-7.93a.77.77 0 0 1 .77-.77" style="fill:#ccc"/><rect width="6.27" height="3.26" x="307.85" y="145.44" rx=".38" style="fill:#ccc"/><path d="M336.73 147.09h12.56a.77.77 0 0 1 .77.77v7.93H336v-7.93a.77.77 0 0 1 .73-.77" style="fill:#ccc"/><rect width="6.27" height="3.26" x="338.01" y="145.44" rx=".38" style="fill:#ccc"/><path d="M276.41 166.9H289a.77.77 0 0 1 .77.77v7.93h-14.13v-7.93a.77.77 0 0 1 .77-.77" style="fill:#ccc"/><rect width="6.27" height="3.26" x="277.69" y="165.25" rx=".38" style="fill:#ccc"/><path d="M306.57 166.9h12.56a.77.77 0 0 1 .77.77v7.93h-14.1v-7.93a.77.77 0 0 1 .77-.77" style="fill:#ccc"/><rect width="6.27" height="3.26" x="307.85" y="165.25" rx=".38" style="fill:#ccc"/><path d="M369.13 201.88h-24.76a.68.68 0 0 1-.68-.67.68.68 0 0 1 .68-.68h24.76a.68.68 0 0 1 .68.68.68.68 0 0 1-.68.67" style="fill:#c4c4c4"/><path d="M349.82 201.19a.89.89 0 1 1-.88-.88.88.88 0 0 1 .88.88M274.73 226.22h138.13v66.62H274.73z" style="fill:#263238"/><path d="M274.73 226.22h138.13v60.48H274.73z" style="fill:#fff"/><path d="M274.73 224.45h138.13v22.35H274.73z" style="fill:#263238"/><path d="M281.66 228.68a1.33 1.33 0 1 1-1.33-1.33 1.34 1.34 0 0 1 1.33 1.33M287.64 228.68a1.33 1.33 0 1 1-1.33-1.33 1.34 1.34 0 0 1 1.33 1.33M293.62 228.68a1.33 1.33 0 1 1-1.33-1.33 1.34 1.34 0 0 1 1.33 1.33" style="fill:#cd5954"/><rect width="36.69" height="7.69" x="372.12" y="231.55" rx="3.58" style="fill:#fff;stroke:#263238;stroke-miterlimit:10;stroke-width:.9663184813154366px"/><path d="M278.02 232.14h8.29v5.92h-8.29zM286.9 232.14h8.29v5.92h-8.29zM296.67 232.14h15.56v5.92h-15.56z" style="fill:#696969;stroke:#263238;stroke-miterlimit:10;stroke-width:.9663184813154366px"/><path d="M311.23 281.19h-12l2.45-3.6v-3.28h7.1v3.4z" style="fill:#969696"/><path d="M287.81 248.88h34.83v27.98h-34.83z" style="fill:#ccc"/><path d="M287.81 248.88h34.83v23h-34.83z" style="fill:#263238"/><path d="M289.89 251.36h30.68v18.03h-30.68z" style="fill:#cd5954"/><rect width="67.47" height="2.66" x="336.1" y="259.23" rx="1.24" style="fill:#969696"/><circle cx="392.03" cy="260.57" r="3.55" style="fill:#ccc"/><path d="M103.77 115.19h97.24v100.84h-97.24z" style="fill:#263238"/><path d="M103.77 115.19h97.24v8.07h-97.24z" style="fill:#fff"/><path d="M112.71 130.06h-2.83a.7.7 0 1 1 0-1.4h2.83a.7.7 0 1 1 0 1.4m.71 2.55a.7.7 0 0 0-.71-.7h-2.83a.7.7 0 1 0 0 1.4h2.83a.7.7 0 0 0 .71-.7m0 3.24a.71.71 0 0 0-.71-.7h-2.83a.71.71 0 1 0 0 1.41h2.83a.71.71 0 0 0 .71-.71m0 3.25a.7.7 0 0 0-.71-.7h-2.83a.7.7 0 1 0 0 1.4h2.83a.7.7 0 0 0 .71-.7m0 3.25a.71.71 0 0 0-.71-.71h-2.83a.71.71 0 1 0 0 1.41h2.83a.71.71 0 0 0 .71-.7m0 3.24a.7.7 0 0 0-.71-.7h-2.83a.7.7 0 1 0 0 1.4h2.83a.7.7 0 0 0 .71-.7m0 3.25a.7.7 0 0 0-.71-.7h-2.83a.7.7 0 1 0 0 1.4h2.83a.71.71 0 0 0 .71-.7m0 3.24a.7.7 0 0 0-.71-.7h-2.83a.7.7 0 1 0 0 1.4h2.83a.7.7 0 0 0 .71-.7M124 129.36a.7.7 0 0 0-.7-.7h-7.46a.7.7 0 0 0 0 1.4h7.46a.7.7 0 0 0 .7-.7m0 3.25a.7.7 0 0 0-.7-.7h-7.46a.7.7 0 1 0 0 1.4h7.46a.7.7 0 0 0 .7-.7m0 3.24a.7.7 0 0 0-.7-.7h-7.46a.71.71 0 0 0 0 1.41h7.46a.7.7 0 0 0 .7-.71m0 3.25a.7.7 0 0 0-.7-.7h-7.46a.7.7 0 1 0 0 1.4h7.46a.7.7 0 0 0 .7-.7m0 3.25a.7.7 0 0 0-.7-.71h-7.46a.71.71 0 0 0 0 1.41h7.46a.7.7 0 0 0 .7-.7m8.92 3.24a.7.7 0 0 0-.7-.7h-7.45a.7.7 0 0 0 0 1.4h7.45a.7.7 0 0 0 .78-.7Zm0 3.25a.7.7 0 0 0-.7-.7h-7.45a.7.7 0 0 0 0 1.4h7.45a.7.7 0 0 0 .78-.7Zm0 3.24a.7.7 0 0 0-.7-.7h-7.45a.7.7 0 0 0 0 1.4h7.45a.7.7 0 0 0 .78-.7Zm-5.64-22.72a.81.81 0 1 0-.81.82.81.81 0 0 0 .85-.82Zm2.43 0a.81.81 0 1 0-.81.82.81.81 0 0 0 .85-.82Zm2.44 0a.82.82 0 1 0-.81.82.82.82 0 0 0 .85-.82Zm2.43 0a.81.81 0 1 0-.81.82.81.81 0 0 0 .85-.82Zm2.43 0a.81.81 0 0 0-1.62 0 .81.81 0 1 0 1.62 0m2.44 0a.81.81 0 1 0-.81.82.81.81 0 0 0 .85-.82Zm-12.17 6.49a.81.81 0 1 0-.81.82.81.81 0 0 0 .85-.82Zm2.43 0a.81.81 0 1 0-.81.82.81.81 0 0 0 .85-.82Zm2.44 0a.82.82 0 1 0-.81.82.82.82 0 0 0 .85-.82Zm2.43 0a.81.81 0 1 0-.81.82.81.81 0 0 0 .85-.82Zm2.43 0a.81.81 0 0 0-1.62 0 .81.81 0 1 0 1.62 0m2.44 0a.81.81 0 1 0-.81.82.81.81 0 0 0 .85-.82Zm-3.86 9.34a.81.81 0 1 0-.81.81.82.82 0 0 0 .85-.81Zm2.44 0a.81.81 0 1 0-.81.81.82.82 0 0 0 .85-.81Zm2.43 0a.81.81 0 1 0-.81.81.82.82 0 0 0 .85-.81Zm2.44 0a.82.82 0 1 0-.81.81.82.82 0 0 0 .85-.81Zm2.43 0a.81.81 0 1 0-.81.81.82.82 0 0 0 .85-.81Zm2.43 0a.81.81 0 1 0-.81.81.82.82 0 0 0 .85-.81Zm-12.17 6.69a.81.81 0 1 0-.81.81.81.81 0 0 0 .85-.81Zm2.44 0a.81.81 0 1 0-.81.81.81.81 0 0 0 .85-.81Zm2.43 0a.81.81 0 1 0-.81.81.81.81 0 0 0 .85-.81Zm2.44 0a.82.82 0 1 0-.81.81.81.81 0 0 0 .85-.81Zm2.43 0a.81.81 0 1 0-.81.81.81.81 0 0 0 .85-.81Zm2.43 0a.81.81 0 1 0-.81.81.81.81 0 0 0 .85-.81ZM112.71 156h-2.83a.7.7 0 1 1 0-1.4h2.83a.7.7 0 1 1 0 1.4m.71 2.55a.7.7 0 0 0-.71-.7h-2.83a.7.7 0 1 0 0 1.4h2.83a.7.7 0 0 0 .71-.67Zm0 3.24a.71.71 0 0 0-.71-.7h-2.83a.7.7 0 1 0 0 1.4h2.83a.7.7 0 0 0 .71-.67Zm0 3.25a.7.7 0 0 0-.71-.7h-2.83a.7.7 0 1 0 0 1.4h2.83a.7.7 0 0 0 .71-.67Zm0 3.24a.71.71 0 0 0-.71-.7h-2.83a.7.7 0 1 0 0 1.4h2.83a.7.7 0 0 0 .71-.67Zm0 3.25a.7.7 0 0 0-.71-.7h-2.83a.7.7 0 1 0 0 1.4h2.83a.7.7 0 0 0 .71-.67Zm0 3.25a.71.71 0 0 0-.71-.71h-2.83a.71.71 0 1 0 0 1.41h2.83a.71.71 0 0 0 .71-.67Zm0 3.24a.7.7 0 0 0-.71-.7h-2.83a.7.7 0 1 0 0 1.4h2.83a.7.7 0 0 0 .71-.67ZM124 155.33a.7.7 0 0 0-.7-.7h-7.46a.7.7 0 0 0 0 1.4h7.46a.7.7 0 0 0 .7-.7m0 3.25a.7.7 0 0 0-.7-.7h-7.46a.7.7 0 0 0 0 1.4h7.46a.7.7 0 0 0 .7-.7m0 3.24a.7.7 0 0 0-.7-.7h-7.46a.7.7 0 0 0 0 1.4h7.46a.7.7 0 0 0 .7-.7m0 3.25a.7.7 0 0 0-.7-.7h-7.46a.7.7 0 0 0 0 1.4h7.46a.7.7 0 0 0 .7-.7m0 3.24a.7.7 0 0 0-.7-.7h-7.46a.7.7 0 0 0 0 1.4h7.46a.7.7 0 0 0 .7-.7m8.92 3.25a.7.7 0 0 0-.7-.7h-7.45a.7.7 0 0 0 0 1.4h7.45a.7.7 0 0 0 .78-.7Zm0 3.25a.7.7 0 0 0-.7-.71h-7.45a.71.71 0 0 0 0 1.41h7.45a.7.7 0 0 0 .78-.7Zm0 3.24a.7.7 0 0 0-.7-.7h-7.45a.7.7 0 0 0 0 1.4h7.45a.7.7 0 0 0 .78-.7Zm-5.64-22.72a.81.81 0 1 0-.81.81.81.81 0 0 0 .85-.81Zm2.43 0a.81.81 0 1 0-.81.81.81.81 0 0 0 .85-.81Zm2.44 0a.82.82 0 1 0-.81.81.82.82 0 0 0 .85-.81Zm2.43 0a.81.81 0 1 0-.81.81.81.81 0 0 0 .85-.81Zm2.43 0a.81.81 0 1 0-.81.81.81.81 0 0 0 .85-.81Zm2.44 0a.81.81 0 1 0-.81.81.81.81 0 0 0 .85-.81Zm-12.17 6.49a.81.81 0 1 0-.81.82.81.81 0 0 0 .85-.82Zm2.43 0a.81.81 0 1 0-.81.82.81.81 0 0 0 .85-.82Zm2.44 0a.82.82 0 1 0-.81.82.82.82 0 0 0 .85-.82Zm2.43 0a.81.81 0 1 0-.81.82.81.81 0 0 0 .85-.82Zm2.43 0a.81.81 0 0 0-1.62 0 .81.81 0 1 0 1.62 0m2.44 0a.81.81 0 1 0-.81.82.81.81 0 0 0 .85-.82Zm-3.86 9.33a.81.81 0 0 0-1.62 0 .81.81 0 1 0 1.62 0m2.44 0a.81.81 0 1 0-.81.82.81.81 0 0 0 .85-.82Zm2.43 0a.81.81 0 1 0-.81.82.81.81 0 0 0 .85-.82Zm2.44 0a.82.82 0 1 0-.81.82.82.82 0 0 0 .85-.82Zm2.43 0a.81.81 0 1 0-.81.82.81.81 0 0 0 .85-.82Zm2.43 0a.81.81 0 1 0-1.62 0 .81.81 0 1 0 1.62 0m-12.17 6.7a.81.81 0 1 0-.81.81.81.81 0 0 0 .85-.81Zm2.44 0a.81.81 0 1 0-.81.81.81.81 0 0 0 .85-.81Zm2.43 0a.81.81 0 1 0-.81.81.81.81 0 0 0 .85-.81Zm2.44 0a.82.82 0 1 0-.81.81.81.81 0 0 0 .85-.81Zm2.43 0a.81.81 0 1 0-.81.81.81.81 0 0 0 .85-.81Zm2.43 0a.81.81 0 1 0-.81.81.81.81 0 0 0 .85-.81ZM112.71 182.63h-2.83a.7.7 0 1 1 0-1.4h2.83a.7.7 0 1 1 0 1.4m.71 2.54a.71.71 0 0 0-.71-.7h-2.83a.7.7 0 1 0 0 1.4h2.83a.7.7 0 0 0 .71-.7m0 3.25a.7.7 0 0 0-.71-.7h-2.83a.7.7 0 1 0 0 1.4h2.83a.7.7 0 0 0 .71-.7m0 3.25a.71.71 0 0 0-.71-.71h-2.83a.71.71 0 1 0 0 1.41h2.83a.71.71 0 0 0 .71-.7m0 3.24a.7.7 0 0 0-.71-.7h-2.83a.7.7 0 1 0 0 1.4h2.83a.7.7 0 0 0 .71-.7m0 3.25a.7.7 0 0 0-.71-.7h-2.83a.7.7 0 1 0 0 1.4h2.83a.71.71 0 0 0 .71-.7m0 3.24a.7.7 0 0 0-.71-.7h-2.83a.7.7 0 1 0 0 1.4h2.83a.7.7 0 0 0 .71-.7m0 3.25a.7.7 0 0 0-.71-.7h-2.83a.7.7 0 1 0 0 1.4h2.83a.71.71 0 0 0 .71-.7M124 181.93a.7.7 0 0 0-.7-.7h-7.46a.7.7 0 0 0 0 1.4h7.46a.7.7 0 0 0 .7-.7m0 3.24a.7.7 0 0 0-.7-.7h-7.46a.7.7 0 0 0 0 1.4h7.46a.7.7 0 0 0 .7-.7m0 3.25a.7.7 0 0 0-.7-.7h-7.46a.7.7 0 0 0 0 1.4h7.46a.7.7 0 0 0 .7-.7m0 3.25a.7.7 0 0 0-.7-.71h-7.46a.71.71 0 0 0 0 1.41h7.46a.7.7 0 0 0 .7-.7m0 3.24a.7.7 0 0 0-.7-.7h-7.46a.7.7 0 0 0 0 1.4h7.46a.7.7 0 0 0 .7-.7m8.92 3.25a.7.7 0 0 0-.7-.7h-7.45a.7.7 0 1 0 0 1.4h7.45a.7.7 0 0 0 .78-.7Zm0 3.24a.7.7 0 0 0-.7-.7h-7.45a.7.7 0 0 0 0 1.4h7.45a.7.7 0 0 0 .78-.7Zm0 3.25a.7.7 0 0 0-.7-.7h-7.45a.7.7 0 0 0 0 1.4h7.45a.7.7 0 0 0 .78-.7Zm-5.64-22.72a.81.81 0 1 0-.81.81.81.81 0 0 0 .85-.81Zm2.43 0a.81.81 0 1 0-.81.81.81.81 0 0 0 .85-.81Zm2.44 0a.82.82 0 1 0-.81.81.81.81 0 0 0 .85-.81Zm2.43 0a.81.81 0 1 0-.81.81.81.81 0 0 0 .85-.81Zm2.43 0a.81.81 0 1 0-.81.81.81.81 0 0 0 .85-.81Zm2.44 0a.81.81 0 1 0-.81.81.81.81 0 0 0 .85-.81Zm-12.17 6.49a.81.81 0 1 0-.81.81.81.81 0 0 0 .85-.81Zm2.43 0a.81.81 0 1 0-.81.81.81.81 0 0 0 .85-.81Zm2.44 0a.82.82 0 1 0-.81.81.81.81 0 0 0 .85-.81Zm2.43 0a.81.81 0 1 0-.81.81.81.81 0 0 0 .85-.81Zm2.43 0a.81.81 0 1 0-.81.81.81.81 0 0 0 .85-.81Zm2.44 0a.81.81 0 1 0-.81.81.81.81 0 0 0 .85-.81Zm-3.86 9.33a.81.81 0 1 0-.81.81.81.81 0 0 0 .85-.81Zm2.44 0a.81.81 0 1 0-.81.81.81.81 0 0 0 .85-.81Zm2.43 0a.81.81 0 1 0-.81.81.81.81 0 0 0 .85-.81Zm2.44 0a.82.82 0 1 0-.81.81.81.81 0 0 0 .85-.81Zm2.43 0a.81.81 0 1 0-.81.81.81.81 0 0 0 .85-.81Zm2.43 0a.81.81 0 1 0-.81.81.81.81 0 0 0 .85-.81Zm-12.17 6.69a.81.81 0 1 0-.81.81.81.81 0 0 0 .85-.81Zm2.44 0a.81.81 0 1 0-.81.81.81.81 0 0 0 .85-.81Zm2.43 0a.81.81 0 1 0-.81.81.81.81 0 0 0 .85-.81Zm2.44 0a.82.82 0 1 0-.81.81.82.82 0 0 0 .85-.81Zm2.43 0a.81.81 0 1 0-.81.81.81.81 0 0 0 .85-.81Zm2.43 0a.81.81 0 1 0-.81.81.81.81 0 0 0 .85-.81ZM156.31 130.06h-2.84a.7.7 0 1 1 0-1.4h2.84a.7.7 0 1 1 0 1.4m.7 2.55a.7.7 0 0 0-.7-.7h-2.84a.7.7 0 1 0 0 1.4h2.84a.7.7 0 0 0 .69-.7Zm0 3.24a.7.7 0 0 0-.7-.7h-2.84a.71.71 0 0 0 0 1.41h2.84a.7.7 0 0 0 .69-.71Zm0 3.25a.7.7 0 0 0-.7-.7h-2.84a.7.7 0 0 0 0 1.4h2.84a.7.7 0 0 0 .69-.7Zm0 3.25a.7.7 0 0 0-.7-.71h-2.84a.71.71 0 0 0 0 1.41h2.84a.7.7 0 0 0 .69-.7Zm0 3.24a.7.7 0 0 0-.7-.7h-2.84a.7.7 0 0 0 0 1.4h2.84a.7.7 0 0 0 .69-.7Zm0 3.25a.7.7 0 0 0-.7-.7h-2.84a.7.7 0 0 0 0 1.4h2.84a.7.7 0 0 0 .69-.7Zm0 3.24a.7.7 0 0 0-.7-.7h-2.84a.7.7 0 0 0 0 1.4h2.84a.7.7 0 0 0 .69-.7Zm10.63-22.72a.71.71 0 0 0-.71-.7h-7.45a.7.7 0 1 0 0 1.4h7.45a.7.7 0 0 0 .71-.7m0 3.25a.7.7 0 0 0-.71-.7h-7.45a.7.7 0 1 0 0 1.4h7.45a.7.7 0 0 0 .71-.7m0 3.24a.71.71 0 0 0-.71-.7h-7.45a.71.71 0 0 0 0 1.41h7.45a.71.71 0 0 0 .71-.71m0 3.25a.7.7 0 0 0-.71-.7h-7.45a.7.7 0 0 0 0 1.4h7.45a.7.7 0 0 0 .71-.7m0 3.25a.71.71 0 0 0-.71-.71h-7.45a.71.71 0 0 0 0 1.41h7.45a.71.71 0 0 0 .71-.7m8.92 3.24a.7.7 0 0 0-.7-.7h-7.45a.7.7 0 1 0 0 1.4h7.45a.7.7 0 0 0 .7-.7m0 3.25a.7.7 0 0 0-.7-.7h-7.45a.7.7 0 1 0 0 1.4h7.45a.7.7 0 0 0 .7-.7m0 3.24a.7.7 0 0 0-.7-.7h-7.45a.7.7 0 1 0 0 1.4h7.45a.7.7 0 0 0 .7-.7m-5.64-22.72a.82.82 0 1 0-.82.82.82.82 0 0 0 .82-.82m2.43 0a.81.81 0 1 0-.81.82.81.81 0 0 0 .81-.82m2.43 0a.81.81 0 1 0-.81.82.81.81 0 0 0 .81-.82m2.44 0a.81.81 0 1 0-.81.82.82.82 0 0 0 .81-.82m2.43 0a.81.81 0 1 0-.81.82.81.81 0 0 0 .81-.82m2.44 0a.82.82 0 1 0-.82.82.82.82 0 0 0 .82-.82m-12.17 6.49a.82.82 0 1 0-.82.82.82.82 0 0 0 .82-.82m2.43 0a.81.81 0 1 0-.81.82.81.81 0 0 0 .81-.82m2.43 0a.81.81 0 1 0-.81.82.81.81 0 0 0 .81-.82m2.44 0a.81.81 0 1 0-.81.82.82.82 0 0 0 .81-.82m2.43 0a.81.81 0 1 0-.81.82.81.81 0 0 0 .81-.82m2.44 0a.82.82 0 1 0-.82.82.82.82 0 0 0 .82-.82m-3.86 9.34a.81.81 0 1 0-.81.81.82.82 0 0 0 .81-.81m2.44 0a.82.82 0 1 0-.82.81.82.82 0 0 0 .82-.81m2.43 0a.81.81 0 1 0-.81.81.82.82 0 0 0 .81-.81m2.43 0a.81.81 0 1 0-.81.81.82.82 0 0 0 .81-.81m2.44 0a.82.82 0 1 0-.81.81.82.82 0 0 0 .84-.81Zm2.43 0a.81.81 0 1 0-.81.81.82.82 0 0 0 .81-.81m-12.17 6.69a.81.81 0 1 0-.81.81.81.81 0 0 0 .81-.81m2.44 0a.82.82 0 1 0-.82.81.82.82 0 0 0 .82-.81m2.43 0a.81.81 0 1 0-.81.81.81.81 0 0 0 .81-.81m2.43 0a.81.81 0 1 0-.81.81.81.81 0 0 0 .81-.81m2.44 0a.82.82 0 1 0-.81.81.81.81 0 0 0 .84-.81Zm2.43 0a.81.81 0 1 0-.81.81.81.81 0 0 0 .81-.81M156.31 156.66h-2.84a.7.7 0 0 1 0-1.4h2.84a.7.7 0 1 1 0 1.4m.7 2.55a.7.7 0 0 0-.7-.7h-2.84a.7.7 0 0 0 0 1.4h2.84a.7.7 0 0 0 .69-.7Zm0 3.24a.7.7 0 0 0-.7-.7h-2.84a.7.7 0 0 0 0 1.4h2.84a.7.7 0 0 0 .69-.7Zm0 3.25a.7.7 0 0 0-.7-.7h-2.84a.7.7 0 0 0 0 1.4h2.84a.7.7 0 0 0 .69-.7Zm0 3.24a.7.7 0 0 0-.7-.7h-2.84a.7.7 0 1 0 0 1.4h2.84a.7.7 0 0 0 .69-.7Zm0 3.25a.7.7 0 0 0-.7-.7h-2.84a.7.7 0 1 0 0 1.4h2.84a.7.7 0 0 0 .69-.7Zm0 3.24a.7.7 0 0 0-.7-.7h-2.84a.7.7 0 1 0 0 1.4h2.84a.7.7 0 0 0 .69-.7Zm0 3.25a.7.7 0 0 0-.7-.7h-2.84a.7.7 0 1 0 0 1.4h2.84a.7.7 0 0 0 .69-.7ZM167.64 156a.7.7 0 0 0-.71-.7h-7.45a.7.7 0 0 0 0 1.4h7.45a.7.7 0 0 0 .71-.7m0 3.25a.7.7 0 0 0-.71-.7h-7.45a.7.7 0 0 0 0 1.4h7.45a.71.71 0 0 0 .71-.74Zm0 3.24a.7.7 0 0 0-.71-.7h-7.45a.7.7 0 0 0 0 1.4h7.45a.7.7 0 0 0 .71-.74Zm0 3.25a.7.7 0 0 0-.71-.7h-7.45a.7.7 0 0 0 0 1.4h7.45a.71.71 0 0 0 .71-.74Zm0 3.24a.7.7 0 0 0-.71-.7h-7.45a.7.7 0 1 0 0 1.4h7.45a.7.7 0 0 0 .71-.74Zm8.92 3.25a.7.7 0 0 0-.7-.7h-7.45a.7.7 0 1 0 0 1.4h7.45a.7.7 0 0 0 .7-.74Zm0 3.24a.7.7 0 0 0-.7-.7h-7.45a.7.7 0 1 0 0 1.4h7.45a.7.7 0 0 0 .7-.74Zm0 3.25a.7.7 0 0 0-.7-.7h-7.45a.7.7 0 1 0 0 1.4h7.45a.7.7 0 0 0 .7-.74ZM170.92 156a.82.82 0 1 0-.82.81.82.82 0 0 0 .82-.81m2.43 0a.81.81 0 1 0-.81.81.81.81 0 0 0 .81-.81m2.43 0a.81.81 0 1 0-.81.81.81.81 0 0 0 .81-.81m2.44 0a.81.81 0 1 0-.81.81.81.81 0 0 0 .81-.81m2.43 0a.81.81 0 1 0-.81.81.81.81 0 0 0 .81-.81m2.44 0a.82.82 0 1 0-.82.81.82.82 0 0 0 .82-.81m-12.17 6.49a.82.82 0 1 0-.82.81.82.82 0 0 0 .82-.85Zm2.43 0a.81.81 0 1 0-.81.81.81.81 0 0 0 .81-.85Zm2.43 0a.81.81 0 1 0-.81.81.81.81 0 0 0 .81-.85Zm2.44 0a.81.81 0 1 0-.81.81.81.81 0 0 0 .81-.85Zm2.43 0a.81.81 0 1 0-.81.81.81.81 0 0 0 .81-.85Zm2.44 0a.82.82 0 1 0-.82.81.82.82 0 0 0 .82-.85Zm-3.86 9.33a.81.81 0 1 0-.81.81.81.81 0 0 0 .81-.85Zm2.44 0a.82.82 0 1 0-.82.81.82.82 0 0 0 .82-.85Zm2.43 0a.81.81 0 1 0-.81.81.81.81 0 0 0 .81-.85Zm2.43 0a.81.81 0 1 0-.81.81.81.81 0 0 0 .81-.85Zm2.44 0a.82.82 0 1 0-.81.81.81.81 0 0 0 .84-.85Zm2.43 0a.81.81 0 1 0-.81.81.81.81 0 0 0 .81-.85Zm-12.17 6.69a.81.81 0 1 0-.81.82.81.81 0 0 0 .81-.86Zm2.44 0a.82.82 0 1 0-.82.82.82.82 0 0 0 .82-.86Zm2.43 0a.81.81 0 1 0-.81.82.81.81 0 0 0 .81-.86Zm2.43 0a.81.81 0 1 0-.81.82.81.81 0 0 0 .81-.86Zm2.44 0a.82.82 0 1 0-.81.82.82.82 0 0 0 .84-.86Zm2.43 0a.81.81 0 1 0-.81.82.81.81 0 0 0 .81-.86Z" style="fill:#cd5954"/><path d="M111.8 119.63a1.35 1.35 0 1 1-1.35-1.35 1.35 1.35 0 0 1 1.35 1.35M117.87 119.63a1.35 1.35 0 1 1-1.35-1.35 1.36 1.36 0 0 1 1.35 1.35" style="fill:#263238"/><circle cx="122.58" cy="119.63" r="1.35" style="fill:#263238"/><path d="M193.22 165.47h140.1v80.81h-140.1z" style="opacity:.30000000000000004"/><path d="M191.07 163.32h140.1v80.81h-140.1z" style="fill:#fff;stroke:#263238;stroke-miterlimit:10;stroke-width:.9663184813154366px"/><path d="m262.8 209.09-1.47-.1a9 9 0 0 0-.14-1.48l1.42-.38a.41.41 0 0 0 .3-.51l-.18-.67a.42.42 0 0 0-.51-.29l-1.42.38a9 9 0 0 0-.62-1.35l1.22-.83a.42.42 0 0 0 .11-.58l-.38-.57a.42.42 0 0 0-.58-.11l-1.22.82a12 12 0 0 0-1-1.08l.89-1.17a.43.43 0 0 0-.08-.59l-.55-.41a.43.43 0 0 0-.59.08l-.89 1.18a8 8 0 0 0-1.31-.69l.45-1.4a.42.42 0 0 0-.27-.53l-.65-.21a.42.42 0 0 0-.53.27l-.45 1.4a9.6 9.6 0 0 0-1.32-.21v-1.47a.42.42 0 0 0-.42-.42h-.68a.42.42 0 0 0-.42.42v1.47a9 9 0 0 0-1.47.24l-.48-1.39a.43.43 0 0 0-.53-.26l-.65.23a.42.42 0 0 0-.26.53l.48 1.39a8.6 8.6 0 0 0-1.3.71l-.91-1.16a.43.43 0 0 0-.59-.07l-.54.42a.42.42 0 0 0-.07.59l.9 1.16a9.5 9.5 0 0 0-1 1.1l-1.24-.8a.41.41 0 0 0-.58.12l-.37.57a.42.42 0 0 0 .12.58l1.24.8a8.7 8.7 0 0 0-.59 1.37l-1.43-.36a.42.42 0 0 0-.51.31l-.17.66a.42.42 0 0 0 .31.51l1.43.36a8.7 8.7 0 0 0-.12 1.45l-1.47.13a.42.42 0 0 0-.38.45l.06.69a.42.42 0 0 0 .46.38l1.46-.13a10 10 0 0 0 .37 1.44l-1.34.6a.41.41 0 0 0-.21.55l.28.63a.42.42 0 0 0 .55.21l1.34-.6a8.7 8.7 0 0 0 .83 1.24l-1.08 1a.41.41 0 0 0 0 .59l.47.5a.41.41 0 0 0 .59 0l1.08-1a9 9 0 0 0 1.18.9l-.7 1.3a.43.43 0 0 0 .18.57l.6.32a.42.42 0 0 0 .57-.17l.69-1.3a9.3 9.3 0 0 0 1.41.47l-.23 1.45a.42.42 0 0 0 .35.48l.68.11a.42.42 0 0 0 .48-.35l.23-1.45h.66a7 7 0 0 0 .82 0l.26 1.45a.42.42 0 0 0 .49.34l.67-.11a.42.42 0 0 0 .34-.49l-.25-1.45a8.6 8.6 0 0 0 1.4-.5l.71 1.29a.41.41 0 0 0 .57.16l.6-.33a.41.41 0 0 0 .1-.49l-.71-1.28a9.5 9.5 0 0 0 1.16-.93l1.1 1a.41.41 0 0 0 .59 0l.46-.51a.42.42 0 0 0 0-.59l-1.1-1a9 9 0 0 0 .8-1.26l1.36.58a.42.42 0 0 0 .55-.22l.27-.64a.42.42 0 0 0-.23-.55l-1.35-.57a10 10 0 0 0 .35-1.45l1.46.11a.42.42 0 0 0 .45-.39l.05-.69a.42.42 0 0 0-.41-.52m-10.56 5.13a5.1 5.1 0 1 1 5.1-5.1 5.1 5.1 0 0 1-5.1 5.1" style="fill:#263238"/><circle cx="252.24" cy="209.12" r="7.13" style="fill:none;stroke:#fff;stroke-miterlimit:10;stroke-width:.9663184813154366px" transform="rotate(-80.8 252.26 209.119)"/><path d="m276 216.5-1-.07a6 6 0 0 0-.09-1l.93-.25a.27.27 0 0 0 .19-.34l-.11-.43a.27.27 0 0 0-.34-.19l-.93.24a6 6 0 0 0-.41-.88l.8-.54a.28.28 0 0 0 .08-.38l-.25-.38a.28.28 0 0 0-.38-.07l-.8.54a6.5 6.5 0 0 0-.68-.71l.59-.77a.27.27 0 0 0-.06-.38l-.36-.27a.27.27 0 0 0-.38 0l-.58.77a7 7 0 0 0-.87-.45l.3-.92a.26.26 0 0 0-.18-.34l-.42-.14a.27.27 0 0 0-.35.18l-.3.91a6 6 0 0 0-.86-.13v-1a.27.27 0 0 0-.27-.27h-.45a.28.28 0 0 0-.28.27v1a5 5 0 0 0-1 .16l-.31-.91a.27.27 0 0 0-.35-.17l-.43.14a.28.28 0 0 0-.17.35l.32.91a5.5 5.5 0 0 0-.86.47l-.59-.76a.28.28 0 0 0-.39-.05l-.35.28a.27.27 0 0 0-.05.38l.59.76a6.4 6.4 0 0 0-.65.72l-.81-.52a.27.27 0 0 0-.38.08l-.25.37a.27.27 0 0 0 .08.38l.81.53a6.5 6.5 0 0 0-.39.89l-.93-.23a.28.28 0 0 0-.34.2l-.11.44a.29.29 0 0 0 .2.33l.94.23a6 6 0 0 0-.08.95l-1 .09a.27.27 0 0 0-.25.3v.44a.28.28 0 0 0 .3.25l1-.08a7 7 0 0 0 .24.94l-.88.4a.28.28 0 0 0-.14.36l.19.41a.27.27 0 0 0 .36.14l.88-.39a7 7 0 0 0 .54.81l-.71.66a.27.27 0 0 0 0 .38l.31.33a.28.28 0 0 0 .39 0l.7-.66a6 6 0 0 0 .77.59l-.45.85a.29.29 0 0 0 .11.38l.4.21a.27.27 0 0 0 .37-.12l.46-.85a5.5 5.5 0 0 0 .92.31l-.15.95a.29.29 0 0 0 .23.32l.44.07a.29.29 0 0 0 .32-.23l.15-.95h.97l.17 1a.27.27 0 0 0 .32.22l.44-.08a.27.27 0 0 0 .22-.32l-.16-.94a7 7 0 0 0 .91-.33l.47.84a.28.28 0 0 0 .38.11l.39-.22a.28.28 0 0 0 .11-.37l-.47-.84a8 8 0 0 0 .76-.61l.72.64a.26.26 0 0 0 .39 0l.3-.33a.28.28 0 0 0 0-.39l-.72-.64a5.5 5.5 0 0 0 .52-.83l.89.38a.27.27 0 0 0 .36-.14l.18-.42a.28.28 0 0 0-.15-.36l-.89-.38a6 6 0 0 0 .23-.94l1 .06a.28.28 0 0 0 .3-.25v-.45a.28.28 0 0 0-.18-.25m-6.92 3.36a3.35 3.35 0 1 1 3.35-3.35 3.35 3.35 0 0 1-3.36 3.35Z" style="fill:#263238"/><path d="M273.75 216.51a4.68 4.68 0 1 1-4.68-4.67 4.68 4.68 0 0 1 4.68 4.67Z" style="fill:none;stroke:#fff;stroke-miterlimit:10;stroke-width:.9663184813154366px"/><path d="M199.8 183.51c0-2.36 1.25-3.72 3.53-3.72s3.52 1.36 3.52 3.72v7.68c0 2.36-1.24 3.71-3.52 3.71s-3.53-1.35-3.53-3.71Zm2.33 7.83c0 1 .46 1.45 1.2 1.45s1.2-.4 1.2-1.45v-8c0-1.05-.46-1.46-1.2-1.46s-1.2.41-1.2 1.46ZM215.23 183.61v1.92c0 2.37-1.14 3.66-3.46 3.66h-1.1v5.55h-2.32V180h3.42c2.32 0 3.46 1.25 3.46 3.61m-4.56-1.54v5h1.1c.74 0 1.14-.33 1.14-1.39v-2.21c0-1.06-.4-1.4-1.14-1.4ZM218.74 186.19h3.18v2.11h-3.18v4.32h4v2.12h-6.33V180h6.33v2.11h-4ZM229 194.74a4.5 4.5 0 0 1-.21-1.82v-2.32c0-1.37-.47-1.88-1.52-1.88h-.81v6h-2.32V180h3.51c2.4 0 3.44 1.12 3.44 3.4v1.16c0 1.52-.49 2.51-1.52 3 1.16.48 1.54 1.6 1.54 3.14v2.28a4.4 4.4 0 0 0 .25 1.8Zm-2.54-12.67v4.54h.91c.87 0 1.39-.38 1.39-1.56v-1.46c0-1.05-.35-1.52-1.18-1.52ZM240.18 194.74h-2.34l-.4-2.68h-2.85l-.4 2.68h-2.13l2.36-14.74h3.4Zm-5.3-4.69h2.24l-1.12-7.47ZM240.58 180h7.18v2.11h-2.43v12.67H243v-12.71h-2.43ZM248.77 180h2.32v14.78h-2.32ZM254.85 184v10.7h-2.09V180h2.91l2.39 8.85V180h2.07v14.78h-2.39ZM265.28 186.51h3.25v4.68c0 2.36-1.19 3.71-3.47 3.71s-3.46-1.35-3.46-3.71v-7.68c0-2.36 1.19-3.72 3.46-3.72s3.47 1.36 3.47 3.72v1.43h-2.2v-1.58c0-1.05-.46-1.46-1.2-1.46s-1.2.41-1.2 1.46v8c0 1 .46 1.43 1.2 1.43s1.2-.38 1.2-1.43v-2.72h-1.05ZM276.42 179.79c2.26 0 3.42 1.36 3.42 3.72v.49h-2.2v-.61c0-1.05-.42-1.46-1.16-1.46s-1.16.41-1.16 1.46c0 3 4.54 3.61 4.54 7.83 0 2.36-1.18 3.71-3.46 3.71s-3.46-1.35-3.46-3.71v-.91h2.19v1.06c0 1 .47 1.43 1.21 1.43s1.2-.38 1.2-1.43c0-3-4.54-3.61-4.54-7.83 0-2.39 1.16-3.75 3.42-3.75M283.22 189.84l-2.94-9.84h2.43l1.77 6.73 1.78-6.73h2.21l-2.93 9.88v4.9h-2.32ZM292.38 179.79c2.26 0 3.42 1.36 3.42 3.72v.49h-2.2v-.61c0-1.05-.42-1.46-1.16-1.46s-1.16.41-1.16 1.46c0 3 4.54 3.61 4.54 7.83 0 2.36-1.18 3.71-3.46 3.71s-3.46-1.35-3.46-3.71v-.91h2.19v1.06c0 1 .46 1.43 1.2 1.43s1.21-.38 1.21-1.43c0-3-4.54-3.61-4.54-7.83.04-2.39 1.16-3.75 3.42-3.75M296.47 180h7.18v2.11h-2.43v12.67h-2.32v-12.71h-2.43ZM307 186.19h3.19v2.11H307v4.32h4v2.12h-6.33V180H311v2.11h-4ZM317.35 190.45l1.58-10.45h3.23v14.78H320v-10.6l-1.6 10.6h-2.2l-1.73-10.45v10.45h-2V180h3.23Z" style="fill:#263238"/><path d="M191.07 163.32h140.1v5.86h-140.1z" style="fill:#263238;stroke:#263238;stroke-miterlimit:10;stroke-width:.9663184813154366px"/><circle cx="196.29" cy="165.81" r="1.35" style="fill:#cd5954"/><circle cx="202.35" cy="165.81" r="1.35" style="fill:#cd5954"/><path d="M209.77 165.81a1.35 1.35 0 1 1-1.35-1.35 1.35 1.35 0 0 1 1.35 1.35" style="fill:#cd5954"/><path d="M319.59 230.17H203.65a1.49 1.49 0 0 1-1.49-1.49 1.49 1.49 0 0 1 1.49-1.49h115.94a1.49 1.49 0 0 1 1.5 1.49 1.5 1.5 0 0 1-1.5 1.49Z" style="fill:#fff;stroke:#263238;stroke-miterlimit:10;stroke-width:.9663184813154366px"/><path d="M285.28 227.19h-81.63a1.49 1.49 0 0 0 0 3h81.63Z" style="fill:#cd5954;stroke:#263238;stroke-miterlimit:10;stroke-width:.9663184813154366px"/><path d="M127.16 310.98H85.75l105.06-207.09h41.42zM156.88 310.98h-16.21l105.07-207.09h16.2z" style="fill:#fff;opacity:.30000000000000004"/><path d="M433.33 94H88.9a7.64 7.64 0 0 0-7.64 7.64v248.83a7.64 7.64 0 0 0 7.64 7.64h344.43a7.64 7.64 0 0 0 7.64-7.64V101.63a7.64 7.64 0 0 0-7.64-7.63m-10.46 203H99.36V110.42h323.51Z" style="fill:#263238;stroke:#263238;stroke-linecap:round;stroke-linejoin:round;stroke-width:.9663184813154366px"/><path d="M305.86 378.48v-29.75h-89.5v29.75a42.55 42.55 0 0 1-9.5 26.74l-3.92 4.84h116.35l-3.92-4.84a42.5 42.5 0 0 1-9.51-26.74" style="fill:#a8a8a8;stroke:#263238;stroke-linecap:round;stroke-linejoin:round;stroke-width:.9663184813154366px"/><path d="M216.36 348.73h89.5v19.22h-89.5z" style="fill:#263238"/><path d="M202.94 410.06h116.37v5.31H202.94z" style="fill:#a8a8a8;stroke:#263238;stroke-linecap:round;stroke-linejoin:round;stroke-width:.9663184813154366px"/><path d="M81.26 317.05H441v32.86a8.2 8.2 0 0 1-8.2 8.2H89.46a8.2 8.2 0 0 1-8.2-8.2z" style="fill:#fff;stroke:#263238;stroke-linecap:round;stroke-linejoin:round;stroke-width:.9663184813154366px"/><path d="M395.4 131.53h14.85l-1.49-14.62h-11.88z" style="fill:#263238"/><rect width="14.85" height="3.41" x="395.4" y="130.82" rx=".28" style="fill:#fff"/><path d="M395.4 152.45h14.85l-1.49-14.62h-11.88z" style="fill:#263238"/><rect width="14.85" height="3.41" x="395.4" y="151.74" rx=".45" style="fill:#fff"/><path d="M396.35 152.74h6.72v1.38h-6.72z" style="fill:#263238"/><path d="M408.12 144.64c0 2.28-2.29 4.13-5.12 4.13s-5.12-1.85-5.12-4.13 2.29-4.12 5.12-4.12 5.12 1.85 5.12 4.12Z" style="fill:#263238;stroke:#595959;stroke-miterlimit:10;stroke-width:.4831592406577183px"/><path d="M397.06 165.55h12.56a.77.77 0 0 1 .77.77v7.93h-14.1v-7.93a.77.77 0 0 1 .77-.77" style="fill:#fff"/><rect width="6.27" height="3.26" x="398.34" y="163.9" rx=".38" style="fill:#fff"/><path d="M397.06 186.25h12.56a.77.77 0 0 1 .77.77V195h-14.1v-8a.77.77 0 0 1 .77-.75" style="fill:#fff"/><rect width="6.27" height="3.26" x="398.34" y="184.61" rx=".38" style="fill:#fff"/><path d="M397.06 207h12.56a.77.77 0 0 1 .77.77v7.93h-14.1v-7.93a.77.77 0 0 1 .77-.77" style="fill:#fff"/><rect width="6.27" height="3.26" x="398.34" y="205.32" rx=".38" style="fill:#fff"/><rect width="296.29" height="7.73" x="70.55" y="459.92" rx="2.66" style="fill:#3c464c"/><path d="m366.28 460.94-30.5-35.54c-.85-1-3.61-1.52-5.78-1.52H107.33c-2.17 0-4.93.53-5.78 1.52L71 460.94a1.43 1.43 0 0 0-.32 1.58c.44.93 2 1.47 4.32 1.47h287.29c2.31 0 3.88-.54 4.31-1.47a1.43 1.43 0 0 0-.32-1.58" style="fill:#263238"/><path d="M221.04 425.15h-13.18l-.37 4.65h13.64zM189.23 425.15h-13.19l-1.46 4.65h13.64zM236.95 425.15h-13.18l.17 4.65h13.64zM157.41 425.15h-13.18l-2.56 4.65h13.64zM173.32 425.15h-13.19l-2 4.65h13.63zM125.22 429.8h13.64l2.64-4.65h-13.18zM205.14 425.15h-13.19l-.92 4.65h13.64zM252.86 425.15h-13.19l.73 4.65h13.63zM125.6 425.15h-20.08l-3.88 4.65h20.76zM319.21 425.15l3.45 4.65h14.08l-3.92-4.65zM316.49 425.15h-13.18l2.9 4.65h13.64zM300.58 425.15H287.4l2.36 4.65h13.63zM268.77 425.15h-13.19l1.27 4.65h13.64zM284.68 425.15h-13.19l1.81 4.65h13.64zM179.76 430.26h-13.71l-1.88 5.01h14.2zM196.3 430.26h-13.71l-1.29 5.01h14.2zM212.84 430.26h-13.72l-.69 5.01h14.2zM146.69 430.26h-13.72l-3.05 5.01h14.2zM112.79 435.27h14.2l3.16-5.01h-13.71zM229.37 430.26h-13.71l-.11 5.01h14.2zM163.22 430.26h-13.71l-2.47 5.01h14.21zM312.06 430.26h-13.71l2.84 5.01h14.2zM113.61 430.26h-12.36l-4.18 5.01h12.8zM314.88 430.26l3.44 5.01h23.04l-4.23-5.01zM295.52 430.26h-13.71l2.25 5.01h14.2zM245.91 430.26H232.2l.48 5.01h14.2zM262.45 430.26h-13.71l1.07 5.01h14.2zM278.99 430.26h-13.72l1.67 5.01h14.2zM256.26 455.23h-94.08l-2.39 6.99h98.06zM158.85 455.23h-20.99l-3.41 6.99h21.88zM276.82 455.23h-17.24l1.73 6.99h17.97zM94.54 462.22h17.03l4.34-6.99H99.58zM134.54 455.23h-15.3l-4.21 6.99h15.95zM96.25 455.23H80.39l-5.84 6.99h16.53zM297.39 455.23h-17.24l2.6 6.99h17.97zM341.85 455.23l5.21 6.99h17.02l-5.9-6.99zM317.96 455.23h-17.24l3.47 6.99h17.96zM338.52 455.23h-17.24l4.34 6.99h17.97zM198.7 448.19h-15.39l-1.43 6.4h16.01zM235.85 448.19h-15.39l.07 6.4h16.02zM180.12 448.19h-15.39l-2.18 6.4h16.01zM142.97 448.19h-15.4l-3.68 6.4h16.02zM104.56 454.59h16.02l3.81-6.4H109zM161.54 448.19h-15.39l-2.93 6.4h16.02zM217.28 448.19h-15.4l-.67 6.4h16.01zM105.81 448.19H86.27l-5.35 6.4h20.33zM310.16 448.19h-15.39l3.08 6.4h16.01zM313.35 448.19l3.82 6.4h40.47l-5.39-6.4zM254.43 448.19h-15.39l.82 6.4h16.02zM273.01 448.19h-15.39l1.57 6.4h16.01zM291.58 448.19h-15.39l2.33 6.4h16.01zM208.45 441.72h-14.81l-.96 5.88h15.38zM226.32 441.72h-14.81l-.28 5.88h15.39zM190.59 441.72h-14.81l-1.66 5.88h15.38zM172.72 441.72h-14.81l-2.35 5.88h15.39zM154.86 441.72h-14.81l-3.04 5.88h15.38zM118.45 447.6h15.38l3.16-5.88h-14.81zM244.18 441.72h-14.81l.42 5.88h15.38zM119.13 441.72H91.67l-4.91 5.88h28.52zM333.51 441.72H318.7l3.87 5.88h15.38zM262.05 441.72h-14.81l1.1 5.88h15.39zM315.64 441.72h-14.8l3.17 5.88h15.39zM279.92 441.72h-14.81l1.79 5.88h15.39zM297.78 441.72h-14.81l2.49 5.88h15.38zM188.03 441.19h14.46l.58-5.42h-13.95zM170.52 441.19h14.46l1.21-5.42h-13.95zM205.53 441.19h14.46l-.04-5.42H206zM118 441.19h14.46l3.09-5.42H121.6zM135.51 441.19h14.46l2.46-5.42h-13.95zM223.04 441.19h14.46l-.67-5.42h-13.95zM153.01 441.19h14.47l1.83-5.42h-13.95z" style="fill:#fff;stroke:#263238;stroke-linecap:round;stroke-linejoin:round;stroke-width:1.0585342539873688px"/><path d="M341.77 435.77H327.1l4 5.42h3.58a2 2 0 0 1 1.34.37l4.72 6.1h10.82ZM293.06 441.19h14.46l-3.17-5.42H290.4zM310.57 441.19h17.51l-3.92-5.42h-16.88zM92.12 441.19h22.84l3.71-5.42H96.65zM240.54 441.19h14.47l-1.3-5.42h-13.95zM275.56 441.19h14.46l-2.56-5.42h-13.94zM258.05 441.19h14.46l-1.93-5.42h-13.94z" style="fill:#fff;stroke:#263238;stroke-linecap:round;stroke-linejoin:round;stroke-width:1.0585342539873688px"/><path d="M411.74 427.07c-27.47-.56-49.93 7.86-50.15 18.8s21.86 20.28 49.34 20.85 49.93-7.85 50.16-18.8-21.87-20.28-49.35-20.85m-.56 27.39c-10.49-.21-18.93-3.77-18.84-7.95s8.66-7.4 19.15-7.18 18.93 3.78 18.84 8-8.66 7.35-19.15 7.13" style="fill:#fff;stroke:#263238;stroke-linecap:round;stroke-linejoin:round;stroke-width:.9663184813154366px"/><path d="M411.53 437.28c-13.33-.27-24.22 3.81-24.33 9.12s10.61 9.84 23.94 10.11 24.22-3.81 24.33-9.12-10.61-9.84-23.94-10.11m-.29 14.09c-6.2-.13-11.19-2.23-11.14-4.7s5.12-4.38 11.33-4.25 11.19 2.24 11.14 4.71-5.12 4.37-11.33 4.24" style="fill:#263238;stroke:#263238;stroke-linecap:round;stroke-linejoin:round;stroke-width:.9663184813154366px"/><path d="m431.23 449.71 28.77 1.32M429.75 450.41l25.76 6.36M373.44 458.37l22.75-7.19-15.17 10.62M394.48 428.17l9.98 11.14M400.69 427.57l5.96 11.79" style="fill:none;stroke:#263238;stroke-linecap:round;stroke-linejoin:round;stroke-width:.9663184813154366px"/><path d="M292 424.3c-27.48-.57-50 10.9-50.3 25.62s21.73 27.1 49.2 27.67 50-10.91 50.3-25.62-21.78-27.11-49.2-27.67m-.76 36.82c-10.49-.22-18.9-4.95-18.78-10.57s8.71-10 19.2-9.78 18.9 5 18.79 10.56-8.77 10-19.26 9.79Z" style="fill:#fff;stroke:#263238;stroke-linecap:round;stroke-linejoin:round;stroke-width:.9663184813154366px"/><path d="M291.67 438c-13.33-.28-24.26 5.29-24.41 12.43s10.54 13.15 23.87 13.42 24.26-5.29 24.41-12.43S305 438.29 291.67 438m-.39 19c-6.21-.13-11.18-2.93-11.11-6.25s5.15-5.91 11.35-5.78 11.18 2.92 11.11 6.24-5.15 5.88-11.35 5.79" style="fill:#263238;stroke:#263238;stroke-linecap:round;stroke-linejoin:round;stroke-width:.9663184813154366px"/><path d="m311.27 454.58 28.78 1.58M309.8 455.53l25.71 8.37M253.42 466.63l22.81-9.83-15.25 14.39M274.67 425.89l9.91 14.91M280.89 425.04l5.87 15.81" style="fill:none;stroke:#263238;stroke-linecap:round;stroke-linejoin:round;stroke-width:.9663184813154366px"/><path d="m300.45 419.82-79.11 3.47L234 483.27l91.52-5.11z" style="fill:#fff;stroke:#263238;stroke-miterlimit:10;stroke-width:.9663184813154366px"/><path d="M278.17 444.66h-2.7a10.5 10.5 0 0 0-.78-1.91l2.42-.57c.38-.09.54-.4.35-.68l-.56-.83a1 1 0 0 0-1-.35l-2.41.57a15.5 15.5 0 0 0-1.57-1.69l1.89-1.1c.3-.17.3-.5 0-.73l-.87-.69a1 1 0 0 0-1.07-.11l-1.9 1.09a20 20 0 0 0-2.18-1.29l1.2-1.5c.18-.24 0-.56-.34-.72l-1.1-.48a.91.91 0 0 0-1 .13l-1.2 1.49a24 24 0 0 0-2.56-.78l.38-1.74c.06-.28-.22-.56-.63-.63l-1.22-.23c-.41-.08-.8.08-.86.35L260 434c-.79-.1-1.59-.16-2.4-.19l-.4-1.81a.85.85 0 0 0-.86-.49h-1.22c-.42 0-.7.25-.64.53l.41 1.81a21 21 0 0 0-2.57.37l-1.23-1.69a1 1 0 0 0-1-.29l-1.11.3c-.37.11-.52.41-.33.67l1.22 1.7a17 17 0 0 0-2.18 1l-1.94-1.41a1.08 1.08 0 0 0-1.08-.06l-.88.56a.41.41 0 0 0 0 .74l1.93 1.41a12 12 0 0 0-1.57 1.45l-2.46-.95a.92.92 0 0 0-1 .18l-.56.76c-.19.25 0 .58.36.73l2.47 1a8.3 8.3 0 0 0-.77 1.8l-2.74-.37c-.43-.06-.83.13-.88.42l-.16.88c-.06.3.25.59.69.65l2.75.38a8.4 8.4 0 0 0 .13 1.93l-2.73.27c-.43 0-.71.32-.62.63l.27.91a.9.9 0 0 0 .95.49l2.75-.27a11.3 11.3 0 0 0 1.06 1.92l-2.41.91c-.38.14-.51.49-.28.77l.69.84a1 1 0 0 0 1.11.26l2.42-.92a16 16 0 0 0 1.89 1.64l-1.8 1.48a.49.49 0 0 0 .11.83l1 .67a1 1 0 0 0 1.14 0l1.8-1.48a20 20 0 0 0 2.51 1.17l-1 1.89c-.15.3.07.65.5.79l1.26.41a.87.87 0 0 0 1-.29l.95-1.89a26 26 0 0 0 2.84.55v2.08c0 .33.37.62.82.65l1.34.1c.45 0 .81-.21.81-.54v-2.08h1.28c.43 0 1-.06 1.55-.12l1 2a1 1 0 0 0 1 .44l1.25-.22c.42-.07.63-.4.48-.72l-1-2a18.5 18.5 0 0 0 2.48-.81l1.79 1.75a1.06 1.06 0 0 0 1.14.18l1-.51a.47.47 0 0 0 .11-.81l-1.8-1.73a12.4 12.4 0 0 0 1.84-1.37l2.4 1.28a1 1 0 0 0 1.1-.09l.66-.73c.23-.25.1-.61-.27-.81l-2.39-1.26a9.4 9.4 0 0 0 1-1.75l2.7.68a.76.76 0 0 0 .93-.34l.26-.87c.08-.29-.19-.61-.62-.72l-2.69-.67a8.3 8.3 0 0 0 .12-1.94h2.7c.43 0 .73-.23.67-.53l-.17-.9a.86.86 0 0 0-.71-.57m-17.72 7.54c-5.32.2-10.28-2.75-11-6.52s2.84-6.77 8-6.92 9.95 2.62 10.88 6.27-2.6 6.97-7.88 7.17" style="fill:#263238"/><path d="M272 444.91c1.38 5.21-3.45 9.79-10.88 10.08s-14.44-3.88-15.46-9.18 4.06-9.4 11.18-9.61 13.78 3.64 15.16 8.71Z" style="fill:none;stroke:#fff;stroke-miterlimit:10;stroke-width:.9663184813154366px"/><path d="M305.08 453.59h-1.77a8.5 8.5 0 0 0-.61-1.3l1.56-.39a.29.29 0 0 0 .19-.47l-.41-.57a.69.69 0 0 0-.69-.23l-1.56.39a11 11 0 0 0-1.13-1.15l1.19-.76c.19-.12.17-.35 0-.51l-.61-.47a.68.68 0 0 0-.72-.08l-1.19.76a15 15 0 0 0-1.51-.88l.7-1c.11-.16 0-.38-.26-.49l-.76-.33a.56.56 0 0 0-.66.09l-.71 1a17 17 0 0 0-1.73-.53l.14-1.21c0-.19-.18-.39-.46-.44l-.82-.15c-.28-.05-.52.06-.54.25l-.15 1.21a14 14 0 0 0-1.6-.12l-.4-1.26a.62.62 0 0 0-.6-.34h-.8c-.27 0-.44.18-.38.37l.39 1.26a14 14 0 0 0-1.67.27l-.92-1.17a.72.72 0 0 0-.7-.2l-.7.22c-.24.07-.32.28-.17.46l.92 1.18a9.6 9.6 0 0 0-1.37.66l-1.37-1a.66.66 0 0 0-.71 0l-.54.39c-.18.13-.15.36.06.51l1.38 1a6.2 6.2 0 0 0-.92 1l-1.68-.65a.58.58 0 0 0-.67.13l-.3.52c-.11.18 0 .4.29.51l1.68.64a6 6 0 0 0-.37 1.24l-1.81-.25c-.28 0-.53.09-.54.29v.6c0 .2.21.4.49.44l1.82.25a6 6 0 0 0 .23 1.3l-1.75.19c-.28 0-.44.22-.36.43l.25.61a.63.63 0 0 0 .65.32l1.76-.18a8.4 8.4 0 0 0 .82 1.28l-1.49.62a.31.31 0 0 0-.12.52l.51.56a.71.71 0 0 0 .73.17l1.49-.62a12 12 0 0 0 1.34 1.09l-1.06 1c-.16.16-.1.4.13.55l.72.44a.63.63 0 0 0 .73 0l1.06-1a15 15 0 0 0 1.69.78l-.49 1.25c-.08.19.09.43.37.52l.84.27a.52.52 0 0 0 .65-.2l.49-1.25a17 17 0 0 0 1.86.37l.13 1.37a.58.58 0 0 0 .57.43l.87.06c.29 0 .51-.13.49-.35l-.14-1.38h.82c.28 0 .67 0 1-.08l.75 1.34a.66.66 0 0 0 .69.3l.8-.15a.33.33 0 0 0 .27-.48l-.75-1.33a12 12 0 0 0 1.56-.54l1.26 1.16a.7.7 0 0 0 .74.12l.63-.35c.21-.11.22-.35 0-.53l-1.26-1.15a8 8 0 0 0 1.13-.92l1.62.85a.6.6 0 0 0 .71-.06l.39-.49c.14-.17 0-.41-.22-.54l-1.62-.85a5.8 5.8 0 0 0 .58-1.17l1.8.45c.28.07.54 0 .58-.23l.13-.58c0-.2-.16-.42-.44-.49l-1.79-.45a5.8 5.8 0 0 0 0-1.31h1.77c.28 0 .47-.16.41-.37l-.15-.61a.62.62 0 0 0-.68-.38M294 458.72c-3.42.14-6.83-1.83-7.58-4.37s1.38-4.62 4.73-4.74 6.69 1.77 7.51 4.26-1.29 4.7-4.66 4.85" style="fill:#263238"/><path d="M301 453.77c1.18 3.53-1.7 6.6-6.49 6.81s-9.51-2.58-10.59-6.13 2-6.43 6.63-6.6 9.31 2.46 10.45 5.92Z" style="fill:none;stroke:#fff;stroke-miterlimit:10;stroke-width:.9663184813154366px"/></svg>