<svg xmlns="http://www.w3.org/2000/svg" viewBox="0 0 500 500"><ellipse cx="249.05" cy="335.65" rx="231.02" ry="133.38" style="fill:#f5f5f5"/><ellipse cx="112.91" cy="267.14" rx="44.84" ry="23.55" style="fill:#e6e6e6"/><ellipse cx="386.74" cy="338.61" rx="73.22" ry="38.45" style="fill:#e6e6e6"/><path d="M119.34 181.66v84.13a3.4 3.4 0 0 1-2 2.79 10.7 10.7 0 0 1-9.67 0 3.4 3.4 0 0 1-2-2.79v-84.13Z" style="fill:#b16668"/><path d="M67.23 225.2 109.56 123h5.89l42.33 102.22a5.41 5.41 0 0 1-3.95 7.37l-.69.14a5.41 5.41 0 0 0-4.31 6 5.42 5.42 0 0 1-7 5.84l-2.09-.65a5.42 5.42 0 0 0-6.52 2.94l-2.1 4.64a5.42 5.42 0 0 1-7.69 2.42l-8.17-4.92a5.39 5.39 0 0 0-5.51 0l-8.22 4.87a5.41 5.41 0 0 1-7.68-2.42l-2.11-4.64a5.4 5.4 0 0 0-6.51-2.94l-2.09.64a5.41 5.41 0 0 1-7-5.84 5.42 5.42 0 0 0-4.31-6l-.7-.14a5.41 5.41 0 0 1-3.9-7.33" style="fill:#cd5954"/><path d="M67.23 225.2 109.56 123h5.89l42.33 102.22a5.41 5.41 0 0 1-3.95 7.37l-.69.14a5.41 5.41 0 0 0-4.31 6 5.42 5.42 0 0 1-7 5.84l-2.09-.65a5.42 5.42 0 0 0-6.52 2.94l-2.1 4.64a5.42 5.42 0 0 1-7.69 2.42l-8.17-4.92a5.39 5.39 0 0 0-5.51 0l-8.22 4.87a5.41 5.41 0 0 1-7.68-2.42l-2.11-4.64a5.4 5.4 0 0 0-6.51-2.94l-2.09.64a5.41 5.41 0 0 1-7-5.84 5.42 5.42 0 0 0-4.31-6l-.7-.14a5.41 5.41 0 0 1-3.9-7.33" style="opacity:.35000000000000003"/><path d="m120.18 134.41-4.73-10.75h-5.89l-7.82 18.21-25.55 61.69a3.15 3.15 0 0 0 2.67 2.53 4.1 4.1 0 0 1 3.4 4.51l-.1.78a4.09 4.09 0 0 0 5.52 4.29l2.1-.79A4.09 4.09 0 0 1 95 217l2.59 5.83a4.09 4.09 0 0 0 5.83 1.85l7-4.68a4.09 4.09 0 0 1 4.19 0l7.83 4.68a4.09 4.09 0 0 0 5.83-1.85l2.6-5.83a4.08 4.08 0 0 1 5.19-2.15l2.09.79a4.08 4.08 0 0 0 5.52-4.29l-.09-.78a4.09 4.09 0 0 1 3.4-4.51 3.12 3.12 0 0 0 2.27-1.51Z" style="opacity:.35000000000000003"/><path d="m76.67 195.48 32.89-76.58h5.89l33.71 76.58c1.21 2.47.52 5.4-2.19 5.85a4.08 4.08 0 0 0-3.4 4.5l.09.79a4.09 4.09 0 0 1-5.52 4.29l-2.09-.79a4.08 4.08 0 0 0-5.19 2.15l-2.6 5.83a4.09 4.09 0 0 1-5.83 1.85l-7.83-4.68a4.09 4.09 0 0 0-4.19 0l-7 4.68a4.09 4.09 0 0 1-5.83-1.85L95 212.27a4.09 4.09 0 0 0-5.19-2.15l-2.1.79a4.09 4.09 0 0 1-5.52-4.29l.1-.79a4.1 4.1 0 0 0-3.4-4.51c-2.74-.44-3.44-3.38-2.22-5.84" style="fill:#cd5954"/><path d="m76.67 195.48 32.89-76.58h5.89l33.71 76.58c1.21 2.47.52 5.4-2.19 5.85a4.08 4.08 0 0 0-3.4 4.5l.09.79a4.09 4.09 0 0 1-5.52 4.29l-2.09-.79a4.08 4.08 0 0 0-5.19 2.15l-2.6 5.83a4.09 4.09 0 0 1-5.83 1.85l-7.83-4.68a4.09 4.09 0 0 0-4.19 0l-7 4.68a4.09 4.09 0 0 1-5.83-1.85L95 212.27a4.09 4.09 0 0 0-5.19-2.15l-2.1.79a4.09 4.09 0 0 1-5.52-4.29l.1-.79a4.1 4.1 0 0 0-3.4-4.51c-2.74-.44-3.44-3.38-2.22-5.84" style="opacity:.2"/><path d="M115.45 118.9h-5.89l-24 55.81a3.2 3.2 0 0 0 .6.42l.19.11a3.68 3.68 0 0 1 1.87 3.52 3.68 3.68 0 0 0 4.61 3.88l1.43-.38a3.69 3.69 0 0 1 4.18 1.82l2 3.66a3.7 3.7 0 0 0 5 1.53l5.41-2.83a3.67 3.67 0 0 1 3.41 0l5.41 2.83a3.7 3.7 0 0 0 5-1.53l2-3.66a3.68 3.68 0 0 1 4.18-1.82l1.43.38a3.69 3.69 0 0 0 4.61-3.88 3.68 3.68 0 0 1 1.87-3.52l.18-.11a3.5 3.5 0 0 0 1-.85Z" style="opacity:.2"/><path d="m84.86 165.36 24.72-52 .19-.32a3.15 3.15 0 0 1 5.46 0l.2.33 24.72 52a3.68 3.68 0 0 1-1.34 5.15l-.18.11a3.68 3.68 0 0 0-1.87 3.52 3.69 3.69 0 0 1-4.61 3.88l-1.43-.38a3.68 3.68 0 0 0-4.18 1.82l-2 3.66a3.7 3.7 0 0 1-5 1.53l-5.41-2.83a3.67 3.67 0 0 0-3.41 0l-5.41 2.83a3.7 3.7 0 0 1-5-1.53l-2-3.66a3.69 3.69 0 0 0-4.18-1.82l-1.43.38a3.68 3.68 0 0 1-4.61-3.88 3.68 3.68 0 0 0-1.87-3.52l-.19-.11a3.68 3.68 0 0 1-1.17-5.16" style="fill:#cd5954"/><path d="m84.86 165.36 24.72-52 .19-.32a3.15 3.15 0 0 1 5.46 0l.2.33 24.72 52a3.68 3.68 0 0 1-1.34 5.15l-.18.11a3.68 3.68 0 0 0-1.87 3.52 3.69 3.69 0 0 1-4.61 3.88l-1.43-.38a3.68 3.68 0 0 0-4.18 1.82l-2 3.66a3.7 3.7 0 0 1-5 1.53l-5.41-2.83a3.67 3.67 0 0 0-3.41 0l-5.41 2.83a3.7 3.7 0 0 1-5-1.53l-2-3.66a3.69 3.69 0 0 0-4.18-1.82l-1.43.38a3.68 3.68 0 0 1-4.61-3.88 3.68 3.68 0 0 0-1.87-3.52l-.19-.11a3.68 3.68 0 0 1-1.17-5.16" style="opacity:.1"/><path d="M115.8 268.43a4.2 4.2 0 0 1 8.39 0v.23a2.16 2.16 0 0 1-1.23 1.6 6.59 6.59 0 0 1-5.93 0 2.16 2.16 0 0 1-1.23-1.6z" style="fill:#37474f"/><path d="M117 270.26a2.16 2.16 0 0 1-1.23-1.6v-.23a4.2 4.2 0 0 1 2.18-3.57s-2.08 2.64-.56 4.37c1.06 1.19 4.68 1.41 6.27.47a3.1 3.1 0 0 1-.73.56 6.59 6.59 0 0 1-5.93 0" style="fill:#263238"/><path d="M122.58 270.54a3 3 0 0 1 5.93 0v.16a1.51 1.51 0 0 1-.87 1.13 4.62 4.62 0 0 1-4.19 0 1.53 1.53 0 0 1-.87-1.13z" style="fill:#455a64"/><path d="M123.45 271.83a1.53 1.53 0 0 1-.87-1.13v-.16a2.9 2.9 0 0 1 .2-1c-.07 1.27.53 2 2.4 2.27a3.66 3.66 0 0 0 3.26-.84 1.72 1.72 0 0 1-.8.84 4.62 4.62 0 0 1-4.19.02" style="fill:#37474f"/><path d="M100.85 267.57a2.94 2.94 0 0 1 5.88 0v.17a1.5 1.5 0 0 1-.86 1.12 4.62 4.62 0 0 1-4.16 0 1.54 1.54 0 0 1-.86-1.12z" style="fill:#455a64"/><path d="M101.71 268.86a1.54 1.54 0 0 1-.86-1.12v-.17a2.8 2.8 0 0 1 .2-1c-.07 1.26.53 2 2.38 2.26a3.65 3.65 0 0 0 3.24-.84 1.72 1.72 0 0 1-.8.84 4.62 4.62 0 0 1-4.16.03" style="fill:#37474f"/><circle cx="105.67" cy="176.78" r="2" style="fill:#fff;opacity:.9"/><circle cx="124.19" cy="213.92" r="2" style="fill:#fff;opacity:.9"/><circle cx="99.85" cy="248.73" r="2" style="fill:#fff;opacity:.9"/><circle cx="89.6" cy="203.38" r="2" style="fill:#fff;opacity:.9"/><circle cx="100.85" cy="173.4" r="1" style="fill:#fff;opacity:.9"/><circle cx="94.92" cy="200.06" r="1" style="fill:#fff;opacity:.9"/><circle cx="105.67" cy="243.59" r="1" style="fill:#fff;opacity:.9"/><circle cx="95.92" cy="242.5" r="1" style="fill:#fff;opacity:.9"/><circle cx="128.51" cy="207.16" r="1" style="fill:#fff;opacity:.9"/><circle cx="122.25" cy="178.78" r="1" style="fill:#fff;opacity:.9"/><path d="M376.25 199.05v137.36c0 1.65 1.09 3.29 3.27 4.55a17.39 17.39 0 0 0 15.77 0c2.18-1.26 3.27-2.9 3.27-4.55V199.05Z" style="fill:#b16668"/><path d="m461.32 270.14-69.1-166.88h-9.63l-69.1 166.89a8.82 8.82 0 0 0 6.44 12l1.12.23a8.83 8.83 0 0 1 7.05 9.75 8.84 8.84 0 0 0 11.36 9.54l3.41-1a8.82 8.82 0 0 1 10.64 4.79L357 313a8.83 8.83 0 0 0 12.54 4l13.41-8a8.82 8.82 0 0 1 9 0l13.41 8a8.83 8.83 0 0 0 12.54-4l3.44-7.58a8.82 8.82 0 0 1 10.64-4.79l3.41 1a8.83 8.83 0 0 0 11.36-9.54 8.83 8.83 0 0 1 7-9.75l1.14-.23a8.83 8.83 0 0 0 6.43-11.97" style="fill:#cd5954"/><path d="m461.32 270.14-69.1-166.88h-9.63l-69.1 166.89a8.82 8.82 0 0 0 6.44 12l1.12.23a8.83 8.83 0 0 1 7.05 9.75 8.84 8.84 0 0 0 11.36 9.54l3.41-1a8.82 8.82 0 0 1 10.64 4.79L357 313a8.83 8.83 0 0 0 12.54 4l13.41-8a8.82 8.82 0 0 1 9 0l13.41 8a8.83 8.83 0 0 0 12.54-4l3.44-7.58a8.82 8.82 0 0 1 10.64-4.79l3.41 1a8.83 8.83 0 0 0 11.36-9.54 8.83 8.83 0 0 1 7-9.75l1.14-.23a8.83 8.83 0 0 0 6.43-11.97" style="opacity:.35000000000000003"/><path d="m374.87 121.9 7.72-17.54h9.63L405 134.08l41.69 100.72a5.11 5.11 0 0 1-4.35 4.13 6.68 6.68 0 0 0-5.55 7.36l.15 1.28a6.68 6.68 0 0 1-9 7l-3.42-1.31a6.67 6.67 0 0 0-8.47 3.53l-4.24 9.51a6.67 6.67 0 0 1-9.52 3l-11.45-7.64a6.68 6.68 0 0 0-6.85 0l-12.78 7.64a6.68 6.68 0 0 1-9.52-3l-4.24-9.51a6.69 6.69 0 0 0-8.48-3.53l-3.42 1.31a6.68 6.68 0 0 1-9-7l.15-1.27a6.68 6.68 0 0 0-5.55-7.37 5.08 5.08 0 0 1-3.71-2.46Z" style="opacity:.35000000000000003"/><path d="m445.92 221.62-53.7-125h-9.63l-55 125c-2 4-.85 8.81 3.58 9.54a6.68 6.68 0 0 1 5.55 7.36l-.15 1.28a6.67 6.67 0 0 0 9 7l3.42-1.3a6.68 6.68 0 0 1 8.48 3.52l4.24 9.51a6.67 6.67 0 0 0 9.52 3l12.77-7.6a6.68 6.68 0 0 1 6.85 0l11.45 7.63a6.68 6.68 0 0 0 9.52-3L416 249a6.67 6.67 0 0 1 8.47-3.52l3.42 1.3a6.68 6.68 0 0 0 9-7l-.15-1.28a6.67 6.67 0 0 1 5.55-7.36c4.48-.71 5.61-5.5 3.63-9.52" style="fill:#cd5954"/><path d="m445.92 221.62-53.7-125h-9.63l-55 125c-2 4-.85 8.81 3.58 9.54a6.68 6.68 0 0 1 5.55 7.36l-.15 1.28a6.67 6.67 0 0 0 9 7l3.42-1.3a6.68 6.68 0 0 1 8.48 3.52l4.24 9.51a6.67 6.67 0 0 0 9.52 3l12.77-7.6a6.68 6.68 0 0 1 6.85 0l11.45 7.63a6.68 6.68 0 0 0 9.52-3L416 249a6.67 6.67 0 0 1 8.47-3.52l3.42 1.3a6.68 6.68 0 0 0 9-7l-.15-1.28a6.67 6.67 0 0 1 5.55-7.36c4.48-.71 5.61-5.5 3.63-9.52" style="opacity:.2"/><path d="M382.59 96.59h9.63l39.13 91.11a6.5 6.5 0 0 1-1 .7l-.3.16a6 6 0 0 0-3.05 5.76 6 6 0 0 1-7.52 6.33l-2.34-.62a6 6 0 0 0-6.83 3l-3.21 6a6 6 0 0 1-8.08 2.49l-8.84-4.61a6 6 0 0 0-5.57 0l-8.84 4.61a6 6 0 0 1-8.07-2.52l-3.2-6a6 6 0 0 0-6.84-3l-2.33.62a6 6 0 0 1-7.53-6.33 6 6 0 0 0-3.05-5.76l-.3-.16a5.9 5.9 0 0 1-1.65-1.4Z" style="opacity:.2"/><path d="M432.54 172.44 392.18 87.6l-.32-.51a5.13 5.13 0 0 0-8.91 0l-.32.52-40.36 84.83a6 6 0 0 0 2.18 8.41l.3.17a6 6 0 0 1 3.05 5.76 6 6 0 0 0 7.53 6.32l2.33-.61a6 6 0 0 1 6.84 3l3.2 6a6 6 0 0 0 8.08 2.49l8.84-4.62a6 6 0 0 1 5.57 0l8.84 4.62a6 6 0 0 0 8.08-2.49l3.21-6a6 6 0 0 1 6.83-3l2.34.61a6 6 0 0 0 7.52-6.32 6 6 0 0 1 3.05-5.76l.3-.17a6 6 0 0 0 2.18-8.41" style="fill:#cd5954"/><path d="M432.54 172.44 392.18 87.6l-.32-.51a5.13 5.13 0 0 0-8.91 0l-.32.52-40.36 84.83a6 6 0 0 0 2.18 8.41l.3.17a6 6 0 0 1 3.05 5.76 6 6 0 0 0 7.53 6.32l2.33-.61a6 6 0 0 1 6.84 3l3.2 6a6 6 0 0 0 8.08 2.49l8.84-4.62a6 6 0 0 1 5.57 0l8.84 4.62a6 6 0 0 0 8.08-2.49l3.21-6a6 6 0 0 1 6.83-3l2.34.61a6 6 0 0 0 7.52-6.32 6 6 0 0 1 3.05-5.76l.3-.17a6 6 0 0 0 2.18-8.41" style="opacity:.1"/><g style="opacity:.9"><path d="M357.07 145.84a4.62 4.62 0 0 0 5.77 4.85l1.78-.47a4.6 4.6 0 0 1 5.24 2.27l2.45 4.58a4.62 4.62 0 0 0 6.19 1.93l6.77-3.54a4.6 4.6 0 0 1 4.27 0l6.77 3.54a4.62 4.62 0 0 0 6.19-1.91l2.45-4.58a4.62 4.62 0 0 1 5.24-2.28l1.79.48a4.61 4.61 0 0 0 5.76-4.85 4.58 4.58 0 0 1 .76-2.92L392.18 87.6l-.32-.51a5.13 5.13 0 0 0-8.91 0l-.32.52-26.31 55.31a4.6 4.6 0 0 1 .75 2.92" style="fill:#fff"/></g><path d="M382 340.72a6.85 6.85 0 0 0-13.69 0 1 1 0 0 0 0 .19 1 1 0 0 0 0 .19 3.52 3.52 0 0 0 2 2.61 10.74 10.74 0 0 0 9.69 0 3.5 3.5 0 0 0 2-2.61 1 1 0 0 0 0-.19 1 1 0 0 0 0-.19" style="fill:#37474f"/><path d="M380 343.71a3.5 3.5 0 0 0 2-2.61 1 1 0 0 0 0-.19 1 1 0 0 0 0-.19 6.83 6.83 0 0 0-3.56-5.82c0 .07 3.41 4.3.92 7.13-1.72 2-7.64 2.3-10.23.76a5 5 0 0 0 1.18.92 10.74 10.74 0 0 0 9.69 0" style="fill:#263238"/><path d="M371 344.16a4.84 4.84 0 0 0-9.67 0 .7.7 0 0 0 0 .14.6.6 0 0 0 0 .13 2.49 2.49 0 0 0 1.41 1.85 7.56 7.56 0 0 0 6.84 0 2.53 2.53 0 0 0 1.42-1.85z" style="fill:#455a64"/><path d="M369.53 346.28a2.53 2.53 0 0 0 1.42-1.85v-.27a4.8 4.8 0 0 0-.33-1.6c.12 2.07-.86 3.33-3.92 3.72s-5.05-.91-5.31-1.38a2.83 2.83 0 0 0 1.3 1.38 7.56 7.56 0 0 0 6.84 0" style="fill:#37474f"/><path d="M406.43 339.32a4.8 4.8 0 0 0-9.6 0v.27a2.45 2.45 0 0 0 1.4 1.83 7.52 7.52 0 0 0 6.79 0 2.49 2.49 0 0 0 1.41-1.83z" style="fill:#455a64"/><path d="M405 341.42a2.49 2.49 0 0 0 1.41-1.83v-.27a4.7 4.7 0 0 0-.33-1.59c.12 2.06-.85 3.31-3.89 3.69s-5-.9-5.27-1.36a2.82 2.82 0 0 0 1.29 1.36 7.52 7.52 0 0 0 6.79 0" style="fill:#37474f"/><circle cx="369" cy="162.5" r="3" style="fill:#fff;opacity:.9"/><circle cx="405" cy="248.5" r="3" style="fill:#fff;opacity:.9"/><circle cx="366" cy="304.5" r="3" style="fill:#fff;opacity:.9"/><circle cx="382" cy="165.5" r="2" style="fill:#fff;opacity:.9"/><circle cx="395" cy="244.5" r="2" style="fill:#fff;opacity:.9"/><circle cx="376" cy="301.5" r="2" style="fill:#fff;opacity:.9"/><circle cx="373" cy="168.5" r="1" style="fill:#fff;opacity:.9"/><circle cx="405" cy="159.5" r="1" style="fill:#fff;opacity:.9"/><circle cx="409" cy="240.5" r="1" style="fill:#fff;opacity:.9"/><path d="m324.13 419.37-139.95-80.8-13.7 7.91v2.32l140 80.8c4 2.33 10.37 2.45 14.15.26 1.82-1.05 2.72-2.44 2.7-3.87v-2.31c-.05-1.53-1.11-3.1-3.2-4.31" style="fill:#cd5954"/><path d="m324.13 419.38-139.95-80.81-13.7 7.91v2.32l140 80.8c4 2.33 10.37 2.45 14.15.26 1.82-1.05 2.72-2.44 2.7-3.87v-2.31c-.05-1.53-1.11-3.1-3.2-4.3" style="opacity:.2"/><path d="M310.43 427.28c4 2.33 10.37 2.45 14.15.26s3.58-5.84-.45-8.17l-139.95-80.8-13.7 7.91Z" style="fill:#cd5954"/><ellipse cx="288.62" cy="410.74" rx="1.71" ry=".99" style="fill:#455a64"/><path d="M294.26 414a.74.74 0 0 0 0 1.4 2.65 2.65 0 0 0 2.42 0 .74.74 0 0 0 0-1.4 2.71 2.71 0 0 0-2.42 0" style="fill:#455a64"/><ellipse cx="295.47" cy="406.78" rx="1.71" ry=".99" style="fill:#455a64"/><path d="M301.11 410a.74.74 0 0 0 0 1.4 2.71 2.71 0 0 0 2.42 0 .74.74 0 0 0 0-1.4 2.65 2.65 0 0 0-2.42 0M241.25 365.54c-2.65 0-10.84 3-10.84 13.57l3.41 2" style="fill:#455a64"/><path d="M244.16 375.07v-5.91c0-3.26-2.31-4.57-5.17-2.92a11.41 11.41 0 0 0-5.17 8.92v5.93Z" style="fill:#263238"/><path d="m289.88 435.2-139.95-80.81-13.69 7.91v2.32l140 80.8c4 2.33 10.36 2.45 14.15.26 1.82-1.05 2.71-2.44 2.7-3.87v-2.31c-.09-1.5-1.09-3.1-3.21-4.3" style="fill:#cd5954"/><path d="m289.88 435.2-139.95-80.8-13.69 7.9v2.32l140 80.8c4 2.33 10.36 2.45 14.15.27 1.82-1.06 2.71-2.45 2.7-3.88v-2.3c-.09-1.51-1.09-3.1-3.21-4.31" style="opacity:.2"/><path d="M276.19 443.1c4 2.33 10.36 2.45 14.15.26s3.58-5.84-.46-8.16l-139.95-80.81-13.69 7.91Z" style="fill:#cd5954"/><path d="M253.17 425.86a.74.74 0 0 0 0 1.4 2.65 2.65 0 0 0 2.42 0 .74.74 0 0 0 0-1.4 2.65 2.65 0 0 0-2.42 0M260 429.81a.74.74 0 0 0 0 1.4 2.65 2.65 0 0 0 2.42 0 .74.74 0 0 0 0-1.4 2.71 2.71 0 0 0-2.42 0M260 421.91a.73.73 0 0 0 0 1.39 2.65 2.65 0 0 0 2.42 0 .73.73 0 0 0 0-1.39 2.65 2.65 0 0 0-2.42 0M266.87 425.86a.74.74 0 0 0 0 1.4 2.71 2.71 0 0 0 2.42 0 .74.74 0 0 0 0-1.4 2.65 2.65 0 0 0-2.42 0M207 381.36c-2.66 0-10.85 3-10.85 13.57l3.42 2" style="fill:#455a64"/><path d="M209.92 390.89V385c0-3.26-2.32-4.57-5.17-2.92a11.38 11.38 0 0 0-5.17 8.92v5.93Z" style="fill:#263238"/><path d="M302.82 199.62c-2.24-6.38-4.58-5.42-7.38-.93a23.9 23.9 0 0 1-4.19 5.13l-6 3.34a4.44 4.44 0 0 1-1.73 2.56l5.71 7.72a54 54 0 0 0 5.85-3.75c7.77-6.03 9.15-10.07 7.74-14.07" style="fill:#37474f"/><path d="M283.49 209.72c-4.36 3.2-14.77 5.91-21 7.71-2.63-6.36-7.94-15.89-11-22.58-5.26-11.54-10.49-15.07-18.15-14.23-3.66 6.42 2.71 16.29 7.06 23.21 4 6.42 12.93 22 14.52 24.68.23.39.49.76.74 1.11a6.14 6.14 0 0 0 7.37 1.91c7.43-3.22 16.25-8.63 23-12.33 1-.56 2.08-1.15 3.14-1.76-.73-4.32-2.76-6.7-5.68-7.72" style="fill:#cd5954"/><path d="M283.49 209.72c-4.36 3.2-14.77 5.91-21 7.71-2.63-6.36-7.94-15.89-11-22.58-5.26-11.54-10.49-15.07-18.15-14.23-3.66 6.42 2.71 16.29 7.06 23.21 4 6.42 12.93 22 14.52 24.68.23.39.49.76.74 1.11a6.14 6.14 0 0 0 7.37 1.91c7.43-3.22 16.25-8.63 23-12.33 1-.56 2.08-1.15 3.14-1.76-.73-4.32-2.76-6.7-5.68-7.72" style="opacity:.2"/><path d="m315.13 352.68-1.1-13.12-18.46-138.47-1.27.17 18.45 138.47z" style="fill:#37474f"/><path d="m300.35 212-7.55 1.34-2.64-14.83a3.84 3.84 0 0 1 3.11-4.45 3.84 3.84 0 0 1 4.45 3.11Z" style="fill:#cd5954"/><path d="m300.35 212-7.55 1.34-2.64-14.83a3.84 3.84 0 0 1 3.11-4.45 3.84 3.84 0 0 1 4.45 3.11Z" style="opacity:.2"/><path d="m323.73 338.27-19.33 2.57a15.34 15.34 0 0 1 19.33-2.57" style="fill:#cd5954"/><path d="M291.13 204a13.6 13.6 0 0 0 .67-3.4 2.32 2.32 0 0 0-2-2.47c-.5 0-.46 1.23-1.4 3-1.2 2.32-2.58 3.26-3.22 6" style="fill:#37474f"/><path d="M227.05 175.17h-.54a19.34 19.34 0 0 1-19.35-19.34 20.41 20.41 0 0 1 20.41-20.41 19.37 19.37 0 0 1 19.37 19.37v.49a19.88 19.88 0 0 1-19.89 19.89" style="fill:#263238"/><path d="M196.5 182.93c6.49.38 12-5.1 12.39-12.4V149a12.4 12.4 0 0 0-12.39 12.4ZM240.67 370.06s-.8.05-.92.69-.18 2-.5 3.25a18.3 18.3 0 0 0-.55 6.07c.27 1.42 3.53 3.55 5.76 3.93s5.38 2.58 7.13 4.22a17.1 17.1 0 0 0 9.91 3.9c3.72 0 6.32-1.24 7.54-3.24s-1.12-2.23-5.37-5l-3.31-2.15c-6.74-4.4-9.21-6.76-11.11-11.17Z" style="fill:#263238"/><path d="M249.3 367.67c-.11-3.17 1.51-26.51 1.51-26.51l-13.19 1.48c3.12 18.61 3.37 24.95 3 27.66a2.5 2.5 0 0 0-.08.77c0 3.62 4.09 5.57 7.27 8 1.26.95 4.49 3.88 8.28 5.17 2.45.84 7 1.15 7.56-.33-3.88-3-9.15-6.83-12.23-10.2-1.42-1.63-2.01-2.87-2.12-6.04" style="fill:#b16668"/><path d="M205.09 385.88s-.79.05-.92.69-.18 2-.5 3.24a18.6 18.6 0 0 0-.55 6.07c.27 1.43 3.53 3.56 5.76 3.93s5.38 2.58 7.13 4.23a17.16 17.16 0 0 0 9.91 3.9c3.72 0 6.32-1.25 7.55-3.24s-1.12-2.23-5.38-5l-3.3-2.14c-6.74-4.4-9.21-6.76-11.12-11.17Z" style="fill:#263238"/><path d="M213.72 383.48c-.11-3.16 1.66-29.89 1.66-29.89l-12-1c1.5 18.83 2.09 30.84 1.73 33.55a3 3 0 0 0-.08.78c0 3.62 4.09 5.57 7.28 8 1.25.95 4.48 3.88 8.27 5.17 2.45.83 7 1.15 7.56-.34-3.87-2.95-9.14-6.82-12.22-10.19-1.52-1.67-2.08-2.91-2.2-6.08" style="fill:#b16668"/><path d="M206.37 235.62c-7.2 15.71.88 75.77.88 75.77-.21 2.55-3.13 7.57-4.21 18.79-1.29 13.26 1.87 49.76 1.87 49.76a9.77 9.77 0 0 0 9.11.13s9.25-53.11 10.91-66.29c1.45-11.51 3.61-41.52 3.61-41.52l7.91 36.74a68 68 0 0 0-2.5 11.35c-.75 7.75 6.8 46.67 6.8 46.67s3.53 1.86 8.55-.17c0 0 3.34-50.27 4-59.61 1.18-15.69-3-64.63-5.86-73.92Z" style="fill:#cd5954"/><path d="M206.37 235.62c-7.2 15.71.88 75.77.88 75.77-.21 2.55-3.13 7.57-4.21 18.79-1.29 13.26 1.87 49.76 1.87 49.76a9.77 9.77 0 0 0 9.11.13s9.25-53.11 10.91-66.29c1.45-11.51 3.61-41.52 3.61-41.52l7.91 36.74a68 68 0 0 0-2.5 11.35c-.75 7.75 6.8 46.67 6.8 46.67s3.53 1.86 8.55-.17c0 0 3.34-50.27 4-59.61 1.18-15.69-3-64.63-5.86-73.92Z" style="opacity:.35000000000000003"/><path d="m228.54 272.26 2.33-14.59s9.88-2.05 14.36-6.26c0 0-4.7 5.85-11.68 7.76l-2.62 11.24 4.58 34Z" style="opacity:.2"/><path d="M210.42 214.39a48.78 48.78 0 0 0 35.25-.47c2.84-7.13 3.59-11.64 2.39-16.35-2.22-8.74-10.86-17.26-14.68-16.95l-14.33.42c-9.22.63-9.87 5.09-12.17 10a15.76 15.76 0 0 0-.44 11.88Z" style="fill:#37474f"/><path d="M245.67 213.92s-3.57 1.84-12.74 3-20.05-1.19-22.51-2.53l2.45 7.08s-3 7.28-6.5 14.15c16.12 9 36.26 4.27 41.11-2.3.2-1.39-1.04-12.32-1.81-19.4" style="fill:#ebebeb"/><path d="M228.4 225.4a.31.31 0 0 1-.08-.26.5.5 0 0 1 .14-.27l2.95-2.83.22-.2a.64.64 0 0 1 .25-.12l1.06-.18a.3.3 0 0 1 .36.3v8.75a.4.4 0 0 1-.11.28.4.4 0 0 1-.25.15l-1.1.2a.33.33 0 0 1-.26-.07.3.3 0 0 1-.11-.24v-6.69l-1.92 1.85a.47.47 0 0 1-.27.12.36.36 0 0 1-.25-.1ZM239.24 224.6a2 2 0 0 0 .52-.76 2 2 0 0 0 .12-.64 1.2 1.2 0 0 0-.34-.88 1.28 1.28 0 0 0-1.13-.19 1.7 1.7 0 0 0-1.09.56 2.6 2.6 0 0 0-.49 1 .64.64 0 0 1-.17.3.6.6 0 0 1-.24.13l-1.07.19a.38.38 0 0 1-.26-.06.26.26 0 0 1-.09-.25 3.4 3.4 0 0 1 .31-1.2 4.2 4.2 0 0 1 .73-1.08 4.3 4.3 0 0 1 1.06-.83 4.1 4.1 0 0 1 1.32-.47 3.5 3.5 0 0 1 1.48 0 2.5 2.5 0 0 1 1 .53 2.26 2.26 0 0 1 .61.87 2.8 2.8 0 0 1 .19 1 4.5 4.5 0 0 1 0 .65 2.2 2.2 0 0 1-.19.65 4 4 0 0 1-.43.71 7 7 0 0 1-.76.84l-2.51 2.74 3.77-.67a.33.33 0 0 1 .26.06.32.32 0 0 1 .11.24v1a.48.48 0 0 1-.37.43l-6.33 1.11a.3.3 0 0 1-.36-.3v-.83a.72.72 0 0 1 .13-.42 2 2 0 0 1 .23-.28Z" style="fill:#37474f"/><path d="M239.15 144.44c3 1.66 5.71 6.28 5.45 17.77-.23 9.74-3.39 12.15-5 12.84s-4.65.27-7.62-.22v5.84c2.09 2.83-6.54 4.36-12.24.35v-12.94s-2 2.68-5.28.5-3.41-7.57-1.5-9.51 6-1.32 6.78 1.35c0 0 .19-2 1.26-2a24.7 24.7 0 0 0 9.32-2.61c7.25-3.96 7.84-7.39 8.83-11.37" style="fill:#b16668"/><path d="m242.83 155.82-2.72-1.3a1.44 1.44 0 0 1 2-.75 1.59 1.59 0 0 1 .72 2.05M230.35 154.26l-2.55 1.61a1.45 1.45 0 0 1 .42-2.06 1.59 1.59 0 0 1 2.13.45M219.66 157.74l.17 6a2.89 2.89 0 0 0 3-3 3.14 3.14 0 0 0-3.17-3M208.89 138.58l5 3.28a2.89 2.89 0 0 0-.74-4.12 3.14 3.14 0 0 0-4.26.84" style="fill:#263238"/><path d="m214.56 134.5-.48 5.95a2.89 2.89 0 0 0 3.26-2.63 3.12 3.12 0 0 0-2.78-3.32M231.58 159.39a1.23 1.23 0 1 1-2.45.12 1.23 1.23 0 0 1 1.16-1.33 1.25 1.25 0 0 1 1.29 1.21" style="fill:#263238"/><path d="m233 168 2.85.91a1.47 1.47 0 0 1-1.85 1 1.57 1.57 0 0 1-1-1.91" style="fill:#9a4a4d"/><path d="M242.26 158.88a1.25 1.25 0 0 1-1.16 1.33 1.28 1.28 0 0 1-.13-2.55 1.25 1.25 0 0 1 1.29 1.22" style="fill:#263238"/><path d="m235.11 160 .15 5.6 3.88-1.2-3.09-4.69a.51.51 0 0 0-.94.29M232 174.83c-3.13-.41-9.58-2.27-10.58-4.81a6.55 6.55 0 0 0 2.26 3.25c1.92 1.65 8.32 3.51 8.32 3.51Z" style="fill:#9a4a4d"/><path d="M210.42 214.39a27 27 0 0 0 4.73 1.47l-1.79-8.53A19.3 19.3 0 0 1 213 202a36.6 36.6 0 0 1 1-6.62l-6.6-3.4-1.19.83a16.2 16.2 0 0 0 .26 10Z" style="fill:#263238"/><path d="M223.18 237.36a9.73 9.73 0 0 1-7.26-11.87 5 5 0 0 1 .16-.51 3.17 3.17 0 0 1 3.27-2.16 9.43 9.43 0 0 1-4-6l-.17-.95a42 42 0 0 1-4.73-1.47l2.45 7.08-.3.72c-.13.31-.3.71-.51 1.18s-.44 1-.71 1.64c-.85 1.94-2 4.5-3.3 7.2-.54 1.12-1.11 2.27-1.68 3.41.66.37 1.33.71 2 1l.51.24c.63.3 1.26.57 1.9.82l.15.07c.68.27 1.37.51 2.06.73l.52.17c.62.19 1.24.37 1.86.53l.25.07c.69.18 1.39.33 2.09.47.15 0 .31.06.47.09.62.12 1.23.22 1.85.31h.28c.7.1 1.4.17 2.1.23h.39c.63.05 1.25.09 1.87.11h2.59c.65 0 1.29 0 1.92-.09h.18c.7-.05 1.39-.12 2.06-.2h.07c.66-.08 1.31-.18 1.95-.29h.11q2-.36 3.81-.87a30 30 0 0 0 3.42-1.18 46.8 46.8 0 0 1-17.63-.48" style="fill:#e0e0e0"/><path d="M248.69 159.33v-.1c-.14-1.61-.32-3.61-.54-4.79-.84-4.36-2.44-5.2-11.74-5.21s-14.49.81-15.34 5.17c-.23 1.22-.41 3.29-.56 5v.06a5.42 5.42 0 0 0 5.38 5.89h3.25a6.17 6.17 0 0 0 5.65-3.75c.28-.66.87-1.76 1.62-1.76s1.33 1.1 1.61 1.76c1 2.29 2.15 3.77 4.6 3.77h.56a5.52 5.52 0 0 0 5.51-6Zm-5.51 4.35h-.56c-1.8 0-2.36-1.11-3.08-2.77-.6-1.38-1.57-2.75-3.13-2.76s-2.55 1.38-3.15 2.75a4.5 4.5 0 0 1-4.12 2.76h-3.25a3.76 3.76 0 0 1-3.73-4.09c.14-1.58.33-3.7.55-4.85.52-2.69 3.74-3.83 13.7-3.81s9.59 1.15 10.1 3.85c.21 1.11.39 3.18.53 4.73a3.87 3.87 0 0 1-3.86 4.19" style="fill:#cd5954"/><path d="M247 159.48a3.87 3.87 0 0 1-3.86 4.2h-.56c-1.8 0-2.36-1.11-3.08-2.77-.6-1.38-1.57-2.75-3.13-2.76s-2.55 1.38-3.15 2.75a4.5 4.5 0 0 1-4.12 2.76h-3.25a3.76 3.76 0 0 1-3.73-4.09c.14-1.58.33-3.7.55-4.85.52-2.69 3.74-3.83 13.7-3.81s9.59 1.15 10.1 3.85c.25 1.1.43 3.17.53 4.72" style="fill:#37474f;opacity:.71"/><path d="m106.15 380.71 8.09-10.39 80.35-114.27-1.05-.74-80.35 114.27z" style="fill:#37474f"/><path d="m189.62 268.84-6.46-4.13 9.41-14.55a3.45 3.45 0 0 1 4.76-1l.65.42a3.44 3.44 0 0 1 1.02 4.72Z" style="fill:#cd5954"/><path d="m189.62 268.84-6.46-4.13 9.41-14.55a3.45 3.45 0 0 1 4.76-1l.65.42a3.44 3.44 0 0 1 1.02 4.72Z" style="opacity:.2"/><path d="m122.25 376-16-11.22a15.36 15.36 0 0 1 16 11.22M184.18 217.26c5.71-3.84 16.55-9.12 22.66-13.23 8.16-5.12 9.67-14.61 7.88-22.15-11.06.51-13.5 4.25-20.86 10.13-5.92 4.73-19.8 15.5-22.08 17.58-.33.31-.64.63-.93.95-1.9 2.11-1.45 5.27-.77 8 1.88 7.64 5.14 22.28 7.79 30.16l8.27-4.21c-.72-3.9-1.26-18.99-1.96-27.23" style="fill:#cd5954"/><path d="M184.18 217.26c5.71-3.84 16.55-9.12 22.66-13.23 8.16-5.12 9.67-14.61 7.88-22.15-11.06.51-13.5 4.25-20.86 10.13-5.92 4.73-19.8 15.5-22.08 17.58-.33.31-.64.63-.93.95-1.9 2.11-1.45 5.27-.77 8 1.88 7.64 5.14 22.28 7.79 30.16l8.27-4.21c-.72-3.9-1.26-18.99-1.96-27.23" style="opacity:.2"/><path d="M192.7 250c-1.35-1.25-2.21-2.42-4.33-3.31a4.43 4.43 0 0 1-2.23-2.14 12.07 12.07 0 0 0-8.27 4.21c1 2.31 1.53 4.88 2.4 6.51 4.62 8.72 8.37 10.76 12.55 10.05 6.66-1.13 6.12-3.59 2.16-7.12a23.7 23.7 0 0 1-4.34-5M203.88 366.26c-1.95.88-1.69 2.7-1.5 7.91s.71 8.91.66 11.86-2.2 5.67-1.74 10.88a9.75 9.75 0 0 0 4.23 3.83c3 1.49 6.75 1.49 8.44 3.08a16.37 16.37 0 0 0 8.76 4.89c6.35 1.58 10.25-.32 11.75-1.19 1.29-2.19.35-6.08-1.42-7.29-3.6-2.46-6.7-3.85-10.85-7.65s-6.11-5.21-5.43-14.46c.59-7.93 1.93-10.91-.38-11.86l-.26 1.55s-.93 1.58-5.77 1.58-6.35-1.16-6.35-1.16Z" style="fill:#37474f"/><path d="m222.28 392.08-.09-.07a.54.54 0 0 0-.54.06l-5.17 3a9.81 9.81 0 0 0-4.9 8.5v2.24l6.84 4v-2.24a9.81 9.81 0 0 1 4.92-8.51l4.63-2.67a.53.53 0 0 1 .5-.08Z" style="fill:#455a64"/><path d="M228.7 396.68v.78l-.45-.29-.39.2-4.1 2.37a9 9 0 0 0-4.49 7.78v1.23l-.85 1v-2.24a9.81 9.81 0 0 1 4.92-8.51l4.63-2.67c.4-.23.73-.07.73.35" style="fill:#263238"/><path d="M237.72 350.44c-2 .88-1.19 2.72-.64 7.7a109 109 0 0 1 1 12.07c0 3-2.19 5.67-1.74 10.88a9.8 9.8 0 0 0 4.23 3.84c3 1.48 6.76 1.49 8.44 3.08a16.44 16.44 0 0 0 8.77 4.88c6.35 1.59 10.24-.32 11.74-1.18 1.29-2.2.35-6.09-1.42-7.3-3.6-2.45-6.7-3.85-10.85-7.64s-6.09-5.2-5.75-14.47c.37-9.88 1.24-10.9-1.06-11.86l-.11 1.55s-.1 1.16-4.92 1.59c-5.2.46-7.28-1-7.28-1Z" style="fill:#37474f"/><path d="m256.53 376.26-.09-.07a.54.54 0 0 0-.54.06l-5.17 3a9.83 9.83 0 0 0-4.91 8.51V390l6.85 4v-2.25a9.81 9.81 0 0 1 4.91-8.5l4.63-2.67a.55.55 0 0 1 .51-.08Z" style="fill:#455a64"/><path d="M262.94 380.86v.78l-.44-.29-.4.2-4.1 2.37a9 9 0 0 0-4.49 7.77v1.24l-.84 1v-2.25a9.81 9.81 0 0 1 4.91-8.5l4.63-2.67c.4-.23.73-.07.73.35" style="fill:#263238"/></svg>