<svg xmlns="http://www.w3.org/2000/svg" viewBox="0 0 500 500"><g id="freepik--Floor--inject-99"><ellipse cx="249.05" cy="335.65" rx="231.02" ry="133.38" style="fill:#f5f5f5"></ellipse></g><g id="freepik--Shadows--inject-99"><ellipse id="freepik--Shadow--inject-99" cx="112.91" cy="267.14" rx="44.84" ry="23.55" style="fill:#e6e6e6"></ellipse><ellipse id="freepik--shadow--inject-99" cx="386.74" cy="338.61" rx="73.22" ry="38.45" style="fill:#e6e6e6"></ellipse></g><g id="freepik--Trees--inject-99"><g id="freepik--Pine--inject-99"><path d="M119.34,181.66v84.13a3.4,3.4,0,0,1-2,2.79,10.7,10.7,0,0,1-9.67,0,3.4,3.4,0,0,1-2-2.79V181.66Z" style="fill:#b16668"></path><path d="M67.23,225.2,109.56,123h5.89l42.33,102.22a5.41,5.41,0,0,1-3.95,7.37l-.69.14a5.41,5.41,0,0,0-4.31,6h0a5.42,5.42,0,0,1-7,5.84l-2.09-.65a5.42,5.42,0,0,0-6.52,2.94l-2.1,4.64a5.42,5.42,0,0,1-7.69,2.42L115.26,249a5.39,5.39,0,0,0-5.51,0l-8.22,4.87a5.41,5.41,0,0,1-7.68-2.42l-2.11-4.64a5.4,5.4,0,0,0-6.51-2.94l-2.09.64a5.41,5.41,0,0,1-7-5.84h0a5.42,5.42,0,0,0-4.31-6l-.7-.14A5.41,5.41,0,0,1,67.23,225.2Z" style="fill:#CD5954"></path><path d="M67.23,225.2,109.56,123h5.89l42.33,102.22a5.41,5.41,0,0,1-3.95,7.37l-.69.14a5.41,5.41,0,0,0-4.31,6h0a5.42,5.42,0,0,1-7,5.84l-2.09-.65a5.42,5.42,0,0,0-6.52,2.94l-2.1,4.64a5.42,5.42,0,0,1-7.69,2.42L115.26,249a5.39,5.39,0,0,0-5.51,0l-8.22,4.87a5.41,5.41,0,0,1-7.68-2.42l-2.11-4.64a5.4,5.4,0,0,0-6.51-2.94l-2.09.64a5.41,5.41,0,0,1-7-5.84h0a5.42,5.42,0,0,0-4.31-6l-.7-.14A5.41,5.41,0,0,1,67.23,225.2Z" style="opacity:0.35000000000000003"></path><path d="M120.18,134.41l-4.73-10.75h-5.89l-7.82,18.21L76.19,203.56a3.15,3.15,0,0,0,2.67,2.53h0a4.1,4.1,0,0,1,3.4,4.51l-.1.78a4.09,4.09,0,0,0,5.52,4.29l2.1-.79A4.09,4.09,0,0,1,95,217l2.59,5.83a4.09,4.09,0,0,0,5.83,1.85l7-4.68a4.09,4.09,0,0,1,4.19,0l7.83,4.68a4.09,4.09,0,0,0,5.83-1.85l2.6-5.83a4.08,4.08,0,0,1,5.19-2.15l2.09.79a4.08,4.08,0,0,0,5.52-4.29l-.09-.78a4.09,4.09,0,0,1,3.4-4.51,3.12,3.12,0,0,0,2.27-1.51Z" style="opacity:0.35000000000000003"></path><path d="M76.67,195.48l32.89-76.58h5.89l33.71,76.58c1.21,2.47.52,5.4-2.19,5.85a4.08,4.08,0,0,0-3.4,4.5l.09.79a4.09,4.09,0,0,1-5.52,4.29l-2.09-.79a4.08,4.08,0,0,0-5.19,2.15l-2.6,5.83a4.09,4.09,0,0,1-5.83,1.85l-7.83-4.68a4.09,4.09,0,0,0-4.19,0l-7,4.68a4.09,4.09,0,0,1-5.83-1.85L95,212.27a4.09,4.09,0,0,0-5.19-2.15l-2.1.79a4.09,4.09,0,0,1-5.52-4.29l.1-.79a4.1,4.1,0,0,0-3.4-4.51h0C76.15,200.88,75.45,197.94,76.67,195.48Z" style="fill:#CD5954"></path><path d="M76.67,195.48l32.89-76.58h5.89l33.71,76.58c1.21,2.47.52,5.4-2.19,5.85a4.08,4.08,0,0,0-3.4,4.5l.09.79a4.09,4.09,0,0,1-5.52,4.29l-2.09-.79a4.08,4.08,0,0,0-5.19,2.15l-2.6,5.83a4.09,4.09,0,0,1-5.83,1.85l-7.83-4.68a4.09,4.09,0,0,0-4.19,0l-7,4.68a4.09,4.09,0,0,1-5.83-1.85L95,212.27a4.09,4.09,0,0,0-5.19-2.15l-2.1.79a4.09,4.09,0,0,1-5.52-4.29l.1-.79a4.1,4.1,0,0,0-3.4-4.51h0C76.15,200.88,75.45,197.94,76.67,195.48Z" style="opacity:0.2"></path><path d="M115.45,118.9h-5.89l-24,55.81a3.22,3.22,0,0,0,.6.42l.19.11a3.68,3.68,0,0,1,1.87,3.52h0a3.68,3.68,0,0,0,4.61,3.88l1.43-.38a3.69,3.69,0,0,1,4.18,1.82l2,3.66a3.7,3.7,0,0,0,5,1.53l5.41-2.83a3.67,3.67,0,0,1,3.41,0l5.41,2.83a3.7,3.7,0,0,0,5-1.53l2-3.66a3.68,3.68,0,0,1,4.18-1.82l1.43.38a3.69,3.69,0,0,0,4.61-3.88,3.68,3.68,0,0,1,1.87-3.52l.18-.11a3.53,3.53,0,0,0,1-.85Z" style="opacity:0.2"></path><path d="M84.86,165.36l24.72-52,.19-.32a3.15,3.15,0,0,1,5.46,0l.2.33,24.72,52a3.68,3.68,0,0,1-1.34,5.15l-.18.11a3.68,3.68,0,0,0-1.87,3.52,3.69,3.69,0,0,1-4.61,3.88l-1.43-.38a3.68,3.68,0,0,0-4.18,1.82l-2,3.66a3.7,3.7,0,0,1-5,1.53l-5.41-2.83a3.67,3.67,0,0,0-3.41,0l-5.41,2.83a3.7,3.7,0,0,1-5-1.53l-2-3.66a3.69,3.69,0,0,0-4.18-1.82l-1.43.38a3.68,3.68,0,0,1-4.61-3.88h0a3.68,3.68,0,0,0-1.87-3.52l-.19-.11A3.68,3.68,0,0,1,84.86,165.36Z" style="fill:#CD5954"></path><path d="M84.86,165.36l24.72-52,.19-.32a3.15,3.15,0,0,1,5.46,0l.2.33,24.72,52a3.68,3.68,0,0,1-1.34,5.15l-.18.11a3.68,3.68,0,0,0-1.87,3.52,3.69,3.69,0,0,1-4.61,3.88l-1.43-.38a3.68,3.68,0,0,0-4.18,1.82l-2,3.66a3.7,3.7,0,0,1-5,1.53l-5.41-2.83a3.67,3.67,0,0,0-3.41,0l-5.41,2.83a3.7,3.7,0,0,1-5-1.53l-2-3.66a3.69,3.69,0,0,0-4.18-1.82l-1.43.38a3.68,3.68,0,0,1-4.61-3.88h0a3.68,3.68,0,0,0-1.87-3.52l-.19-.11A3.68,3.68,0,0,1,84.86,165.36Z" style="opacity:0.1"></path><path d="M115.8,268.43a4.2,4.2,0,0,1,8.39,0v.23a2.16,2.16,0,0,1-1.23,1.6,6.59,6.59,0,0,1-5.93,0,2.16,2.16,0,0,1-1.23-1.6v-.23Z" style="fill:#37474f"></path><path d="M117,270.26a2.16,2.16,0,0,1-1.23-1.6v-.23a4.2,4.2,0,0,1,2.18-3.57s-2.08,2.64-.56,4.37c1.06,1.19,4.68,1.41,6.27.47a3.12,3.12,0,0,1-.73.56A6.59,6.59,0,0,1,117,270.26Z" style="fill:#263238"></path><path d="M122.58,270.54a3,3,0,0,1,5.93,0v.16a1.51,1.51,0,0,1-.87,1.13,4.62,4.62,0,0,1-4.19,0,1.53,1.53,0,0,1-.87-1.13v-.16Z" style="fill:#455a64"></path><path d="M123.45,271.83a1.53,1.53,0,0,1-.87-1.13v-.16a2.85,2.85,0,0,1,.2-1c-.07,1.27.53,2,2.4,2.27a3.66,3.66,0,0,0,3.26-.84,1.72,1.72,0,0,1-.8.84A4.62,4.62,0,0,1,123.45,271.83Z" style="fill:#37474f"></path><path d="M100.85,267.57a2.94,2.94,0,0,1,5.88,0v.17a1.5,1.5,0,0,1-.86,1.12,4.62,4.62,0,0,1-4.16,0,1.54,1.54,0,0,1-.86-1.12v-.17Z" style="fill:#455a64"></path><path d="M101.71,268.86a1.54,1.54,0,0,1-.86-1.12v-.17a2.84,2.84,0,0,1,.2-1c-.07,1.26.53,2,2.38,2.26a3.65,3.65,0,0,0,3.24-.84,1.72,1.72,0,0,1-.8.84A4.62,4.62,0,0,1,101.71,268.86Z" style="fill:#37474f"></path></g><circle cx="105.67" cy="176.78" r="2" style="fill:#fff;opacity:0.9"></circle><circle cx="124.19" cy="213.92" r="2" style="fill:#fff;opacity:0.9"></circle><circle cx="99.85" cy="248.73" r="2" style="fill:#fff;opacity:0.9"></circle><circle cx="89.6" cy="203.38" r="2" style="fill:#fff;opacity:0.9"></circle><circle cx="100.85" cy="173.4" r="1" style="fill:#fff;opacity:0.9"></circle><circle cx="94.92" cy="200.06" r="1" style="fill:#fff;opacity:0.9"></circle><circle cx="105.67" cy="243.59" r="1" style="fill:#fff;opacity:0.9"></circle><circle cx="95.92" cy="242.5" r="1" style="fill:#fff;opacity:0.9"></circle><circle cx="128.51" cy="207.16" r="1" style="fill:#fff;opacity:0.9"></circle><circle cx="122.25" cy="178.78" r="1" style="fill:#fff;opacity:0.9"></circle><g id="freepik--pine--inject-99"><path d="M376.25,199.05V336.41c0,1.65,1.09,3.29,3.27,4.55a17.39,17.39,0,0,0,15.77,0c2.18-1.26,3.27-2.9,3.27-4.55V199.05Z" style="fill:#b16668"></path><path d="M461.32,270.14l-69.1-166.88h-9.63l-69.1,166.89a8.82,8.82,0,0,0,6.44,12l1.12.23a8.83,8.83,0,0,1,7.05,9.75h0a8.84,8.84,0,0,0,11.36,9.54l3.41-1a8.82,8.82,0,0,1,10.64,4.79L357,313a8.83,8.83,0,0,0,12.54,4l13.41-8a8.82,8.82,0,0,1,9,0l13.41,8a8.83,8.83,0,0,0,12.54-4l3.44-7.58a8.82,8.82,0,0,1,10.64-4.79l3.41,1a8.83,8.83,0,0,0,11.36-9.54h0a8.83,8.83,0,0,1,7-9.75l1.14-.23A8.83,8.83,0,0,0,461.32,270.14Z" style="fill:#CD5954"></path><path d="M461.32,270.14l-69.1-166.88h-9.63l-69.1,166.89a8.82,8.82,0,0,0,6.44,12l1.12.23a8.83,8.83,0,0,1,7.05,9.75h0a8.84,8.84,0,0,0,11.36,9.54l3.41-1a8.82,8.82,0,0,1,10.64,4.79L357,313a8.83,8.83,0,0,0,12.54,4l13.41-8a8.82,8.82,0,0,1,9,0l13.41,8a8.83,8.83,0,0,0,12.54-4l3.44-7.58a8.82,8.82,0,0,1,10.64-4.79l3.41,1a8.83,8.83,0,0,0,11.36-9.54h0a8.83,8.83,0,0,1,7-9.75l1.14-.23A8.83,8.83,0,0,0,461.32,270.14Z" style="opacity:0.35000000000000003"></path><path d="M374.87,121.9l7.72-17.54h9.63L405,134.08,446.69,234.8a5.11,5.11,0,0,1-4.35,4.13h0a6.68,6.68,0,0,0-5.55,7.36l.15,1.28a6.68,6.68,0,0,1-9,7l-3.42-1.31a6.67,6.67,0,0,0-8.47,3.53l-4.24,9.51a6.67,6.67,0,0,1-9.52,3l-11.45-7.64a6.68,6.68,0,0,0-6.85,0l-12.78,7.64a6.68,6.68,0,0,1-9.52-3l-4.24-9.51a6.69,6.69,0,0,0-8.48-3.53l-3.42,1.31a6.68,6.68,0,0,1-9-7l.15-1.27a6.68,6.68,0,0,0-5.55-7.37,5.08,5.08,0,0,1-3.71-2.46Z" style="opacity:0.35000000000000003"></path><path d="M445.92,221.62l-53.7-125h-9.63l-55,125c-2,4-.85,8.81,3.58,9.54a6.68,6.68,0,0,1,5.55,7.36l-.15,1.28a6.67,6.67,0,0,0,9,7l3.42-1.3a6.68,6.68,0,0,1,8.48,3.52l4.24,9.51a6.67,6.67,0,0,0,9.52,3L384,253.93a6.68,6.68,0,0,1,6.85,0l11.45,7.63a6.68,6.68,0,0,0,9.52-3L416,249a6.67,6.67,0,0,1,8.47-3.52l3.42,1.3a6.68,6.68,0,0,0,9-7l-.15-1.28a6.67,6.67,0,0,1,5.55-7.36h0C446.77,230.43,447.9,225.64,445.92,221.62Z" style="fill:#CD5954"></path><path d="M445.92,221.62l-53.7-125h-9.63l-55,125c-2,4-.85,8.81,3.58,9.54a6.68,6.68,0,0,1,5.55,7.36l-.15,1.28a6.67,6.67,0,0,0,9,7l3.42-1.3a6.68,6.68,0,0,1,8.48,3.52l4.24,9.51a6.67,6.67,0,0,0,9.52,3L384,253.93a6.68,6.68,0,0,1,6.85,0l11.45,7.63a6.68,6.68,0,0,0,9.52-3L416,249a6.67,6.67,0,0,1,8.47-3.52l3.42,1.3a6.68,6.68,0,0,0,9-7l-.15-1.28a6.67,6.67,0,0,1,5.55-7.36h0C446.77,230.43,447.9,225.64,445.92,221.62Z" style="opacity:0.2"></path><path d="M382.59,96.59h9.63l39.13,91.11a6.51,6.51,0,0,1-1,.7l-.3.16a6,6,0,0,0-3.05,5.76h0a6,6,0,0,1-7.52,6.33l-2.34-.62a6,6,0,0,0-6.83,3l-3.21,6a6,6,0,0,1-8.08,2.49l-8.84-4.61a6,6,0,0,0-5.57,0l-8.84,4.61A6,6,0,0,1,367.7,209l-3.2-6a6,6,0,0,0-6.84-3l-2.33.62a6,6,0,0,1-7.53-6.33,6,6,0,0,0-3.05-5.76l-.3-.16a5.93,5.93,0,0,1-1.65-1.4Z" style="opacity:0.2"></path><path d="M432.54,172.44,392.18,87.6l-.32-.51a5.13,5.13,0,0,0-8.91,0l-.32.52-40.36,84.83a6,6,0,0,0,2.18,8.41l.3.17a6,6,0,0,1,3.05,5.76,6,6,0,0,0,7.53,6.32l2.33-.61a6,6,0,0,1,6.84,3l3.2,6a6,6,0,0,0,8.08,2.49l8.84-4.62a6,6,0,0,1,5.57,0l8.84,4.62a6,6,0,0,0,8.08-2.49l3.21-6a6,6,0,0,1,6.83-3l2.34.61a6,6,0,0,0,7.52-6.32h0a6,6,0,0,1,3.05-5.76l.3-.17A6,6,0,0,0,432.54,172.44Z" style="fill:#CD5954"></path><path d="M432.54,172.44,392.18,87.6l-.32-.51a5.13,5.13,0,0,0-8.91,0l-.32.52-40.36,84.83a6,6,0,0,0,2.18,8.41l.3.17a6,6,0,0,1,3.05,5.76,6,6,0,0,0,7.53,6.32l2.33-.61a6,6,0,0,1,6.84,3l3.2,6a6,6,0,0,0,8.08,2.49l8.84-4.62a6,6,0,0,1,5.57,0l8.84,4.62a6,6,0,0,0,8.08-2.49l3.21-6a6,6,0,0,1,6.83-3l2.34.61a6,6,0,0,0,7.52-6.32h0a6,6,0,0,1,3.05-5.76l.3-.17A6,6,0,0,0,432.54,172.44Z" style="opacity:0.1"></path><g style="opacity:0.9"><path d="M357.07,145.84a4.62,4.62,0,0,0,5.77,4.85l1.78-.47a4.6,4.6,0,0,1,5.24,2.27l2.45,4.58A4.62,4.62,0,0,0,378.5,159l6.77-3.54a4.6,4.6,0,0,1,4.27,0l6.77,3.54a4.62,4.62,0,0,0,6.19-1.91l2.45-4.58a4.62,4.62,0,0,1,5.24-2.28l1.79.48a4.61,4.61,0,0,0,5.76-4.85h0a4.58,4.58,0,0,1,.76-2.92L392.18,87.6l-.32-.51a5.13,5.13,0,0,0-8.91,0l-.32.52-26.31,55.31A4.59,4.59,0,0,1,357.07,145.84Z" style="fill:#fff"></path></g><path d="M382,340.72a6.85,6.85,0,0,0-13.69,0,1.15,1.15,0,0,0,0,.19,1.28,1.28,0,0,0,0,.19,3.52,3.52,0,0,0,2,2.61,10.74,10.74,0,0,0,9.69,0,3.5,3.5,0,0,0,2-2.61,1.28,1.28,0,0,0,0-.19A1.15,1.15,0,0,0,382,340.72Z" style="fill:#37474f"></path><path d="M380,343.71a3.5,3.5,0,0,0,2-2.61,1.28,1.28,0,0,0,0-.19,1.15,1.15,0,0,0,0-.19,6.83,6.83,0,0,0-3.56-5.82c0,.07,3.41,4.3.92,7.13-1.72,2-7.64,2.3-10.23.76a5,5,0,0,0,1.18.92A10.74,10.74,0,0,0,380,343.71Z" style="fill:#263238"></path><path d="M371,344.16a4.84,4.84,0,0,0-9.67,0,.66.66,0,0,0,0,.14.57.57,0,0,0,0,.13,2.49,2.49,0,0,0,1.41,1.85,7.56,7.56,0,0,0,6.84,0,2.53,2.53,0,0,0,1.42-1.85v-.27Z" style="fill:#455a64"></path><path d="M369.53,346.28a2.53,2.53,0,0,0,1.42-1.85v-.27a4.76,4.76,0,0,0-.33-1.6c.12,2.07-.86,3.33-3.92,3.72s-5.05-.91-5.31-1.38a2.83,2.83,0,0,0,1.3,1.38A7.56,7.56,0,0,0,369.53,346.28Z" style="fill:#37474f"></path><path d="M406.43,339.32a4.8,4.8,0,0,0-9.6,0v.27a2.45,2.45,0,0,0,1.4,1.83,7.52,7.52,0,0,0,6.79,0,2.49,2.49,0,0,0,1.41-1.83v-.27Z" style="fill:#455a64"></path><path d="M405,341.42a2.49,2.49,0,0,0,1.41-1.83v-.27a4.7,4.7,0,0,0-.33-1.59c.12,2.06-.85,3.31-3.89,3.69s-5-.9-5.27-1.36a2.82,2.82,0,0,0,1.29,1.36A7.52,7.52,0,0,0,405,341.42Z" style="fill:#37474f"></path></g><circle cx="369" cy="162.5" r="3" style="fill:#fff;opacity:0.9"></circle><circle cx="405" cy="248.5" r="3" style="fill:#fff;opacity:0.9"></circle><circle cx="366" cy="304.5" r="3" style="fill:#fff;opacity:0.9"></circle><circle cx="382" cy="165.5" r="2" style="fill:#fff;opacity:0.9"></circle><circle cx="395" cy="244.5" r="2" style="fill:#fff;opacity:0.9"></circle><circle cx="376" cy="301.5" r="2" style="fill:#fff;opacity:0.9"></circle><circle cx="373" cy="168.5" r="1" style="fill:#fff;opacity:0.9"></circle><circle cx="405" cy="159.5" r="1" style="fill:#fff;opacity:0.9"></circle><circle cx="409" cy="240.5" r="1" style="fill:#fff;opacity:0.9"></circle></g><g id="freepik--Character--inject-99"><path d="M324.13,419.37l-139.95-80.8-13.7,7.91v2.32l140,80.8c4,2.33,10.37,2.45,14.15.26,1.82-1.05,2.72-2.44,2.7-3.87,0,0,0-1.62,0-2.31C327.28,422.15,326.22,420.58,324.13,419.37Z" style="fill:#CD5954"></path><path d="M324.13,419.38,184.18,338.57l-13.7,7.91v2.32l140,80.8c4,2.33,10.37,2.45,14.15.26,1.82-1.05,2.72-2.44,2.7-3.87,0,0,0-1.62,0-2.31C327.28,422.15,326.22,420.58,324.13,419.38Z" style="opacity:0.2"></path><path d="M310.43,427.28c4,2.33,10.37,2.45,14.15.26s3.58-5.84-.45-8.17l-139.95-80.8-13.7,7.91Z" style="fill:#CD5954"></path><ellipse cx="288.62" cy="410.74" rx="1.71" ry="0.99" style="fill:#455a64"></ellipse><path d="M294.26,414a.74.74,0,0,0,0,1.4,2.65,2.65,0,0,0,2.42,0,.74.74,0,0,0,0-1.4A2.71,2.71,0,0,0,294.26,414Z" style="fill:#455a64"></path><ellipse cx="295.47" cy="406.78" rx="1.71" ry="0.99" style="fill:#455a64"></ellipse><path d="M301.11,410a.74.74,0,0,0,0,1.4,2.71,2.71,0,0,0,2.42,0,.74.74,0,0,0,0-1.4A2.65,2.65,0,0,0,301.11,410Z" style="fill:#455a64"></path><path d="M241.25,365.54c-2.65,0-10.84,3-10.84,13.57l3.41,2" style="fill:#455a64"></path><path d="M244.16,375.07v-5.91c0-3.26-2.31-4.57-5.17-2.92a11.41,11.41,0,0,0-5.17,8.92v5.93Z" style="fill:#263238"></path><path d="M289.88,435.2,149.93,354.39l-13.69,7.91v2.32l140,80.8c4,2.33,10.36,2.45,14.15.26,1.82-1.05,2.71-2.44,2.7-3.87,0,0,0-1.62,0-2.31C293,438,292,436.4,289.88,435.2Z" style="fill:#CD5954"></path><path d="M289.88,435.2,149.93,354.4l-13.69,7.9v2.32l140,80.8c4,2.33,10.36,2.45,14.15.27,1.82-1.06,2.71-2.45,2.7-3.88,0,0,0-1.62,0-2.3C293,438,292,436.41,289.88,435.2Z" style="opacity:0.2"></path><path d="M276.19,443.1c4,2.33,10.36,2.45,14.15.26s3.58-5.84-.46-8.16L149.93,354.39l-13.69,7.91Z" style="fill:#CD5954"></path><path d="M253.17,425.86a.74.74,0,0,0,0,1.4,2.65,2.65,0,0,0,2.42,0,.74.74,0,0,0,0-1.4A2.65,2.65,0,0,0,253.17,425.86Z" style="fill:#455a64"></path><path d="M260,429.81a.74.74,0,0,0,0,1.4,2.65,2.65,0,0,0,2.42,0,.74.74,0,0,0,0-1.4A2.71,2.71,0,0,0,260,429.81Z" style="fill:#455a64"></path><path d="M260,421.91a.73.73,0,0,0,0,1.39,2.65,2.65,0,0,0,2.42,0,.73.73,0,0,0,0-1.39A2.65,2.65,0,0,0,260,421.91Z" style="fill:#455a64"></path><path d="M266.87,425.86a.74.74,0,0,0,0,1.4,2.71,2.71,0,0,0,2.42,0,.74.74,0,0,0,0-1.4A2.65,2.65,0,0,0,266.87,425.86Z" style="fill:#455a64"></path><path d="M207,381.36c-2.66,0-10.85,3-10.85,13.57l3.42,2" style="fill:#455a64"></path><path d="M209.92,390.89V385c0-3.26-2.32-4.57-5.17-2.92a11.38,11.38,0,0,0-5.17,8.92v5.93Z" style="fill:#263238"></path><path d="M302.82,199.62c-2.24-6.38-4.58-5.42-7.38-.93a23.88,23.88,0,0,1-4.19,5.13l-6,3.34a4.44,4.44,0,0,1-1.73,2.56l5.71,7.72a53.54,53.54,0,0,0,5.85-3.75C302.85,207.66,304.23,203.62,302.82,199.62Z" style="fill:#37474f"></path><path d="M283.49,209.72c-4.36,3.2-14.77,5.91-21,7.71-2.63-6.36-7.94-15.89-11-22.58-5.26-11.54-10.49-15.07-18.15-14.23-3.66,6.42,2.71,16.29,7.06,23.21,4,6.42,12.93,22,14.52,24.68.23.39.49.76.74,1.11a6.14,6.14,0,0,0,7.37,1.91c7.43-3.22,16.25-8.63,23-12.33,1-.56,2.08-1.15,3.14-1.76C288.44,213.12,286.41,210.74,283.49,209.72Z" style="fill:#CD5954"></path><path d="M283.49,209.72c-4.36,3.2-14.77,5.91-21,7.71-2.63-6.36-7.94-15.89-11-22.58-5.26-11.54-10.49-15.07-18.15-14.23-3.66,6.42,2.71,16.29,7.06,23.21,4,6.42,12.93,22,14.52,24.68.23.39.49.76.74,1.11a6.14,6.14,0,0,0,7.37,1.91c7.43-3.22,16.25-8.63,23-12.33,1-.56,2.08-1.15,3.14-1.76C288.44,213.12,286.41,210.74,283.49,209.72Z" style="opacity:0.2"></path><polygon points="315.13 352.68 315.13 352.68 314.03 339.56 295.57 201.09 294.3 201.26 312.75 339.73 315.13 352.68" style="fill:#37474f"></polygon><path d="M300.35,212l-7.55,1.34-2.64-14.83a3.84,3.84,0,0,1,3.11-4.45h0a3.84,3.84,0,0,1,4.45,3.11Z" style="fill:#CD5954"></path><path d="M300.35,212l-7.55,1.34-2.64-14.83a3.84,3.84,0,0,1,3.11-4.45h0a3.84,3.84,0,0,1,4.45,3.11Z" style="opacity:0.2"></path><path d="M323.73,338.27l-19.33,2.57a15.34,15.34,0,0,1,19.33-2.57Z" style="fill:#CD5954"></path><path d="M291.13,204a13.64,13.64,0,0,0,.67-3.4,2.32,2.32,0,0,0-2-2.47c-.5,0-.46,1.23-1.4,3-1.2,2.32-2.58,3.26-3.22,6" style="fill:#37474f"></path><g id="freepik--character--inject-99"><path d="M227.05,175.17h-.54a19.34,19.34,0,0,1-19.35-19.34h0a20.41,20.41,0,0,1,20.41-20.41h0a19.37,19.37,0,0,1,19.37,19.37v.49A19.88,19.88,0,0,1,227.05,175.17Z" style="fill:#263238"></path><path d="M196.5,182.93h0c6.49.38,12-5.1,12.39-12.4V149h0a12.4,12.4,0,0,0-12.39,12.4Z" style="fill:#263238"></path><path d="M240.67,370.06s-.8.05-.92.69-.18,2-.5,3.25a18.34,18.34,0,0,0-.55,6.07c.27,1.42,3.53,3.55,5.76,3.93s5.38,2.58,7.13,4.22a17.09,17.09,0,0,0,9.91,3.9c3.72,0,6.32-1.24,7.54-3.24s-1.12-2.23-5.37-5l-3.31-2.15c-6.74-4.4-9.21-6.76-11.11-11.17Z" style="fill:#263238"></path><path d="M249.3,367.67c-.11-3.17,1.51-26.51,1.51-26.51l-13.19,1.48c3.12,18.61,3.37,24.95,3,27.66h0a2.53,2.53,0,0,0-.08.77c0,3.62,4.09,5.57,7.27,8,1.26.95,4.49,3.88,8.28,5.17,2.45.84,7,1.15,7.56-.33-3.88-3-9.15-6.83-12.23-10.2C250,372.08,249.41,370.84,249.3,367.67Z" style="fill:#b16668"></path><path d="M205.09,385.88s-.79.05-.92.69-.18,2-.5,3.24a18.64,18.64,0,0,0-.55,6.07c.27,1.43,3.53,3.56,5.76,3.93s5.38,2.58,7.13,4.23a17.16,17.16,0,0,0,9.91,3.9c3.72,0,6.32-1.25,7.55-3.24s-1.12-2.23-5.38-5l-3.3-2.14c-6.74-4.4-9.21-6.76-11.12-11.17Z" style="fill:#263238"></path><path d="M213.72,383.48c-.11-3.16,1.66-29.89,1.66-29.89l-12-1c1.5,18.83,2.09,30.84,1.73,33.55h0a3.06,3.06,0,0,0-.08.78c0,3.62,4.09,5.57,7.28,8,1.25.95,4.48,3.88,8.27,5.17,2.45.83,7,1.15,7.56-.34-3.87-2.95-9.14-6.82-12.22-10.19C214.4,387.89,213.84,386.65,213.72,383.48Z" style="fill:#b16668"></path><path d="M206.37,235.62c-7.2,15.71.88,75.77.88,75.77-.21,2.55-3.13,7.57-4.21,18.79-1.29,13.26,1.87,49.76,1.87,49.76a9.77,9.77,0,0,0,9.11.13s9.25-53.11,10.91-66.29c1.45-11.51,3.61-41.52,3.61-41.52L236.45,309a68,68,0,0,0-2.5,11.35c-.75,7.75,6.8,46.67,6.8,46.67s3.53,1.86,8.55-.17c0,0,3.34-50.27,4-59.61,1.18-15.69-3-64.63-5.86-73.92Z" style="fill:#CD5954"></path><path d="M206.37,235.62c-7.2,15.71.88,75.77.88,75.77-.21,2.55-3.13,7.57-4.21,18.79-1.29,13.26,1.87,49.76,1.87,49.76a9.77,9.77,0,0,0,9.11.13s9.25-53.11,10.91-66.29c1.45-11.51,3.61-41.52,3.61-41.52L236.45,309a68,68,0,0,0-2.5,11.35c-.75,7.75,6.8,46.67,6.8,46.67s3.53,1.86,8.55-.17c0,0,3.34-50.27,4-59.61,1.18-15.69-3-64.63-5.86-73.92Z" style="opacity:0.35000000000000003"></path><path d="M228.54,272.26l2.33-14.59s9.88-2.05,14.36-6.26c0,0-4.7,5.85-11.68,7.76l-2.62,11.24,4.58,34Z" style="opacity:0.2"></path><path d="M210.42,214.39a48.78,48.78,0,0,0,35.25-.47c2.84-7.13,3.59-11.64,2.39-16.35-2.22-8.74-10.86-17.26-14.68-16.95l-14.33.42h0c-9.22.63-9.87,5.09-12.17,10a15.76,15.76,0,0,0-.44,11.88Z" style="fill:#37474f"></path><path d="M245.67,213.92s-3.57,1.84-12.74,3-20.05-1.19-22.51-2.53l2.45,7.08s-3,7.28-6.5,14.15c16.12,9,36.26,4.27,41.11-2.3C247.68,231.93,246.44,221,245.67,213.92Z" style="fill:#ebebeb"></path><path d="M228.4,225.4a.31.31,0,0,1-.08-.26.5.5,0,0,1,.14-.27l2.95-2.83.22-.2a.64.64,0,0,1,.25-.12l1.06-.18a.3.3,0,0,1,.36.3v8.75a.4.4,0,0,1-.11.28.39.39,0,0,1-.25.15l-1.1.2a.33.33,0,0,1-.26-.07.3.3,0,0,1-.11-.24v-6.69l-1.92,1.85a.47.47,0,0,1-.27.12.36.36,0,0,1-.25-.1Z" style="fill:#37474f"></path><path d="M239.24,224.6a2,2,0,0,0,.52-.76,2,2,0,0,0,.12-.64,1.19,1.19,0,0,0-.34-.88,1.28,1.28,0,0,0-1.13-.19,1.71,1.71,0,0,0-1.09.56,2.62,2.62,0,0,0-.49,1,.64.64,0,0,1-.17.3.57.57,0,0,1-.24.13l-1.07.19a.38.38,0,0,1-.26-.06A.26.26,0,0,1,235,224a3.44,3.44,0,0,1,.31-1.2,4.19,4.19,0,0,1,.73-1.08,4.33,4.33,0,0,1,1.06-.83,4.08,4.08,0,0,1,1.32-.47,3.47,3.47,0,0,1,1.48,0,2.48,2.48,0,0,1,1,.53,2.26,2.26,0,0,1,.61.87,2.84,2.84,0,0,1,.19,1,4.54,4.54,0,0,1,0,.65,2.16,2.16,0,0,1-.19.65,4.07,4.07,0,0,1-.43.71,6.77,6.77,0,0,1-.76.84l-2.51,2.74,3.77-.67a.33.33,0,0,1,.26.06.32.32,0,0,1,.11.24v1a.48.48,0,0,1-.37.43l-6.33,1.11a.3.3,0,0,1-.36-.3v-.83a.72.72,0,0,1,.13-.42,2,2,0,0,1,.23-.28Z" style="fill:#37474f"></path><path d="M239.15,144.44c3,1.66,5.71,6.28,5.45,17.77-.23,9.74-3.39,12.15-5,12.84s-4.65.27-7.62-.22v5.84c2.09,2.83-6.54,4.36-12.24.35V168.08s-2,2.68-5.28.5-3.41-7.57-1.5-9.51,6-1.32,6.78,1.35c0,0,.19-2,1.26-2a24.67,24.67,0,0,0,9.32-2.61C237.57,151.85,238.16,148.42,239.15,144.44Z" style="fill:#b16668"></path><path d="M242.83,155.82l-2.72-1.3a1.44,1.44,0,0,1,2-.75A1.59,1.59,0,0,1,242.83,155.82Z" style="fill:#263238"></path><path d="M230.35,154.26l-2.55,1.61a1.45,1.45,0,0,1,.42-2.06A1.59,1.59,0,0,1,230.35,154.26Z" style="fill:#263238"></path><path d="M219.66,157.74l.17,6a2.89,2.89,0,0,0,3-3A3.14,3.14,0,0,0,219.66,157.74Z" style="fill:#263238"></path><path d="M208.89,138.58l5,3.28a2.89,2.89,0,0,0-.74-4.12A3.14,3.14,0,0,0,208.89,138.58Z" style="fill:#263238"></path><path d="M214.56,134.5l-.48,5.95a2.89,2.89,0,0,0,3.26-2.63A3.12,3.12,0,0,0,214.56,134.5Z" style="fill:#263238"></path><path d="M231.58,159.39a1.23,1.23,0,1,1-2.45.12,1.23,1.23,0,0,1,1.16-1.33A1.25,1.25,0,0,1,231.58,159.39Z" style="fill:#263238"></path><path d="M233,168l2.85.91a1.47,1.47,0,0,1-1.85,1A1.57,1.57,0,0,1,233,168Z" style="fill:#9a4a4d"></path><path d="M242.26,158.88a1.25,1.25,0,0,1-1.16,1.33,1.28,1.28,0,0,1-.13-2.55A1.25,1.25,0,0,1,242.26,158.88Z" style="fill:#263238"></path><path d="M235.11,160l.15,5.6,3.88-1.2-3.09-4.69A.51.51,0,0,0,235.11,160Z" style="fill:#9a4a4d"></path><path d="M232,174.83c-3.13-.41-9.58-2.27-10.58-4.81a6.55,6.55,0,0,0,2.26,3.25c1.92,1.65,8.32,3.51,8.32,3.51Z" style="fill:#9a4a4d"></path><path d="M210.42,214.39a26.84,26.84,0,0,0,4.73,1.47l-1.79-8.53A19.25,19.25,0,0,1,213,202a36.57,36.57,0,0,1,1-6.62l-6.6-3.4-1.19.83a16.19,16.19,0,0,0,.26,10Z" style="fill:#263238"></path><path d="M223.18,237.36a9.73,9.73,0,0,1-7.26-11.87,5.27,5.27,0,0,1,.16-.51,3.17,3.17,0,0,1,3.27-2.16,9.43,9.43,0,0,1-4-6l-.17-.95a42.41,42.41,0,0,1-4.73-1.47l2.45,7.08-.3.72c-.13.31-.3.71-.51,1.18s-.44,1-.71,1.64c-.85,1.94-2,4.5-3.3,7.2-.54,1.12-1.11,2.27-1.68,3.41.66.37,1.33.71,2,1l.51.24c.63.3,1.26.57,1.9.82l.15.07c.68.27,1.37.51,2.06.73l.52.17c.62.19,1.24.37,1.86.53l.25.07c.69.18,1.39.33,2.09.47.15,0,.31.06.47.09.62.12,1.23.22,1.85.31l.28,0c.7.1,1.4.17,2.1.23l.39,0c.63.05,1.25.09,1.87.11h.26c.7,0,1.4,0,2.08,0h.25c.65,0,1.29,0,1.92-.09h.18c.7-.05,1.39-.12,2.06-.2h.07c.66-.08,1.31-.18,1.95-.29h.11q2-.36,3.81-.87h0a30.42,30.42,0,0,0,3.42-1.18h0A46.83,46.83,0,0,1,223.18,237.36Z" style="fill:#e0e0e0"></path></g><path d="M248.69,159.33v-.1c-.14-1.61-.32-3.61-.54-4.79-.84-4.36-2.44-5.2-11.74-5.21s-14.49.81-15.34,5.17c-.23,1.22-.41,3.29-.56,5v.06a5.42,5.42,0,0,0,5.38,5.89h3.25a6.17,6.17,0,0,0,5.65-3.75c.28-.66.87-1.76,1.62-1.76s1.33,1.1,1.61,1.76c1,2.29,2.15,3.77,4.6,3.77h.56a5.52,5.52,0,0,0,5.51-6Zm-5.51,4.35h-.56c-1.8,0-2.36-1.11-3.08-2.77-.6-1.38-1.57-2.75-3.13-2.76s-2.55,1.38-3.15,2.75a4.5,4.5,0,0,1-4.12,2.76h-3.25a3.76,3.76,0,0,1-3.73-4.09c.14-1.58.33-3.7.55-4.85.52-2.69,3.74-3.83,13.7-3.81s9.59,1.15,10.1,3.85c.21,1.11.39,3.18.53,4.73A3.87,3.87,0,0,1,243.18,163.68Z" style="fill:#CD5954"></path><path d="M247,159.48a3.87,3.87,0,0,1-3.86,4.2h-.56c-1.8,0-2.36-1.11-3.08-2.77-.6-1.38-1.57-2.75-3.13-2.76s-2.55,1.38-3.15,2.75a4.5,4.5,0,0,1-4.12,2.76h-3.25a3.76,3.76,0,0,1-3.73-4.09c.14-1.58.33-3.7.55-4.85.52-2.69,3.74-3.83,13.7-3.81s9.59,1.15,10.1,3.85C246.72,155.86,246.9,157.93,247,159.48Z" style="fill:#37474f;opacity:0.71"></path><polygon points="106.15 380.71 106.15 380.71 114.24 370.32 194.59 256.05 193.54 255.31 113.19 369.58 106.15 380.71" style="fill:#37474f"></polygon><path d="M189.62,268.84l-6.46-4.13,9.41-14.55a3.45,3.45,0,0,1,4.76-1l.65.42A3.44,3.44,0,0,1,199,254.3Z" style="fill:#CD5954"></path><path d="M189.62,268.84l-6.46-4.13,9.41-14.55a3.45,3.45,0,0,1,4.76-1l.65.42A3.44,3.44,0,0,1,199,254.3Z" style="opacity:0.2"></path><path d="M122.25,376l-16-11.22a15.36,15.36,0,0,1,16,11.22Z" style="fill:#CD5954"></path><path d="M184.18,217.26c5.71-3.84,16.55-9.12,22.66-13.23,8.16-5.12,9.67-14.61,7.88-22.15-11.06.51-13.5,4.25-20.86,10.13-5.92,4.73-19.8,15.5-22.08,17.58-.33.31-.64.63-.93.95-1.9,2.11-1.45,5.27-.77,8,1.88,7.64,5.14,22.28,7.79,30.16l8.27-4.21C185.42,240.59,184.88,225.5,184.18,217.26Z" style="fill:#CD5954"></path><path d="M184.18,217.26c5.71-3.84,16.55-9.12,22.66-13.23,8.16-5.12,9.67-14.61,7.88-22.15-11.06.51-13.5,4.25-20.86,10.13-5.92,4.73-19.8,15.5-22.08,17.58-.33.31-.64.63-.93.95-1.9,2.11-1.45,5.27-.77,8,1.88,7.64,5.14,22.28,7.79,30.16l8.27-4.21C185.42,240.59,184.88,225.5,184.18,217.26Z" style="opacity:0.2"></path><path d="M192.7,250c-1.35-1.25-2.21-2.42-4.33-3.31a4.43,4.43,0,0,1-2.23-2.14,12.07,12.07,0,0,0-8.27,4.21c1,2.31,1.53,4.88,2.4,6.51,4.62,8.72,8.37,10.76,12.55,10.05,6.66-1.13,6.12-3.59,2.16-7.12a23.68,23.68,0,0,1-4.34-5" style="fill:#37474f"></path><path d="M203.88,366.26c-1.95.88-1.69,2.7-1.5,7.91s.71,8.91.66,11.86-2.2,5.67-1.74,10.88a9.75,9.75,0,0,0,4.23,3.83c3,1.49,6.75,1.49,8.44,3.08a16.37,16.37,0,0,0,8.76,4.89c6.35,1.58,10.25-.32,11.75-1.19,1.29-2.19.35-6.08-1.42-7.29-3.6-2.46-6.7-3.85-10.85-7.65s-6.11-5.21-5.43-14.46c.59-7.93,1.93-10.91-.38-11.86l-.26,1.55s-.93,1.58-5.77,1.58-6.35-1.16-6.35-1.16Z" style="fill:#37474f"></path><path d="M222.28,392.08l-.09-.07a.54.54,0,0,0-.54.06l-5.17,3a9.81,9.81,0,0,0-4.9,8.5v2.24l6.84,4v-2.24a9.81,9.81,0,0,1,4.92-8.51l4.63-2.67a.53.53,0,0,1,.5-.08Z" style="fill:#455a64"></path><path d="M228.7,396.68v.78l-.45-.29-.39.2-4.1,2.37a9,9,0,0,0-4.49,7.78v1.23l-.85,1v-2.24a9.81,9.81,0,0,1,4.92-8.51l4.63-2.67C228.37,396.1,228.7,396.26,228.7,396.68Z" style="fill:#263238"></path><path d="M237.72,350.44c-2,.88-1.19,2.72-.64,7.7a108.47,108.47,0,0,1,1,12.07c0,3-2.19,5.67-1.74,10.88a9.81,9.81,0,0,0,4.23,3.84c3,1.48,6.76,1.49,8.44,3.08a16.44,16.44,0,0,0,8.77,4.88c6.35,1.59,10.24-.32,11.74-1.18,1.29-2.2.35-6.09-1.42-7.3-3.6-2.45-6.7-3.85-10.85-7.64s-6.09-5.2-5.75-14.47c.37-9.88,1.24-10.9-1.06-11.86l-.11,1.55s-.1,1.16-4.92,1.59c-5.2.46-7.28-1-7.28-1Z" style="fill:#37474f"></path><path d="M256.53,376.26l-.09-.07a.54.54,0,0,0-.54.06l-5.17,3a9.83,9.83,0,0,0-4.91,8.51V390l6.85,4v-2.25a9.81,9.81,0,0,1,4.91-8.5l4.63-2.67a.55.55,0,0,1,.51-.08Z" style="fill:#455a64"></path><path d="M262.94,380.86v.78l-.44-.29-.4.2-4.1,2.37a9,9,0,0,0-4.49,7.77v1.24l-.84,1v-2.25a9.81,9.81,0,0,1,4.91-8.5l4.63-2.67C262.61,380.28,262.94,380.44,262.94,380.86Z" style="fill:#263238"></path></g></svg>