<svg xmlns="http://www.w3.org/2000/svg" viewBox="0 0 500 500"><g id="freepik--background-complete--inject-21"><rect y="382.4" width="500" height="0.25" style="fill:#ebebeb"></rect><rect x="416.78" y="398.49" width="33.12" height="0.25" style="fill:#ebebeb"></rect><rect x="322.53" y="401.21" width="8.69" height="0.25" style="fill:#ebebeb"></rect><rect x="368.11" y="389.21" width="47.67" height="0.25" style="fill:#ebebeb"></rect><rect x="52.46" y="390.89" width="23.68" height="0.25" style="fill:#ebebeb"></rect><rect x="85.04" y="390.89" width="25.85" height="0.25" style="fill:#ebebeb"></rect><rect x="131.47" y="395.11" width="64.64" height="0.25" style="fill:#ebebeb"></rect><path d="M237,337.8H43.91a5.71,5.71,0,0,1-5.7-5.71V60.66A5.71,5.71,0,0,1,43.91,55H237a5.71,5.71,0,0,1,5.71,5.71V332.09A5.71,5.71,0,0,1,237,337.8ZM43.91,55.2a5.46,5.46,0,0,0-5.45,5.46V332.09a5.46,5.46,0,0,0,5.45,5.46H237a5.47,5.47,0,0,0,5.46-5.46V60.66A5.47,5.47,0,0,0,237,55.2Z" style="fill:#ebebeb"></path><path d="M453.31,337.8H260.21a5.72,5.72,0,0,1-5.71-5.71V60.66A5.72,5.72,0,0,1,260.21,55h193.1A5.71,5.71,0,0,1,459,60.66V332.09A5.71,5.71,0,0,1,453.31,337.8ZM260.21,55.2a5.47,5.47,0,0,0-5.46,5.46V332.09a5.47,5.47,0,0,0,5.46,5.46h193.1a5.47,5.47,0,0,0,5.46-5.46V60.66a5.47,5.47,0,0,0-5.46-5.46Z" style="fill:#ebebeb"></path><rect x="299.04" y="96.78" width="127.06" height="285.62" transform="translate(725.14 479.18) rotate(180)" style="fill:#f0f0f0"></rect><rect x="299.04" y="96.78" width="124.38" height="285.62" transform="translate(722.46 479.18) rotate(180)" style="fill:#f5f5f5"></rect><rect x="224.9" y="184.98" width="272.66" height="109.22" transform="translate(600.82 -121.64) rotate(90)" style="fill:#ebebeb"></rect><path d="M373.68,86.38H374a7,7,0,0,1,7,7V167.1a7,7,0,0,1-7,7h-.33a32.27,32.27,0,0,1-32.27-32.27V118.65a32.27,32.27,0,0,1,32.27-32.27Z" transform="translate(491.49 -230.97) rotate(90)" style="fill:#f5f5f5"></path><rect x="262.58" y="216.44" width="197.3" height="87.75" rx="10.35" transform="translate(621.55 -100.91) rotate(90)" style="fill:#f5f5f5"></rect><path d="M325.87,244.59a6.48,6.48,0,1,1-6.48-6.48A6.48,6.48,0,0,1,325.87,244.59Z" style="fill:#e0e0e0"></path><rect x="171.27" y="238.61" width="272.66" height="1.97" transform="translate(547.19 -68.01) rotate(90)" style="fill:#f0f0f0"></rect><rect x="77.22" y="80.38" width="149.53" height="119.9" transform="translate(303.98 280.67) rotate(180)" style="fill:#e6e6e6"></rect><rect x="66.8" y="80.38" width="157.7" height="119.9" transform="translate(291.29 280.67) rotate(180)" style="fill:#f0f0f0"></rect><rect x="98.91" y="74.7" width="93.48" height="131.28" transform="translate(285.98 -5.31) rotate(90)" style="fill:#fff"></rect><path d="M98.63,140.29c0-2,.35-3.37,1.07-4.16a4.17,4.17,0,0,1,3.26-1.19,5,5,0,0,1,1.73.26,3.07,3.07,0,0,1,1.1.68,3.33,3.33,0,0,1,.67.87,4.49,4.49,0,0,1,.4,1.07,10.25,10.25,0,0,1,.29,2.44,7.12,7.12,0,0,1-1,4.15,3.82,3.82,0,0,1-3.31,1.32,4.64,4.64,0,0,1-2.13-.42,3.48,3.48,0,0,1-1.33-1.23,4.72,4.72,0,0,1-.58-1.58A10.77,10.77,0,0,1,98.63,140.29Zm2.87,0a7.18,7.18,0,0,0,.35,2.72,1.11,1.11,0,0,0,1,.73,1.06,1.06,0,0,0,.77-.31,2,2,0,0,0,.48-1,10.38,10.38,0,0,0,.15-2.08,7.43,7.43,0,0,0-.35-2.8,1.14,1.14,0,0,0-1.06-.71,1.07,1.07,0,0,0-1,.73A7.76,7.76,0,0,0,101.5,140.3Z" style="fill:#e0e0e0"></path><path d="M114.91,134.94v10.61H112v-7a8.24,8.24,0,0,1-1.38.87,9.8,9.8,0,0,1-1.66.64v-2.37a7,7,0,0,0,2.29-1.15,4.44,4.44,0,0,0,1.28-1.65Z" style="fill:#e0e0e0"></path><path d="M118.06,140.29c0-2,.36-3.37,1.08-4.16a4.17,4.17,0,0,1,3.26-1.19,5,5,0,0,1,1.73.26,3.16,3.16,0,0,1,1.1.68,3.56,3.56,0,0,1,.67.87,4.49,4.49,0,0,1,.4,1.07,10.25,10.25,0,0,1,.29,2.44,7.12,7.12,0,0,1-1,4.15,3.83,3.83,0,0,1-3.31,1.32,4.64,4.64,0,0,1-2.13-.42,3.48,3.48,0,0,1-1.33-1.23,4.71,4.71,0,0,1-.59-1.58A10.77,10.77,0,0,1,118.06,140.29Zm2.88,0a7.18,7.18,0,0,0,.35,2.72,1.11,1.11,0,0,0,1,.73,1.06,1.06,0,0,0,.77-.31,2,2,0,0,0,.47-1,9.53,9.53,0,0,0,.16-2.08,7.17,7.17,0,0,0-.36-2.8,1.12,1.12,0,0,0-1-.71,1.07,1.07,0,0,0-1,.73A7.76,7.76,0,0,0,120.94,140.3Z" style="fill:#e0e0e0"></path><path d="M134.35,134.94v10.61h-2.93v-7a8.24,8.24,0,0,1-1.38.87,9.61,9.61,0,0,1-1.67.64v-2.37a6.93,6.93,0,0,0,2.3-1.15,4.54,4.54,0,0,0,1.28-1.65Z" style="fill:#e0e0e0"></path><path d="M137.5,140.29c0-2,.36-3.37,1.07-4.16a4.21,4.21,0,0,1,3.27-1.19,4.9,4.9,0,0,1,1.72.26,3.12,3.12,0,0,1,1.11.68,3.56,3.56,0,0,1,.67.87,5,5,0,0,1,.4,1.07,10.25,10.25,0,0,1,.29,2.44,7.12,7.12,0,0,1-1,4.15,3.83,3.83,0,0,1-3.31,1.32,4.64,4.64,0,0,1-2.13-.42,3.48,3.48,0,0,1-1.33-1.23,4.71,4.71,0,0,1-.59-1.58A10.77,10.77,0,0,1,137.5,140.29Zm2.88,0a7,7,0,0,0,.35,2.72,1.09,1.09,0,0,0,1.79.42,2,2,0,0,0,.47-1,10.21,10.21,0,0,0,.16-2.08,7.17,7.17,0,0,0-.36-2.8,1.12,1.12,0,0,0-1-.71,1.07,1.07,0,0,0-1,.73A7.52,7.52,0,0,0,140.38,140.3Z" style="fill:#e0e0e0"></path><path d="M147.22,140.29c0-2,.36-3.37,1.07-4.16a4.2,4.2,0,0,1,3.27-1.19,4.9,4.9,0,0,1,1.72.26,3.21,3.21,0,0,1,1.11.68,3.56,3.56,0,0,1,.67.87,5,5,0,0,1,.39,1.07,9.77,9.77,0,0,1,.3,2.44,7.12,7.12,0,0,1-1,4.15,3.83,3.83,0,0,1-3.31,1.32,4.64,4.64,0,0,1-2.13-.42,3.48,3.48,0,0,1-1.33-1.23,4.71,4.71,0,0,1-.59-1.58A10.77,10.77,0,0,1,147.22,140.29Zm2.88,0a7,7,0,0,0,.35,2.72,1.09,1.09,0,0,0,1,.73,1,1,0,0,0,.76-.31,1.88,1.88,0,0,0,.48-1,10.38,10.38,0,0,0,.15-2.08,7.23,7.23,0,0,0-.35-2.8,1.12,1.12,0,0,0-1-.71,1.07,1.07,0,0,0-1,.73A7.52,7.52,0,0,0,150.1,140.3Z" style="fill:#e0e0e0"></path><path d="M163.51,134.94v10.61h-2.93v-7a9.13,9.13,0,0,1-1.38.87,9.61,9.61,0,0,1-1.67.64v-2.37a7,7,0,0,0,2.3-1.15,4.54,4.54,0,0,0,1.28-1.65Z" style="fill:#e0e0e0"></path><path d="M166.66,140.29c0-2,.36-3.37,1.07-4.16a4.19,4.19,0,0,1,3.26-1.19,4.93,4.93,0,0,1,1.73.26,3.21,3.21,0,0,1,1.11.68,3.83,3.83,0,0,1,.67.87,5,5,0,0,1,.39,1.07,9.77,9.77,0,0,1,.29,2.44,7.12,7.12,0,0,1-1,4.15,3.81,3.81,0,0,1-3.3,1.32,4.64,4.64,0,0,1-2.13-.42,3.41,3.41,0,0,1-1.33-1.23,4.71,4.71,0,0,1-.59-1.58A10.77,10.77,0,0,1,166.66,140.29Zm2.88,0a7,7,0,0,0,.35,2.72,1.09,1.09,0,0,0,1,.73,1,1,0,0,0,.76-.31,1.88,1.88,0,0,0,.48-1,10.38,10.38,0,0,0,.15-2.08,7.23,7.23,0,0,0-.35-2.8,1.13,1.13,0,0,0-1.06-.71,1.07,1.07,0,0,0-1,.73A7.52,7.52,0,0,0,169.54,140.3Z" style="fill:#e0e0e0"></path><path d="M176.38,140.29c0-2,.36-3.37,1.07-4.16a4.17,4.17,0,0,1,3.26-1.19,4.93,4.93,0,0,1,1.73.26,3.21,3.21,0,0,1,1.11.68,3.83,3.83,0,0,1,.67.87,5,5,0,0,1,.39,1.07,9.77,9.77,0,0,1,.29,2.44,7.12,7.12,0,0,1-1,4.15,3.81,3.81,0,0,1-3.3,1.32,4.64,4.64,0,0,1-2.13-.42,3.41,3.41,0,0,1-1.33-1.23,4.71,4.71,0,0,1-.59-1.58A10.77,10.77,0,0,1,176.38,140.29Zm2.87,0a6.93,6.93,0,0,0,.36,2.72,1.09,1.09,0,0,0,1,.73,1,1,0,0,0,.76-.31,1.88,1.88,0,0,0,.48-1,10.38,10.38,0,0,0,.15-2.08,7.43,7.43,0,0,0-.35-2.8,1.13,1.13,0,0,0-1.06-.71,1.08,1.08,0,0,0-1,.73A7.76,7.76,0,0,0,179.25,140.3Z" style="fill:#e0e0e0"></path><path d="M192.67,134.94v10.61h-2.93v-7a9.13,9.13,0,0,1-1.38.87,9.94,9.94,0,0,1-1.67.64v-2.37a7,7,0,0,0,2.3-1.15,4.65,4.65,0,0,0,1.28-1.65Z" style="fill:#e0e0e0"></path><polygon points="183.61 382.4 221.1 382.4 220.43 244.59 183.61 257.31 183.61 382.4" style="fill:#ebebeb"></polygon><polygon points="74.34 382.4 215.99 382.4 221.1 236 79.45 236 74.34 382.4" style="fill:#e0e0e0"></polygon><polygon points="66.56 382.4 212.6 382.4 217.71 236 71.67 236 66.56 382.4" style="fill:#f5f5f5"></polygon><polygon points="201.47 370.86 205.77 247.53 82.8 247.53 78.5 370.86 201.47 370.86" style="fill:#fff"></polygon><polygon points="147.72 247.53 127.55 247.53 90.3 370.86 110.46 370.86 147.72 247.53" style="fill:#f5f5f5"></polygon><polygon points="169.88 247.53 160.92 247.53 123.67 370.86 132.63 370.86 169.88 247.53" style="fill:#f5f5f5"></polygon></g><g id="freepik--Shadow--inject-21"><ellipse id="freepik--path--inject-21" cx="250" cy="416.24" rx="193.89" ry="11.32" style="fill:#f5f5f5"></ellipse></g><g id="freepik--Smartphone--inject-21"><rect x="366.83" y="351.11" width="5.23" height="1" transform="translate(-5.6 697.24) rotate(-86.25)" style="fill:#CD5954"></rect><rect x="360.79" y="333.6" width="19.59" height="1" transform="matrix(0.07, -1, 1, 0.07, 12.97, 682.05)" style="fill:#CD5954"></rect><path d="M346.74,416.24H225.05a14.34,14.34,0,0,1-14.44-15.46l19.11-291.37A16.8,16.8,0,0,1,246.19,94H367.88a14.34,14.34,0,0,1,14.44,15.46L363.21,400.78A16.8,16.8,0,0,1,346.74,416.24Z" style="fill:#CD5954"></path><path d="M376,191.54H373.9a2.69,2.69,0,0,1-2.71-2.9l2.46-37.47a3.16,3.16,0,0,1,3.09-2.9h2.07a2.7,2.7,0,0,1,2.71,2.9l-2.46,37.47A3.15,3.15,0,0,1,376,191.54Z" style="fill:#CD5954"></path><path d="M226.1,169.4h-2.38a2.55,2.55,0,0,1-2.57-2.75l1-15.64a3,3,0,0,1,2.92-2.74h2.38a2.55,2.55,0,0,1,2.57,2.74l-1,15.64A3,3,0,0,1,226.1,169.4Z" style="fill:#CD5954"></path><path d="M224.27,197.33h-2.39a2.54,2.54,0,0,1-2.56-2.74l1-15.64a3,3,0,0,1,2.92-2.75h2.38a2.55,2.55,0,0,1,2.56,2.75l-1,15.64A3,3,0,0,1,224.27,197.33Z" style="fill:#CD5954"></path><path d="M344.16,416.24H222.47A14.34,14.34,0,0,1,208,400.78l19.12-291.37A16.8,16.8,0,0,1,243.62,94H365.31a14.34,14.34,0,0,1,14.44,15.46L360.63,400.78A16.8,16.8,0,0,1,344.16,416.24Z" style="fill:#CD5954"></path><path d="M344.16,416.24H222.47A14.34,14.34,0,0,1,208,400.78l19.12-291.37A16.8,16.8,0,0,1,243.62,94H365.31a14.34,14.34,0,0,1,14.44,15.46L360.63,400.78A16.8,16.8,0,0,1,344.16,416.24Z" style="fill:#fff;opacity:0.6000000000000001"></path><path d="M356.35,398.63H213a3.11,3.11,0,0,1-3.11-3.32L228.28,115a3.13,3.13,0,0,1,3.11-2.92H374.74a3.13,3.13,0,0,1,3.12,3.33L359.47,395.72A3.12,3.12,0,0,1,356.35,398.63Z" style="fill:#fff"></path><g style="opacity:0.1"><path d="M347,128.73a52.27,52.27,0,0,0,0-5.32,5.91,5.91,0,0,1-3-3.08,4.52,4.52,0,0,0-.11.53A8.67,8.67,0,0,0,347,128.73Z" style="fill:none"></path><path d="M347,129.49a9.41,9.41,0,0,1-3.72-8.79,7.86,7.86,0,0,1,.35-1.39c0-.08-.05-.16-.07-.24a7,7,0,0,0-2,3.28,8.12,8.12,0,0,0,.75,6.11,9.06,9.06,0,0,0,4.38,4Q346.85,131,347,129.49Z" style="fill:none"></path><path d="M287,378.23c.43,2.32-.29,6.7,1.52,12.56,1,3.1,5.46,3.33,7.9-.51s.76-8.82.08-13.58c-.49-3.46,1.57-5.51,1.58-7.55a8.11,8.11,0,0,1-4.65-.28,9.1,9.1,0,0,1-3.52-2.3,22.56,22.56,0,0,0-3.14,1.49c-1-.09-1.9.52-1.75,1.24C285.61,372.29,286.26,374.46,287,378.23Z" style="fill:#CD5954"></path><path d="M293.39,368.87a8.11,8.11,0,0,0,4.65.28,7.05,7.05,0,0,0,5.06-4.5c4.27-12,11-33.54,19.35-51a9.92,9.92,0,0,0,7-5.9,11.22,11.22,0,0,0-.61-10.11c5.53-15.75,12.68-39.36,17.76-56.59.24,1.89.49,3.86.74,5.88,0,.22.05.44.08.66.13,1.09.27,2.18.4,3.3,0,.14,0,.29,0,.44.14,1.15.28,2.32.42,3.5h0c1.13,9.66,2.24,20.11,3.07,30,.62,7.47,1.66,14.69,2.37,21a10.49,10.49,0,0,0-2.5,5.65,12,12,0,0,0,3.3,9.92c.42,22.36,2.67,52.95,3.78,67a8,8,0,0,0,1.36,3.83L370.6,226a16,16,0,0,0-2.73-2.85,19,19,0,0,0,.2-5.07,20.16,20.16,0,0,0-.72-3.73,12.91,12.91,0,0,0,4.28-4.07l3.84-58.52a13.83,13.83,0,0,0-8.32-7.57c-.86-.29-1.77-.57-2.7-.84-.74-.22-1.5-.42-2.27-.62h0c-5.15-2.08-6-5.48-5.47-9,.07-.45.16-.89.27-1.34l.12-.44A10.26,10.26,0,0,0,368.63,125a28.13,28.13,0,0,0,.83-13h-28.3a14.82,14.82,0,0,0,2.13,6.27,7.55,7.55,0,0,0-2.43,3.77,8.75,8.75,0,0,0,.81,6.61,9.8,9.8,0,0,0,4.84,4.37c-.54,2.86-1.54,5.29-3.28,6.55h0c-1.2-.13-2.42-.24-3.61-.33-1-.06-1.92-.12-2.84-.16a7.3,7.3,0,0,0-6.61,3.33,5.4,5.4,0,0,0-1.47.8c-1.24,1-2.31,1.85-3.4,2.83s-2.15,1.92-3.2,2.91c-2.08,2-4.1,4.05-6,6.22a77.14,77.14,0,0,0-9,12.09c-1.38.3-2.94,2.26-3.79,5-.91,2.87-.74,5.64.32,6.74,0,.39,0,.79-.05,1.18a77.88,77.88,0,0,0,.39,9.23,126.76,126.76,0,0,0,2.68,16.07,3.89,3.89,0,0,0-.86,2.4,20.25,20.25,0,0,0,.69,5.1l1,6.36,8.81.27.81-6.79-3.1-6.09a4.67,4.67,0,0,0-.71-1c0-5.24,0-10.53.24-15.65.11-2.77.33-5.5.67-8.07a28.51,28.51,0,0,1,.68-3.58c.15-.53.31-1,.47-1.43.08-.2.16-.35.24-.52l.1-.15.05-.08.12-.18a69,69,0,0,1,4.53-6.09c1.68-2,3.44-3.91,5.27-5.8q2-2,4-4c0,.31,0,.63,0,1,0,.49,0,1,0,1.46,0,1.35,0,2.69,0,4v.29c0,1.29-.05,2.57-.1,3.83h0c-.16,5-.47,9.81-.85,14.2-.33,3.86-.71,7.43-1.08,10.63A15.73,15.73,0,0,0,331,207a18.07,18.07,0,0,0-2.44,9.11,12,12,0,0,0-6.42,8.49c-3.22,16.39-9.23,45.16-15.37,65.83a10.2,10.2,0,0,0-4.52,5,11.27,11.27,0,0,0-.08,8.7c-6.66,17-11.73,42.54-14.56,54.73a8.54,8.54,0,0,0,2.3,7.75A9.1,9.1,0,0,0,293.39,368.87Zm50.49-248a4.52,4.52,0,0,1,.11-.53,5.91,5.91,0,0,0,3,3.08,52.27,52.27,0,0,1,0,5.32A8.67,8.67,0,0,1,343.88,120.86Zm-1.64,7.6a8.12,8.12,0,0,1-.75-6.11,7,7,0,0,1,2-3.28c0,.08.05.16.07.24a7.86,7.86,0,0,0-.35,1.39,9.41,9.41,0,0,0,3.72,8.79q-.1,1.53-.33,3A9.06,9.06,0,0,1,342.24,128.46Z" style="fill:#CD5954"></path></g><path d="M289.32,101.1h29.34a1.78,1.78,0,0,1,1.79,1.9h0a2.08,2.08,0,0,1-2,1.91H289.07a1.77,1.77,0,0,1-1.78-1.91h0A2.07,2.07,0,0,1,289.32,101.1Z" style="fill:#CD5954;opacity:0.2"></path></g><g id="freepik--Character--inject-21"><path d="M172.57,153.43c-.56,6.37-1.39,12.56-2.48,18.84-.56,3.13-1.16,6.26-1.93,9.42a74.93,74.93,0,0,1-2.89,9.67c-.34.85-.71,1.71-1.17,2.63a16.46,16.46,0,0,1-1.79,2.86,37.53,37.53,0,0,1-3.65,4c-2.42,2.32-4.88,4.35-7.37,6.34A172.7,172.7,0,0,1,135.77,218a3.14,3.14,0,0,1-3.91-4.86l0,0c4.3-4.41,8.68-8.8,12.89-13.17,2.1-2.18,4.18-4.39,6-6.57a33.79,33.79,0,0,0,2.38-3.11,6.48,6.48,0,0,0,.57-1.15c.2-.48.4-1.06.59-1.67a77.09,77.09,0,0,0,1.93-8.28c.52-2.92,1-5.89,1.43-8.88.86-6,1.62-12.09,2.32-18.06v-.08a6.3,6.3,0,0,1,12.53,1.29Z" style="fill:#263238"></path><path d="M164.78,194.88c-1.4,3.32-3.73,5.5-5.21,4.87s-1.55-3.81-.15-7.13,3.73-5.49,5.21-4.87S166.18,191.57,164.78,194.88Z" style="fill:#CD5954"></path><path d="M131.38,213.15l-3,2,4.73,8.4a47.19,47.19,0,0,0,3.42-5.89,3.58,3.58,0,0,0-.13-3.35h0A3.55,3.55,0,0,0,131.38,213.15Z" style="fill:#CD5954"></path><polygon points="125.31 220.42 129.91 227.19 133.13 223.55 128.4 215.15 125.31 220.42" style="fill:#CD5954"></polygon><path d="M276.27,374l4.31-9.17a.72.72,0,0,1,.81-.4l7.39,1.66a1.22,1.22,0,0,1,.82,1.73c-1.44,2.92-2.62,5-4.37,8.72-1.07,2.28-2.77,8-6,13.6-1.71,3-4.56.89-4-.47,2.64-6.71,1.76-11.59,1-14.23A2,2,0,0,1,276.27,374Z" style="fill:#263238"></path><path d="M188.51,402.51l9.08.07a.73.73,0,0,1,.71.57l1.58,7.4a1.21,1.21,0,0,1-1.21,1.47c-3.27-.08-8-.31-12.12-.34-4.81,0-9,.19-14.62.15-3.41,0-4.33-3.48-2.9-3.79,6.52-1.37,11.83-1.48,17.48-4.9A3.81,3.81,0,0,1,188.51,402.51Z" style="fill:#263238"></path><path d="M189.11,311.44c1.32,5.82-1.77,11.48-6.89,12.64s-10.35-2.62-11.67-8.44,1.77-11.48,6.89-12.64S187.79,305.61,189.11,311.44Z" style="fill:#263238"></path><path d="M191.48,396h0a7.46,7.46,0,0,0,7.52-7.59c-.25-15.23-1-49.86-3.1-72.4-.72-7.85.28-19.18.12-31.16-.19-15.1.16-31.56.58-44.48.07-2.16.14-4.23.21-6.18a14,14,0,0,0-16.24-14.31h0a14,14,0,0,0-11.72,14c.35,21.28,1.43,65,4.55,83.57,3.44,20.48,8.67,57.33,10.74,72.1A7.47,7.47,0,0,0,191.48,396Z" style="fill:#CD5954"></path><path d="M198.7,311.44c1.32,5.82-1.77,11.48-6.9,12.64s-10.35-2.62-11.66-8.44S181.9,304.16,187,303,197.38,305.61,198.7,311.44Z" style="fill:#263238"></path><path d="M185.82,220c-1.35,8.09,4.14,22.85,10.39,34.85.11-5.12.24-10,.39-14.49.06-2.16.14-4.24.21-6.18A14,14,0,0,0,185.82,220Z" style="opacity:0.2"></path><circle cx="192.66" cy="218.07" r="19.73" transform="translate(-69.12 91.01) rotate(-22.65)" style="fill:#263238"></circle><path d="M237,298.86c2.79,5.27,1.29,11.54-3.36,14s-10.67.17-13.46-5.11-1.29-11.54,3.36-14S234.16,293.58,237,298.86Z" style="fill:#263238"></path><path d="M202.91,215.17a13.7,13.7,0,0,0-9.32,18.2c8.11,20.92,23.13,59,30.93,74.38,9.17,18.06,29.06,44.19,38.12,55.74a8,8,0,0,0,10.83,1.7h0a8,8,0,0,0,2.32-10.92c-6.82-11-20.54-33.49-28.82-50.49-9.38-19.28-21.48-58.83-27.45-79.21a13.7,13.7,0,0,0-16.61-9.4Z" style="fill:#CD5954"></path><ellipse cx="237.79" cy="299.84" rx="9.52" ry="10.81" transform="translate(-112.59 145.96) rotate(-27.87)" style="fill:#263238"></ellipse><path d="M196.65,139.16a8.12,8.12,0,0,1,8.49,8.06c.08,6.76.57,13.41,1.27,19.71s1.67,12.55,2.67,18c.7,3.86,1.43,7.43,2.11,10.63A14.9,14.9,0,0,1,199,213.38L182.93,216a14.92,14.92,0,0,1-16.65-10.29c-7.38-23.8-8.15-41.21-7.75-50.63a12.09,12.09,0,0,1,8.23-10.93c.84-.29,1.72-.57,2.62-.84.72-.22,1.46-.42,2.21-.62a165.89,165.89,0,0,1,18.66-3.07c1.19-.13,2.39-.24,3.57-.33C194.79,139.26,195.73,139.2,196.65,139.16Z" style="fill:#CD5954"></path><path d="M196.17,215.8a.26.26,0,0,1-.26-.22.27.27,0,0,1,.22-.31,14.63,14.63,0,0,0,12-17.46c-.81-3.8-1.5-7.28-2.11-10.64-1.15-6.35-2-12.25-2.67-18.06-.77-6.92-1.2-13.56-1.27-19.74a.27.27,0,0,1,.26-.27h0a.28.28,0,0,1,.27.27c.07,6.16.5,12.78,1.26,19.68.65,5.8,1.52,11.69,2.67,18,.61,3.36,1.3,6.84,2.11,10.63a15.15,15.15,0,0,1-12.39,18.09Z" style="fill:#263238"></path><path d="M197.1,153.33a35,35,0,0,0,9.78,17.44c-.18-1.26-.33-2.54-.47-3.83-.54-4.85-.95-9.9-1.13-15.06Z" style="opacity:0.2"></path><path d="M182.91,133.83a8.66,8.66,0,0,1-3.1-16.74h0a8.65,8.65,0,1,1,3.1,16.74ZM180,117.7a8,8,0,1,0,10.29,4.65A8,8,0,0,0,180,117.7Z" style="fill:#CD5954"></path><path d="M180.08,131.46a8.49,8.49,0,0,1-4.41-1.23A8.66,8.66,0,0,1,178,114.42h0a8.65,8.65,0,1,1,2.12,17Zm-2-16.41A8,8,0,0,0,176,129.67a7.92,7.92,0,0,0,10.91-2.75,8,8,0,0,0-2.76-11,7.88,7.88,0,0,0-6-.9Z" style="fill:#263238"></path><path d="M180,119.25a8.6,8.6,0,0,1-2.12-16.92h0a8.6,8.6,0,0,1,9.45,12.74,8.5,8.5,0,0,1-5.25,3.92A8.84,8.84,0,0,1,180,119.25Zm-2-16.41A8.06,8.06,0,0,0,182,118.48a7.94,7.94,0,0,0,4.92-3.68,8.07,8.07,0,0,0-8.86-12Z" style="fill:#263238"></path><path d="M176,116.63a8.6,8.6,0,0,1-2.12-16.92h0a8.59,8.59,0,0,1,4.2,16.66A8.84,8.84,0,0,1,176,116.63Zm-2-16.41A8.06,8.06,0,0,0,178,115.85a7.91,7.91,0,0,0,4.92-3.67,8.07,8.07,0,0,0-8.86-12Z" style="fill:#263238"></path><ellipse cx="176.27" cy="112.07" rx="13.41" ry="13.47" transform="translate(-28.33 70) rotate(-20.83)" style="fill:#CD5954;opacity:0.7000000000000001"></ellipse><path d="M185,119c-.19,6.2.44,17.39,5.3,20.7-2.56,3.68-14.33,11.46-14.33,11.46s-5.15-6.2-4.33-8.39c6.43-2.7,5.44-7.64,3.51-12.11Z" style="fill:#263238"></path><path d="M180.93,123.71l-5.82,6.9a19.75,19.75,0,0,1,1.12,3.21c2.49-.79,5.54-4.17,5.37-6.89A9,9,0,0,0,180.93,123.71Z" style="opacity:0.2"></path><path d="M184.18,109.8c.83,8.21,1.74,13-1.68,17.82-5.14,7.29-15.79,5.22-19.06-2.58-2.94-7-3.82-19.26,3.61-23.8A11.25,11.25,0,0,1,184.18,109.8Z" style="fill:#CD5954"></path><path d="M205.13,143.29c1.33,1,2.48,1.85,3.67,2.83s2.33,1.92,3.48,2.91c2.27,2,4.49,4.05,6.62,6.22a83.69,83.69,0,0,1,11.7,14.5l.18.27.22.39.43.79c.22.48.46,1,.63,1.45a21.4,21.4,0,0,1,.84,2.67,40.78,40.78,0,0,1,.88,4.91,78.76,78.76,0,0,1,.5,9.23,123.55,123.55,0,0,1-1.38,17.85,3.14,3.14,0,0,1-6.23-.17v-.08c-.52-5.67-1.1-11.42-1.86-17-.38-2.77-.86-5.5-1.44-8.07a30.55,30.55,0,0,0-1-3.58c-.2-.53-.4-1-.6-1.43-.1-.2-.2-.35-.29-.52a.79.79,0,0,1-.12-.15l-.06-.08-.13-.18C219.58,174,217.82,172,216,170s-3.81-3.91-5.82-5.8-4.09-3.73-6.21-5.54c-1.05-.92-2.12-1.81-3.19-2.69l-3.17-2.56-.15-.12a6.3,6.3,0,0,1,7.67-10Z" style="fill:#263238"></path><ellipse cx="230.61" cy="173.42" rx="2.91" ry="6.51" transform="translate(-48.67 100.91) rotate(-22.39)" style="fill:#CD5954"></ellipse><path d="M225.92,206.78l-2.51,6.09L234,213a19.59,19.59,0,0,0,.2-5.1,4.33,4.33,0,0,0-4.91-3.79h0A4.33,4.33,0,0,0,225.92,206.78Z" style="fill:#CD5954"></path><polygon points="224.87 219.66 233.65 219.39 234.03 213.03 223.41 212.87 224.87 219.66" style="fill:#CD5954"></polygon><path d="M184.93,112.17c2.12.23,3.54,3,3.19,6.14s-2.35,5.53-4.47,5.29-3.53-3-3.18-6.15S182.82,111.93,184.93,112.17Z" style="fill:#263238"></path><path d="M170.93,114.37l.21-1.44a1,1,0,0,1,1-.88l3.59-.24a1,1,0,0,1,1,1.47l-.4.85a1,1,0,0,1-.69.57l-3.4.82A1,1,0,0,1,170.93,114.37Z" style="fill:#263238;opacity:0.7000000000000001"></path><g style="opacity:0.7000000000000001"><path d="M165.44,114.93l-.58-2.43a.43.43,0,0,0-.39-.33l-1.71-.11a.43.43,0,0,0-.44.56l.57,1.7a.39.39,0,0,0,.22.25l1.72.84A.43.43,0,0,0,165.44,114.93Z" style="fill:#263238"></path></g></g></svg>
